<?xml version="1.0" encoding="UTF-8" standalone="no"?>
<svg
   width="170.08205pt"
   height="140.10938pt"
   viewBox="0 0 170.08205 140.10937"
   version="1.1"
   id="svg2188"
   sodipodi:docname="Zhou2021_Book_MachineLearning.pdf"
   xmlns:inkscape="http://www.inkscape.org/namespaces/inkscape"
   xmlns:sodipodi="http://sodipodi.sourceforge.net/DTD/sodipodi-0.dtd"
   xmlns="http://www.w3.org/2000/svg"
   xmlns:svg="http://www.w3.org/2000/svg">
  <sodipodi:namedview
     id="namedview2190"
     pagecolor="#ffffff"
     bordercolor="#000000"
     borderopacity="0.25"
     inkscape:showpageshadow="2"
     inkscape:pageopacity="0.0"
     inkscape:pagecheckerboard="0"
     inkscape:deskcolor="#d1d1d1"
     inkscape:document-units="pt"
     showgrid="false" />
  <defs
     id="defs404" />
  <path
     fill="none"
     stroke-width="1.284"
     stroke-linecap="butt"
     stroke-linejoin="miter"
     stroke="#000000"
     stroke-opacity="1"
     stroke-miterlimit="10"
     d="m 13.914072,123.01172 c 19.61718,-0.21094 41.23437,-3.08203 57.47265,-16.10547 16.24219,-13.011722 25.52734,-48.343752 39.984378,-62.015622 14.45703,-13.67579 17.04687,-15.40625 46.76562,-20.01954"
     id="path752" />
  <path
     fill-rule="nonzero"
     fill="#000000"
     fill-opacity="1"
     d="M 9.8867218,5.9765578 H 10.921882 V 131.82813 H 9.8867218 Z m -2.80078,0.66407 L 10.406252,-2.1906306e-6 13.726572,6.6406278 H 7.0859418"
     id="path754" />
  <path
     fill-rule="nonzero"
     fill="#000000"
     fill-opacity="1"
     d="M 10.003912,131.34375 H 164.10156 v 1.03516 H 10.003912 Z m 153.433588,-2.80469 6.64453,3.32032 -6.64453,3.32421 v -6.64453"
     id="path756" />
  <path
     fill="none"
     stroke-width="0.489"
     stroke-linecap="butt"
     stroke-linejoin="miter"
     stroke="#000000"
     stroke-opacity="1"
     stroke-miterlimit="10"
     d="m 43.292972,128.07422 v 3.76953"
     id="path758" />
  <path
     fill="none"
     stroke-width="0.489"
     stroke-linecap="butt"
     stroke-linejoin="miter"
     stroke="#000000"
     stroke-opacity="1"
     stroke-miterlimit="10"
     d="m 75.898442,128.07422 v 3.76953"
     id="path760" />
  <path
     fill="none"
     stroke-width="0.489"
     stroke-linecap="butt"
     stroke-linejoin="miter"
     stroke="#000000"
     stroke-opacity="1"
     stroke-miterlimit="10"
     d="m 108.42579,128.07422 v 3.76953"
     id="path762" />
  <path
     fill="none"
     stroke-width="0.489"
     stroke-linecap="butt"
     stroke-linejoin="miter"
     stroke="#000000"
     stroke-opacity="1"
     stroke-miterlimit="10"
     d="m 140.95704,128.07422 v 3.76953"
     id="path764" />
  <path
     fill="none"
     stroke-width="0.489"
     stroke-linecap="butt"
     stroke-linejoin="miter"
     stroke="#000000"
     stroke-opacity="1"
     stroke-miterlimit="10"
     d="m 14.132822,33.917968 h -3.76953"
     id="path766" />
  <path
     fill="none"
     stroke-width="0.489"
     stroke-linecap="butt"
     stroke-linejoin="miter"
     stroke="#000000"
     stroke-opacity="1"
     stroke-miterlimit="10"
     d="m 14.132822,66.527338 h -3.76953"
     id="path768" />
  <path
     fill="none"
     stroke-width="0.489"
     stroke-linecap="butt"
     stroke-linejoin="miter"
     stroke="#000000"
     stroke-opacity="1"
     stroke-miterlimit="10"
     d="m 14.132822,99.136718 h -3.76953"
     id="path770" />
  <path
     fill="none"
     stroke-width="0.795"
     stroke-linecap="butt"
     stroke-linejoin="miter"
     stroke="#000000"
     stroke-opacity="1"
     stroke-miterlimit="10"
     d="m 51.625002,77.886718 h 5.64453"
     id="path772" />
  <path
     fill="none"
     stroke-width="0.795"
     stroke-linecap="butt"
     stroke-linejoin="miter"
     stroke="#000000"
     stroke-opacity="1"
     stroke-miterlimit="10"
     d="m 54.414072,75.097658 v 5.64843"
     id="path774" />
  <path
     fill="none"
     stroke-width="0.795"
     stroke-linecap="butt"
     stroke-linejoin="miter"
     stroke="#000000"
     stroke-opacity="1"
     stroke-miterlimit="10"
     d="m 26.351572,96.304688 h 5.64453"
     id="path776" />
  <path
     fill="none"
     stroke-width="0.795"
     stroke-linecap="butt"
     stroke-linejoin="miter"
     stroke="#000000"
     stroke-opacity="1"
     stroke-miterlimit="10"
     d="m 29.222662,93.433598 v 5.64453"
     id="path778" />
  <path
     fill="none"
     stroke-width="0.795"
     stroke-linecap="butt"
     stroke-linejoin="miter"
     stroke="#000000"
     stroke-opacity="1"
     stroke-miterlimit="10"
     d="m 83.671882,63.378908 h 5.64453"
     id="path780" />
  <path
     fill="none"
     stroke-width="0.795"
     stroke-linecap="butt"
     stroke-linejoin="miter"
     stroke="#000000"
     stroke-opacity="1"
     stroke-miterlimit="10"
     d="m 86.464852,60.585938 v 5.64844"
     id="path782" />
  <path
     fill="none"
     stroke-width="0.795"
     stroke-linecap="butt"
     stroke-linejoin="miter"
     stroke="#000000"
     stroke-opacity="1"
     stroke-miterlimit="10"
     d="m 68.527352,65.769528 h 5.64453"
     id="path784" />
  <path
     fill="none"
     stroke-width="0.795"
     stroke-linecap="butt"
     stroke-linejoin="miter"
     stroke="#000000"
     stroke-opacity="1"
     stroke-miterlimit="10"
     d="m 71.316412,62.898438 v 5.64844"
     id="path786" />
  <path
     fill="none"
     stroke-width="0.795"
     stroke-linecap="butt"
     stroke-linejoin="miter"
     stroke="#000000"
     stroke-opacity="1"
     stroke-miterlimit="10"
     d="m 64.296882,103.64063 h 5.64844"
     id="path788" />
  <path
     fill="none"
     stroke-width="0.795"
     stroke-linecap="butt"
     stroke-linejoin="miter"
     stroke="#000000"
     stroke-opacity="1"
     stroke-miterlimit="10"
     d="m 67.089852,100.84766 v 5.64453"
     id="path790" />
  <path
     fill="none"
     stroke-width="0.795"
     stroke-linecap="butt"
     stroke-linejoin="miter"
     stroke="#000000"
     stroke-opacity="1"
     stroke-miterlimit="10"
     d="m 25.792972,66.328128 h 5.64453"
     id="path792" />
  <path
     fill="none"
     stroke-width="0.795"
     stroke-linecap="butt"
     stroke-linejoin="miter"
     stroke="#000000"
     stroke-opacity="1"
     stroke-miterlimit="10"
     d="m 28.582042,63.535158 v 5.64843"
     id="path794" />
  <path
     fill="none"
     stroke-width="0.795"
     stroke-linecap="butt"
     stroke-linejoin="miter"
     stroke="#000000"
     stroke-opacity="1"
     stroke-miterlimit="10"
     d="m 38.867192,84.582028 h 5.64453"
     id="path796" />
  <path
     fill="none"
     stroke-width="0.795"
     stroke-linecap="butt"
     stroke-linejoin="miter"
     stroke="#000000"
     stroke-opacity="1"
     stroke-miterlimit="10"
     d="m 41.738292,81.792968 v 5.64453"
     id="path798" />
  <path
     fill="none"
     stroke-width="0.795"
     stroke-linecap="butt"
     stroke-linejoin="miter"
     stroke="#000000"
     stroke-opacity="1"
     stroke-miterlimit="10"
     d="m 34.718752,114.16016 h 5.64844"
     id="path800" />
  <path
     fill="none"
     stroke-width="0.795"
     stroke-linecap="butt"
     stroke-linejoin="miter"
     stroke="#000000"
     stroke-opacity="1"
     stroke-miterlimit="10"
     d="m 37.511722,111.3711 v 5.64453"
     id="path802" />
  <path
     fill="none"
     stroke-width="0.795"
     stroke-linecap="butt"
     stroke-linejoin="miter"
     stroke="#000000"
     stroke-opacity="1"
     stroke-miterlimit="10"
     d="m 85.507822,105.8711 h 5.64453"
     id="path804" />
  <path
     fill="none"
     stroke-width="0.795"
     stroke-linecap="butt"
     stroke-linejoin="miter"
     stroke="#000000"
     stroke-opacity="1"
     stroke-miterlimit="10"
     d="m 58.636722,123.00781 h 5.64844"
     id="path806" />
  <path
     fill="none"
     stroke-width="0.795"
     stroke-linecap="butt"
     stroke-linejoin="miter"
     stroke="#000000"
     stroke-opacity="1"
     stroke-miterlimit="10"
     d="m 73.070322,115.35547 h 5.64453"
     id="path808" />
  <path
     fill="none"
     stroke-width="0.795"
     stroke-linecap="butt"
     stroke-linejoin="miter"
     stroke="#000000"
     stroke-opacity="1"
     stroke-miterlimit="10"
     d="m 114.60547,106.66797 h 5.64843"
     id="path810" />
  <path
     fill="none"
     stroke-width="0.795"
     stroke-linecap="butt"
     stroke-linejoin="miter"
     stroke="#000000"
     stroke-opacity="1"
     stroke-miterlimit="10"
     d="m 95.710932,96.222658 h 5.644538"
     id="path812" />
  <path
     fill="none"
     stroke-width="0.795"
     stroke-linecap="butt"
     stroke-linejoin="miter"
     stroke="#000000"
     stroke-opacity="1"
     stroke-miterlimit="10"
     d="m 105.12109,125.64063 h 5.64453"
     id="path814" />
  <path
     fill="none"
     stroke-width="0.795"
     stroke-linecap="butt"
     stroke-linejoin="miter"
     stroke="#000000"
     stroke-opacity="1"
     stroke-miterlimit="10"
     d="m 123.29687,114.16016 h 5.64453"
     id="path816" />
  <path
     fill="none"
     stroke-width="0.795"
     stroke-linecap="butt"
     stroke-linejoin="miter"
     stroke="#000000"
     stroke-opacity="1"
     stroke-miterlimit="10"
     d="m 68.125012,86.496098 h 5.64843"
     id="path818" />
  <path
     fill="none"
     stroke-width="0.795"
     stroke-linecap="butt"
     stroke-linejoin="miter"
     stroke="#000000"
     stroke-opacity="1"
     stroke-miterlimit="10"
     d="m 70.917972,83.707028 v 5.64844"
     id="path820" />
  <path
     fill="none"
     stroke-width="0.795"
     stroke-linecap="butt"
     stroke-linejoin="miter"
     stroke="#000000"
     stroke-opacity="1"
     stroke-miterlimit="10"
     d="m 48.832042,103.79688 h 5.64843"
     id="path822" />
  <path
     fill="none"
     stroke-width="0.795"
     stroke-linecap="butt"
     stroke-linejoin="miter"
     stroke="#000000"
     stroke-opacity="1"
     stroke-miterlimit="10"
     d="m 51.625012,101.00391 v 5.64844"
     id="path824" />
  <path
     fill="none"
     stroke-width="0.795"
     stroke-linecap="butt"
     stroke-linejoin="miter"
     stroke="#000000"
     stroke-opacity="1"
     stroke-miterlimit="10"
     d="m 54.093762,61.144528 h 5.64453"
     id="path826" />
  <path
     fill="none"
     stroke-width="0.795"
     stroke-linecap="butt"
     stroke-linejoin="miter"
     stroke="#000000"
     stroke-opacity="1"
     stroke-miterlimit="10"
     d="m 56.964852,58.351558 v 5.64844"
     id="path828" />
  <path
     fill="none"
     stroke-width="0.795"
     stroke-linecap="butt"
     stroke-linejoin="miter"
     stroke="#000000"
     stroke-opacity="1"
     stroke-miterlimit="10"
     d="m 99.859382,80.675778 h 5.648438"
     id="path830" />
  <path
     fill="none"
     stroke-width="0.795"
     stroke-linecap="butt"
     stroke-linejoin="miter"
     stroke="#000000"
     stroke-opacity="1"
     stroke-miterlimit="10"
     d="m 77.296882,75.574218 h 5.64453"
     id="path832" />
  <path
     fill="none"
     stroke-width="0.795"
     stroke-linecap="butt"
     stroke-linejoin="miter"
     stroke="#000000"
     stroke-opacity="1"
     stroke-miterlimit="10"
     d="m 80.167972,72.703128 v 5.64453"
     id="path834" />
  <path
     fill="none"
     stroke-width="0.795"
     stroke-linecap="butt"
     stroke-linejoin="miter"
     stroke="#000000"
     stroke-opacity="1"
     stroke-miterlimit="10"
     d="m 32.488282,45.035158 h 5.64844"
     id="path836" />
  <path
     fill="none"
     stroke-width="0.795"
     stroke-linecap="butt"
     stroke-linejoin="miter"
     stroke="#000000"
     stroke-opacity="1"
     stroke-miterlimit="10"
     d="m 35.359382,42.164058 v 5.64844"
     id="path838" />
  <path
     fill="none"
     stroke-width="0.795"
     stroke-linecap="butt"
     stroke-linejoin="miter"
     stroke="#000000"
     stroke-opacity="1"
     stroke-miterlimit="10"
     d="m 87.660162,52.210938 h 5.64453"
     id="path840" />
  <path
     fill="none"
     stroke-width="0.795"
     stroke-linecap="butt"
     stroke-linejoin="miter"
     stroke="#000000"
     stroke-opacity="1"
     stroke-miterlimit="10"
     d="m 90.453132,49.421878 v 5.64843"
     id="path842" />
  <path
     fill="none"
     stroke-width="0.795"
     stroke-linecap="butt"
     stroke-linejoin="miter"
     stroke="#000000"
     stroke-opacity="1"
     stroke-miterlimit="10"
     d="m 69.324222,42.164058 h 5.64844"
     id="path844" />
  <path
     fill="none"
     stroke-width="0.795"
     stroke-linecap="butt"
     stroke-linejoin="miter"
     stroke="#000000"
     stroke-opacity="1"
     stroke-miterlimit="10"
     d="m 72.113282,39.296878 v 5.64453"
     id="path846" />
  <path
     fill="none"
     stroke-width="0.795"
     stroke-linecap="butt"
     stroke-linejoin="miter"
     stroke="#000000"
     stroke-opacity="1"
     stroke-miterlimit="10"
     d="m 86.941412,114.95703 h 5.64844"
     id="path848" />
  <path
     fill="none"
     stroke-width="0.795"
     stroke-linecap="butt"
     stroke-linejoin="miter"
     stroke="#000000"
     stroke-opacity="1"
     stroke-miterlimit="10"
     d="m 131.67188,57.710938 h 5.64453"
     id="path850" />
  <path
     fill="none"
     stroke-width="0.795"
     stroke-linecap="butt"
     stroke-linejoin="miter"
     stroke="#000000"
     stroke-opacity="1"
     stroke-miterlimit="10"
     d="m 138.84766,92.871098 h 5.64453"
     id="path852" />
  <path
     fill="none"
     stroke-width="0.795"
     stroke-linecap="butt"
     stroke-linejoin="miter"
     stroke="#000000"
     stroke-opacity="1"
     stroke-miterlimit="10"
     d="m 134.46094,82.984368 h 5.64453"
     id="path854" />
  <path
     fill="none"
     stroke-width="0.795"
     stroke-linecap="butt"
     stroke-linejoin="miter"
     stroke="#000000"
     stroke-opacity="1"
     stroke-miterlimit="10"
     d="m 115.48438,72.542958 h 5.64843"
     id="path856" />
  <path
     fill="none"
     stroke-width="0.795"
     stroke-linecap="butt"
     stroke-linejoin="miter"
     stroke="#000000"
     stroke-opacity="1"
     stroke-miterlimit="10"
     d="m 112.29688,63.453128 h 5.64843"
     id="path858" />
  <path
     fill="none"
     stroke-width="0.795"
     stroke-linecap="butt"
     stroke-linejoin="miter"
     stroke="#000000"
     stroke-opacity="1"
     stroke-miterlimit="10"
     d="m 111.10156,88.964838 h 5.64454"
     id="path860" />
  <path
     fill="none"
     stroke-width="0.795"
     stroke-linecap="butt"
     stroke-linejoin="miter"
     stroke="#000000"
     stroke-opacity="1"
     stroke-miterlimit="10"
     d="m 108.39063,32.277348 h 5.64843"
     id="path862" />
  <path
     fill="none"
     stroke-width="0.795"
     stroke-linecap="butt"
     stroke-linejoin="miter"
     stroke="#000000"
     stroke-opacity="1"
     stroke-miterlimit="10"
     d="m 111.25781,29.410148 v 5.64453"
     id="path864" />
  <path
     fill="none"
     stroke-width="0.795"
     stroke-linecap="butt"
     stroke-linejoin="miter"
     stroke="#000000"
     stroke-opacity="1"
     stroke-miterlimit="10"
     d="m 92.843752,19.441398 h 5.64453"
     id="path866" />
  <path
     fill="none"
     stroke-width="0.795"
     stroke-linecap="butt"
     stroke-linejoin="miter"
     stroke="#000000"
     stroke-opacity="1"
     stroke-miterlimit="10"
     d="m 95.714852,16.652338 v 5.64453"
     id="path868" />
  <path
     fill="none"
     stroke-width="0.795"
     stroke-linecap="butt"
     stroke-linejoin="miter"
     stroke="#000000"
     stroke-opacity="1"
     stroke-miterlimit="10"
     d="m 51.625002,29.808588 h 5.64844"
     id="path870" />
  <path
     fill="none"
     stroke-width="0.795"
     stroke-linecap="butt"
     stroke-linejoin="miter"
     stroke="#000000"
     stroke-opacity="1"
     stroke-miterlimit="10"
     d="m 54.414072,27.019528 v 5.64453"
     id="path872" />
  <path
     fill="none"
     stroke-width="0.795"
     stroke-linecap="butt"
     stroke-linejoin="miter"
     stroke="#000000"
     stroke-opacity="1"
     stroke-miterlimit="10"
     d="m 86.542972,35.308588 h 5.64844"
     id="path874" />
  <path
     fill="none"
     stroke-width="0.795"
     stroke-linecap="butt"
     stroke-linejoin="miter"
     stroke="#000000"
     stroke-opacity="1"
     stroke-miterlimit="10"
     d="m 89.414062,32.437498 v 5.64843"
     id="path876" />
  <path
     fill="none"
     stroke-width="0.795"
     stroke-linecap="butt"
     stroke-linejoin="miter"
     stroke="#000000"
     stroke-opacity="1"
     stroke-miterlimit="10"
     d="m 122.26172,46.308598 h 5.64453"
     id="path878" />
  <path
     fill="none"
     stroke-width="0.795"
     stroke-linecap="butt"
     stroke-linejoin="miter"
     stroke="#000000"
     stroke-opacity="1"
     stroke-miterlimit="10"
     d="m 36.714842,124.75781 h 5.64844"
     id="path880" />
  <path
     fill="none"
     stroke-width="0.795"
     stroke-linecap="butt"
     stroke-linejoin="miter"
     stroke="#000000"
     stroke-opacity="1"
     stroke-miterlimit="10"
     d="m 100.65625,40.171868 h 5.64844"
     id="path882" />
  <path
     fill="none"
     stroke-width="0.795"
     stroke-linecap="butt"
     stroke-linejoin="miter"
     stroke="#000000"
     stroke-opacity="1"
     stroke-miterlimit="10"
     d="m 103.52735,37.300778 v 5.64453"
     id="path884" />
  <path
     fill="none"
     stroke-width="0.795"
     stroke-linecap="butt"
     stroke-linejoin="miter"
     stroke="#000000"
     stroke-opacity="1"
     stroke-miterlimit="10"
     d="m 135.33594,23.589848 h 5.64453"
     id="path886" />
  <path
     fill="none"
     stroke-width="0.795"
     stroke-linecap="butt"
     stroke-linejoin="miter"
     stroke="#000000"
     stroke-opacity="1"
     stroke-miterlimit="10"
     d="m 138.20703,20.718748 v 5.64453"
     id="path888" />
  <path
     fill="none"
     stroke-width="0.795"
     stroke-linecap="butt"
     stroke-linejoin="miter"
     stroke="#000000"
     stroke-opacity="1"
     stroke-miterlimit="10"
     d="m 133.66406,34.746088 h 5.64454"
     id="path890" />
  <path
     fill="none"
     stroke-width="0.795"
     stroke-linecap="butt"
     stroke-linejoin="miter"
     stroke="#000000"
     stroke-opacity="1"
     stroke-miterlimit="10"
     d="m 109.90235,53.562498 h 5.64843"
     id="path892" />
  <path
     fill="none"
     stroke-width="0.611"
     stroke-linecap="butt"
     stroke-linejoin="miter"
     stroke="#000000"
     stroke-opacity="1"
     stroke-miterlimit="10"
     d="m 16.425782,117.94922 54.05859,-0.74219 V 92.042968 l 19.4336,0.25781 c 0.0781,-8.71875 0.16406,-17.4375 0.24218,-26.15234 h 17.195318 c -0.0859,-8.0586 -0.16407,-16.11329 -0.25391,-24.16407 l 23.66797,-0.24609 c 0.0859,-4.73047 0.16406,-9.46484 0.25,-14.19531 h 25.16016"
     id="path894" />
  <path
     fill="none"
     stroke-width="1.161"
     stroke-linecap="butt"
     stroke-linejoin="miter"
     stroke="#df3224"
     stroke-opacity="1"
     stroke-miterlimit="10"
     d="m 18.457032,125.08594 57.81641,-16.61329 29.238278,-62.488282 45.84765,-23.26562"
     id="path896" />
  <path
     fill-rule="nonzero"
     fill="#000000"
     fill-opacity="1"
     d="m 6.1054718,136.86328 c 0,0.54297 -0.15234,1.07031 -0.45312,1.57813 -0.30469,0.5039 -0.69532,0.91015 -1.17578,1.21484 -0.476568,0.30078 -0.968755,0.45313 -1.468755,0.45313 -0.460937,0 -0.855469,-0.13282 -1.179687,-0.40235 -0.328126,-0.27344 -0.535157,-0.66406 -0.621094,-1.18359 -0.0039,-0.0352 -0.0078,-0.14063 -0.0078,-0.30469 0,-0.48047 0.113281,-0.94141 0.34375,-1.37891 0.226563,-0.43359 0.53125,-0.82031 0.917969,-1.16015 0.585938,-0.48438 1.175781,-0.73047 1.765625,-0.73047 0.183592,0 0.296872,0.004 0.343752,0.008 0.46093,0.0664 0.82812,0.26953 1.10937,0.60938 0.27734,0.34375 0.42188,0.77343 0.42578,1.29687 m -0.73047,-0.29297 c 0,-0.42187 -0.10937,-0.75 -0.32812,-0.98828 -0.21875,-0.23437 -0.49219,-0.35547 -0.820312,-0.35547 -0.375,0 -0.742187,0.14063 -1.09375,0.42578 -0.378906,0.29688 -0.664063,0.71875 -0.867187,1.25782 -0.199219,0.54297 -0.300782,1.04297 -0.304688,1.50781 0,0.42578 0.101562,0.76562 0.304688,1.01562 0.203124,0.25391 0.476562,0.38282 0.8125,0.38672 0.425781,0 0.832031,-0.1914 1.214843,-0.5625 0.382806,-0.375 0.675776,-0.88672 0.871096,-1.52734 0.14062,-0.45313 0.21093,-0.83594 0.21093,-1.16016"
     id="path910" />
  <path
     fill-rule="nonzero"
     fill="#000000"
     fill-opacity="1"
     d="m 160.05078,134.86719 c -0.38281,0.0742 -0.52734,0.36719 -0.52734,0.59375 0,0.29297 0.23047,0.39062 0.39844,0.39062 0.36328,0 0.61718,-0.3164 0.61718,-0.64453 0,-0.50781 -0.57812,-0.74219 -1.08984,-0.74219 -0.73828,0 -1.15234,0.73047 -1.26172,0.96094 -0.28125,-0.91015 -1.03125,-0.96094 -1.25,-0.96094 -1.23828,0 -1.89453,1.59375 -1.89453,1.85547 l 0.13672,0.10938 0.14453,-0.11719 c 0.41406,-1.34766 1.22656,-1.60156 1.57422,-1.60156 0.55078,0 0.66016,0.50781 0.66016,0.79687 0,0.26953 -0.0742,0.55078 -0.21875,1.13282 l -0.41407,1.66015 c -0.17968,0.73047 -0.53515,1.39453 -1.17578,1.39453 -0.0625,0 -0.36328,0 -0.62109,-0.15625 0.4375,-0.0859 0.53906,-0.45312 0.53906,-0.59765 0,-0.24219 -0.1875,-0.38672 -0.41797,-0.38672 -0.28906,0 -0.60547,0.2539 -0.60547,0.64453 0,0.50781 0.57032,0.73828 1.09375,0.73828 0.58203,0 0.99219,-0.46094 1.2461,-0.95703 0.19531,0.71484 0.80078,0.95703 1.25,0.95703 1.23828,0 1.89062,-1.58984 1.89062,-1.85547 l -0.11719,-0.10937 -0.16015,0.15625 c -0.32422,1.07031 -1.02735,1.5664 -1.57813,1.5664 -0.42187,0 -0.65234,-0.3164 -0.65234,-0.8125 0,-0.26562 0.0508,-0.46093 0.24219,-1.26562 l 0.42578,-1.64453 c 0.17969,-0.72657 0.59375,-1.26172 1.15234,-1.26172 0.0234,0 0.36328,0 0.61328,0.15625"
     id="path912" />
  <path
     fill-rule="nonzero"
     fill="#000000"
     fill-opacity="1"
     d="m 2.8632858,11.683588 c -0.324219,0.46094 -0.800782,0.875 -1.394532,0.875 -0.148437,0 -0.72656198,-0.0273 -0.91015598,-0.58203 l 0.121094,0.0117 c 0.36718798,0 0.60546898,-0.3164 0.60546898,-0.59375 0,-0.28125 -0.226563,-0.375 -0.41015698,-0.375 -0.195312,0 -0.617187,0.14453 -0.617187,0.73828 0,0.61719 0.519531,1.04297 1.21093698,1.04297 1.210938,0 2.4375,-1.11719 2.777344,-2.46094 l 1.187504,-4.7304602 0.0391,-0.20704 c 0,-0.17968 -0.14844,-0.30078 -0.32813,-0.30078 -0.11328,0 -0.36328,0.0469 -0.46093,0.41016 l -0.898441,3.56641 c -0.05859,0.21875 -0.05859,0.24218 -0.15625,0.375 -0.242188,0.33984 -0.644531,0.7539002 -1.226563,0.7539002 -0.679687,0 -0.738281,-0.6679702 -0.738281,-0.9960902 0,-0.69141 0.324219,-1.625 0.65625,-2.5 0.132813,-0.34766 0.203125,-0.51953 0.203125,-0.76172 0,-0.50781 -0.363281,-0.97266 -0.957031,-0.97266 -1.11328098,0 -1.566406979958,1.76172 -1.566406979958,1.85938 L 0.13676282,6.9413878 c 0.105469,0 0.121094,-0.0469 0.167969,-0.21485 0.292969,-1.01953 0.75390598,-1.5039 1.22656198,-1.5039 0.109376,0 0.3125,0 0.3125,0.39843 0,0.31641 -0.132812,0.66797 -0.3125,1.12891 -0.59765598,1.58984 -0.59765598,1.98828 -0.59765598,2.28125 0,1.1523402 0.82812498,1.4179702 1.43359398,1.4179702 0.351562,0 0.789062,-0.10938 1.214844,-0.5585902 l 0.0078,0.0117 c -0.179687,0.7148502 -0.300781,1.1875002 -0.726562,1.7812502"
     id="path914" />
</svg>
