<?xml version="1.0" encoding="UTF-8" standalone="no"?>
<svg
   width="170.07814pt"
   height="139.28906pt"
   viewBox="0 0 170.07814 139.28906"
   version="1.1"
   id="svg2188"
   sodipodi:docname="Zhou2021_Book_MachineLearning.pdf"
   xmlns:inkscape="http://www.inkscape.org/namespaces/inkscape"
   xmlns:sodipodi="http://sodipodi.sourceforge.net/DTD/sodipodi-0.dtd"
   xmlns="http://www.w3.org/2000/svg"
   xmlns:svg="http://www.w3.org/2000/svg">
  <sodipodi:namedview
     id="namedview2190"
     pagecolor="#ffffff"
     bordercolor="#000000"
     borderopacity="0.25"
     inkscape:showpageshadow="2"
     inkscape:pageopacity="0.0"
     inkscape:pagecheckerboard="0"
     inkscape:deskcolor="#d1d1d1"
     inkscape:document-units="pt"
     showgrid="false" />
  <defs
     id="defs404" />
  <path
     fill-rule="nonzero"
     fill="#000000"
     fill-opacity="1"
     d="m 26.265632,5.3671873 h 0.92969 V 118.35156 h -0.92969 z M 23.746102,5.9648433 26.730472,-7.337383e-7 29.710942,5.9648433 h -5.96484"
     id="path494" />
  <path
     fill-rule="nonzero"
     fill="#000000"
     fill-opacity="1"
     d="M 26.371102,117.91797 H 164.71094 v 0.92969 H 26.371102 Z m 137.742178,-2.51953 5.96485,2.98437 -5.96485,2.98047 v -5.96484"
     id="path496" />
  <path
     fill-rule="nonzero"
     fill="#000000"
     fill-opacity="1"
     d="m 22.832032,123.9375 c 0.35157,0.625 0.79297,0.9375 1.32032,0.9375 0.26953,0 0.54297,-0.10156 0.83203,-0.30469 0.28906,-0.20312 0.52344,-0.52734 0.71094,-0.98046 0.18359,-0.44922 0.27734,-0.9961 0.27734,-1.63672 0,-0.92188 -0.21094,-1.64844 -0.63281,-2.1875 -0.33985,-0.42969 -0.71875,-0.64844 -1.14453,-0.64844 -0.26172,0 -0.51563,0.0898 -0.76172,0.26562 -0.31641,0.22266 -0.57032,0.5625 -0.76172,1.01954 -0.19141,0.45703 -0.28516,1 -0.28516,1.63671 0,0.73829 0.14844,1.375 0.44531,1.89844 m 0.46094,-3.23437 c 0.0703,-0.48438 0.20703,-0.83985 0.40235,-1.06641 0.14453,-0.16797 0.30859,-0.25 0.49218,-0.25 0.16016,0 0.29688,0.0469 0.40625,0.13672 0.15625,0.12891 0.28125,0.35156 0.37891,0.66406 0.13281,0.42578 0.19922,0.94922 0.19922,1.58203 0,0.85547 -0.0625,1.51563 -0.1875,1.98438 -0.082,0.30859 -0.20313,0.53125 -0.36328,0.66406 -0.15625,0.13281 -0.3086,0.19922 -0.45703,0.19922 -0.3086,0 -0.53907,-0.20313 -0.69532,-0.60938 -0.1875,-0.48437 -0.28125,-1.10546 -0.28125,-1.86718 0,-0.47266 0.0352,-0.95313 0.10547,-1.4375"
     id="path498" />
  <path
     fill="none"
     stroke-width="0.549"
     stroke-linecap="butt"
     stroke-linejoin="miter"
     stroke="#000000"
     stroke-opacity="1"
     stroke-miterlimit="10"
     d="m 56.253912,114.98437 v 3.37891"
     id="path500" />
  <path
     fill="none"
     stroke-width="0.549"
     stroke-linecap="butt"
     stroke-linejoin="miter"
     stroke="#000000"
     stroke-opacity="1"
     stroke-miterlimit="10"
     d="m 85.527342,114.98437 v 3.37891"
     id="path502" />
  <path
     fill="none"
     stroke-width="0.549"
     stroke-linecap="butt"
     stroke-linejoin="miter"
     stroke="#000000"
     stroke-opacity="1"
     stroke-miterlimit="10"
     d="m 114.72656,114.98437 v 3.37891"
     id="path504" />
  <path
     fill="none"
     stroke-width="0.549"
     stroke-linecap="butt"
     stroke-linejoin="miter"
     stroke="#000000"
     stroke-opacity="1"
     stroke-miterlimit="10"
     d="m 143.92969,114.98437 v 3.37891"
     id="path506" />
  <path
     fill-rule="nonzero"
     fill="#000000"
     fill-opacity="1"
     d="m 50.601562,125.73828 c 0.35157,0.625 0.79297,0.9375 1.32032,0.9375 0.26953,0 0.54687,-0.10156 0.83203,-0.30468 0.28906,-0.20313 0.52344,-0.53125 0.71094,-0.98047 0.18359,-0.44922 0.27734,-0.9961 0.27734,-1.63672 0,-0.92188 -0.21094,-1.64844 -0.63281,-2.1875 -0.33985,-0.42969 -0.71875,-0.64844 -1.14453,-0.64844 -0.26172,0 -0.51563,0.0898 -0.76172,0.26563 -0.31641,0.22265 -0.57032,0.5664 -0.76172,1.02343 -0.19141,0.45313 -0.28516,1 -0.28516,1.62891 0,0.74219 0.14844,1.37891 0.44531,1.90234 m 0.46094,-3.23437 c 0.0742,-0.48438 0.20703,-0.83985 0.40235,-1.06641 0.14453,-0.16797 0.30859,-0.25 0.49609,-0.25 0.15625,0 0.29297,0.0469 0.40234,0.13672 0.15625,0.12891 0.28125,0.35156 0.38282,0.66406 0.1289,0.42578 0.19531,0.95313 0.19531,1.58203 0,0.85547 -0.0625,1.51563 -0.1875,1.98438 -0.082,0.3125 -0.20313,0.53125 -0.36328,0.66406 -0.15625,0.13281 -0.3086,0.19922 -0.45703,0.19922 -0.30469,0 -0.53907,-0.20312 -0.69532,-0.60937 -0.1875,-0.48047 -0.28125,-1.10547 -0.28125,-1.86719 0,-0.47266 0.0391,-0.95313 0.10547,-1.4375 m 3.73047,3.41406 c -0.0898,0.0859 -0.13281,0.19141 -0.13281,0.32031 0,0.125 0.043,0.23438 0.13281,0.32032 0.0859,0.0898 0.19531,0.13281 0.32031,0.13281 0.125,0 0.23047,-0.043 0.32032,-0.13281 0.0898,-0.0859 0.13281,-0.19532 0.13281,-0.32032 0,-0.125 -0.043,-0.23437 -0.13281,-0.32031 -0.0859,-0.0898 -0.19141,-0.13281 -0.32032,-0.13281 -0.125,0 -0.23437,0.043 -0.32031,0.13281 m 5.05469,-0.40625 c -0.0703,0.12109 -0.15235,0.21484 -0.25,0.28125 -0.0937,0.0703 -0.20313,0.11328 -0.32031,0.13281 -0.11719,0.0234 -0.32422,0.0352 -0.6211,0.0352 h -1.44531 c 0.16797,-0.15234 0.59375,-0.60156 1.26953,-1.33984 0.45313,-0.4961 0.78125,-0.96485 0.98438,-1.40625 0.1289,-0.27735 0.19531,-0.5586 0.19531,-0.83985 0,-0.39453 -0.15235,-0.73437 -0.45313,-1.02344 -0.30078,-0.28906 -0.67578,-0.43359 -1.125,-0.43359 -0.42187,0 -0.77734,0.13281 -1.05859,0.40625 -0.28125,0.26953 -0.45703,0.65625 -0.52344,1.16016 h 0.14844 c 0.10547,-0.3086 0.26562,-0.54297 0.48437,-0.69922 0.21485,-0.16016 0.46094,-0.24219 0.73047,-0.24219 0.30078,0 0.5586,0.11328 0.77344,0.33984 0.21484,0.22657 0.32422,0.51563 0.32422,0.86719 0,0.46094 -0.19531,0.96875 -0.58594,1.52344 -0.39453,0.55859 -1.07422,1.27344 -2.03515,2.15234 v 0.15235 h 3.26953 l 0.39062,-1.06641 h -0.15234"
     id="path508" />
  <path
     fill-rule="nonzero"
     fill="#000000"
     fill-opacity="1"
     d="m 79.832032,125.73828 c 0.35157,0.625 0.79297,0.9375 1.32032,0.9375 0.26953,0 0.54687,-0.10156 0.83203,-0.30468 0.28906,-0.20313 0.52734,-0.53125 0.71093,-0.98047 0.1875,-0.44922 0.27735,-0.9961 0.27735,-1.63672 0,-0.92188 -0.21094,-1.64844 -0.63281,-2.1875 -0.33985,-0.42969 -0.71875,-0.64844 -1.14454,-0.64844 -0.26171,0 -0.51562,0.0898 -0.76171,0.26563 -0.31641,0.22265 -0.57032,0.5664 -0.75782,1.02343 -0.19531,0.45313 -0.28906,1 -0.28906,1.62891 0,0.74219 0.14844,1.37891 0.44531,1.90234 m 0.46485,-3.23437 c 0.0703,-0.48438 0.20312,-0.83985 0.39843,-1.06641 0.14454,-0.16797 0.3086,-0.25 0.4961,-0.25 0.15625,0 0.29297,0.0469 0.40625,0.13672 0.15234,0.12891 0.28125,0.35156 0.3789,0.66406 0.12891,0.42578 0.19532,0.95313 0.19532,1.58203 0,0.85547 -0.0625,1.51563 -0.1875,1.98438 -0.082,0.3125 -0.20313,0.53125 -0.35938,0.66406 -0.15625,0.13281 -0.3125,0.19922 -0.45703,0.19922 -0.30859,0 -0.53906,-0.20312 -0.69531,-0.60937 -0.19141,-0.48047 -0.28516,-1.10547 -0.28516,-1.86719 0,-0.47266 0.0391,-0.95313 0.10938,-1.4375 m 3.72656,3.41406 c -0.0898,0.0859 -0.13281,0.19141 -0.13281,0.32031 0,0.125 0.043,0.23438 0.13281,0.32032 0.0859,0.0898 0.19531,0.13281 0.32031,0.13281 0.125,0 0.23047,-0.043 0.32031,-0.13281 0.0898,-0.0859 0.13672,-0.19532 0.13672,-0.32032 0,-0.125 -0.0469,-0.23437 -0.13281,-0.32031 -0.0859,-0.0898 -0.19531,-0.13281 -0.32422,-0.13281 -0.125,0 -0.23437,0.043 -0.32031,0.13281 m 4.51953,-1.38672 v -3.61328 h -0.44922 l -2.57031,3.67188 v 0.52343 h 2.34766 v 1.46485 h 0.67187 v -1.46485 h 0.74609 v -0.58203 z m -2.62109,0 1.94922,-2.75 v 2.75 h -1.94922"
     id="path510" />
  <path
     fill-rule="nonzero"
     fill="#000000"
     fill-opacity="1"
     d="m 109.07813,125.73828 c 0.35156,0.625 0.79297,0.9375 1.32031,0.9375 0.26953,0 0.54297,-0.10156 0.83203,-0.30468 0.28906,-0.20313 0.52344,-0.53125 0.70703,-0.98047 0.1875,-0.44922 0.28125,-0.9961 0.28125,-1.63672 0,-0.92188 -0.21094,-1.64844 -0.63281,-2.1875 -0.33984,-0.42969 -0.72266,-0.64844 -1.14844,-0.64844 -0.26172,0 -0.51562,0.0898 -0.75781,0.26563 -0.31641,0.22265 -0.57031,0.5664 -0.76172,1.02343 -0.19141,0.45313 -0.28516,1 -0.28516,1.62891 0,0.74219 0.14844,1.37891 0.44532,1.90234 m 0.46093,-3.23437 c 0.0703,-0.48438 0.20704,-0.83985 0.40235,-1.06641 0.14453,-0.16797 0.30859,-0.25 0.49219,-0.25 0.16015,0 0.29296,0.0469 0.40625,0.13672 0.15625,0.12891 0.28125,0.35156 0.3789,0.66406 0.13281,0.42578 0.19922,0.95313 0.19922,1.58203 0,0.85547 -0.0664,1.51563 -0.19141,1.98438 -0.082,0.3125 -0.19921,0.53125 -0.35546,0.66406 -0.16016,0.13281 -0.3125,0.19922 -0.46094,0.19922 -0.3086,0 -0.53906,-0.20312 -0.69531,-0.60937 -0.1875,-0.48047 -0.28125,-1.10547 -0.28125,-1.86719 0,-0.47266 0.0352,-0.95313 0.10546,-1.4375 m 3.72657,3.41406 c -0.0859,0.0859 -0.13282,0.19141 -0.13282,0.32031 0,0.125 0.0469,0.23438 0.13282,0.32032 0.0898,0.0898 0.19531,0.13281 0.32422,0.13281 0.125,0 0.23046,-0.043 0.32031,-0.13281 0.0898,-0.0859 0.13281,-0.19532 0.13281,-0.32032 0,-0.125 -0.043,-0.23437 -0.13281,-0.32031 -0.0859,-0.0898 -0.19531,-0.13281 -0.32031,-0.13281 -0.12891,0 -0.23438,0.043 -0.32422,0.13281 m 4.88672,-5 c -0.29297,0 -0.60938,0.0586 -0.94532,0.17969 -0.33593,0.12109 -0.6914,0.35547 -1.0625,0.69922 -0.36718,0.34765 -0.65234,0.74218 -0.85156,1.1914 -0.19922,0.44532 -0.29687,0.91797 -0.29687,1.41407 0,0.77734 0.25781,1.41015 0.77343,1.89843 0.26563,0.25 0.58985,0.375 0.96875,0.375 0.55469,0 1,-0.23437 1.33985,-0.69531 0.28125,-0.38281 0.42187,-0.80469 0.42187,-1.26953 0,-0.47656 -0.14062,-0.87109 -0.41797,-1.17578 -0.27734,-0.30469 -0.60547,-0.45703 -0.98437,-0.45703 -0.39453,0 -0.78906,0.13281 -1.1836,0.40234 0.0977,-0.37109 0.21875,-0.69531 0.36719,-0.96484 0.14453,-0.26953 0.32813,-0.51563 0.55078,-0.73828 0.22266,-0.22266 0.44922,-0.38672 0.67578,-0.49219 0.22657,-0.10938 0.51954,-0.17969 0.87891,-0.21485 v -0.15234 z M 116.3711,123.5 c 0.11718,-0.043 0.22656,-0.0664 0.33203,-0.0664 0.33984,0 0.60547,0.16796 0.78906,0.51171 0.1875,0.33985 0.27734,0.74219 0.27734,1.21094 0,0.41406 -0.0937,0.73047 -0.27734,0.95703 -0.1875,0.22266 -0.39844,0.33203 -0.63672,0.33203 -0.19922,0 -0.36719,-0.0625 -0.50781,-0.1914 -0.19141,-0.17969 -0.33594,-0.42188 -0.42969,-0.73047 -0.0977,-0.30469 -0.14844,-0.58984 -0.14844,-0.85156 0,-0.22657 0.0273,-0.52344 0.0742,-0.89063 0.23438,-0.14453 0.40625,-0.23828 0.52735,-0.28125"
     id="path512" />
  <path
     fill-rule="nonzero"
     fill="#000000"
     fill-opacity="1"
     d="m 138.3086,125.73828 c 0.35156,0.625 0.79296,0.9375 1.32031,0.9375 0.26953,0 0.54687,-0.10156 0.83203,-0.30468 0.28906,-0.20313 0.52344,-0.53125 0.71094,-0.98047 0.18359,-0.44922 0.27734,-0.9961 0.27734,-1.63672 0,-0.92188 -0.21094,-1.64844 -0.63281,-2.1875 -0.33985,-0.42969 -0.72266,-0.64844 -1.14453,-0.64844 -0.26172,0 -0.51563,0.0898 -0.76172,0.26563 -0.31641,0.22265 -0.57031,0.5664 -0.76172,1.02343 -0.1875,0.45313 -0.28516,1 -0.28516,1.62891 0,0.74219 0.14844,1.37891 0.44532,1.90234 m 0.46484,-3.23437 c 0.0703,-0.48438 0.20312,-0.83985 0.39844,-1.06641 0.14453,-0.16797 0.30859,-0.25 0.49609,-0.25 0.15625,0 0.29297,0.0469 0.40234,0.13672 0.15625,0.12891 0.28125,0.35156 0.38282,0.66406 0.1289,0.42578 0.19531,0.95313 0.19531,1.58203 0,0.85547 -0.0625,1.51563 -0.1875,1.98438 -0.082,0.3125 -0.20313,0.53125 -0.36328,0.66406 -0.15625,0.13281 -0.3086,0.19922 -0.45703,0.19922 -0.30469,0 -0.53907,-0.20312 -0.69532,-0.60937 -0.1875,-0.48047 -0.28125,-1.10547 -0.28125,-1.86719 0,-0.47266 0.0391,-0.95313 0.10938,-1.4375 m 3.72656,3.41406 c -0.0898,0.0859 -0.13281,0.19141 -0.13281,0.32031 0,0.125 0.043,0.23438 0.13281,0.32032 0.0859,0.0898 0.19531,0.13281 0.32031,0.13281 0.125,0 0.23047,-0.043 0.32032,-0.13281 0.0898,-0.0859 0.13281,-0.19532 0.13281,-0.32032 0,-0.125 -0.043,-0.23437 -0.13281,-0.32031 -0.0859,-0.0898 -0.19141,-0.13281 -0.32032,-0.13281 -0.125,0 -0.23437,0.043 -0.32031,0.13281 m 2.1211,-1.33203 c -0.16407,0.23828 -0.2461,0.48437 -0.2461,0.72656 0,0.31641 0.11719,0.60547 0.35156,0.86719 0.29297,0.33203 0.70313,0.49609 1.23047,0.49609 0.48047,0 0.8711,-0.13672 1.16797,-0.41406 0.29688,-0.27734 0.44531,-0.60937 0.44531,-1 0,-0.30859 -0.10156,-0.60156 -0.30859,-0.87891 -0.15625,-0.21484 -0.47266,-0.5039 -0.95312,-0.875 0.46484,-0.29296 0.77343,-0.54687 0.91796,-0.76171 0.14844,-0.21485 0.22266,-0.42579 0.22266,-0.63282 0,-0.3125 -0.13672,-0.58984 -0.41016,-0.83203 -0.27343,-0.24219 -0.63281,-0.36328 -1.07812,-0.36328 -0.46094,0 -0.83203,0.12891 -1.10938,0.39063 -0.27734,0.26171 -0.41796,0.57031 -0.41796,0.92968 0,0.23438 0.0664,0.46094 0.1914,0.67969 0.125,0.21875 0.41016,0.50781 0.84766,0.86719 -0.40235,0.29297 -0.6875,0.55859 -0.85156,0.80078 m 0.82421,-1.79297 c -0.13281,-0.12891 -0.23437,-0.26562 -0.30859,-0.40625 -0.0742,-0.14062 -0.10937,-0.28516 -0.10937,-0.42578 0,-0.21484 0.0859,-0.40234 0.26562,-0.56641 0.17188,-0.16015 0.39844,-0.23828 0.67578,-0.23828 0.28125,0 0.4961,0.0781 0.65625,0.24219 0.16406,0.16406 0.24219,0.38672 0.24219,0.67187 0,0.21875 -0.043,0.41016 -0.12891,0.58204 -0.0898,0.16796 -0.29687,0.39843 -0.62109,0.69531 z m 1.39454,2.28125 c 0.10156,0.15234 0.15625,0.32813 0.15625,0.52734 0,0.23438 -0.0898,0.4375 -0.26563,0.60547 -0.17969,0.16407 -0.41406,0.25 -0.71094,0.25 -0.29687,0 -0.53906,-0.10937 -0.73047,-0.32031 C 145.09375,125.92578 145,125.64453 145,125.29297 c 0,-0.26172 0.0547,-0.50391 0.16406,-0.73047 0.10938,-0.22265 0.27344,-0.42969 0.50391,-0.62109 0.58594,0.46484 0.97656,0.84375 1.17188,1.13281"
     id="path514" />
  <path
     fill="none"
     stroke-width="0.549"
     stroke-linecap="butt"
     stroke-linejoin="miter"
     stroke="#000000"
     stroke-opacity="1"
     stroke-miterlimit="10"
     d="m 30.074222,30.453125 h -3.3789"
     id="path516" />
  <path
     fill="none"
     stroke-width="0.549"
     stroke-linecap="butt"
     stroke-linejoin="miter"
     stroke="#000000"
     stroke-opacity="1"
     stroke-miterlimit="10"
     d="m 30.074222,59.730467 h -3.3789"
     id="path518" />
  <path
     fill="none"
     stroke-width="0.549"
     stroke-linecap="butt"
     stroke-linejoin="miter"
     stroke="#000000"
     stroke-opacity="1"
     stroke-miterlimit="10"
     d="m 30.074222,88.999997 h -3.3789"
     id="path520" />
  <path
     fill-rule="nonzero"
     fill="#000000"
     fill-opacity="1"
     d="m 11.996102,91.242187 c 0.35156,0.625 0.78906,0.9375 1.32031,0.9375 0.26562,0 0.54297,-0.10156 0.83203,-0.30469 0.28516,-0.20312 0.52344,-0.53125 0.70703,-0.98047 0.1875,-0.44922 0.27735,-0.99609 0.27735,-1.64062 0,-0.91797 -0.21094,-1.64453 -0.63282,-2.1836 -0.33593,-0.43359 -0.71875,-0.64843 -1.14453,-0.64843 -0.26172,0 -0.51562,0.0859 -0.76172,0.26562 -0.3164,0.22266 -0.5664,0.5625 -0.75781,1.01953 -0.19141,0.45703 -0.28516,1 -0.28516,1.63282 0,0.74218 0.14454,1.375 0.44532,1.90234 m 0.46093,-3.23438 c 0.0703,-0.48828 0.20313,-0.83984 0.39844,-1.07031 0.14453,-0.16406 0.3125,-0.24609 0.4961,-0.24609 0.15625,0 0.29296,0.043 0.40625,0.13672 0.15625,0.1289 0.28125,0.35156 0.3789,0.66406 0.13281,0.42187 0.19531,0.94922 0.19531,1.58203 0,0.85547 -0.0625,1.51563 -0.1875,1.98438 -0.082,0.30859 -0.20312,0.53125 -0.35937,0.66015 -0.15625,0.13281 -0.30859,0.20313 -0.45703,0.20313 -0.3086,0 -0.53906,-0.20313 -0.69531,-0.60938 -0.1875,-0.48437 -0.28125,-1.10547 -0.28125,-1.87109 0,-0.47266 0.0352,-0.94922 0.10546,-1.4336 m 3.72657,3.41016 c -0.0898,0.0859 -0.13282,0.19531 -0.13282,0.32031 0,0.12891 0.043,0.23438 0.13282,0.32422 0.0898,0.0859 0.19531,0.13281 0.32031,0.13281 0.125,0 0.23437,-0.0469 0.32031,-0.13281 0.0898,-0.0898 0.13672,-0.19531 0.13672,-0.32422 0,-0.125 -0.0469,-0.23047 -0.13281,-0.32031 -0.0859,-0.0859 -0.19531,-0.13281 -0.32422,-0.13281 -0.125,0 -0.23047,0.0469 -0.32031,0.13281 m 5.05468,-0.40625 c -0.0703,0.125 -0.15234,0.21875 -0.25,0.28516 -0.0937,0.0664 -0.19921,0.10937 -0.3164,0.13281 -0.1211,0.0234 -0.32813,0.0312 -0.6211,0.0312 h -1.44921 c 0.16796,-0.15234 0.59375,-0.59766 1.27343,-1.33984 0.45313,-0.49219 0.77735,-0.96094 0.98047,-1.40235 0.13281,-0.28125 0.19531,-0.5625 0.19531,-0.84375 0,-0.39062 -0.14843,-0.73437 -0.45312,-1.02344 -0.29688,-0.28906 -0.67578,-0.42968 -1.125,-0.42968 -0.42188,0 -0.77344,0.13281 -1.05469,0.40625 -0.28515,0.26562 -0.45703,0.65625 -0.52734,1.15625 h 0.15234 c 0.10156,-0.30469 0.26172,-0.53907 0.48047,-0.69922 0.21484,-0.16016 0.46094,-0.23828 0.73438,-0.23828 0.29687,0 0.55468,0.11328 0.77343,0.33984 0.21485,0.22656 0.32032,0.51172 0.32032,0.86719 0,0.46094 -0.19532,0.96875 -0.58594,1.52344 -0.39453,0.55468 -1.07031,1.27343 -2.03516,2.15234 v 0.15234 h 3.27344 l 0.38672,-1.07031 h -0.15235"
     id="path522" />
  <path
     fill-rule="nonzero"
     fill="#000000"
     fill-opacity="1"
     d="m 11.996102,61.957027 c 0.35156,0.6211 0.78906,0.9375 1.32031,0.9375 0.26562,0 0.54297,-0.10546 0.83203,-0.30468 0.28516,-0.20313 0.52344,-0.53125 0.70703,-0.98047 0.1875,-0.44922 0.27735,-0.9961 0.27735,-1.64063 0,-0.91797 -0.21094,-1.64453 -0.63282,-2.18359 -0.33593,-0.43359 -0.71875,-0.64844 -1.14453,-0.64844 -0.26172,0 -0.51562,0.0859 -0.76172,0.26563 -0.3164,0.22265 -0.5664,0.5625 -0.75781,1.01953 -0.19141,0.45703 -0.28516,1 -0.28516,1.63281 0,0.74219 0.14454,1.375 0.44532,1.90234 m 0.46093,-3.23437 c 0.0703,-0.48828 0.20313,-0.83984 0.39844,-1.07031 0.14453,-0.16407 0.3125,-0.2461 0.4961,-0.2461 0.15625,0 0.29296,0.043 0.40625,0.13672 0.15625,0.12891 0.28125,0.35156 0.3789,0.66406 0.13281,0.42188 0.19531,0.94922 0.19531,1.58204 0,0.85546 -0.0625,1.51562 -0.1875,1.98437 -0.082,0.30859 -0.20312,0.53125 -0.35937,0.66016 -0.15625,0.13281 -0.30859,0.20312 -0.45703,0.20312 -0.3086,0 -0.53906,-0.20312 -0.69531,-0.60937 -0.1875,-0.48438 -0.28125,-1.10547 -0.28125,-1.8711 0,-0.47265 0.0352,-0.94922 0.10546,-1.43359 m 3.72657,3.41016 c -0.0898,0.0859 -0.13282,0.19531 -0.13282,0.32421 0,0.1211 0.043,0.23047 0.13282,0.32032 0.0898,0.0859 0.19531,0.1289 0.32031,0.1289 0.125,0 0.23437,-0.043 0.32031,-0.1289 0.0898,-0.0898 0.13672,-0.19922 0.13672,-0.32032 0,-0.125 -0.0469,-0.23437 -0.13281,-0.32421 -0.0859,-0.0859 -0.19531,-0.13282 -0.32422,-0.13282 -0.125,0 -0.23047,0.0469 -0.32031,0.13282 m 4.51953,-1.38282 v -3.61328 h -0.44922 l -2.57031,3.67188 v 0.52343 h 2.34765 v 1.46094 h 0.67188 v -1.46094 h 0.74609 v -0.58203 z m -2.6211,0 1.94922,-2.75 v 2.75 h -1.94922"
     id="path524" />
  <path
     fill-rule="nonzero"
     fill="#000000"
     fill-opacity="1"
     d="m 11.996102,32.652343 c 0.35156,0.625 0.78906,0.9375 1.32031,0.9375 0.26562,0 0.54297,-0.101562 0.83203,-0.304687 0.28516,-0.203125 0.52344,-0.53125 0.70703,-0.980469 0.1875,-0.449219 0.27735,-0.996094 0.27735,-1.636719 0,-0.921875 -0.21094,-1.648437 -0.63282,-2.1875 -0.33593,-0.429687 -0.71875,-0.648437 -1.14453,-0.648437 -0.26172,0 -0.51562,0.08984 -0.76172,0.265625 -0.3164,0.222656 -0.5664,0.5625 -0.75781,1.019531 -0.19141,0.457031 -0.28516,1.003906 -0.28516,1.632812 0,0.742188 0.14454,1.378907 0.44532,1.902344 m 0.46093,-3.234375 c 0.0703,-0.484375 0.20313,-0.839843 0.39844,-1.066406 0.14453,-0.167969 0.3125,-0.25 0.4961,-0.25 0.15625,0 0.29296,0.04687 0.40625,0.132813 0.15625,0.132812 0.28125,0.355468 0.3789,0.667968 0.13281,0.425782 0.19531,0.949219 0.19531,1.582032 0,0.855468 -0.0625,1.515624 -0.1875,1.984374 -0.082,0.308594 -0.20312,0.53125 -0.35937,0.664063 -0.15625,0.132813 -0.30859,0.199219 -0.45703,0.199219 -0.3086,0 -0.53906,-0.203125 -0.69531,-0.609375 -0.1875,-0.484375 -0.28125,-1.105469 -0.28125,-1.867188 0,-0.472656 0.0352,-0.953125 0.10546,-1.4375 m 3.72657,3.410157 c -0.0898,0.08984 -0.13282,0.195312 -0.13282,0.324218 0,0.125 0.043,0.230469 0.13282,0.320313 0.0898,0.08984 0.19531,0.132812 0.32031,0.132812 0.125,0 0.23437,-0.04297 0.32031,-0.132812 0.0898,-0.08984 0.13672,-0.195313 0.13672,-0.320313 0,-0.125 -0.0469,-0.234375 -0.13281,-0.320312 -0.0859,-0.08984 -0.19531,-0.136719 -0.32422,-0.136719 -0.125,0 -0.23047,0.04687 -0.32031,0.132813 m 4.88281,-4.996094 c -0.28906,0 -0.60547,0.05859 -0.94141,0.179687 -0.33984,0.121094 -0.6914,0.351563 -1.0625,0.699219 -0.37109,0.34375 -0.65625,0.742188 -0.85156,1.1875 -0.19922,0.449219 -0.29687,0.921875 -0.29687,1.417969 0,0.777343 0.25781,1.40625 0.77343,1.898437 0.26563,0.25 0.58594,0.375 0.96485,0.375 0.55859,0 1.0039,-0.234375 1.34375,-0.695312 0.27734,-0.382813 0.42187,-0.804688 0.42187,-1.269532 0,-0.476562 -0.14062,-0.871093 -0.41797,-1.175781 -0.28125,-0.304687 -0.60937,-0.460937 -0.98828,-0.460937 -0.39453,0 -0.78906,0.136718 -1.17969,0.40625 0.0977,-0.371094 0.21875,-0.695313 0.36329,-0.964844 0.14843,-0.273438 0.33203,-0.515625 0.55468,-0.738281 0.22266,-0.222657 0.44532,-0.386719 0.67578,-0.492188 0.22657,-0.109375 0.51954,-0.179687 0.87891,-0.214843 v -0.152344 z m -1.77734,2.582031 c 0.11718,-0.04687 0.22656,-0.06641 0.33203,-0.06641 0.33984,0 0.60156,0.167969 0.78906,0.511719 0.18359,0.339843 0.27734,0.742187 0.27734,1.207031 0,0.414062 -0.0937,0.734375 -0.28125,0.957031 -0.18359,0.226562 -0.39843,0.335938 -0.63281,0.335938 -0.19922,0 -0.37109,-0.0625 -0.50781,-0.191407 -0.19141,-0.179687 -0.33594,-0.421875 -0.4336,-0.730469 -0.0937,-0.308593 -0.14453,-0.589843 -0.14453,-0.851562 0,-0.226562 0.0273,-0.523438 0.0742,-0.890625 0.23047,-0.144531 0.40625,-0.238281 0.52735,-0.28125"
     id="path526" />
  <path
     fill-rule="nonzero"
     fill="#ffffff"
     fill-opacity="1"
     d="m 31.417972,38.472657 h 44.01563 V 11.417968 h -44.01563 z m 0,0"
     id="path528" />
  <path
     fill="none"
     stroke-width="0.55"
     stroke-linecap="butt"
     stroke-linejoin="miter"
     stroke="#000000"
     stroke-opacity="1"
     stroke-miterlimit="10"
     d="m 31.417972,11.417967 h 44.26953 v 27.05078 h -44.26953 z m 0,0"
     id="path530" />
  <path
     fill="none"
     stroke-width="0.892"
     stroke-linecap="butt"
     stroke-linejoin="miter"
     stroke="#000000"
     stroke-opacity="1"
     stroke-miterlimit="10"
     d="m 38.109382,31.566406 h 5.07031"
     id="path532" />
  <path
     fill="none"
     stroke-width="0.892"
     stroke-linecap="butt"
     stroke-linejoin="miter"
     stroke="#000000"
     stroke-opacity="1"
     stroke-miterlimit="10"
     d="m 38.109382,19.824218 h 5.07031"
     id="path534" />
  <path
     fill="none"
     stroke-width="0.892"
     stroke-linecap="butt"
     stroke-linejoin="miter"
     stroke="#000000"
     stroke-opacity="1"
     stroke-miterlimit="10"
     d="m 40.613282,17.249999 v 5.070313"
     id="path536" />
  <path
     fill="none"
     stroke-width="0.892"
     stroke-linecap="butt"
     stroke-linejoin="miter"
     stroke="#000000"
     stroke-opacity="1"
     stroke-miterlimit="10"
     d="m 127.64844,50.101567 h 5.07031"
     id="path538" />
  <path
     fill="none"
     stroke-width="0.892"
     stroke-linecap="butt"
     stroke-linejoin="miter"
     stroke="#000000"
     stroke-opacity="1"
     stroke-miterlimit="10"
     d="m 130.22266,47.597657 v 5.07031"
     id="path540" />
  <path
     fill="none"
     stroke-width="0.892"
     stroke-linecap="butt"
     stroke-linejoin="miter"
     stroke="#000000"
     stroke-opacity="1"
     stroke-miterlimit="10"
     d="m 136.59766,67.066407 h 5.07031"
     id="path542" />
  <path
     fill="none"
     stroke-width="0.892"
     stroke-linecap="butt"
     stroke-linejoin="miter"
     stroke="#000000"
     stroke-opacity="1"
     stroke-miterlimit="10"
     d="m 139.17188,64.558597 v 5.07031"
     id="path544" />
  <path
     fill="none"
     stroke-width="0.892"
     stroke-linecap="butt"
     stroke-linejoin="miter"
     stroke="#000000"
     stroke-opacity="1"
     stroke-miterlimit="10"
     d="m 121.71094,80.593757 h 5.06641"
     id="path546" />
  <path
     fill="none"
     stroke-width="0.892"
     stroke-linecap="butt"
     stroke-linejoin="miter"
     stroke="#000000"
     stroke-opacity="1"
     stroke-miterlimit="10"
     d="m 124.21094,78.089847 v 5.06641"
     id="path548" />
  <path
     fill="none"
     stroke-width="0.892"
     stroke-linecap="butt"
     stroke-linejoin="miter"
     stroke="#000000"
     stroke-opacity="1"
     stroke-miterlimit="10"
     d="m 113.47657,73.222657 h 5.07031"
     id="path550" />
  <path
     fill="none"
     stroke-width="0.892"
     stroke-linecap="butt"
     stroke-linejoin="miter"
     stroke="#000000"
     stroke-opacity="1"
     stroke-miterlimit="10"
     d="m 116.05469,70.644537 v 5.07031"
     id="path552" />
  <path
     fill="none"
     stroke-width="0.892"
     stroke-linecap="butt"
     stroke-linejoin="miter"
     stroke="#000000"
     stroke-opacity="1"
     stroke-miterlimit="10"
     d="m 96.585942,84.601567 h 5.070308"
     id="path554" />
  <path
     fill="none"
     stroke-width="0.892"
     stroke-linecap="butt"
     stroke-linejoin="miter"
     stroke="#000000"
     stroke-opacity="1"
     stroke-miterlimit="10"
     d="m 99.089852,82.023437 v 5.07032"
     id="path556" />
  <path
     fill="none"
     stroke-width="0.892"
     stroke-linecap="butt"
     stroke-linejoin="miter"
     stroke="#000000"
     stroke-opacity="1"
     stroke-miterlimit="10"
     d="m 83.343752,80.734377 h 5.07032"
     id="path558" />
  <path
     fill="none"
     stroke-width="0.892"
     stroke-linecap="butt"
     stroke-linejoin="miter"
     stroke="#000000"
     stroke-opacity="1"
     stroke-miterlimit="10"
     d="m 85.921882,78.160157 v 5.06641"
     id="path560" />
  <path
     fill="none"
     stroke-width="0.892"
     stroke-linecap="butt"
     stroke-linejoin="miter"
     stroke="#000000"
     stroke-opacity="1"
     stroke-miterlimit="10"
     d="m 95.152352,97.054687 h 5.070308"
     id="path562" />
  <path
     fill="none"
     stroke-width="0.892"
     stroke-linecap="butt"
     stroke-linejoin="miter"
     stroke="#000000"
     stroke-opacity="1"
     stroke-miterlimit="10"
     d="m 97.656252,94.550787 v 5.07031"
     id="path564" />
  <path
     fill="none"
     stroke-width="0.892"
     stroke-linecap="butt"
     stroke-linejoin="miter"
     stroke="#000000"
     stroke-opacity="1"
     stroke-miterlimit="10"
     d="m 88.425782,85.101567 h 5.07032"
     id="path566" />
  <path
     fill="none"
     stroke-width="0.892"
     stroke-linecap="butt"
     stroke-linejoin="miter"
     stroke="#000000"
     stroke-opacity="1"
     stroke-miterlimit="10"
     d="m 91.003912,82.523437 v 5.07031"
     id="path568" />
  <path
     fill="none"
     stroke-width="0.892"
     stroke-linecap="butt"
     stroke-linejoin="miter"
     stroke="#000000"
     stroke-opacity="1"
     stroke-miterlimit="10"
     d="m 124.21094,104.64063 h 5.07031"
     id="path570" />
  <path
     fill="none"
     stroke-width="0.892"
     stroke-linecap="butt"
     stroke-linejoin="miter"
     stroke="#000000"
     stroke-opacity="1"
     stroke-miterlimit="10"
     d="m 64.378912,79.734377 h 5.0664"
     id="path572" />
  <path
     fill="none"
     stroke-width="0.892"
     stroke-linecap="butt"
     stroke-linejoin="miter"
     stroke="#000000"
     stroke-opacity="1"
     stroke-miterlimit="10"
     d="m 65.523442,110.58204 h 5.07031"
     id="path574" />
  <path
     fill="none"
     stroke-width="0.892"
     stroke-linecap="butt"
     stroke-linejoin="miter"
     stroke="#000000"
     stroke-opacity="1"
     stroke-miterlimit="10"
     d="m 73.609382,102.92188 h 5.07031"
     id="path576" />
  <path
     fill="none"
     stroke-width="0.892"
     stroke-linecap="butt"
     stroke-linejoin="miter"
     stroke="#000000"
     stroke-opacity="1"
     stroke-miterlimit="10"
     d="m 120.27344,95.765627 h 5.07031"
     id="path578" />
  <path
     fill="none"
     stroke-width="0.892"
     stroke-linecap="butt"
     stroke-linejoin="miter"
     stroke="#000000"
     stroke-opacity="1"
     stroke-miterlimit="10"
     d="m 122.42188,89.609377 h 5.07031"
     id="path580" />
  <path
     fill="none"
     stroke-width="0.892"
     stroke-linecap="butt"
     stroke-linejoin="miter"
     stroke="#000000"
     stroke-opacity="1"
     stroke-miterlimit="10"
     d="m 73.464852,71.074217 h 5.07031"
     id="path582" />
  <path
     fill="none"
     stroke-width="0.892"
     stroke-linecap="butt"
     stroke-linejoin="miter"
     stroke="#000000"
     stroke-opacity="1"
     stroke-miterlimit="10"
     d="m 111.75782,112.80078 h 5.07031"
     id="path584" />
  <path
     fill="none"
     stroke-width="0.892"
     stroke-linecap="butt"
     stroke-linejoin="miter"
     stroke="#000000"
     stroke-opacity="1"
     stroke-miterlimit="10"
     d="m 128.07813,102.4961 h 5.07031"
     id="path586" />
  <path
     fill="none"
     stroke-width="1.303"
     stroke-linecap="butt"
     stroke-linejoin="miter"
     stroke="#df3224"
     stroke-opacity="1"
     stroke-miterlimit="10"
     d="m 79.765632,99.988277 21.976558,0.0195"
     id="path588" />
  <path
     fill="none"
     stroke-width="1.303"
     stroke-linecap="butt"
     stroke-linejoin="miter"
     stroke="#df3224"
     stroke-opacity="1"
     stroke-miterlimit="10"
     d="m 79.906252,31.277343 0.10547,69.320317"
     id="path590" />
  <path
     fill="none"
     stroke-width="1.303"
     stroke-linecap="butt"
     stroke-linejoin="miter"
     stroke="#df3224"
     stroke-opacity="1"
     stroke-miterlimit="10"
     d="m 100.87891,86.749997 54.10156,0.0156"
     id="path592" />
  <path
     fill="none"
     stroke-width="1.303"
     stroke-linecap="butt"
     stroke-linejoin="miter"
     stroke="#df3224"
     stroke-opacity="1"
     stroke-miterlimit="10"
     d="m 101.37891,86.816407 0.10156,13.527343"
     id="path594" />
  <path
     fill-rule="nonzero"
     fill="#000000"
     fill-opacity="1"
     d="m 47.082032,30.363281 h 0.51563 v 2.433594 c 0,0.769531 0.49219,1.15625 1.46875,1.15625 0.53125,0 0.96484,-0.128907 1.30469,-0.390626 0,0.101563 0.0234,0.179688 0.0703,0.234376 l 0.125,0.08984 0.1875,0.01172 h 0.79297 c 0.2539,0 0.38281,-0.09766 0.38281,-0.285156 l -0.0742,-0.207032 -0.13281,-0.08203 -0.17578,-0.0078 h -0.51563 v -3.140625 c 0,-0.152344 -0.0234,-0.257813 -0.0742,-0.3125 -0.0469,-0.05469 -0.14843,-0.08203 -0.30859,-0.08203 h -0.79297 c -0.25391,0.0039 -0.38281,0.101563 -0.38281,0.289063 l 0.0742,0.203125 0.13281,0.08203 0.17969,0.0078 h 0.51172 v 2.035156 c 0,0.210938 -0.043,0.386719 -0.14063,0.53125 -0.0937,0.140625 -0.21875,0.242188 -0.36719,0.300781 -0.14843,0.05469 -0.28125,0.09375 -0.39843,0.113281 -0.11329,0.01563 -0.23047,0.02734 -0.34375,0.02734 -0.20704,0 -0.3711,-0.01953 -0.4961,-0.05078 -0.1289,-0.03516 -0.21875,-0.08984 -0.26953,-0.164063 l -0.0898,-0.183593 c -0.008,-0.05078 -0.0117,-0.128907 -0.0117,-0.234375 v -2.5625 c 0,-0.152344 -0.0273,-0.257813 -0.0742,-0.3125 -0.0469,-0.05469 -0.15234,-0.08203 -0.30859,-0.08203 h -0.79297 l -0.17578,0.01172 -0.13282,0.08203 -0.0742,0.207032 c 0,0.1875 0.12891,0.28125 0.38672,0.28125 m 5.55078,3.535156 h 1.69141 c 0.25391,0 0.38281,-0.09766 0.38281,-0.285156 l -0.0742,-0.207032 -0.13281,-0.08203 -0.17969,-0.0078 h -0.51171 v -1.679688 c 0,-0.316406 0.0742,-0.574219 0.23046,-0.785156 0.15625,-0.207031 0.33204,-0.351563 0.52735,-0.425781 0.19531,-0.07813 0.39062,-0.117188 0.58594,-0.117188 0.3125,0 0.52343,0.07031 0.62109,0.210938 0.10156,0.136718 0.15234,0.359375 0.15234,0.65625 v 2.140625 h -0.51562 c -0.25391,0 -0.38281,0.09766 -0.38281,0.289062 l 0.0742,0.199219 0.13282,0.08203 0.17578,0.01172 h 1.6914 c 0.25391,0 0.38282,-0.09766 0.38282,-0.285156 l -0.0742,-0.207032 -0.13281,-0.08203 -0.17579,-0.0078 h -0.51562 v -2.195313 c 0,-0.929687 -0.45703,-1.394531 -1.375,-1.394531 -0.53906,0 -1.00781,0.179687 -1.40234,0.546875 0,-0.199219 -0.0195,-0.332031 -0.0586,-0.394531 -0.0391,-0.06641 -0.14844,-0.09766 -0.32422,-0.09766 h -0.79297 l -0.17578,0.01172 -0.13281,0.08203 -0.0742,0.207032 c 0,0.1875 0.12891,0.28125 0.38672,0.28125 h 0.51172 v 2.953125 h -0.51172 l -0.17969,0.0078 -0.13281,0.08203 -0.0742,0.207032 c 0,0.1875 0.12891,0.285156 0.38281,0.285156 m 5.55469,0 h 1.91797 c 0.25391,0 0.38281,-0.09766 0.38281,-0.285156 l -0.0703,-0.207032 -0.13281,-0.08203 -0.17969,-0.0078 h -0.74609 v -1.210938 c 0,-0.292969 0.0391,-0.566406 0.11718,-0.816406 0.0742,-0.253906 0.19922,-0.472656 0.36719,-0.65625 0.16797,-0.183594 0.3711,-0.289063 0.60938,-0.316406 0.004,0.152343 0.0508,0.261719 0.13672,0.320312 l 0.26171,0.08984 c 0.10938,0 0.20313,-0.03516 0.28125,-0.113281 0.082,-0.07422 0.1211,-0.175782 0.1211,-0.296875 0,-0.144531 -0.0625,-0.277344 -0.19141,-0.402344 -0.125,-0.125 -0.29687,-0.1875 -0.52344,-0.1875 -0.45312,0 -0.84765,0.195313 -1.17968,0.582031 0,-0.222656 -0.0195,-0.367187 -0.0586,-0.429687 -0.0352,-0.06641 -0.14453,-0.09766 -0.32422,-0.09766 h -0.78906 l -0.17578,0.01172 -0.13281,0.08203 -0.0742,0.207032 c 0,0.1875 0.12891,0.28125 0.38281,0.28125 h 0.51563 v 2.953125 h -0.51563 l -0.17578,0.0078 -0.13281,0.08203 -0.0742,0.207032 c 0,0.1875 0.12891,0.285156 0.38281,0.285156 m 3.88281,0 h 1.60938 c 0.25391,0 0.37891,-0.09766 0.37891,-0.285156 0,-0.199219 -0.12891,-0.296875 -0.39063,-0.296875 h -0.42187 v -3.140625 c 0,-0.152344 -0.0273,-0.257813 -0.0742,-0.3125 -0.0469,-0.05469 -0.15235,-0.08203 -0.3086,-0.08203 h -0.74634 c -0.26172,0.0039 -0.39063,0.101563 -0.39063,0.289063 0,0.195313 0.12891,0.292969 0.39454,0.292969 h 0.46875 v 2.953125 h -0.51954 l -0.17578,0.0078 -0.13281,0.08203 -0.0742,0.207032 c 0,0.1875 0.12891,0.285156 0.38281,0.285156 m 0.69922,-4.890625 c 0.12891,0 0.24219,-0.04297 0.33594,-0.136719 0.0937,-0.08984 0.14063,-0.203125 0.14063,-0.335937 0,-0.136719 -0.0469,-0.246094 -0.14063,-0.339844 -0.0937,-0.08984 -0.20703,-0.136719 -0.33594,-0.136719 -0.13281,0 -0.24609,0.04687 -0.33984,0.136719 -0.0937,0.09375 -0.14063,0.203125 -0.14063,0.339844 0,0.132812 0.0469,0.246093 0.14063,0.335937 0.0937,0.09375 0.20703,0.136719 0.33984,0.136719 m 2.07032,7.011715 h 1.68359 c 0.25781,-0.004 0.38672,-0.10156 0.38672,-0.29296 l -0.0703,-0.19922 -0.13282,-0.082 -0.17968,-0.008 h -0.51563 v -2.046872 c 0.34766,0.375 0.77344,0.5625 1.28125,0.5625 0.57813,0 1.07813,-0.207032 1.50391,-0.613282 0.42187,-0.410156 0.63672,-0.910156 0.63672,-1.503906 0,-0.578125 -0.19922,-1.078125 -0.59375,-1.488281 -0.39454,-0.414063 -0.875,-0.621094 -1.44141,-0.621094 -0.52734,0 -0.99219,0.171875 -1.38672,0.519531 0,-0.1875 -0.0195,-0.3125 -0.0586,-0.371094 -0.0391,-0.0625 -0.14453,-0.09375 -0.32422,-0.09375 h -0.78906 l -0.17969,0.01172 -0.13281,0.08203 -0.0703,0.207032 c 0,0.1875 0.12891,0.28125 0.38282,0.28125 h 0.51562 v 5.074216 h -0.51562 l -0.17579,0.008 -0.13671,0.0781 -0.0703,0.20313 c 0,0.1914 0.125,0.28906 0.38282,0.29296 m 1.17187,-4.624996 c 0,-0.292969 0.13281,-0.546875 0.40625,-0.761719 0.26563,-0.214844 0.57422,-0.324219 0.92188,-0.324219 0.40625,0 0.74609,0.152344 1.02343,0.453125 0.27344,0.304688 0.41016,0.664063 0.41016,1.074219 0,0.433594 -0.14844,0.796875 -0.45313,1.09375 -0.30468,0.292969 -0.65625,0.441406 -1.0664,0.441406 -0.3711,0 -0.66797,-0.148437 -0.89844,-0.4375 -0.23047,-0.292968 -0.34375,-0.589844 -0.34375,-0.894531 z m 5.11328,1.933594 c 0.41797,0.417968 0.92578,0.625 1.52344,0.625 0.52734,0 0.9375,-0.132813 1.22656,-0.402344 0.28906,-0.265625 0.4336,-0.496094 0.4336,-0.691406 0,-0.183594 -0.11329,-0.273438 -0.33985,-0.273438 l -0.20312,0.03906 -0.11719,0.171876 c -0.15625,0.382812 -0.47266,0.574218 -0.95313,0.574218 -0.36718,0 -0.69921,-0.121094 -0.99609,-0.363281 -0.29297,-0.238281 -0.46875,-0.550781 -0.53125,-0.933594 h 2.75391 l 0.14843,-0.0039 0.11719,-0.03906 0.0898,-0.109374 0.0312,-0.203126 c 0,-0.585937 -0.16016,-1.074218 -0.47657,-1.453124 -0.32031,-0.378907 -0.76172,-0.566407 -1.32812,-0.566407 -0.5586,0 -1.03125,0.207031 -1.42188,0.625 -0.38672,0.417969 -0.58203,0.917969 -0.58203,1.496094 0,0.589844 0.21094,1.09375 0.625,1.507813 m 0.51953,-2.703126 c 0.25,-0.230468 0.53516,-0.34375 0.85157,-0.34375 0.28515,0 0.53515,0.09375 0.7539,0.277344 0.21875,0.183594 0.34375,0.5 0.375,0.945313 h -2.44922 c 0.0625,-0.359375 0.21875,-0.652344 0.46875,-0.878907"
     id="path596" />
  <path
     fill-rule="nonzero"
     fill="#000000"
     fill-opacity="1"
     d="m 47.332032,21.843749 h 1.91797 c 0.25391,0 0.37891,-0.09375 0.37891,-0.285156 l -0.0703,-0.207031 -0.13282,-0.08203 -0.17578,-0.0078 h -0.74609 v -1.210937 c 0,-0.292969 0.0391,-0.566406 0.11719,-0.816406 0.0742,-0.253907 0.19531,-0.472657 0.36328,-0.65625 0.16797,-0.183594 0.37109,-0.289063 0.60937,-0.3125 0.008,0.152343 0.0508,0.257812 0.13672,0.316406 l 0.26563,0.09375 c 0.10546,0 0.20312,-0.03906 0.28125,-0.117188 0.0781,-0.07422 0.11718,-0.171875 0.11718,-0.292968 0,-0.144532 -0.0625,-0.28125 -0.1875,-0.40625 -0.125,-0.125 -0.30078,-0.1875 -0.52343,-0.1875 -0.45704,0 -0.85157,0.195312 -1.17969,0.582031 0,-0.222657 -0.0195,-0.367188 -0.0586,-0.429688 -0.0391,-0.0625 -0.14843,-0.09375 -0.32421,-0.09375 h -0.79297 l -0.17578,0.0078 -0.13282,0.08203 -0.0742,0.207031 c 0,0.1875 0.12891,0.285156 0.38672,0.285156 h 0.51563 v 2.949219 h -0.51563 l -0.17968,0.0078 -0.13282,0.08203 -0.0742,0.207031 c 0,0.191406 0.12891,0.285156 0.38672,0.285156 m 3.88282,0 h 1.60546 c 0.25391,0 0.38282,-0.09375 0.38282,-0.285156 0,-0.199218 -0.13282,-0.296875 -0.39453,-0.296875 h -0.42188 v -3.140625 c 0,-0.152344 -0.0234,-0.257812 -0.0703,-0.3125 -0.0469,-0.05078 -0.15235,-0.07813 -0.3086,-0.07813 h -0.75 c -0.25781,0 -0.39062,0.09766 -0.39062,0.289063 0,0.195312 0.13281,0.292968 0.39453,0.292968 h 0.46875 v 2.949219 h -0.51562 l -0.17579,0.0078 -0.13671,0.08203 -0.0703,0.207031 c 0,0.191406 0.12891,0.285156 0.38282,0.285156 m 0.69531,-4.886718 c 0.13281,0 0.24609,-0.04687 0.33984,-0.140625 0.0937,-0.08984 0.13672,-0.203125 0.13672,-0.335938 0,-0.132812 -0.043,-0.246093 -0.13672,-0.339843 -0.0937,-0.08984 -0.20703,-0.136719 -0.33984,-0.136719 -0.13281,0 -0.2461,0.04687 -0.33985,0.136719 -0.0898,0.09375 -0.13671,0.207031 -0.13671,0.339843 0,0.132813 0.0469,0.246094 0.13671,0.335938 0.0937,0.09375 0.20704,0.140625 0.33985,0.140625 m 2.07031,7.007812 h 1.6875 c 0.25781,-0.0039 0.38672,-0.101562 0.38672,-0.289062 l -0.0742,-0.203125 -0.13281,-0.08203 -0.17578,-0.0078 h -0.51563 v -2.046856 c 0.34766,0.375 0.77344,0.5625 1.27735,0.5625 0.57812,0 1.08203,-0.203125 1.5039,-0.613281 0.42578,-0.410157 0.63672,-0.910157 0.63672,-1.5 0,-0.582031 -0.19531,-1.078125 -0.59375,-1.492188 -0.39062,-0.414062 -0.875,-0.621093 -1.4375,-0.621093 -0.53125,0 -0.99219,0.171874 -1.38672,0.519531 0,-0.1875 -0.0195,-0.3125 -0.0586,-0.371094 -0.0391,-0.0625 -0.14844,-0.08984 -0.32422,-0.08984 h -0.79297 l -0.17578,0.0078 -0.13281,0.08203 -0.0742,0.207031 c 0,0.1875 0.1289,0.285156 0.38672,0.285156 h 0.51172 v 5.070313 h -0.51172 l -0.17969,0.0078 -0.13281,0.07812 -0.0742,0.207032 c 0,0.1875 0.1289,0.285156 0.38281,0.289062 m 1.17578,-4.625 c 0,-0.289062 0.13281,-0.542968 0.40235,-0.761718 0.26953,-0.214844 0.57812,-0.324219 0.92187,-0.324219 0.40625,0 0.75,0.152343 1.02344,0.457031 0.27734,0.300781 0.41406,0.660156 0.41406,1.074219 0,0.429687 -0.15234,0.792969 -0.45312,1.089843 -0.30469,0.292969 -0.66016,0.441407 -1.07032,0.441407 -0.36718,0 -0.66797,-0.144531 -0.89453,-0.4375 -0.23047,-0.292969 -0.34375,-0.589844 -0.34375,-0.894531 z m 5.1211,1.933594 c 0.41796,0.417969 0.92578,0.625 1.52343,0.625 0.52735,0 0.9375,-0.132812 1.22657,-0.398438 0.28906,-0.269531 0.43359,-0.5 0.43359,-0.695312 0,-0.179688 -0.11328,-0.269531 -0.33984,-0.269531 l -0.20313,0.03516 -0.11328,0.171875 c -0.16016,0.382812 -0.47656,0.574219 -0.95703,0.574219 -0.3711,0 -0.70313,-0.121094 -0.9961,-0.359375 -0.29296,-0.242188 -0.46875,-0.554688 -0.53125,-0.9375 h 2.75 l 0.15235,-0.0039 0.11719,-0.03906 0.0937,-0.109375 0.0273,-0.199219 c 0,-0.589843 -0.16016,-1.074219 -0.48047,-1.453125 -0.31641,-0.378906 -0.75781,-0.570312 -1.32422,-0.570312 -0.55859,0 -1.03125,0.210937 -1.42187,0.625 -0.38672,0.421875 -0.58203,0.917968 -0.58203,1.496094 0,0.589843 0.21093,1.09375 0.625,1.507812 m 0.51953,-2.703125 c 0.25,-0.230469 0.53515,-0.34375 0.85156,-0.34375 0.28516,0 0.53516,0.09375 0.75391,0.277344 0.21875,0.1875 0.34375,0.5 0.37109,0.945312 h -2.44531 c 0.0625,-0.359375 0.21875,-0.652343 0.46875,-0.878906"
     id="path598" />
  <path
     fill-rule="nonzero"
     fill="#000000"
     fill-opacity="1"
     d="m 4.2734418,71.546877 v -0.008 c 0,-0.17187 -0.105469,-0.27734 -0.320312,-0.32812 0.214843,-0.26953 0.320312,-0.61719 0.320312,-1.04297 0,-0.55859 -0.125,-0.96484 -0.382812,-1.21484 -0.253907,-0.25 -0.542969,-0.375 -0.867188,-0.375 -0.660156,0 -1.078125,0.46875 -1.253906,1.41406 -0.08594,0.46094 -0.164063,0.78516 -0.242188,0.98047 -0.07422,0.1914 -0.203125,0.28906 -0.378906,0.28906 -0.16406198,0 -0.29296898,-0.082 -0.39453098,-0.25 -0.101563,-0.16406 -0.152344,-0.41797 -0.152344,-0.75391 0,-0.16796 0.01953,-0.30468 0.05078,-0.41796 0.03516,-0.10938 0.08594,-0.19141 0.15625,-0.23829 l 0.171875,-0.0937 0.17578098,-0.0352 0.144532,-0.0273 0.109375,-0.0937 c 0.03125,-0.0508 0.05078,-0.125 0.05078,-0.21875 l -0.07031,-0.21484 -0.132813,-0.0859 -0.191406,-0.008 H 0.41016082 c -0.261719,0.004 -0.390625,0.0898 -0.390625,0.26563 0,0.13671 0.06641,0.22656 0.191406,0.26953 -0.125,0.22265 -0.191406,0.51172 -0.191406,0.86328 0,0.32812 0.03906,0.60547 0.121094,0.83203 0.07812,0.22656 0.179687,0.39062 0.308593,0.49609 0.128907,0.10938 0.246094,0.1836 0.363281,0.22266 0.113282,0.0391 0.22656298,0.0586 0.33593798,0.0586 0.578125,0 0.949219,-0.46093 1.121094,-1.39062 0.07422,-0.28125 0.109375,-0.47266 0.109375,-0.58594 0.04297,-0.19531 0.117187,-0.36719 0.226562,-0.50781 0.109375,-0.14453 0.25,-0.21485 0.417969,-0.21485 0.152344,0 0.28125,0.043 0.382812,0.125 0.105469,0.0859 0.171876,0.19922 0.207032,0.33985 0.03516,0.13672 0.05469,0.24609 0.0625,0.32422 l 0.01563,0.22656 c 0,0.17187 -0.02344,0.32031 -0.07422,0.44141 -0.05078,0.125 -0.121094,0.22265 -0.21875,0.29687 -0.09766,0.0742 -0.183594,0.125 -0.269531,0.16406 -0.08203,0.0352 -0.1875,0.0703 -0.3125,0.10547 -0.160157,0.043 -0.238281,0.15625 -0.238281,0.33985 0,0.10156 0.01953,0.17968 0.06641,0.23437 l 0.132812,0.0937 0.191406,0.008 h 0.914063 c 0.261719,0 0.390625,-0.0937 0.390625,-0.28515 m -3.58984398,-3.86328 v -0.51172 H 3.1211058 c 0.769532,-0.004 1.152344,-0.4961 1.152344,-1.46875 0,-0.53516 -0.128906,-0.96875 -0.390625,-1.3086 0.101563,0 0.179687,-0.0234 0.234375,-0.0703 l 0.08984,-0.12891 0.01172,-0.18359 v -0.79297 c 0,-0.2539 -0.09375,-0.38281 -0.285156,-0.38281 l -0.207031,0.0742 -0.08203,0.13281 -0.0078,0.17969 v 0.51172 H 0.49611782 c -0.152344,0 -0.257812,0.0273 -0.3125,0.0742 -0.05469,0.0469 -0.07813,0.15234 -0.07813,0.30859 v 0.79297 c 0,0.2539 0.09766,0.38281 0.285157,0.38281 l 0.203124,-0.0742 0.08203,-0.13281 0.0078,-0.17969 v -0.51172 H 2.7187548 c 0.210938,0 0.386719,0.0469 0.53125,0.14063 0.140626,0.0937 0.242188,0.21875 0.300782,0.36719 0.05469,0.14843 0.09375,0.28125 0.113281,0.39843 0.01953,0.11328 0.02734,0.22657 0.02734,0.34375 0,0.20703 -0.01563,0.3711 -0.05078,0.4961 -0.03516,0.1289 -0.08594,0.21875 -0.160157,0.26562 l -0.1875,0.0937 c -0.05078,0.008 -0.128906,0.0117 -0.230469,0.0117 H 0.49609582 c -0.152344,0 -0.257812,0.0273 -0.3125,0.0742 -0.05469,0.0469 -0.07813,0.15234 -0.07813,0.30859 v 0.79297 l 0.0078,0.17578 0.08203,0.13672 0.207031,0.0703 c 0.1875,0 0.28125,-0.1289 0.28125,-0.38671 m 5.32422498,-5.92969 c 0.26171,-0.42969 0.39453,-0.95313 0.39453,-1.57422 0,-0.62109 -0.13282,-1.14844 -0.39844,-1.57812 -0.26953,-0.4336 -0.60156,-0.65235 -1.00391,-0.65235 -0.20312,0 -0.40625,0.0547 -0.60547,0.16016 -0.203122,0.11328 -0.363279,0.27734 -0.484372,0.5 -0.183594,0.34765 -0.273438,0.80859 -0.273438,1.38672 v 0.66797 c 0,0.13671 -0.0078,0.22656 -0.01953,0.27734 0,0.12891 -0.04687,0.23828 -0.136719,0.31641 -0.08984,0.0742 -0.207031,0.11328 -0.339843,0.11328 -0.08203,0 -0.171876,-0.0195 -0.269532,-0.0586 0.160156,-0.23047 0.238282,-0.51953 0.238282,-0.85547 0,-0.4414 -0.148438,-0.8125 -0.445313,-1.12109 -0.300781,-0.30859 -0.660156,-0.45703 -1.089844,-0.45703 -0.277343,0 -0.554687,0.0781 -0.82812498,0.24609 -0.08984,-0.16015 -0.144531,-0.34765 -0.160156,-0.55859 0.113281,-0.0234 0.195312,-0.0742 0.246094,-0.14844 l 0.07031,-0.22265 -0.09766,-0.25782 c -0.06641,-0.0781 -0.164062,-0.12109 -0.292969,-0.12109 -0.132812,0 -0.25,0.0586 -0.355469,0.17187 -0.101562,0.11329 -0.156249999958,0.28907 -0.156249999958,0.52344 v 0.0156 c 0,0.36718 0.109375999958,0.70312 0.332031999958,0.99609 -0.1875,0.28125 -0.285156,0.58984 -0.285156,0.93359 0,0.4375 0.152343,0.8086 0.457031,1.11329 0.300781,0.30468 0.66015598,0.45703 1.07031198,0.45703 0.34375,0 0.644531,-0.10157 0.90625,-0.30469 0.1875,0.13281 0.402344,0.19922 0.652344,0.19922 0.261719,0 0.488281,-0.0742 0.683594,-0.23047 0.285156,0.47266 0.679687,0.70703 1.183587,0.70703 0.40625,0 0.74219,-0.21484 1.00782,-0.64453 m -1.671876,-0.30078 c -0.07813,-0.11328 -0.125,-0.21875 -0.136719,-0.32031 -0.01172,-0.10157 -0.01953,-0.33204 -0.01953,-0.69532 0,-0.29297 0.0039,-0.51953 0.01563,-0.67968 0.0078,-0.16016 0.03906,-0.35547 0.08594,-0.58204 0.04688,-0.23437 0.132815,-0.39843 0.253905,-0.50781 0.12109,-0.10937 0.27734,-0.16406 0.46484,-0.16406 0.21875,0 0.41016,0.16406 0.57813,0.48437 0.16797,0.32813 0.2539,0.72266 0.2539,1.19141 0,0.46484 -0.0859,0.85938 -0.2539,1.17969 -0.16797,0.32422 -0.35938,0.48437 -0.57813,0.48437 -0.27734,0 -0.5,-0.1289 -0.664057,-0.39062 m -3.43359398,-0.35547 c -0.1875,-0.17969 -0.28125,-0.39453 -0.28125,-0.64453 0,-0.25781 0.09375,-0.47266 0.285156,-0.65235 0.19140698,-0.17968 0.41406298,-0.26953 0.66796898,-0.26953 0.269531,0 0.496094,0.0937 0.683594,0.27344 0.1875,0.18359 0.285156,0.39844 0.285156,0.64844 0,0.25781 -0.09766,0.47265 -0.289062,0.64844 -0.191407,0.17968 -0.414063,0.26953 -0.667969,0.26953 -0.269531,0 -0.496094,-0.0937 -0.68359398,-0.27344 m 2.99609398,-4.36328 c 0.25,-0.28516 0.375,-0.64844 0.375,-1.08985 0,-0.55468 -0.121094,-1.00781 -0.363281,-1.35937 0.203125,-0.14063 0.308593,-0.47266 0.308593,-1.00391 0,-0.10547 -0.0039,-0.1875 -0.01172,-0.24218 l -0.07422,-0.15235 c -0.04297,-0.0469 -0.113281,-0.0664 -0.210937,-0.0664 -0.191407,0 -0.285157,0.12109 -0.285157,0.375 0,0.24218 -0.02734,0.42187 -0.07422,0.53515 h -2.0625 c -0.398437,0 -0.74218698,0.15625 -1.03906198,0.46094 -0.292969,0.30859 -0.441406,0.76953 -0.441406,1.37891 v 0.0195 c 0,0.89062 0.230468,1.33593 0.695312,1.33593 0.140625,0 0.246094,-0.0391 0.32812498,-0.12109 0.07422,-0.082 0.113281,-0.18359 0.113281,-0.30469 0,-0.10156 -0.03516,-0.19531 -0.105468,-0.28125 -0.07422,-0.0859 -0.18359398,-0.13281 -0.33593798,-0.14062 l -0.07422,-0.0234 -0.03125,-0.13672 c -0.0039,-0.0781 -0.0078,-0.19531 -0.0078,-0.35547 0,-0.35937 0.08203,-0.64453 0.246094,-0.85547 0.16406198,-0.21093 0.40624998,-0.32031 0.72656198,-0.32031 0.01563,0.86719 0.148438,1.54688 0.398438,2.03906 0.25,0.49219 0.59375,0.74219 1.023437,0.74219 0.351563,0 0.652344,-0.14453 0.902344,-0.43359 m -1.484375,-0.75781 c -0.15625,-0.35157 -0.25,-0.88282 -0.273437,-1.58985 h 0.800781 l 0.214843,0.0156 0.195313,0.10156 c 0.07813,0.0586 0.140625,0.14453 0.191406,0.25781 0.09766,0.22266 0.148438,0.49219 0.148438,0.80078 0,0.28125 -0.06641,0.51172 -0.207031,0.6836 -0.132813,0.17578 -0.296876,0.26172 -0.488282,0.26172 -0.230468,0 -0.421875,-0.17579 -0.582031,-0.53125 m 1.804687,-3.70313 v -1.91797 c 0,-0.2539 -0.09375,-0.38281 -0.285156,-0.38281 l -0.207031,0.0703 -0.08203,0.13281 -0.0078,0.17969 v 0.7461 h -1.210937 c -0.292969,0 -0.566406,-0.0391 -0.816406,-0.11719 -0.253907,-0.0742 -0.472657,-0.19531 -0.65624998,-0.36719 -0.183594,-0.16797 -0.289063,-0.37109 -0.3125,-0.60547 0.152343,-0.008 0.257812,-0.0547 0.320312,-0.13672 l 0.08984,-0.26562 c 0,-0.10938 -0.03906,-0.20313 -0.11718798,-0.28125 -0.07422,-0.0781 -0.171875,-0.11719 -0.292968,-0.11719 -0.144532,0 -0.285157,0.0625 -0.40625,0.1875 -0.125,0.125 -0.1875,0.30078 -0.1875,0.52344 0,0.45703 0.195312,0.84765 0.582031,1.17969 -0.222657,0 -0.367188,0.0195 -0.429688,0.0547 -0.0625,0.0391 -0.09375,0.15235 -0.09375,0.32813 v 0.79297 l 0.0078,0.17578 0.08203,0.13281 0.207031,0.0703 c 0.1875,0 0.28125,-0.1289 0.28125,-0.38281 v -0.51562 H 3.6367088 v 0.51562 l 0.0078,0.17578 0.08203,0.13672 0.207031,0.0703 c 0.191406,0 0.285156,-0.125 0.285156,-0.38281"
     id="path600" />
  <path
     fill-rule="nonzero"
     fill="#000000"
     fill-opacity="1"
     d="m 80.457032,136.55469 c 0.39844,0.41016 0.87891,0.61328 1.42969,0.61328 0.54688,0 1.00781,-0.20312 1.38281,-0.60937 v 0.16406 c 0,0.15234 0.0273,0.2539 0.0742,0.30859 0.0469,0.0547 0.15235,0.082 0.3086,0.082 h 0.79296 c 0.25391,0 0.38282,-0.0937 0.38282,-0.28515 l -0.0742,-0.20313 -0.13281,-0.082 -0.17579,-0.0117 h -0.51562 v -4.85547 c 0,-0.15625 -0.0273,-0.25781 -0.0742,-0.3125 -0.0469,-0.0508 -0.14844,-0.0781 -0.30859,-0.0781 h -0.79297 c -0.25391,0 -0.38281,0.0937 -0.38281,0.28515 l 0.0742,0.20704 0.13282,0.0781 0.17968,0.0117 h 0.51172 v 1.55859 c -0.36718,-0.32031 -0.78906,-0.48437 -1.27343,-0.48437 -0.59375,0 -1.10157,0.20703 -1.51563,0.61719 -0.41797,0.41406 -0.625,0.91406 -0.625,1.5039 0,0.58594 0.19922,1.08203 0.60156,1.49219 m 0.51172,-2.57813 c 0.30078,-0.30078 0.66016,-0.45312 1.07422,-0.45312 0.33203,0 0.62109,0.10937 0.86328,0.32422 0.24219,0.21875 0.36328,0.46875 0.36328,0.7539 v 0.63282 c 0,0.3164 -0.125,0.62109 -0.3789,0.91406 -0.25,0.29297 -0.57032,0.4375 -0.95313,0.4375 -0.39453,0 -0.73047,-0.14844 -1.00781,-0.44531 -0.27734,-0.30078 -0.41797,-0.65625 -0.41797,-1.07813 0,-0.42578 0.15234,-0.78906 0.45703,-1.08594 m 5.01563,2.56641 c 0.41797,0.41797 0.92968,0.625 1.52734,0.625 0.52734,0 0.93359,-0.13281 1.22656,-0.39844 0.28516,-0.26953 0.4336,-0.5 0.4336,-0.69531 0,-0.17969 -0.11328,-0.26953 -0.33985,-0.26953 l -0.20312,0.0352 -0.11719,0.17578 c -0.15625,0.3789 -0.47656,0.57031 -0.95312,0.57031 -0.3711,0 -0.70313,-0.12109 -0.9961,-0.35938 -0.29297,-0.24218 -0.46875,-0.55468 -0.53515,-0.93359 h 2.7539 l 0.15235,-0.004 0.11718,-0.043 0.0898,-0.10938 0.0312,-0.19922 c 0,-0.58984 -0.16016,-1.07422 -0.48047,-1.45312 -0.31641,-0.37891 -0.75781,-0.57032 -1.32422,-0.57032 -0.55859,0 -1.03516,0.21094 -1.42188,0.62891 -0.38671,0.41797 -0.58203,0.91406 -0.58203,1.49219 0,0.58984 0.20703,1.09375 0.6211,1.50781 m 0.52343,-2.70312 c 0.25,-0.22657 0.53516,-0.33985 0.84766,-0.33985 0.28516,0 0.53906,0.0898 0.75781,0.27344 0.21485,0.1875 0.33985,0.5 0.3711,0.94531 h -2.44532 c 0.0625,-0.35937 0.21875,-0.64844 0.46875,-0.8789 m 3.46094,3.27343 h 1.69141 c 0.2539,0 0.38281,-0.0937 0.38281,-0.28515 l -0.0742,-0.20313 -0.13281,-0.082 -0.17969,-0.0117 h -0.51562 v -1.67969 c 0,-0.3125 0.082,-0.57421 0.23437,-0.78125 0.15625,-0.21093 0.33203,-0.35546 0.52735,-0.42968 0.19531,-0.0781 0.39062,-0.11719 0.58593,-0.11719 0.3125,0 0.52344,0.0703 0.6211,0.21094 0.10547,0.14062 0.15625,0.35937 0.15625,0.65625 v 2.14062 h -0.51563 c -0.25781,0.004 -0.38672,0.0977 -0.38672,0.28906 l 0.0703,0.20313 0.13671,0.082 0.17579,0.008 h 1.6914 c 0.25391,0 0.37891,-0.0937 0.37891,-0.28515 l -0.0703,-0.20313 -0.13282,-0.082 -0.17968,-0.0117 h -0.51172 v -2.19531 c 0,-0.92969 -0.46094,-1.39453 -1.375,-1.39453 -0.53907,0 -1.00782,0.18359 -1.40625,0.54687 0,-0.19922 -0.0156,-0.32812 -0.0547,-0.39453 -0.0391,-0.0625 -0.14844,-0.0937 -0.32422,-0.0937 h -0.79297 l -0.17578,0.008 -0.13281,0.082 -0.0742,0.20703 c 0,0.1914 0.12891,0.28515 0.38281,0.28515 h 0.51563 v 2.94922 h -0.51563 l -0.17578,0.0117 -0.13281,0.082 -0.0742,0.20313 c 0,0.1914 0.12891,0.28515 0.38281,0.28515 m 5.63672,0.0547 h 0.008 c 0.16797,0 0.27735,-0.10547 0.32813,-0.32031 0.26953,0.21484 0.61719,0.32031 1.04297,0.32031 0.55859,0 0.96093,-0.125 1.21093,-0.37891 0.25391,-0.2539 0.37891,-0.54687 0.37891,-0.86718 0,-0.66407 -0.47266,-1.08203 -1.41797,-1.25782 -0.45703,-0.0859 -0.78515,-0.16406 -0.97656,-0.24218 -0.19531,-0.0742 -0.28906,-0.20313 -0.28906,-0.37891 0,-0.16016 0.082,-0.29297 0.24609,-0.39453 0.16797,-0.10156 0.41797,-0.14844 0.75781,-0.14844 0.16407,0 0.30469,0.0156 0.41407,0.0469 0.11328,0.0352 0.19531,0.0859 0.23828,0.16015 l 0.0977,0.17188 0.0352,0.17187 0.0234,0.14453 0.0937,0.10938 c 0.0508,0.0312 0.1289,0.0508 0.22265,0.0508 l 0.21485,-0.0664 0.082,-0.13671 0.0117,-0.1875 v -0.66016 c -0.004,-0.25781 -0.0937,-0.39063 -0.26563,-0.39063 -0.13672,0 -0.22656,0.0625 -0.26953,0.19141 -0.22656,-0.12891 -0.51172,-0.19141 -0.86328,-0.19141 -0.32813,0 -0.60547,0.0391 -0.83203,0.1211 -0.22656,0.0781 -0.39063,0.17969 -0.5,0.30859 -0.10547,0.125 -0.17969,0.2461 -0.21875,0.36328 -0.043,0.11328 -0.0625,0.22657 -0.0625,0.33594 0,0.57813 0.46484,0.95313 1.39453,1.12109 0.27734,0.0742 0.47266,0.10938 0.58203,0.10938 0.19922,0.043 0.36719,0.12109 0.51172,0.22656 0.14453,0.10938 0.21484,0.25 0.21484,0.42188 0,0.15234 -0.043,0.28125 -0.1289,0.38281 -0.082,0.10156 -0.19532,0.16797 -0.33594,0.20312 -0.13672,0.0352 -0.24609,0.0547 -0.32422,0.0664 l -0.22656,0.0117 c -0.17188,0 -0.32031,-0.0234 -0.44531,-0.0742 -0.1211,-0.0508 -0.21875,-0.12109 -0.29297,-0.21875 -0.0742,-0.0977 -0.12891,-0.18359 -0.16407,-0.26953 -0.0352,-0.082 -0.0703,-0.18359 -0.10937,-0.3125 -0.0391,-0.16016 -0.15234,-0.23828 -0.33594,-0.23828 -0.10156,0 -0.17969,0.0234 -0.23437,0.0664 l -0.0937,0.13282 -0.0117,0.1914 v 0.91407 c 0,0.26171 0.0977,0.39062 0.28906,0.39062 m 3.85938,-0.0547 h 1.605458 c 0.25782,0 0.38282,-0.0937 0.38282,-0.28515 0,-0.19922 -0.13282,-0.29688 -0.39453,-0.29688 h -0.42188 v -3.14062 c 0,-0.15235 -0.0234,-0.25391 -0.0703,-0.3086 -0.0508,-0.0547 -0.15235,-0.082 -0.3125,-0.082 h -0.742188 c -0.26172,0.004 -0.39453,0.0977 -0.39453,0.28906 0,0.19532 0.13281,0.29297 0.39453,0.29297 h 0.46875 v 2.94922 h -0.51562 l -0.17579,0.0117 -0.13671,0.082 -0.0703,0.20313 c 0,0.1914 0.125,0.28515 0.38282,0.28515 m 0.695308,-4.88672 c 0.13281,0 0.24609,-0.0469 0.33984,-0.13671 0.0898,-0.0937 0.13672,-0.20704 0.13672,-0.33985 0,-0.13281 -0.0469,-0.24609 -0.13672,-0.33594 -0.0937,-0.0937 -0.20703,-0.14062 -0.33984,-0.14062 -0.13281,0 -0.246098,0.0469 -0.339848,0.14062 -0.0937,0.0898 -0.13671,0.20313 -0.13671,0.33594 0,0.13281 0.043,0.2461 0.13671,0.33985 0.0937,0.0898 0.207038,0.13671 0.339848,0.13671 m 2.08984,1.35547 h 0.5 v 2.35547 c 0,0.4375 0.10938,0.75391 0.33594,0.94531 0.21875,0.19141 0.47266,0.28516 0.75,0.28516 0.32031,0 0.60156,-0.11719 0.83203,-0.35156 0.23047,-0.23047 0.34766,-0.53125 0.34766,-0.89453 l -0.008,-0.1875 -0.0898,-0.12891 c -0.0547,-0.0469 -0.13281,-0.0664 -0.23437,-0.0664 -0.10157,0 -0.17579,0.0195 -0.22657,0.0664 l -0.0859,0.12891 -0.0117,0.17968 c 0,0.21485 -0.0469,0.38282 -0.14063,0.5 -0.0977,0.11329 -0.21094,0.17188 -0.34375,0.17188 h -0.004 c -0.3125,0 -0.46485,-0.23438 -0.46485,-0.70313 v -2.30078 h 1.0586 c 0.25781,0 0.38281,-0.0937 0.38281,-0.28515 l -0.0703,-0.20703 -0.13282,-0.082 -0.17968,-0.008 h -1.0586 v -0.78125 c 0,-0.1289 -0.0195,-0.22656 -0.0547,-0.29297 -0.0352,-0.0703 -0.125,-0.10156 -0.26953,-0.10156 -0.10156,0 -0.17968,0.0234 -0.23437,0.0664 l -0.0898,0.13281 -0.008,0.19531 v 0.78125 h -0.48828 c -0.26172,0.004 -0.39453,0.10156 -0.39453,0.29688 0,0.1914 0.12891,0.28515 0.38281,0.28515 m 3.51563,5.47266 c 0.17968,0.15625 0.40234,0.23437 0.66797,0.23437 0.40234,0 0.74609,-0.14453 1.03906,-0.42968 0.29297,-0.28125 0.5,-0.60547 0.62109,-0.95313 l 1.47656,-4.32422 h 0.38282 c 0.2539,0 0.38281,-0.0937 0.38281,-0.28515 l -0.0703,-0.20703 -0.13282,-0.082 -0.17968,-0.008 h -1.34375 l -0.17578,0.008 -0.13282,0.082 -0.0703,0.20703 c 0,0.1914 0.125,0.28515 0.37891,0.28515 h 0.39453 l -0.9375,2.875 c -0.043,-0.13281 -0.11719,-0.33593 -0.21875,-0.60156 l -0.91016,-2.27344 h 0.36328 c 0.25391,0 0.38282,-0.0937 0.38282,-0.28515 l -0.0703,-0.20703 -0.13281,-0.082 -0.17969,-0.008 h -1.33593 c -0.26172,0.004 -0.39063,0.0977 -0.39063,0.28906 0,0.19532 0.12891,0.29297 0.39063,0.29297 h 0.39062 l 1.44531,3.53125 c -0.0156,0.0312 -0.0898,0.22657 -0.21484,0.59375 -0.20313,0.66797 -0.57813,1 -1.13281,1 -0.0977,0 -0.14453,-0.0156 -0.14453,-0.0469 l 0.0117,-0.0586 0.008,-0.0937 c 0,-0.1289 -0.0391,-0.23046 -0.11719,-0.30468 -0.082,-0.0781 -0.17969,-0.11719 -0.29297,-0.11719 -0.12891,0 -0.23047,0.0391 -0.30469,0.11719 -0.0781,0.0742 -0.11328,0.17578 -0.11328,0.30468 0,0.21094 0.0859,0.39454 0.26563,0.54688"
     id="path602" />
</svg>
