<?xml version="1.0" encoding="UTF-8" standalone="no"?>
<svg
   width="141.94087pt"
   height="128.60831pt"
   viewBox="0 0 141.94087 128.60831"
   version="1.1"
   id="svg4426"
   sodipodi:docname="Zhou2021_Book_MachineLearning.pdf"
   xmlns:inkscape="http://www.inkscape.org/namespaces/inkscape"
   xmlns:sodipodi="http://sodipodi.sourceforge.net/DTD/sodipodi-0.dtd"
   xmlns="http://www.w3.org/2000/svg"
   xmlns:svg="http://www.w3.org/2000/svg">
  <sodipodi:namedview
     id="namedview4428"
     pagecolor="#ffffff"
     bordercolor="#000000"
     borderopacity="0.25"
     inkscape:showpageshadow="2"
     inkscape:pageopacity="0.0"
     inkscape:pagecheckerboard="0"
     inkscape:deskcolor="#d1d1d1"
     inkscape:document-units="pt"
     showgrid="false" />
  <defs
     id="defs422" />
  <path
     fill-rule="evenodd"
     fill="#ffffff"
     fill-opacity="1"
     d="m 81.007276,2.866654 c 0,-1.47265 1.19141,-2.66015001 2.66407,-2.66015001 h 34.484374 c 1.47266,0 2.66016,1.18750001 2.66016,2.66015001 v 10.64453 c 0,1.47266 -1.1875,2.66407 -2.66016,2.66407 H 83.671346 c -1.47266,0 -2.66407,-1.19141 -2.66407,-2.66407 V 2.866654"
     id="path4262" />
  <path
     fill="none"
     stroke-width="0.413"
     stroke-linecap="butt"
     stroke-linejoin="miter"
     stroke="#000000"
     stroke-opacity="1"
     stroke-miterlimit="10"
     d="m 81.007285,2.8666565 c 0,-1.4726565 1.191406,-2.66015651 2.664062,-2.66015651 h 34.484373 c 1.47266,0 2.66016,1.18750001 2.66016,2.66015651 V 13.511188 c 0,1.472656 -1.1875,2.664062 -2.66016,2.664062 H 83.671347 c -1.472656,0 -2.664062,-1.191406 -2.664062,-2.664062 z m 0,0"
     id="path4264" />
  <path
     fill-rule="nonzero"
     fill="#000000"
     fill-opacity="1"
     d="m 87.331496,10.124464 c 0.31641,0.32422 0.71094,0.48829 1.17578,0.48829 0.23829,0 0.45313,-0.0352 0.63672,-0.10938 0.1875,-0.0742 0.32422,-0.16406 0.41016,-0.27344 0.0859,-0.10547 0.14844,-0.20312 0.19141,-0.28515 l 0.0586,-0.19141 c 0,-0.14062 -0.0898,-0.21094 -0.26563,-0.21094 l -0.16015,0.0274 -0.0899,0.13672 c -0.14062,0.30078 -0.38671,0.44921 -0.73828,0.44921 -0.32031,0 -0.59765,-0.11328 -0.83203,-0.34765 -0.23437,-0.23047 -0.35156,-0.51563 -0.35156,-0.85547 0,-0.10938 0.0195,-0.22656 0.0547,-0.35156 0.0351,-0.1211 0.0937,-0.25391 0.17968,-0.39063 0.082,-0.14062 0.21094,-0.2539 0.38282,-0.34765 0.17187,-0.0899 0.375,-0.13282 0.61328,-0.13282 0.30078,0 0.44922,0.0234 0.44922,0.0664 0.008,0.24609 0.11328,0.37109 0.32422,0.37109 l 0.24609,-0.0976 c 0.0664,-0.0625 0.0977,-0.14844 0.0977,-0.25391 0,-0.35937 -0.375,-0.54297 -1.11719,-0.54297 -0.3086,0 -0.57813,0.0547 -0.8125,0.16406 -0.23438,0.10938 -0.41797,0.25391 -0.55078,0.42969 -0.12891,0.17578 -0.22657,0.35547 -0.28907,0.53906 -0.0625,0.1836 -0.0937,0.36719 -0.0937,0.54688 0,0.45312 0.16016,0.84375 0.48047,1.17187 m 3.45313,0.008 c 0.32812,0.32422 0.72265,0.48047 1.1875,0.48047 0.46484,0 0.85937,-0.15625 1.1875,-0.48047 0.32812,-0.32422 0.49219,-0.71485 0.49219,-1.17969 0,-0.46094 -0.16407,-0.85547 -0.49219,-1.1875 -0.32813,-0.32813 -0.72266,-0.49219 -1.1875,-0.49219 -0.46485,0 -0.85938,0.16406 -1.1875,0.4961 -0.32813,0.33203 -0.49219,0.72265 -0.49219,1.18359 0,0.46484 0.16406,0.85547 0.49219,1.17969 m 0.37109,-2.06641 c 0.23047,-0.22266 0.50391,-0.33594 0.82031,-0.33594 0.3125,0 0.58594,0.11328 0.8125,0.33594 0.23047,0.22656 0.34766,0.50391 0.34766,0.83203 0,0.34766 -0.11719,0.64063 -0.34375,0.89063 -0.22656,0.24609 -0.5,0.36718 -0.81641,0.36718 -0.32812,0 -0.60546,-0.12109 -0.82812,-0.37109 -0.22656,-0.24609 -0.33594,-0.54297 -0.33594,-0.88672 0,-0.32812 0.11328,-0.60547 0.34375,-0.83203 m 3.20703,2.50391 h 1.32813 c 0.19922,0 0.30078,-0.0742 0.30078,-0.22266 l -0.0586,-0.16406 -0.10547,-0.0625 -0.14063,-0.008 h -0.40234 v -3.81641 c 0,-0.12109 -0.0195,-0.20313 -0.0586,-0.24219 -0.0391,-0.043 -0.11718,-0.0625 -0.24218,-0.0625 h -0.6211 l -0.14062,0.008 -0.10547,0.0625 -0.0547,0.16016 c 0,0.15234 0.0977,0.22656 0.30078,0.22656 h 0.40625 v 3.66407 h -0.40625 l -0.14062,0.008 -0.10547,0.0625 -0.0547,0.16406 c 0,0.14844 0.0977,0.22266 0.30078,0.22266 m 2.52344,-0.4375 c 0.32813,0.32422 0.72266,0.48047 1.1875,0.48047 0.46484,0 0.86328,-0.15625 1.19141,-0.48047 0.32422,-0.32422 0.48828,-0.71485 0.48828,-1.17969 0,-0.46094 -0.16406,-0.85547 -0.48828,-1.1875 -0.32813,-0.32813 -0.72657,-0.49219 -1.19141,-0.49219 -0.46484,0 -0.85937,0.16406 -1.1875,0.4961 -0.32812,0.33203 -0.48828,0.72265 -0.48828,1.18359 0,0.46484 0.16016,0.85547 0.48828,1.17969 m 0.37109,-2.06641 c 0.23047,-0.22266 0.50391,-0.33594 0.82032,-0.33594 0.3125,0 0.58593,0.11328 0.8164,0.33594 0.22657,0.22656 0.34375,0.50391 0.34375,0.83203 0,0.34766 -0.11328,0.64063 -0.33984,0.89063 -0.23047,0.24609 -0.5,0.36718 -0.82031,0.36718 -0.32813,0 -0.60157,-0.12109 -0.82813,-0.37109 -0.22656,-0.24609 -0.33594,-0.54297 -0.33594,-0.88672 0,-0.32812 0.11329,-0.60547 0.34375,-0.83203 m 3.207044,2.50391 h 1.50781 c 0.19922,0 0.30078,-0.0742 0.30078,-0.22266 l -0.0547,-0.16406 -0.10547,-0.0625 -0.14453,-0.008 h -0.58203 v -0.94922 c 0,-0.23047 0.0273,-0.44532 0.0898,-0.64453 0.0586,-0.19532 0.15625,-0.36719 0.28907,-0.51172 0.13281,-0.14453 0.29297,-0.23047 0.47656,-0.2461 0.008,0.11719 0.043,0.20313 0.10937,0.25 l 0.20704,0.0703 0.21875,-0.0899 0.0937,-0.23047 c 0,-0.11718 -0.0469,-0.22265 -0.14454,-0.32031 -0.10156,-0.0977 -0.23828,-0.14844 -0.41406,-0.14844 -0.35937,0 -0.66406,0.15235 -0.92578,0.46094 0,-0.17578 -0.0156,-0.28906 -0.0469,-0.33984 -0.0274,-0.0508 -0.11329,-0.0742 -0.25391,-0.0742 h -0.62109 l -0.14063,0.008 -0.10156,0.0625 -0.0586,0.16406 c 0,0.14844 0.10157,0.22266 0.30079,0.22266 h 0.40625 v 2.31641 h -0.40625 l -0.14063,0.008 -0.10156,0.0625 -0.0586,0.16406 c 0,0.14844 0.10157,0.22266 0.30079,0.22266 m 3.10156,-1.63282 0.0898,0.0937 0.19141,0.0469 h 4.63281 c 0.20313,0 0.30469,-0.0781 0.30469,-0.23047 0,-0.15234 -0.0937,-0.22656 -0.29297,-0.22656 h -4.69141 l -0.1914,0.0781 -0.0625,0.15235 z m 0.043,-1.07031 c 0.0391,0.0547 0.11328,0.0781 0.21875,0.0781 h 4.6875 c 0.17968,0 0.26953,-0.0742 0.26953,-0.22657 0,-0.15625 -0.10156,-0.23046 -0.30469,-0.23046 h -4.625 c -0.20312,0.004 -0.30859,0.0781 -0.30859,0.23046 z m 6.14843,-0.75 0.23829,0.0937 0.22656,-0.0937 c 0.0703,-0.0625 0.10156,-0.14453 0.10156,-0.24219 l -0.0703,-0.20703 c 0.14453,-0.17968 0.39453,-0.26562 0.7539,-0.26562 0.33594,0 0.58594,0.043 0.75,0.13672 0.16797,0.0898 0.25,0.19922 0.25,0.33593 0,0.11719 -0.0781,0.23047 -0.23046,0.33594 -0.25,0.14453 -0.45704,0.29297 -0.61329,0.44141 -0.16015,0.14844 -0.27343,0.29297 -0.33984,0.4375 -0.0664,0.14453 -0.10937,0.26562 -0.125,0.36719 -0.0195,0.0937 -0.0312,0.21093 -0.0312,0.34765 0,0.15625 0.0195,0.26172 0.0469,0.3125 0.0351,0.0508 0.125,0.0742 0.26953,0.0742 0.12109,0 0.20312,-0.0195 0.24609,-0.0586 0.0469,-0.0352 0.0664,-0.11719 0.0664,-0.24219 v -0.12891 c 0,-0.27734 0.0703,-0.50781 0.21093,-0.6875 0.14063,-0.17968 0.32813,-0.34375 0.56641,-0.48828 0.30078,-0.17578 0.44922,-0.41015 0.44922,-0.71094 0,-0.10156 -0.0195,-0.19921 -0.0625,-0.29296 -0.043,-0.0937 -0.11719,-0.19141 -0.21875,-0.29297 -0.10156,-0.10547 -0.25781,-0.1875 -0.46875,-0.25 -0.21094,-0.0625 -0.46484,-0.0937 -0.76563,-0.0937 -0.4375,0 -0.76953,0.0898 -1,0.26953 -0.23437,0.17969 -0.34765,0.39453 -0.34765,0.64453 0,0.10937 0.0312,0.19531 0.0976,0.25781 m 1.22657,3.45313 c 0.10937,0 0.19922,-0.0352 0.26172,-0.10547 0.0664,-0.0742 0.10156,-0.16016 0.10156,-0.26563 0,-0.10547 -0.0352,-0.1914 -0.10156,-0.26562 -0.0625,-0.0742 -0.15235,-0.10938 -0.26172,-0.10938 -0.10938,0 -0.20313,0.0352 -0.27735,0.10938 -0.0742,0.0742 -0.10937,0.16015 -0.10937,0.26562 0,0.10547 0.0351,0.19141 0.10937,0.26563 0.0742,0.0703 0.16797,0.10547 0.27735,0.10547"
     id="path4266" />
  <path
     fill-rule="evenodd"
     fill="#ffffff"
     fill-opacity="1"
     d="m 54.073686,40.304154 c 0,-1.46484 1.1875,-2.65234 2.65234,-2.65234 h 34.50391 c 1.46875,0 2.65234,1.1875 2.65234,2.65234 v 10.60938 c 0,1.46484 -1.18359,2.65234 -2.65234,2.65234 h -34.50391 c -1.46484,0 -2.65234,-1.1875 -2.65234,-2.65234 v -10.60938"
     id="path4268" />
  <path
     fill="none"
     stroke-width="0.413"
     stroke-linecap="butt"
     stroke-linejoin="miter"
     stroke="#000000"
     stroke-opacity="1"
     stroke-miterlimit="10"
     d="m 54.073692,40.304157 c 0,-1.464844 1.1875,-2.652344 2.652343,-2.652344 h 34.503907 c 1.46875,0 2.652343,1.1875 2.652343,2.652344 v 10.609375 c 0,1.464843 -1.183593,2.652343 -2.652343,2.652343 H 56.726035 c -1.464843,0 -2.652343,-1.1875 -2.652343,-2.652343 z m 0,0"
     id="path4270" />
  <path
     fill-rule="evenodd"
     fill="#ffffff"
     fill-opacity="1"
     d="m 27.143996,77.694784 c 0,-1.46485 1.1836,-2.65235 2.64844,-2.65235 h 34.50781 c 1.46485,0 2.65235,1.1875 2.65235,2.65235 v 10.60937 c 0,1.46485 -1.1875,2.65235 -2.65235,2.65235 h -34.50781 c -1.46484,0 -2.64844,-1.1875 -2.64844,-2.65235 v -10.60937"
     id="path4272" />
  <path
     fill="none"
     stroke-width="0.413"
     stroke-linecap="butt"
     stroke-linejoin="miter"
     stroke="#000000"
     stroke-opacity="1"
     stroke-miterlimit="10"
     d="m 27.144005,77.694781 c 0,-1.464844 1.183593,-2.652344 2.648437,-2.652344 h 34.507812 c 1.464844,0 2.652344,1.1875 2.652344,2.652344 v 10.609375 c 0,1.464843 -1.1875,2.652343 -2.652344,2.652343 H 29.792442 c -1.464844,0 -2.648437,-1.1875 -2.648437,-2.652343 z m 0,0"
     id="path4274" />
  <path
     fill-rule="evenodd"
     fill="#ffffff"
     fill-opacity="1"
     d="m 0.20649638,120.42134 c 0,-4.41016 8.91407002,-7.98438 19.90624962,-7.98438 10.9961,0 19.90625,3.57422 19.90625,7.98438 0,4.40625 -8.91015,7.98047 -19.90625,7.98047 -10.9921796,0 -19.90624962,-3.57422 -19.90624962,-7.98047"
     id="path4276" />
  <path
     fill="none"
     stroke-width="0.413"
     stroke-linecap="butt"
     stroke-linejoin="miter"
     stroke="#000000"
     stroke-opacity="1"
     stroke-miterlimit="10"
     d="m 0.20649499,120.42134 c 0,-4.41015 8.91406241,-7.98437 19.90625001,-7.98437 10.996093,0 19.90625,3.57422 19.90625,7.98437 0,4.40625 -8.910157,7.98047 -19.90625,7.98047 -10.9921876,0 -19.90625001,-3.57422 -19.90625001,-7.98047 z m 0,0"
     id="path4278" />
  <path
     fill="none"
     stroke-width="0.35"
     stroke-linecap="butt"
     stroke-linejoin="miter"
     stroke="#000000"
     stroke-opacity="1"
     stroke-miterlimit="10"
     d="M 93.901815,16.175246 73.97994,37.651808"
     id="path4280" />
  <path
     fill="none"
     stroke-width="0.35"
     stroke-linecap="butt"
     stroke-linejoin="miter"
     stroke="#000000"
     stroke-opacity="1"
     stroke-miterlimit="10"
     d="M 66.968222,53.565872 47.046346,75.042434"
     id="path4282" />
  <path
     fill="none"
     stroke-width="0.35"
     stroke-linecap="butt"
     stroke-linejoin="miter"
     stroke="#000000"
     stroke-opacity="1"
     stroke-miterlimit="10"
     d="M 40.034628,90.956499 20.112753,112.43697"
     id="path4284" />
  <path
     fill="none"
     stroke-width="0.35"
     stroke-linecap="butt"
     stroke-linejoin="miter"
     stroke="#000000"
     stroke-opacity="1"
     stroke-miterlimit="10"
     d="m 108.83932,16.175246 20.65234,21.476562"
     id="path4286" />
  <path
     fill-rule="nonzero"
     fill="#000000"
     fill-opacity="1"
     d="m 124.49947,45.229934 c -0.12109,0.11719 -0.17969,0.26172 -0.17969,0.4336 0,0.16797 0.0586,0.3125 0.17969,0.42968 0.11719,0.1211 0.26172,0.17969 0.42969,0.17969 0.16797,0 0.3125,-0.0586 0.42969,-0.17969 0.12109,-0.11718 0.17968,-0.26171 0.17968,-0.42968 0,-0.16797 -0.0586,-0.3125 -0.17578,-0.42969 -0.11718,-0.12109 -0.26172,-0.17969 -0.43359,-0.17969 -0.16797,0 -0.3125,0.0586 -0.42969,0.17578 m 3.75,0 c -0.12109,0.11719 -0.17969,0.26172 -0.17969,0.4336 0,0.16797 0.0586,0.3125 0.17969,0.42968 0.11719,0.1211 0.26172,0.17969 0.42969,0.17969 0.16797,0 0.3125,-0.0586 0.42969,-0.17969 0.12109,-0.11718 0.17968,-0.26171 0.17968,-0.42968 0,-0.16797 -0.0586,-0.3125 -0.17968,-0.42969 -0.11719,-0.12109 -0.26172,-0.17969 -0.42969,-0.17969 -0.16797,0 -0.3125,0.0586 -0.42969,0.17578 m 3.7461,0 c -0.11719,0.11719 -0.17579,0.26172 -0.17579,0.4336 0,0.16797 0.0586,0.3125 0.17969,0.42968 0.11719,0.1211 0.26172,0.17969 0.4336,0.17969 0.16406,0 0.30859,-0.0586 0.42578,-0.17969 0.12109,-0.11718 0.17968,-0.26171 0.17968,-0.42968 0,-0.16797 -0.0586,-0.3125 -0.17968,-0.42969 -0.11719,-0.12109 -0.26172,-0.17969 -0.42578,-0.17969 -0.17579,0 -0.32032,0.0586 -0.4375,0.17578 m 3.28125,0 c -0.11719,0.11719 -0.17579,0.26172 -0.17579,0.4336 0,0.16797 0.0586,0.3125 0.17579,0.42968 0.12109,0.1211 0.26171,0.17969 0.43359,0.17969 0.16797,0 0.3125,-0.0586 0.42969,-0.17969 0.11718,-0.11718 0.17578,-0.26171 0.17578,-0.42968 0,-0.16797 -0.0547,-0.3125 -0.17188,-0.42969 -0.12109,-0.12109 -0.26172,-0.17969 -0.43359,-0.17969 -0.17188,0 -0.3125,0.0586 -0.43359,0.17578 m 2.8125,0 c -0.1211,0.11719 -0.17969,0.26172 -0.17969,0.4336 0,0.16797 0.0586,0.3125 0.17969,0.42968 0.11718,0.1211 0.26171,0.17969 0.42968,0.17969 0.17188,0 0.3125,-0.0586 0.42969,-0.17969 0.12109,-0.11718 0.17969,-0.26171 0.17969,-0.42968 0,-0.16797 -0.0586,-0.3125 -0.17578,-0.42969 -0.11719,-0.12109 -0.26172,-0.17969 -0.4336,-0.17969 -0.16797,0 -0.3125,0.0586 -0.42968,0.17578 m 2.80859,0 c -0.11719,0.11719 -0.17578,0.26172 -0.17578,0.4336 0,0.16797 0.0586,0.3125 0.17578,0.42968 0.12109,0.1211 0.26562,0.17969 0.43359,0.17969 0.16797,0 0.3125,-0.0586 0.42969,-0.17969 0.11719,-0.11718 0.17969,-0.26171 0.17969,-0.42968 0,-0.16797 -0.0586,-0.3125 -0.17578,-0.42969 -0.11719,-0.12109 -0.26172,-0.17969 -0.4336,-0.17969 -0.16797,0 -0.3125,0.0586 -0.43359,0.17578"
     id="path4288" />
  <path
     fill-rule="nonzero"
     fill="#000000"
     fill-opacity="1"
     d="m 128.75728,25.436964 c -0.11718,0.11719 -0.17968,0.26172 -0.17968,0.4336 0,0.16797 0.0625,0.3125 0.17968,0.42969 0.11719,0.12109 0.26172,0.17968 0.4336,0.17968 0.16797,0 0.30859,-0.0586 0.42969,-0.17968 0.11718,-0.11719 0.17578,-0.26172 0.17578,-0.42969 0,-0.16797 -0.0586,-0.3125 -0.17578,-0.42969 -0.11719,-0.12109 -0.26172,-0.17969 -0.42969,-0.17969 -0.17188,0 -0.31641,0.0586 -0.4336,0.17578 m 3.75,0 c -0.11718,0.11719 -0.17578,0.26172 -0.17578,0.4336 0,0.16797 0.0586,0.3125 0.17578,0.42969 0.11719,0.12109 0.26172,0.17968 0.4336,0.17968 0.16797,0 0.30859,-0.0586 0.42969,-0.17968 0.11718,-0.11719 0.17578,-0.26172 0.17578,-0.42969 0,-0.16797 -0.0586,-0.3125 -0.17578,-0.42969 -0.1211,-0.12109 -0.26172,-0.17969 -0.42969,-0.17969 -0.17188,0 -0.31641,0.0586 -0.4336,0.17578 m 3.7461,0 c -0.11328,0.11719 -0.17188,0.26172 -0.17188,0.4336 0,0.16797 0.0586,0.3125 0.17578,0.42969 0.1211,0.12109 0.26563,0.17968 0.4336,0.17968 0.16406,0 0.30859,-0.0586 0.42969,-0.17968 0.11718,-0.11719 0.17578,-0.26172 0.17578,-0.42969 0,-0.16797 -0.0586,-0.3125 -0.17578,-0.42969 -0.1211,-0.12109 -0.26563,-0.17969 -0.42969,-0.17969 -0.17188,0 -0.31641,0.0586 -0.4375,0.17578"
     id="path4290" />
  <path
     fill="none"
     stroke-width="0.35"
     stroke-linecap="butt"
     stroke-linejoin="miter"
     stroke="#000000"
     stroke-opacity="1"
     stroke-miterlimit="10"
     d="M 80.671346,53.73384 101.31978,75.214309"
     id="path4292" />
  <path
     fill-rule="nonzero"
     fill="#000000"
     fill-opacity="1"
     d="m 96.272906,82.847124 c -0.12109,0.11719 -0.17969,0.26172 -0.17969,0.43359 0,0.16797 0.0586,0.3125 0.17969,0.42969 0.11719,0.1211 0.26172,0.17969 0.42969,0.17969 0.16797,0 0.3125,-0.0586 0.42968,-0.17969 0.11719,-0.11719 0.17969,-0.26172 0.17969,-0.42969 0,-0.16796 -0.0586,-0.3125 -0.17578,-0.42968 -0.11719,-0.1211 -0.26172,-0.17969 -0.43359,-0.17969 -0.16797,0 -0.3125,0.0586 -0.42969,0.17578 m 3.750004,0 c -0.121094,0.11719 -0.179694,0.26172 -0.179694,0.43359 0,0.16797 0.0586,0.3125 0.179694,0.42969 0.11719,0.1211 0.26172,0.17969 0.42969,0.17969 0.16797,0 0.3125,-0.0586 0.42968,-0.17969 0.1211,-0.11719 0.17969,-0.26172 0.17969,-0.42969 0,-0.16796 -0.0586,-0.3125 -0.17969,-0.42968 -0.11718,-0.1211 -0.26171,-0.17969 -0.42968,-0.17969 -0.16797,0 -0.3125,0.0586 -0.42969,0.17578 m 3.74609,0 c -0.11718,0.11719 -0.17578,0.26172 -0.17578,0.43359 0,0.16797 0.0586,0.3125 0.17969,0.42969 0.12109,0.1211 0.26172,0.17969 0.42969,0.17969 0.16797,0 0.3125,-0.0586 0.42968,-0.17969 0.1211,-0.11719 0.17969,-0.26172 0.17969,-0.42969 0,-0.16796 -0.0586,-0.3125 -0.17969,-0.42968 -0.11718,-0.1211 -0.26171,-0.17969 -0.42968,-0.17969 -0.17188,0 -0.31641,0.0586 -0.4336,0.17578 m 3.28125,0 c -0.11718,0.11719 -0.17578,0.26172 -0.17578,0.43359 0,0.16797 0.0586,0.3125 0.17578,0.42969 0.11719,0.1211 0.26172,0.17969 0.4336,0.17969 0.16797,0 0.30859,-0.0586 0.42968,-0.17969 0.11719,-0.11719 0.17579,-0.26172 0.17579,-0.42969 0,-0.16796 -0.0547,-0.3125 -0.17188,-0.42968 -0.12109,-0.1211 -0.26172,-0.17969 -0.43359,-0.17969 -0.17188,0 -0.31641,0.0586 -0.4336,0.17578 m 2.8125,0 c -0.12109,0.11719 -0.17968,0.26172 -0.17968,0.43359 0,0.16797 0.0586,0.3125 0.17968,0.42969 0.11719,0.1211 0.26172,0.17969 0.42969,0.17969 0.16797,0 0.3125,-0.0586 0.42969,-0.17969 0.12109,-0.11719 0.17969,-0.26172 0.17969,-0.42969 0,-0.16796 -0.0586,-0.3125 -0.17579,-0.42968 -0.11718,-0.1211 -0.26171,-0.17969 -0.43359,-0.17969 -0.16797,0 -0.3125,0.0586 -0.42969,0.17578 m 2.8086,0 c -0.11719,0.11719 -0.17578,0.26172 -0.17578,0.43359 0,0.16797 0.0586,0.3125 0.17578,0.42969 0.12109,0.1211 0.26562,0.17969 0.43359,0.17969 0.16797,0 0.3125,-0.0586 0.42969,-0.17969 0.12109,-0.11719 0.17578,-0.26172 0.17578,-0.42969 0,-0.16796 -0.0547,-0.3125 -0.17188,-0.42968 -0.11718,-0.1211 -0.26171,-0.17969 -0.43359,-0.17969 -0.16797,0 -0.3125,0.0586 -0.43359,0.17578"
     id="path4294" />
  <path
     fill-rule="nonzero"
     fill="#000000"
     fill-opacity="1"
     d="m 100.53072,63.046344 c -0.11719,0.11719 -0.17578,0.25781 -0.17578,0.42969 0,0.16797 0.0586,0.3164 0.17578,0.43359 0.1211,0.11719 0.26172,0.17969 0.4336,0.17969 0.16796,0 0.30859,-0.0625 0.42968,-0.17969 0.11719,-0.11719 0.17578,-0.26562 0.17578,-0.43359 0,-0.16407 -0.0547,-0.3086 -0.17187,-0.42969 -0.11719,-0.11719 -0.26563,-0.17578 -0.43359,-0.17578 -0.17188,0 -0.3125,0.0547 -0.4336,0.17578 m 3.75,0 c -0.11719,0.11719 -0.17578,0.25781 -0.17578,0.42969 0,0.16797 0.0586,0.3164 0.17578,0.43359 0.11719,0.11719 0.26172,0.17969 0.4336,0.17969 0.16796,0 0.30859,-0.0625 0.42968,-0.17969 0.11719,-0.11719 0.17969,-0.26562 0.17969,-0.43359 0,-0.16407 -0.0625,-0.3086 -0.17969,-0.42969 -0.12109,-0.11719 -0.26172,-0.17578 -0.42968,-0.17578 -0.17188,0 -0.31641,0.0547 -0.4336,0.17578 m 3.7461,0 c -0.11719,0.11719 -0.17188,0.25781 -0.17188,0.42969 0,0.16797 0.0586,0.3164 0.17578,0.43359 0.1211,0.11719 0.26172,0.17969 0.4336,0.17969 0.16796,0 0.30859,-0.0625 0.42968,-0.17969 0.1211,-0.11719 0.17578,-0.26562 0.17578,-0.43359 0,-0.16407 -0.0547,-0.3086 -0.17578,-0.42969 -0.12109,-0.11719 -0.26172,-0.17578 -0.42968,-0.17578 -0.17579,0 -0.31641,0.0547 -0.4375,0.17578"
     id="path4296" />
  <path
     fill="none"
     stroke-width="0.35"
     stroke-linecap="butt"
     stroke-linejoin="miter"
     stroke="#000000"
     stroke-opacity="1"
     stroke-miterlimit="10"
     d="M 53.565876,91.237747 74.218219,112.71822"
     id="path4298" />
  <path
     fill-rule="nonzero"
     fill="#000000"
     fill-opacity="1"
     d="m 69.210406,120.35103 c -0.11719,0.11718 -0.17578,0.26172 -0.17578,0.43359 0,0.16797 0.0586,0.3125 0.17578,0.42969 0.12109,0.12109 0.26562,0.17969 0.43359,0.17969 0.16797,0 0.3125,-0.0586 0.42969,-0.17969 0.12109,-0.11719 0.17969,-0.26172 0.17969,-0.42969 0,-0.16797 -0.0586,-0.3125 -0.17578,-0.42969 -0.11719,-0.12109 -0.26172,-0.17968 -0.4336,-0.17968 -0.16797,0 -0.3125,0.0586 -0.43359,0.17578 m 3.75391,0 c -0.1211,0.11718 -0.17969,0.26172 -0.17969,0.43359 0,0.16797 0.0586,0.3125 0.17969,0.42969 0.11718,0.12109 0.26171,0.17969 0.42968,0.17969 0.16797,0 0.3125,-0.0586 0.42969,-0.17969 0.12109,-0.11719 0.17969,-0.26172 0.17969,-0.42969 0,-0.16797 -0.0586,-0.3125 -0.17969,-0.42969 -0.11719,-0.12109 -0.26172,-0.17968 -0.42969,-0.17968 -0.16797,0 -0.3125,0.0586 -0.42968,0.17578 m 3.74609,0 c -0.11719,0.11718 -0.17578,0.26172 -0.17578,0.43359 0,0.16797 0.0586,0.3125 0.17969,0.42969 0.11718,0.12109 0.26171,0.17969 0.42968,0.17969 0.16797,0 0.3125,-0.0586 0.42969,-0.17969 0.12109,-0.11719 0.17969,-0.26172 0.17969,-0.42969 0,-0.16797 -0.0586,-0.3125 -0.17969,-0.42969 -0.11719,-0.12109 -0.26172,-0.17968 -0.42969,-0.17968 -0.17187,0 -0.3164,0.0586 -0.43359,0.17578 m 3.28125,0 c -0.12109,0.11718 -0.17969,0.26172 -0.17969,0.43359 0,0.16797 0.0586,0.3125 0.17969,0.42969 0.11719,0.12109 0.26172,0.17969 0.42969,0.17969 0.16797,0 0.3125,-0.0586 0.43359,-0.17969 0.11719,-0.11719 0.17578,-0.26172 0.17578,-0.42969 0,-0.16797 -0.0547,-0.3125 -0.17578,-0.42969 -0.11719,-0.12109 -0.26172,-0.17968 -0.43359,-0.17968 -0.16797,0 -0.3125,0.0586 -0.42969,0.17578 m 2.8125,0 c -0.12109,0.11718 -0.17969,0.26172 -0.17969,0.43359 0,0.16797 0.0586,0.3125 0.17969,0.42969 0.11719,0.12109 0.26172,0.17969 0.42969,0.17969 0.16797,0 0.3125,-0.0586 0.42968,-0.17969 0.1211,-0.11719 0.17969,-0.26172 0.17969,-0.42969 0,-0.16797 -0.0586,-0.3125 -0.17578,-0.42969 -0.11719,-0.12109 -0.26172,-0.17968 -0.43359,-0.17968 -0.16797,0 -0.3125,0.0586 -0.42969,0.17578 m 2.80859,0 c -0.11718,0.11718 -0.17578,0.26172 -0.17578,0.43359 0,0.16797 0.0586,0.3125 0.17578,0.42969 0.1211,0.12109 0.26563,0.17969 0.42969,0.17969 0.17188,0 0.31641,-0.0586 0.43359,-0.17969 0.11719,-0.11719 0.17969,-0.26172 0.17969,-0.42969 0,-0.16797 -0.0625,-0.3125 -0.17578,-0.42969 -0.12109,-0.12109 -0.26562,-0.17968 -0.4375,-0.17968 -0.16406,0 -0.30859,0.0586 -0.42969,0.17578"
     id="path4300" />
  <path
     fill-rule="nonzero"
     fill="#000000"
     fill-opacity="1"
     d="m 73.460406,100.55806 c -0.11719,0.11719 -0.17578,0.26172 -0.17578,0.43359 0,0.16797 0.0586,0.3125 0.17578,0.42969 0.12109,0.12109 0.26562,0.17969 0.43359,0.17969 0.16797,0 0.3125,-0.0586 0.42969,-0.17969 0.11719,-0.11719 0.17969,-0.26172 0.17969,-0.42969 0,-0.16797 -0.0586,-0.3125 -0.17578,-0.42969 -0.11719,-0.12109 -0.26172,-0.17968 -0.4336,-0.17968 -0.16797,0 -0.3125,0.0586 -0.43359,0.17578 m 3.75,0 c -0.11719,0.11719 -0.17578,0.26172 -0.17578,0.43359 0,0.16797 0.0586,0.3125 0.17578,0.42969 0.12109,0.12109 0.26562,0.17969 0.43359,0.17969 0.16797,0 0.3125,-0.0586 0.42969,-0.17969 0.12109,-0.11719 0.17969,-0.26172 0.17969,-0.42969 0,-0.16797 -0.0586,-0.3125 -0.17969,-0.42969 -0.11719,-0.12109 -0.26172,-0.17968 -0.42969,-0.17968 -0.16797,0 -0.3125,0.0586 -0.43359,0.17578 m 3.75,0 c -0.11719,0.11719 -0.17578,0.26172 -0.17578,0.43359 0,0.16797 0.0586,0.3125 0.17969,0.42969 0.11718,0.12109 0.26171,0.17969 0.42968,0.17969 0.16797,0 0.3125,-0.0586 0.42969,-0.17969 0.12109,-0.11719 0.17969,-0.26172 0.17969,-0.42969 0,-0.16797 -0.0586,-0.3125 -0.17969,-0.42969 -0.11719,-0.12109 -0.26172,-0.17968 -0.42969,-0.17968 -0.17187,0 -0.3164,0.0586 -0.43359,0.17578"
     id="path4302" />
  <path
     fill-rule="nonzero"
     fill="#000000"
     fill-opacity="1"
     d="m 61.288526,48.483844 h 1.50782 c 0.19922,0 0.30078,-0.0742 0.30078,-0.22266 l -0.0547,-0.16406 -0.10547,-0.0625 -0.14062,-0.008 h -0.58594 v -0.95313 c 0,-0.22656 0.0273,-0.4414 0.0898,-0.64062 0.0586,-0.19922 0.15625,-0.36719 0.28907,-0.51172 0.13281,-0.14844 0.29296,-0.22656 0.47656,-0.24609 0.004,0.11718 0.043,0.19921 0.10937,0.25 l 0.20703,0.0703 0.22266,-0.0898 0.0937,-0.23046 c 0,-0.11719 -0.0508,-0.22266 -0.15234,-0.32032 -0.0977,-0.0976 -0.23438,-0.14453 -0.41016,-0.14453 -0.35937,0 -0.66797,0.14844 -0.92578,0.45703 0,-0.17578 -0.0156,-0.28906 -0.0469,-0.33984 -0.0312,-0.0508 -0.11328,-0.0742 -0.2539,-0.0742 h -0.6211 l -0.14062,0.008 -0.10547,0.0625 -0.0547,0.16016 c 0,0.15234 0.10157,0.22656 0.30078,0.22656 h 0.40625 v 2.31641 h -0.40625 l -0.14062,0.008 -0.10547,0.0625 -0.0547,0.16406 c 0,0.14844 0.10157,0.22266 0.30078,0.22266 m 3.40235,-0.4375 c 0.32812,0.32031 0.72265,0.48047 1.1875,0.48047 0.46484,0 0.85937,-0.16016 1.1875,-0.48047 0.32812,-0.32422 0.49219,-0.71484 0.49219,-1.17969 0,-0.46094 -0.16407,-0.85547 -0.49219,-1.1875 -0.32813,-0.32812 -0.72266,-0.49219 -1.1875,-0.49219 -0.46485,0 -0.85938,0.16407 -1.1875,0.4961 -0.32813,0.33203 -0.49219,0.72265 -0.49219,1.18359 0,0.46485 0.16406,0.85547 0.49219,1.17969 m 0.37109,-2.06641 c 0.23047,-0.22265 0.50391,-0.33593 0.82031,-0.33593 0.3125,0 0.58594,0.11328 0.81641,0.33593 0.22656,0.22657 0.34375,0.50391 0.34375,0.83203 0,0.34766 -0.11719,0.64454 -0.34375,0.88672 -0.22656,0.25 -0.5,0.3711 -0.81641,0.3711 -0.32812,0 -0.60546,-0.125 -0.82812,-0.3711 -0.22656,-0.24609 -0.33594,-0.54297 -0.33594,-0.88672 0,-0.32812 0.11328,-0.60546 0.34375,-0.83203 m 3.78125,2.06641 c 0.32813,0.32031 0.72266,0.48047 1.1875,0.48047 0.46485,0 0.86328,-0.16016 1.1875,-0.48047 0.32813,-0.32422 0.49219,-0.71484 0.49219,-1.17969 0,-0.46094 -0.16406,-0.85547 -0.49219,-1.1875 -0.32422,-0.32812 -0.72265,-0.49219 -1.1875,-0.49219 -0.46484,0 -0.85937,0.16407 -1.1875,0.4961 -0.32422,0.33203 -0.48828,0.72265 -0.48828,1.18359 0,0.46485 0.16406,0.85547 0.48828,1.17969 m 0.3711,-2.06641 c 0.23046,-0.22265 0.5039,-0.33593 0.82031,-0.33593 0.3125,0 0.58594,0.11328 0.8164,0.33593 0.22657,0.22657 0.34375,0.50391 0.34375,0.83203 0,0.34766 -0.11718,0.64454 -0.33984,0.88672 -0.23047,0.25 -0.50391,0.3711 -0.82031,0.3711 -0.32813,0 -0.60156,-0.125 -0.82813,-0.3711 -0.22656,-0.24609 -0.33593,-0.54297 -0.33593,-0.88672 0,-0.32812 0.11328,-0.60546 0.34375,-0.83203 m 3.22265,-0.26953 h 0.39063 v 1.85156 c 0,0.34375 0.0859,0.58985 0.26172,0.74219 0.17578,0.14844 0.37109,0.22266 0.59375,0.22266 0.2539,0 0.46875,-0.0898 0.65234,-0.27344 0.18359,-0.1875 0.27344,-0.42187 0.27344,-0.70703 l -0.008,-0.14453 -0.0703,-0.10156 -0.18359,-0.0508 -0.17969,0.0508 -0.0625,0.10156 -0.0117,0.14062 c 0,0.16797 -0.0351,0.30078 -0.11328,0.39063 -0.0742,0.0937 -0.16406,0.13672 -0.26953,0.13672 h -0.004 c -0.24218,0 -0.36328,-0.1836 -0.36328,-0.55078 v -1.8086 h 0.83594 c 0.19922,0 0.29687,-0.0742 0.29687,-0.22656 l -0.0547,-0.16016 -0.10547,-0.0625 -0.13672,-0.008 h -0.83594 v -0.61719 c 0,-0.0976 -0.0156,-0.17578 -0.043,-0.22656 -0.0273,-0.0547 -0.0976,-0.0781 -0.21093,-0.0781 l -0.1836,0.0508 -0.0703,0.10547 -0.008,0.14843 v 0.61719 h -0.38282 c -0.20703,0 -0.30859,0.0781 -0.30859,0.23047 0,0.15234 0.10156,0.22656 0.30078,0.22656 m 3.0625,1.14063 0.0937,0.0937 0.19141,0.0469 h 4.6289 c 0.20704,0 0.3086,-0.0781 0.3086,-0.23047 0,-0.15234 -0.0977,-0.22656 -0.29297,-0.22656 h -4.69531 l -0.19141,0.0781 -0.0586,0.15234 z m 0.043,-1.07032 c 0.043,0.0547 0.11328,0.0781 0.21875,0.0781 h 4.6875 c 0.17969,0 0.27344,-0.0742 0.27344,-0.22656 0,-0.15235 -0.10156,-0.23047 -0.3086,-0.23047 h -4.62109 c -0.20703,0.004 -0.30859,0.0781 -0.30859,0.23047 z m 6.15234,-0.75 0.23829,0.0937 0.22656,-0.0937 c 0.0664,-0.0625 0.10156,-0.14453 0.10156,-0.24218 l -0.0742,-0.21094 c 0.14453,-0.17578 0.39453,-0.26172 0.75391,-0.26172 0.33594,0 0.58594,0.043 0.7539,0.13281 0.16407,0.0937 0.25,0.20313 0.25,0.33985 -0.004,0.11718 -0.082,0.23047 -0.23437,0.33593 -0.25,0.14454 -0.45313,0.29297 -0.61328,0.44141 -0.16016,0.14844 -0.27344,0.29297 -0.33594,0.4375 -0.0703,0.14453 -0.10937,0.26953 -0.12891,0.36328 -0.0195,0.10156 -0.0273,0.21485 -0.0273,0.35156 0,0.15625 0.0156,0.26172 0.0469,0.3086 0.0312,0.0547 0.12109,0.0781 0.26562,0.0781 0.12109,0 0.20313,-0.0195 0.25,-0.0586 0.043,-0.0352 0.0664,-0.11719 0.0664,-0.24219 v -0.1289 c 0,-0.27735 0.0703,-0.50782 0.20703,-0.6875 0.14062,-0.17969 0.32812,-0.34375 0.57031,-0.48438 0.30078,-0.17969 0.44922,-0.41406 0.44922,-0.71484 0,-0.10157 -0.0234,-0.19922 -0.0664,-0.29297 -0.043,-0.0937 -0.11718,-0.19141 -0.21875,-0.29297 -0.10156,-0.10156 -0.25781,-0.1875 -0.46875,-0.25 -0.21093,-0.0625 -0.46484,-0.0937 -0.76562,-0.0937 -0.4336,0 -0.76953,0.0898 -1,0.26953 -0.23047,0.17969 -0.34766,0.39453 -0.34766,0.64453 0,0.10938 0.0312,0.19531 0.10156,0.25781 m 1.22266,3.45313 c 0.10938,0 0.19922,-0.0352 0.26563,-0.10547 0.0664,-0.0703 0.0976,-0.16016 0.0976,-0.26562 0,-0.10547 -0.0312,-0.19141 -0.0976,-0.26563 -0.0664,-0.0742 -0.15625,-0.10937 -0.26563,-0.10937 -0.10937,0 -0.20312,0.0351 -0.27734,0.10937 -0.0703,0.0742 -0.10938,0.16016 -0.10938,0.26563 0,0.10546 0.0391,0.19531 0.10938,0.26562 0.0742,0.0703 0.16797,0.10547 0.27734,0.10547"
     id="path4304" />
  <path
     fill-rule="nonzero"
     fill="#000000"
     fill-opacity="1"
     d="m 32.054156,85.155714 h 0.008 c 0.13281,0 0.21875,-0.082 0.25781,-0.2539 0.21094,0.17187 0.48438,0.2539 0.82032,0.2539 0.4375,0 0.7539,-0.10156 0.95312,-0.30078 0.19531,-0.19922 0.29688,-0.42578 0.29688,-0.67968 0,-0.51954 -0.3711,-0.85157 -1.11328,-0.98829 -0.36329,-0.0664 -0.61719,-0.1289 -0.76954,-0.1875 -0.15234,-0.0625 -0.22656,-0.16015 -0.22656,-0.30078 0,-0.125 0.0625,-0.23047 0.19531,-0.30859 0.12891,-0.0781 0.32422,-0.12109 0.59375,-0.12109 0.12891,0 0.23829,0.0156 0.32422,0.043 l 0.1875,0.1211 0.0781,0.13672 0.0273,0.13672 0.0156,0.11328 0.0742,0.0859 0.17578,0.0391 0.16797,-0.0547 0.0664,-0.10156 0.008,-0.15235 v -0.51562 c -0.004,-0.20313 -0.0742,-0.3086 -0.21093,-0.3086 -0.10547,0 -0.17969,0.0508 -0.21094,0.15235 -0.17578,-0.10156 -0.40234,-0.15235 -0.67969,-0.15235 -0.2539,0 -0.47265,0.0312 -0.65234,0.0937 -0.17578,0.0625 -0.3086,0.14454 -0.39063,0.2461 -0.082,0.0977 -0.14062,0.19531 -0.17578,0.28515 l -0.0469,0.26172 c 0,0.45313 0.36718,0.75 1.09375,0.88282 0.22265,0.0547 0.375,0.0859 0.46093,0.0859 0.15625,0.0312 0.28907,0.0937 0.40235,0.17969 0.11328,0.082 0.16797,0.19531 0.16797,0.32813 0,0.12109 -0.0352,0.21875 -0.10157,0.30078 -0.0664,0.0781 -0.15234,0.13281 -0.26562,0.16015 -0.10938,0.0274 -0.19141,0.043 -0.25,0.0508 l -0.18359,0.0117 c -0.13282,0 -0.2461,-0.0195 -0.34766,-0.0586 l -0.23047,-0.17188 -0.12891,-0.21093 c -0.0273,-0.0664 -0.0547,-0.14844 -0.0859,-0.2461 -0.0312,-0.125 -0.1211,-0.1875 -0.26172,-0.1875 l -0.1875,0.0508 -0.0742,0.10547 -0.008,0.15235 v 0.71484 c 0,0.20703 0.0781,0.30859 0.22656,0.30859 m 3.38281,-0.48437 c 0.32813,0.32422 0.72266,0.48437 1.1875,0.48437 0.46485,0 0.86328,-0.16015 1.1875,-0.48437 0.32813,-0.32031 0.49219,-0.71484 0.49219,-1.17969 0,-0.45703 -0.16406,-0.85547 -0.49219,-1.18359 -0.32422,-0.33203 -0.72265,-0.4961 -1.1875,-0.4961 -0.46484,0 -0.85937,0.16797 -1.1875,0.5 -0.32422,0.32813 -0.48828,0.72266 -0.48828,1.17969 0,0.46485 0.16406,0.85938 0.48828,1.17969 m 0.3711,-2.0625 c 0.23046,-0.22266 0.5039,-0.33984 0.82031,-0.33984 0.3164,0 0.58594,0.11718 0.8164,0.33984 0.22657,0.22266 0.34375,0.5 0.34375,0.83203 0,0.34375 -0.11328,0.64063 -0.33984,0.88672 -0.22656,0.24609 -0.5,0.37109 -0.82031,0.37109 -0.32813,0 -0.60156,-0.125 -0.82813,-0.37109 -0.22265,-0.24609 -0.33593,-0.54297 -0.33593,-0.88672 0,-0.33203 0.11328,-0.60937 0.34375,-0.83203 m 3.20703,-0.26953 h 0.40625 v 1.91015 c 0.004,0.60547 0.38672,0.90625 1.15234,0.90625 0.42188,0 0.76172,-0.10156 1.03125,-0.30859 l 0.0508,0.1875 0.10156,0.0703 0.14844,0.008 h 0.6211 c 0.19921,0 0.30078,-0.0742 0.30078,-0.22266 l -0.0586,-0.16406 -0.10547,-0.0625 -0.14062,-0.008 h -0.40234 v -2.46875 c 0,-0.12109 -0.0195,-0.19921 -0.0586,-0.24218 -0.0391,-0.043 -0.11719,-0.0625 -0.24219,-0.0625 h -0.62109 c -0.20312,0 -0.30078,0.0742 -0.30078,0.22265 l 0.0547,0.16016 0.10547,0.0664 0.14062,0.008 h 0.40625 v 1.59375 c 0,0.16406 -0.0391,0.30469 -0.11328,0.41797 -0.0742,0.11328 -0.17188,0.1914 -0.28906,0.23437 -0.11719,0.0469 -0.22266,0.0781 -0.3125,0.0899 l -0.26953,0.0234 c -0.16016,0 -0.29297,-0.0156 -0.39063,-0.0391 -0.0977,-0.0273 -0.16797,-0.0703 -0.21094,-0.12891 l -0.0703,-0.14453 -0.0117,-0.17968 v -2.01954 c 0,-0.12109 -0.0195,-0.19921 -0.0547,-0.24218 -0.0391,-0.043 -0.12109,-0.0625 -0.24609,-0.0625 h -0.62109 l -0.14063,0.004 -0.10156,0.0625 -0.0586,0.16407 c 0,0.15234 0.10156,0.22656 0.30078,0.22656 m 4.36328,2.77344 h 1.32812 c 0.20313,0 0.30078,-0.0742 0.30078,-0.22266 l -0.0586,-0.16406 -0.10156,-0.0625 -0.14063,-0.008 h -0.40625 v -1.32031 c 0,-0.24609 0.0625,-0.44922 0.1836,-0.61719 0.125,-0.16406 0.26172,-0.27343 0.41406,-0.33593 0.15234,-0.0586 0.30469,-0.0899 0.46094,-0.0899 0.24609,0 0.41015,0.0547 0.48828,0.16407 0.0781,0.11328 0.11719,0.28515 0.11719,0.51562 v 1.68359 h -0.40235 c -0.19922,0 -0.30078,0.0781 -0.30078,0.22657 l 0.0547,0.16015 0.10547,0.0625 0.14062,0.008 h 1.32813 c 0.19922,0 0.30078,-0.0742 0.30078,-0.22266 l -0.0586,-0.16406 -0.10546,-0.0625 -0.13672,-0.008 h -0.40625 v -1.72656 c 0,-0.73047 -0.35938,-1.09375 -1.07813,-1.09375 -0.42578,0 -0.79297,0.14063 -1.10547,0.42969 0,-0.15625 -0.0156,-0.25781 -0.043,-0.30859 -0.0312,-0.0508 -0.11718,-0.0742 -0.25781,-0.0742 h -0.62109 l -0.13672,0.004 -0.10547,0.0625 -0.0586,0.16407 c 0,0.15234 0.10156,0.22656 0.30078,0.22656 h 0.40625 v 2.3164 h -0.40625 l -0.13672,0.008 -0.10547,0.0625 -0.0586,0.16406 c 0,0.14844 0.10156,0.22266 0.30078,0.22266 m 4.74219,-0.44141 c 0.3125,0.32422 0.6875,0.48437 1.125,0.48437 0.42578,0 0.78906,-0.16015 1.08203,-0.48046 v 0.1289 c 0,0.1211 0.0234,0.20313 0.0586,0.2461 0.0391,0.0391 0.11719,0.0625 0.24219,0.0625 h 0.625 c 0.19922,0 0.29687,-0.0742 0.29687,-0.22266 l -0.0547,-0.16406 -0.10547,-0.0625 -0.14063,-0.008 h -0.40234 v -3.8164 c 0,-0.1211 -0.0195,-0.20313 -0.0586,-0.2461 -0.0351,-0.0391 -0.11718,-0.0625 -0.24218,-0.0625 h -0.625 c -0.19532,0 -0.29688,0.0781 -0.29688,0.22657 l 0.0547,0.16015 0.10547,0.0664 0.14062,0.008 h 0.40235 v 1.22656 c -0.28516,-0.2539 -0.6211,-0.38281 -1,-0.38281 -0.46485,0 -0.86328,0.16406 -1.19141,0.48438 -0.32422,0.32422 -0.48828,0.71875 -0.48828,1.17968 0,0.46094 0.15625,0.85157 0.47266,1.17188 m 0.39843,-2.02344 c 0.23828,-0.23828 0.51953,-0.35547 0.84375,-0.35547 0.26172,0 0.48828,0.0859 0.67969,0.25391 0.19141,0.17187 0.28516,0.36719 0.28516,0.59375 v 0.49609 c 0,0.25 -0.0977,0.48828 -0.29688,0.71875 -0.19922,0.23047 -0.44922,0.34375 -0.74609,0.34375 -0.3125,0 -0.57422,-0.11718 -0.79297,-0.35156 -0.21875,-0.23437 -0.32813,-0.51562 -0.32813,-0.84766 0,-0.33203 0.11719,-0.61718 0.35547,-0.85156 m 3.61328,0.83203 0.0899,0.0937 0.1914,0.043 h 4.63282 c 0.20703,0 0.30859,-0.0742 0.30859,-0.22656 0,-0.15234 -0.0977,-0.23047 -0.29297,-0.23047 h -4.69531 l -0.19141,0.082 -0.0586,0.14844 z m 0.043,-1.07031 c 0.043,0.0508 0.11328,0.0781 0.21875,0.0781 h 4.6836 c 0.1875,0 0.27734,-0.0781 0.27734,-0.22657 0,-0.15625 -0.10156,-0.23047 -0.30859,-0.23047 h -4.6211 c -0.20703,0 -0.30859,0.0781 -0.30859,0.23047 z m 6.15235,-0.75 0.23437,0.0937 0.23047,-0.0937 c 0.0664,-0.0625 0.10156,-0.14453 0.10156,-0.24609 l -0.0742,-0.20703 c 0.14454,-0.17579 0.39454,-0.26563 0.75391,-0.26563 0.33594,0 0.58594,0.0469 0.75391,0.13672 0.16797,0.0898 0.25,0.20312 0.25,0.33594 -0.004,0.12109 -0.082,0.23437 -0.23438,0.33984 -0.25,0.14453 -0.45312,0.29297 -0.61328,0.4375 -0.16016,0.14844 -0.27344,0.29688 -0.33594,0.44141 -0.0664,0.14453 -0.10937,0.26562 -0.1289,0.36328 -0.0195,0.0977 -0.0274,0.21484 -0.0274,0.34765 0,0.16016 0.0156,0.26172 0.0469,0.3125 0.0312,0.0508 0.12109,0.0781 0.26562,0.0781 0.1211,0 0.20313,-0.0195 0.2461,-0.0586 0.0469,-0.0391 0.0703,-0.11719 0.0703,-0.24219 v -0.12891 c 0,-0.27734 0.0703,-0.50781 0.20703,-0.6914 0.14063,-0.17969 0.33203,-0.33985 0.57031,-0.48438 0.30078,-0.17578 0.44922,-0.41406 0.44922,-0.71484 0,-0.0977 -0.0234,-0.19532 -0.0664,-0.28907 -0.043,-0.0937 -0.11329,-0.1914 -0.21875,-0.29296 -0.10157,-0.10547 -0.25782,-0.1875 -0.46875,-0.25 -0.21094,-0.0664 -0.46485,-0.0977 -0.76563,-0.0977 -0.43359,0 -0.76953,0.0898 -1,0.27344 -0.23047,0.17968 -0.34766,0.39453 -0.34766,0.64453 0,0.10937 0.0312,0.19531 0.10157,0.25781 m 1.22265,3.45313 c 0.11328,0 0.19922,-0.0352 0.26563,-0.10938 0.0625,-0.0703 0.0976,-0.16016 0.0976,-0.26172 0,-0.10547 -0.0351,-0.19531 -0.0976,-0.26562 -0.0664,-0.0742 -0.15235,-0.10938 -0.26563,-0.10938 -0.10937,0 -0.19922,0.0352 -0.27343,0.10938 -0.0781,0.0703 -0.11329,0.16015 -0.11329,0.26562 0,0.10156 0.0352,0.19141 0.11329,0.26172 0.0742,0.0742 0.16406,0.10938 0.27343,0.10938"
     id="path4306" />
  <path
     fill-rule="nonzero"
     fill="#000000"
     fill-opacity="1"
     d="m 13.194776,122.07368 h 1.50391 c 0.20313,0 0.30078,-0.0742 0.30078,-0.22265 l -0.0547,-0.16407 -0.10546,-0.0625 -0.14063,-0.008 h -0.58203 v -0.95312 c 0,-0.22657 0.0273,-0.44141 0.0898,-0.64063 0.0586,-0.19922 0.15625,-0.36719 0.28907,-0.51172 0.1289,-0.14843 0.28906,-0.23047 0.47656,-0.25 0.004,0.1211 0.0391,0.20313 0.10937,0.25 l 0.20313,0.0742 0.22265,-0.0898 0.0937,-0.23438 c 0,-0.11328 -0.0508,-0.21875 -0.14843,-0.3164 -0.0977,-0.0977 -0.23438,-0.14844 -0.41016,-0.14844 -0.35937,0 -0.66797,0.15234 -0.92578,0.45703 0,-0.17187 -0.0156,-0.28516 -0.0469,-0.33594 -0.0312,-0.0508 -0.11718,-0.0781 -0.2539,-0.0781 h -0.6211 l -0.14062,0.0117 -0.10547,0.0625 -0.0547,0.16015 c 0,0.15235 0.0977,0.22266 0.30078,0.22266 h 0.40625 v 2.32031 h -0.40625 l -0.14062,0.008 -0.10547,0.0625 -0.0547,0.16407 c 0,0.14843 0.0977,0.22265 0.30078,0.22265 m 3.05079,0 h 1.26171 c 0.19922,0 0.30079,-0.0742 0.30079,-0.22265 0,-0.15625 -0.10547,-0.23438 -0.3125,-0.23438 h -0.32813 v -2.46875 c 0,-0.11719 -0.0195,-0.19922 -0.0586,-0.24219 -0.0352,-0.043 -0.11719,-0.0664 -0.24219,-0.0664 h -0.58594 c -0.20312,0.004 -0.30859,0.082 -0.30859,0.22656 0,0.15625 0.10547,0.23047 0.30859,0.23047 h 0.36719 v 2.32031 h -0.40234 l -0.14063,0.008 -0.10547,0.0625 -0.0547,0.16407 c 0,0.14843 0.0977,0.22265 0.30079,0.22265 m 0.54687,-3.83984 c 0.10547,0 0.19141,-0.0352 0.26563,-0.10938 0.0703,-0.0703 0.10937,-0.16015 0.10937,-0.26562 0,-0.10547 -0.0391,-0.19141 -0.10937,-0.26563 -0.0742,-0.0703 -0.16016,-0.10546 -0.26563,-0.10546 -0.10547,0 -0.19531,0.0351 -0.26562,0.10546 -0.0742,0.0742 -0.10938,0.16016 -0.10938,0.26563 0,0.10547 0.0352,0.19531 0.10938,0.26562 0.0703,0.0742 0.16015,0.10938 0.26562,0.10938 m 1.625,5.50391 h 1.32422 c 0.20312,0 0.30469,-0.0781 0.30469,-0.22657 l -0.0586,-0.16015 -0.10156,-0.0625 -0.14062,-0.008 h -0.40625 v -1.60546 c 0.27343,0.29296 0.60937,0.4414 1.0039,0.4414 0.45703,0 0.85156,-0.16015 1.1836,-0.48437 0.33203,-0.32032 0.5,-0.71094 0.5,-1.17578 0,-0.45704 -0.15625,-0.84766 -0.46485,-1.17188 -0.3125,-0.32422 -0.6875,-0.48828 -1.13281,-0.48828 -0.41406,0 -0.77734,0.13672 -1.08984,0.40625 0,-0.14453 -0.0156,-0.24219 -0.0469,-0.28906 -0.0273,-0.0508 -0.11328,-0.0742 -0.25391,-0.0742 h -0.62109 l -0.14062,0.0117 -0.10157,0.0625 -0.0586,0.16015 c 0,0.15235 0.10156,0.22266 0.30469,0.22266 h 0.40234 v 3.98437 h -0.40234 l -0.14063,0.008 -0.10547,0.0625 -0.0586,0.16015 c 0,0.14844 0.10156,0.22657 0.30078,0.22657 m 0.92188,-3.62891 c 0,-0.23047 0.10546,-0.42969 0.32031,-0.59766 0.21094,-0.17187 0.44922,-0.25781 0.72265,-0.25781 0.32032,0 0.58985,0.12109 0.80469,0.35938 0.21485,0.23828 0.32422,0.51953 0.32422,0.84375 0,0.33593 -0.11719,0.625 -0.35937,0.85546 -0.23829,0.23438 -0.51563,0.34766 -0.83594,0.34766 -0.29297,0 -0.52735,-0.11328 -0.70703,-0.34375 -0.17969,-0.23047 -0.26953,-0.46484 -0.26953,-0.70312 z m 4.02343,1.51953 c 0.32813,0.32813 0.72657,0.48828 1.19922,0.48828 0.41406,0 0.73438,-0.10547 0.96094,-0.3125 0.22656,-0.21094 0.34375,-0.39453 0.34375,-0.54687 0,-0.14063 -0.0898,-0.21094 -0.26953,-0.21094 l -0.15625,0.0273 -0.0898,0.13672 c -0.125,0.30078 -0.375,0.44922 -0.7539,0.44922 -0.28906,0 -0.55078,-0.0937 -0.78125,-0.28516 -0.23047,-0.1875 -0.3711,-0.43359 -0.41797,-0.73046 h 2.16406 l 0.11719,-0.004 0.0937,-0.0352 0.0703,-0.0859 0.0234,-0.15625 c 0,-0.46094 -0.125,-0.84375 -0.375,-1.14063 -0.25391,-0.29687 -0.59766,-0.44922 -1.04297,-0.44922 -0.44141,0 -0.8125,0.16797 -1.11719,0.4961 -0.30468,0.32812 -0.45703,0.71875 -0.45703,1.17187 0,0.46094 0.16406,0.85938 0.48828,1.1875 m 0.41016,-2.125 c 0.19531,-0.17969 0.41797,-0.26953 0.66797,-0.26953 0.22265,0 0.42187,0.0703 0.59375,0.21484 0.16797,0.14844 0.26562,0.39453 0.29297,0.74219 h -1.92188 c 0.0469,-0.27734 0.17188,-0.50781 0.36719,-0.6875"
     id="path4308" />
  <path
     fill-rule="nonzero"
     fill="#000000"
     fill-opacity="1"
     d="M 0.89399638,102.43306 H 2.2221264 c 0.19922,0 0.30078,-0.0742 0.30078,-0.22266 l -0.0586,-0.16406 -0.10157,-0.0625 -0.14062,-0.008 h -0.40625 v -1.31641 c 0,-0.35547 0.11328,-0.62109 0.33984,-0.789056 0.22266,-0.17188 0.46485,-0.25391 0.71875,-0.25391 0.2461,0 0.41016,0.0508 0.49219,0.16016 0.082,0.10937 0.12109,0.281246 0.12109,0.519526 v 1.67969 h -0.40234 l -0.14063,0.008 -0.10546,0.0625 -0.0547,0.16406 c 0,0.14844 0.0977,0.22266 0.30078,0.22266 h 1.32812 c 0.19922,0 0.29688,-0.0742 0.29688,-0.22266 l -0.0547,-0.16406 -0.10547,-0.0625 -0.14062,-0.008 h -0.40235 v -1.31641 c 0,-0.35547 0.11329,-0.62109 0.33594,-0.789056 0.22656,-0.17188 0.46485,-0.25391 0.71875,-0.25391 0.2461,0 0.41406,0.0508 0.49219,0.16016 0.082,0.10937 0.125,0.281246 0.125,0.519526 v 1.67969 h -0.40625 l -0.14063,0.008 -0.10156,0.0625 -0.0586,0.16406 c 0,0.14844 0.10156,0.22266 0.30078,0.22266 h 1.32812 c 0.19922,0 0.30079,-0.0742 0.30079,-0.22266 l -0.0586,-0.16406 -0.10547,-0.0625 -0.13672,-0.008 h -0.40625 v -1.72266 c 0,-0.730466 -0.36328,-1.093746 -1.08593,-1.093746 -0.46875,0 -0.875,0.17578 -1.20703,0.52734 -0.16016,-0.35156 -0.48829,-0.52734 -0.98047,-0.52734 -0.42188,0 -0.78907,0.14063 -1.10547,0.42578 0,-0.15625 -0.0156,-0.25781 -0.043,-0.30859 -0.03118,-0.05059 -0.11712,-0.07403 -0.25774,-0.07403 H 0.89399638 l -0.14062,0.008 -0.10156,0.0625 -0.0586,0.16406 c 0,0.14844 0.10156,0.22266 0.30469,0.22266 H 1.3002464 v 2.316406 H 0.89790638 l -0.14453,0.008 -0.10156,0.0625 -0.0586,0.16406 c 0,0.14844 0.10156,0.22266 0.30078,0.22266 M 7.2377464,99.660004 h 0.40625 v 1.910156 c 0,0.60547 0.38672,0.90625 1.15235,0.90625 0.41797,0 0.76172,-0.10157 1.02734,-0.30469 l 0.0547,0.18359 0.10156,0.0703 0.1445296,0.008 h 0.625 c 0.19922,0 0.29688,-0.0742 0.29688,-0.22266 l -0.0547,-0.16406 -0.10547,-0.0625 -0.14062,-0.008 h -0.40625 v -2.468746 c 0,-0.11719 -0.0156,-0.19922 -0.0547,-0.24219 -0.0391,-0.043 -0.1211,-0.0625 -0.24219,-0.0625 H 9.4174264 c -0.19922,0 -0.29687,0.0781 -0.29687,0.22656 l 0.0547,0.16016 0.10547,0.0625 0.14063,0.008 h 0.40234 v 1.593746 c 0,0.16797 -0.0352,0.30859 -0.10937,0.41797 -0.0742,0.11328 -0.17188,0.19141 -0.28907,0.23828 -0.11718,0.043 -0.22265,0.0742 -0.3125,0.0898 l -0.27343,0.0195 c -0.16016,0 -0.28907,-0.0117 -0.39063,-0.0391 -0.0977,-0.0273 -0.16797,-0.0664 -0.20703,-0.125 l -0.0703,-0.14843 -0.0117,-0.17969 v -2.019526 c 0,-0.11719 -0.0195,-0.19922 -0.0586,-0.24219 -0.0352,-0.043 -0.11718,-0.0625 -0.24218,-0.0625 h -0.6211 l -0.14062,0.008 -0.10156,0.0625 -0.0586,0.16406 c 0,0.14844 0.10156,0.22266 0.30078,0.22266"
     id="path4310" />
  <path
     fill-rule="nonzero"
     fill="#000000"
     fill-opacity="1"
     d="m 11.722126,102.43306 h 1.26953 c 0.16016,0 0.23828,-0.0742 0.23828,-0.21875 0,-0.14844 -0.0664,-0.22266 -0.20312,-0.22266 h -0.31641 v -2.328116 h 1.64844 v 2.328116 h -0.3125 c -0.13672,0 -0.20703,0.0742 -0.20703,0.22266 -0.004,0.14453 0.0781,0.21875 0.24218,0.21875 h 1.26953 c 0.16016,0 0.23829,-0.0742 0.23829,-0.21875 0,-0.14844 -0.0664,-0.22266 -0.19922,-0.22266 h -0.32032 v -2.328116 h 1.66407 v 2.328116 h -0.32422 c -0.12891,0 -0.19922,0.0742 -0.19922,0.22266 0,0.14453 0.0781,0.21875 0.23828,0.21875 h 1.26953 c 0.16016,0 0.2461,-0.0742 0.2461,-0.21875 0,-0.14844 -0.0703,-0.22266 -0.20704,-0.22266 h -0.3164 v -3.863276 c 0,-0.17578 -0.10156,-0.26953 -0.29297,-0.26953 l -0.12891,0.0156 v -0.0195 l -0.0312,0.004 h -0.0352 c -0.008,0 -0.0742,-0.004 -0.1875,-0.0234 -0.11328,-0.0117 -0.28125,-0.0195 -0.4961,-0.0195 -0.53125,0 -0.95703,0.0898 -1.28125,0.28125 -0.10937,-0.11328 -0.23828,-0.19141 -0.39453,-0.22656 -0.15234,-0.0391 -0.38672,-0.0547 -0.69531,-0.0547 -0.54297,0 -0.99219,0.082 -1.35547,0.25391 -0.35937,0.17187 -0.54297,0.42187 -0.54297,0.75781 v 0.38281 h -0.23828 c -0.12891,0 -0.19531,0.0781 -0.19531,0.22266 0,0.15234 0.0742,0.23047 0.21875,0.23047 h 0.21484 v 2.328116 h -0.3125 c -0.14062,0 -0.20703,0.0742 -0.20703,0.22266 0,0.14453 0.082,0.21875 0.24219,0.21875 m 0.98828,-3.605466 c 0,-0.13672 0.0664,-0.25 0.20312,-0.33984 0.13672,-0.0899 0.28516,-0.14844 0.44141,-0.17969 0.16016,-0.0273 0.31641,-0.0391 0.46875,-0.0391 h 0.0312 c 0.16016,0 0.29297,0.0117 0.39453,0.0312 -0.008,0.11328 0.0391,0.21484 0.13281,0.29687 -0.0156,0.0977 -0.0234,0.21094 -0.0234,0.32813 v 0.28515 h -1.64844 z m 2.35937,0 c 0,-0.10547 0.0391,-0.19922 0.11719,-0.27734 0.0742,-0.0781 0.17578,-0.13282 0.29688,-0.17188 0.12109,-0.0352 0.24218,-0.0664 0.35937,-0.082 0.1211,-0.0195 0.23438,-0.0273 0.35156,-0.0273 h 0.19922 c 0.36719,-0.008 0.12891,0.0469 0.33985,0.25 v 0.6914 h -1.66407 v -0.38304"
     id="path4312" />
  <path
     fill-rule="nonzero"
     fill="#000000"
     fill-opacity="1"
     d="m 18.518996,101.98775 c 0.32422,0.32421 0.72657,0.49218 1.19532,0.49218 0.41796,0 0.73828,-0.10547 0.96484,-0.3164 0.22656,-0.21094 0.33984,-0.39063 0.33984,-0.54688 0,-0.14062 -0.0898,-0.21094 -0.26953,-0.21094 l -0.15625,0.0273 -0.0898,0.13672 c -0.125,0.30078 -0.375,0.44922 -0.75,0.44922 -0.29297,0 -0.55078,-0.0937 -0.78125,-0.28125 -0.23438,-0.19141 -0.3711,-0.4336 -0.42188,-0.73438 h 2.16407 l 0.11718,-0.004 0.0937,-0.0312 0.0703,-0.0859 0.0234,-0.15625 c 0,-0.46485 -0.125,-0.847656 -0.375,-1.144526 -0.25,-0.29688 -0.59765,-0.44532 -1.04297,-0.44532 -0.4375,0 -0.80859,0.16407 -1.11328,0.49219 -0.30468,0.32813 -0.46093,0.718746 -0.46093,1.171876 0,0.46484 0.16406,0.85937 0.49218,1.1875 m 0.40625,-2.124996 c 0.19922,-0.17969 0.42188,-0.26954 0.66797,-0.26954 0.22656,0 0.42188,0.0742 0.59375,0.21875 0.17188,0.14454 0.26953,0.390626 0.29297,0.742186 h -1.92187 c 0.0508,-0.28125 0.17187,-0.51172 0.36718,-0.691396 m 3.09766,2.132806 c 0.31641,0.32031 0.6875,0.48437 1.125,0.48437 0.42969,0 0.79297,-0.16406 1.08594,-0.48047 v 0.12891 c 0,0.11719 0.0195,0.19922 0.0586,0.24219 0.0352,0.043 0.11719,0.0625 0.24219,0.0625 h 0.62109 c 0.20313,0 0.30078,-0.0742 0.30078,-0.22266 l -0.0586,-0.16406 -0.10156,-0.0625 -0.14063,-0.008 h -0.40625 v -3.812496 c 0,-0.125 -0.0156,-0.20703 -0.0547,-0.2461 -0.0391,-0.043 -0.12109,-0.0625 -0.24609,-0.0625 h -0.62109 c -0.19922,0 -0.30078,0.0742 -0.30078,0.22266 l 0.0586,0.16406 0.10547,0.0625 0.14062,0.008 h 0.40235 v 1.22657 c -0.28907,-0.25391 -0.6211,-0.38282 -1.00391,-0.38282 -0.46484,0 -0.86328,0.16407 -1.1875,0.48829 -0.32812,0.32031 -0.49219,0.714836 -0.49219,1.179676 0,0.45703 0.15625,0.84766 0.47266,1.17188 m 0.40234,-2.027346 c 0.23828,-0.23437 0.51953,-0.35546 0.84375,-0.35546 0.26172,0 0.48438,0.0859 0.67969,0.25781 0.19141,0.167966 0.28516,0.367186 0.28516,0.589836 v 0.4961 c 0,0.25 -0.10157,0.49218 -0.29688,0.71875 -0.19922,0.23046 -0.44922,0.34375 -0.75,0.34375 -0.30859,0 -0.57422,-0.11719 -0.79297,-0.35157 -0.21875,-0.23437 -0.32812,-0.51562 -0.32812,-0.84375 0,-0.33593 0.12109,-0.62109 0.35937,-0.855466"
     id="path4314" />
  <path
     fill-rule="nonzero"
     fill="#000000"
     fill-opacity="1"
     d="m 37.319776,63.991654 c 0.32032,0.32813 0.71094,0.49219 1.17579,0.49219 0.24218,0 0.45312,-0.0391 0.64062,-0.11328 0.18359,-0.0742 0.32031,-0.16406 0.40625,-0.26953 0.0859,-0.10938 0.15234,-0.20703 0.19141,-0.28907 l 0.0625,-0.1875 c 0,-0.14453 -0.0899,-0.21484 -0.26563,-0.21484 l -0.16015,0.0312 -0.0899,0.13281 c -0.14062,0.30078 -0.38672,0.45313 -0.73828,0.45313 -0.32422,0 -0.60156,-0.11719 -0.83594,-0.34766 -0.23047,-0.23437 -0.34765,-0.51953 -0.34765,-0.85937 0,-0.10938 0.0156,-0.22657 0.0508,-0.34766 0.0351,-0.12109 0.0937,-0.25391 0.17969,-0.39453 0.082,-0.13672 0.21093,-0.25391 0.38281,-0.34375 0.17578,-0.0898 0.3789,-0.13281 0.61328,-0.13281 0.30078,0 0.45312,0.0195 0.45312,0.0625 0.004,0.25 0.11329,0.37109 0.32422,0.37109 l 0.24219,-0.0937 c 0.0664,-0.0664 0.0977,-0.14844 0.0977,-0.25391 0,-0.36328 -0.3711,-0.54687 -1.11719,-0.54687 -0.30469,0 -0.57813,0.0547 -0.8125,0.16797 -0.23438,0.10937 -0.41797,0.25 -0.54688,0.42969 -0.13281,0.17578 -0.23046,0.35546 -0.29296,0.53906 -0.0586,0.18359 -0.0937,0.36328 -0.0937,0.54297 0,0.45312 0.16015,0.84765 0.48046,1.17187 m 3.10547,-2.32812 h 0.40235 v 1.91015 c 0.004,0.60547 0.38672,0.91016 1.15625,0.91016 0.41797,0 0.76172,-0.10156 1.02734,-0.30859 l 0.0508,0.18359 0.10156,0.0742 0.14844,0.008 h 0.6211 c 0.19921,0 0.30078,-0.0742 0.30078,-0.22656 l -0.0586,-0.16016 -0.10547,-0.0664 -0.13671,-0.008 h -0.40625 v -2.46484 c 0,-0.12109 -0.0195,-0.20313 -0.0586,-0.24609 -0.0351,-0.0391 -0.11719,-0.0625 -0.24219,-0.0625 h -0.62109 c -0.19922,0.004 -0.30078,0.0781 -0.30078,0.22656 l 0.0547,0.16015 0.10547,0.0625 0.14062,0.008 h 0.40625 v 1.59765 c 0,0.16407 -0.0391,0.30469 -0.11328,0.41797 -0.0742,0.10938 -0.17188,0.1875 -0.28906,0.23438 -0.11719,0.0469 -0.21875,0.0742 -0.3086,0.0898 l -0.27343,0.0234 c -0.16016,0 -0.28907,-0.0156 -0.39063,-0.043 -0.0977,-0.0234 -0.16797,-0.0664 -0.20703,-0.125 l -0.0742,-0.14453 -0.0117,-0.1836 v -2.01562 c 0,-0.12109 -0.0195,-0.20313 -0.0547,-0.24609 -0.0391,-0.0391 -0.12109,-0.0625 -0.24609,-0.0625 h -0.62109 l -0.13672,0.008 -0.10547,0.0625 -0.0586,0.16406 c 0,0.14844 0.10156,0.22266 0.30468,0.22266 m 4.36328,2.77734 h 1.50391 c 0.19922,0 0.30078,-0.0742 0.30078,-0.22656 l -0.0547,-0.16016 -0.10546,-0.0664 -0.14063,-0.008 h -0.58203 v -0.94922 c 0,-0.23046 0.0273,-0.4414 0.0859,-0.64062 0.0625,-0.19922 0.16015,-0.37109 0.28906,-0.51563 0.13281,-0.14453 0.29297,-0.22656 0.48047,-0.24609 0.004,0.12109 0.0391,0.20313 0.10547,0.25 l 0.21093,0.0703 0.21875,-0.0898 0.0937,-0.23047 c 0,-0.11328 -0.0508,-0.22266 -0.14843,-0.32031 -0.0977,-0.0977 -0.23438,-0.14453 -0.41407,-0.14453 -0.35546,0 -0.66406,0.15234 -0.92187,0.45703 0,-0.17578 -0.0195,-0.28906 -0.0469,-0.33985 -0.0312,-0.0508 -0.11718,-0.0742 -0.2539,-0.0742 h -0.625 l -0.13672,0.008 -0.10547,0.0625 -0.0586,0.16406 c 0,0.14844 0.10156,0.22266 0.30468,0.22266 h 0.40235 v 2.3164 h -0.40235 l -0.14062,0.008 -0.10547,0.0664 -0.0586,0.16016 c 0,0.15234 0.10156,0.22656 0.30468,0.22656 m 3.04688,0 h 1.32812 c 0.20313,0 0.30079,-0.0742 0.30079,-0.22656 l -0.0547,-0.16016 -0.10547,-0.0664 -0.14063,-0.008 h -0.40625 v -3.8125 c 0,-0.12109 -0.0156,-0.20312 -0.0547,-0.24609 -0.0391,-0.0391 -0.11719,-0.0625 -0.24219,-0.0625 h -0.625 l -0.13672,0.008 -0.10547,0.0625 -0.0586,0.16016 c 0,0.15234 0.10547,0.22656 0.30469,0.22656 h 0.40234 v 3.66406 h -0.40234 l -0.14063,0.008 -0.10547,0.0664 -0.0586,0.16016 c 0,0.15234 0.10156,0.22656 0.30078,0.22656 m 2.11328,1.52344 c 0.14063,0.125 0.3125,0.18359 0.52344,0.18359 0.3164,0 0.58594,-0.11328 0.8164,-0.33594 0.23047,-0.22265 0.39063,-0.47656 0.48829,-0.75 l 1.16015,-3.39843 h 0.30078 c 0.19922,0 0.30078,-0.0742 0.30078,-0.22266 l -0.0586,-0.16406 -0.10156,-0.0625 -0.14063,-0.008 h -1.05468 l -0.14063,0.008 -0.10547,0.0625 -0.0547,0.16406 c 0,0.14844 0.0977,0.22266 0.30079,0.22266 h 0.30859 l -0.73828,2.25781 c -0.0352,-0.10156 -0.0937,-0.26172 -0.17188,-0.47266 l -0.71484,-1.78515 h 0.28516 c 0.20312,0 0.30078,-0.0742 0.30078,-0.22266 l -0.0547,-0.16406 -0.10547,-0.0625 -0.14062,-0.008 h -1.05079 c -0.20312,0.004 -0.30468,0.0781 -0.30468,0.22656 0,0.15625 0.10156,0.23047 0.30468,0.23047 h 0.3086 l 1.13672,2.77734 c -0.0156,0.0234 -0.0703,0.17578 -0.16797,0.46094 -0.16016,0.52734 -0.45703,0.78906 -0.89063,0.78906 l -0.11328,-0.0352 0.008,-0.0469 0.004,-0.0742 c 0,-0.10156 -0.0273,-0.17969 -0.0937,-0.24219 l -0.22678,-0.09027 c -0.10156,0 -0.17969,0.0312 -0.23828,0.0898 -0.0625,0.0625 -0.0899,0.14063 -0.0899,0.24219 0,0.16406 0.0703,0.30859 0.21094,0.42969"
     id="path4316" />
  <path
     fill-rule="nonzero"
     fill="#000000"
     fill-opacity="1"
     d="m 62.370566,28.183064 c 0.33984,0.20703 0.75,0.3125 1.23828,0.3125 0.48828,0 0.89843,-0.10547 1.24218,-0.31641 0.33985,-0.21094 0.50782,-0.47265 0.50782,-0.78515 0,-0.16407 -0.043,-0.32032 -0.125,-0.48047 -0.0899,-0.15625 -0.21875,-0.28125 -0.39453,-0.37891 -0.26954,-0.14062 -0.63282,-0.21484 -1.08985,-0.21484 h -0.52344 c -0.10546,0 -0.17578,-0.004 -0.21484,-0.0156 -0.10547,0 -0.1875,-0.0351 -0.25,-0.10547 -0.0586,-0.0742 -0.0898,-0.16015 -0.0898,-0.26562 l 0.0469,-0.21485 c 0.1836,0.125 0.40625,0.1875 0.67188,0.1875 0.34375,0 0.63672,-0.11718 0.8789,-0.35156 0.24219,-0.23437 0.36328,-0.51953 0.36328,-0.85156 0,-0.22266 -0.0664,-0.4375 -0.19531,-0.65234 0.125,-0.0703 0.26953,-0.11329 0.4375,-0.12891 l 0.11719,0.19531 0.17578,0.0586 0.20313,-0.0781 c 0.0625,-0.0547 0.0937,-0.12891 0.0937,-0.23047 0,-0.10547 -0.0469,-0.19922 -0.13672,-0.28125 -0.0899,-0.082 -0.22657,-0.12109 -0.41016,-0.12109 h -0.0117 c -0.28906,0 -0.55078,0.0859 -0.78125,0.26172 -0.22265,-0.15235 -0.46875,-0.22657 -0.73437,-0.22657 -0.34375,0 -0.63282,0.1211 -0.875,0.35938 -0.23828,0.23828 -0.35938,0.51953 -0.35938,0.84375 0,0.26953 0.082,0.50391 0.24219,0.71094 -0.10938,0.14453 -0.16016,0.3164 -0.16016,0.51172 0,0.20312 0.0625,0.38281 0.17969,0.53906 -0.36719,0.22265 -0.55469,0.53125 -0.55469,0.92969 0,0.3164 0.17188,0.58203 0.50782,0.78906 m 0.23437,-1.3125 0.25391,-0.10938 c 0.0781,-0.008 0.26172,-0.0117 0.54687,-0.0117 0.23047,0 0.40625,0 0.53516,0.008 0.125,0.008 0.27734,0.0312 0.45703,0.0703 0.17969,0.0352 0.3125,0.10156 0.39844,0.19922 0.0859,0.0937 0.1289,0.21484 0.1289,0.36719 0,0.16796 -0.1289,0.32031 -0.38281,0.45312 -0.25391,0.13281 -0.56641,0.19531 -0.93359,0.19531 -0.36719,0 -0.67578,-0.0625 -0.92969,-0.19531 -0.25391,-0.13281 -0.37891,-0.28516 -0.37891,-0.45312 0,-0.22266 0.10157,-0.39454 0.30469,-0.52344 m 0.28125,-2.69922 c 0.14063,-0.14844 0.30859,-0.21875 0.50781,-0.21875 0.19922,0 0.3711,0.0742 0.51172,0.22266 0.14063,0.15234 0.21094,0.32812 0.21094,0.52734 0,0.21094 -0.0742,0.38672 -0.21484,0.53516 -0.14454,0.14843 -0.3125,0.22265 -0.50782,0.22265 -0.20312,0 -0.37109,-0.0781 -0.51172,-0.22656 -0.14062,-0.14844 -0.21093,-0.32422 -0.21093,-0.52344 0,-0.21094 0.0703,-0.39062 0.21484,-0.53906 m 3.11719,2.60547 h 1.5039 c 0.20313,0 0.30469,-0.0742 0.30469,-0.22266 l -0.0586,-0.16406 -0.10547,-0.0625 -0.14063,-0.008 h -0.58203 v -0.95313 c 0,-0.22656 0.0274,-0.4414 0.0859,-0.64062 0.0625,-0.19922 0.16016,-0.36719 0.28906,-0.51563 0.13672,-0.14453 0.29297,-0.22656 0.48047,-0.24609 0.004,0.12109 0.0391,0.20312 0.10938,0.2539 l 0.20703,0.0703 0.21875,-0.0899 0.0937,-0.23437 c 0,-0.11328 -0.0508,-0.21875 -0.14844,-0.31641 -0.0977,-0.0976 -0.23437,-0.14844 -0.41016,-0.14844 -0.35937,0 -0.66796,0.15235 -0.92578,0.46094 0,-0.17969 -0.0156,-0.28906 -0.0469,-0.33984 -0.0312,-0.0508 -0.11719,-0.0742 -0.25391,-0.0742 h -0.625 l -0.13672,0.008 -0.10547,0.0625 -0.0547,0.16016 c 0,0.15234 0.0976,0.22656 0.30078,0.22656 h 0.40625 v 2.31641 h -0.40625 l -0.14063,0.008 -0.10547,0.0625 -0.0547,0.16406 c 0,0.14844 0.0976,0.22266 0.30078,0.22266 m 3.40625,-0.44531 c 0.32812,0.32421 0.72656,0.48828 1.19922,0.48828 0.41406,0 0.73437,-0.10157 0.96093,-0.3125 0.22657,-0.21094 0.33985,-0.39453 0.33985,-0.54688 0,-0.14062 -0.0899,-0.21094 -0.26563,-0.21094 l -0.16015,0.0274 -0.0899,0.13672 c -0.125,0.30078 -0.37109,0.44922 -0.75,0.44922 -0.28906,0 -0.55078,-0.0937 -0.78125,-0.28125 -0.23047,-0.19141 -0.37109,-0.4336 -0.41797,-0.73438 h 2.16016 l 0.12109,-0.004 0.0899,-0.0312 0.0742,-0.0859 0.0195,-0.16016 c 0,-0.46094 -0.125,-0.84375 -0.375,-1.14062 -0.2461,-0.29688 -0.59375,-0.44532 -1.03906,-0.44532 -0.4375,0 -0.8125,0.16407 -1.11719,0.49219 -0.30469,0.32813 -0.45703,0.71875 -0.45703,1.17188 0,0.46484 0.16406,0.85937 0.48828,1.1875 m 0.41015,-2.125 c 0.19532,-0.17969 0.41797,-0.26954 0.66797,-0.26954 0.22266,0 0.42188,0.0703 0.59375,0.21875 0.17188,0.14454 0.26953,0.39063 0.29297,0.73829 h -1.92187 c 0.0469,-0.27735 0.17187,-0.50782 0.36718,-0.6875 m 3.07813,2.125 c 0.32812,0.32421 0.72656,0.48828 1.19531,0.48828 0.41797,0 0.73828,-0.10157 0.96485,-0.3125 0.22656,-0.21094 0.33984,-0.39453 0.33984,-0.54688 0,-0.14062 -0.0898,-0.21094 -0.26953,-0.21094 l -0.15625,0.0274 -0.0899,0.13672 c -0.125,0.30078 -0.375,0.44922 -0.75,0.44922 -0.29296,0 -0.55078,-0.0937 -0.78125,-0.28125 -0.23046,-0.19141 -0.37109,-0.4336 -0.41796,-0.73438 h 2.16015 l 0.11719,-0.004 0.0937,-0.0312 0.0703,-0.0859 0.0234,-0.16016 c 0,-0.46094 -0.125,-0.84375 -0.375,-1.14062 -0.25,-0.29688 -0.59766,-0.44532 -1.04297,-0.44532 -0.4375,0 -0.8125,0.16407 -1.11719,0.49219 -0.30468,0.32813 -0.45703,0.71875 -0.45703,1.17188 0,0.46484 0.16406,0.85937 0.49219,1.1875 m 0.40625,-2.125 c 0.19922,-0.17969 0.42187,-0.26954 0.67187,-0.26954 0.22266,0 0.41797,0.0703 0.58985,0.21875 0.17187,0.14454 0.26953,0.39063 0.29297,0.73829 h -1.92188 c 0.0508,-0.27735 0.17188,-0.50782 0.36719,-0.6875 m 2.74219,2.57031 h 1.32812 c 0.19922,0 0.30078,-0.0742 0.30078,-0.22266 l -0.0547,-0.16406 -0.10547,-0.0625 -0.14063,-0.008 h -0.40625 v -1.31641 c 0,-0.24609 0.0625,-0.45312 0.1836,-0.61719 0.125,-0.16406 0.26171,-0.27734 0.41406,-0.33984 0.15234,-0.0586 0.30469,-0.0859 0.46094,-0.0859 0.24609,0 0.41015,0.0547 0.48828,0.16406 0.082,0.10938 0.12109,0.28125 0.12109,0.51563 v 1.67969 h -0.40625 c -0.20312,0 -0.30078,0.0781 -0.30078,0.22656 l 0.0547,0.16016 0.10547,0.0625 0.14062,0.008 h 1.32813 c 0.19921,0 0.30078,-0.0742 0.30078,-0.22266 l -0.0586,-0.16406 -0.10547,-0.0625 -0.13671,-0.008 h -0.40625 v -1.72266 c 0,-0.73047 -0.35938,-1.09766 -1.07813,-1.09766 -0.42578,0 -0.79297,0.14454 -1.10547,0.42969 0,-0.15625 -0.0117,-0.25781 -0.043,-0.30859 -0.0312,-0.0508 -0.11718,-0.0742 -0.25781,-0.0742 h -0.62109 l -0.13672,0.008 -0.10547,0.0625 -0.0586,0.16016 c 0,0.15234 0.10156,0.22656 0.30468,0.22656 h 0.40235 v 2.31641 h -0.40235 l -0.14062,0.008 -0.10547,0.0625 -0.0586,0.16406 c 0,0.14844 0.10156,0.22266 0.30078,0.22266"
     id="path4318" />
</svg>
