<?xml version="1.0" encoding="UTF-8" standalone="no"?>
<svg
   width="255.11719pt"
   height="138.80469pt"
   viewBox="0 0 255.11719 138.80469"
   version="1.1"
   id="svg4895"
   xmlns="http://www.w3.org/2000/svg"
   xmlns:svg="http://www.w3.org/2000/svg">
  <defs
     id="defs499" />
  <path
     fill="none"
     stroke-width="0.51"
     stroke-linecap="butt"
     stroke-linejoin="miter"
     stroke="#000000"
     stroke-opacity="1"
     stroke-miterlimit="10"
     d="M 63.597656,59.914065 94.949218,72.109378"
     id="path593" />
  <path
     fill="none"
     stroke-width="0.51"
     stroke-linecap="butt"
     stroke-linejoin="miter"
     stroke="#000000"
     stroke-opacity="1"
     stroke-miterlimit="10"
     d="M 78.851562,23.335937 110.19922,35.531249"
     id="path595" />
  <path
     fill-rule="nonzero"
     fill="#000000"
     fill-opacity="1"
     d="m 77.082031,3.425781 h -0.57031 V 128.11328 h 0.57031 z M 78.699221,3.804687 76.796871,0 74.894531,3.804687 h 3.80469"
     id="path597" />
  <path
     fill-rule="nonzero"
     fill="#000000"
     fill-opacity="1"
     d="M 76.476561,127.85156 H 218.92969 v 0.57031 H 76.476561 Z m 142.074219,-1.62109 3.80469,1.90625 -3.80469,1.90234 v -3.80859"
     id="path599" />
  <path
     fill="none"
     stroke-width="0.51"
     stroke-linecap="butt"
     stroke-linejoin="miter"
     stroke="#000000"
     stroke-opacity="1"
     stroke-miterlimit="10"
     d="M 91.070312,32.17578 C 94.675781,21.51953 115.29687,18.878905 137.125,26.273437 c 21.82812,7.390625 36.60156,22.015625 32.99219,32.671875 -3.60547,10.652343 -24.22657,13.296875 -46.05469,5.902343 C 102.23047,57.45703 87.460937,42.824218 91.070312,32.17578 Z m 0,0"
     id="path601" />
  <path
     fill="none"
     stroke-width="0.51"
     stroke-linecap="butt"
     stroke-linejoin="miter"
     stroke="#000000"
     stroke-opacity="1"
     stroke-miterlimit="10"
     d="m 116.89844,87.003909 c 2.3125,-11.011719 22.46875,-16.089844 45.02343,-11.351563 22.5586,4.734375 38.96875,17.496094 36.65235,28.507814 -2.3086,11.00391 -22.46485,16.08594 -45.02344,11.35156 -22.55469,-4.73828 -38.96484,-17.503905 -36.65234,-28.507811 z m 0,0"
     id="path603" />
  <path
     fill="none"
     stroke-width="0.51"
     stroke-linecap="butt"
     stroke-linejoin="miter"
     stroke="#000000"
     stroke-opacity="1"
     stroke-miterlimit="10"
     d="M 76.796874,128.57422 120.19531,7.488282"
     id="path605" />
  <path
     fill="none"
     stroke-width="0.35"
     stroke-linecap="butt"
     stroke-linejoin="miter"
     stroke="#000000"
     stroke-opacity="1"
     stroke-dasharray="0.681, 0.51"
     stroke-miterlimit="10"
     d="m 113.80859,26.691412 22.35937,8.78515 m -27.10937,2.08203 16.69922,6.8125 m -18.66407,-0.46484 22.35938,8.78516 m -17.15234,-22.07032 31.34765,12.19532 m -32.90234,-3.51953 42.39453,17.98828 m -51.25,-16.98438 4.88281,1.76953"
     id="path607" />
  <path
     fill-rule="evenodd"
     fill="#df3224"
     fill-opacity="1"
     d="m 108.23437,35.414062 c 0,-1.132812 0.92188,-2.054688 2.05469,-2.054688 1.13672,0 2.05859,0.921876 2.05859,2.054688 0,1.13281 -0.92187,2.05469 -2.05859,2.05469 -1.13281,0 -2.05469,-0.92188 -2.05469,-2.05469"
     id="path609" />
  <path
     fill="none"
     stroke-width="0.35"
     stroke-linecap="butt"
     stroke-linejoin="miter"
     stroke="#df3224"
     stroke-opacity="1"
     stroke-miterlimit="10"
     d="m 108.23438,35.414061 c 0,-1.132813 0.92187,-2.054688 2.05468,-2.054688 1.13672,0 2.0586,0.921875 2.0586,2.054688 0,1.132812 -0.92188,2.054687 -2.0586,2.054687 -1.13281,0 -2.05468,-0.921875 -2.05468,-2.054687 z m 0,0"
     id="path611" />
  <path
     fill="none"
     stroke-width="0.35"
     stroke-linecap="butt"
     stroke-linejoin="miter"
     stroke="#000000"
     stroke-opacity="1"
     stroke-dasharray="0.681, 0.51"
     stroke-miterlimit="10"
     d="m 96.589845,71.718752 35.042965,12.98828 m -35.589845,-8.55859 46.269525,17.69531 M 98.417965,74.777342 173.84765,103.28906 M 98.050785,69.890632 164.91015,94.648442 m -70.691405,-13.89063 39.921875,15.08985 m -32.84766,-32.76172 58.46094,22.85547 m -58.77734,-20.80078 70.46093,27.49218 M 95.542965,78.382812 166.0039,105.875 M 94.035155,84.183592 148.64453,104.6875 M 99.878905,68.246092 187.41406,101.38672"
     id="path613" />
  <path
     fill-rule="evenodd"
     fill="#df3224"
     fill-opacity="1"
     d="m 94.539061,74.273432 2.05469,-4.10937 2.05469,4.10937 h -4.10938"
     id="path615" />
  <path
     fill="none"
     stroke-width="0.35"
     stroke-linecap="butt"
     stroke-linejoin="miter"
     stroke="#df3224"
     stroke-opacity="1"
     stroke-miterlimit="10"
     d="m 94.539062,74.273441 2.054688,-4.109375 2.054687,4.109375 z m 0,0"
     id="path617" />
  <path
     fill-rule="nonzero"
     fill="#df3224"
     fill-opacity="1"
     d="m 86.277341,29.207031 -12.52343,32.121091 0.53125,0.20703 12.52343,-32.124996 z m 1.19141,0.871093 -0.23438,-2.542968 -1.89062,1.710937 z m -14.37891,30.585938 0.23438,2.53906 1.89453,-1.71093 -2.12891,-0.82813"
     id="path619" />
  <path
     fill="none"
     stroke-width="0.425"
     stroke-linecap="butt"
     stroke-linejoin="miter"
     stroke="#df3224"
     stroke-opacity="1"
     stroke-miterlimit="10"
     d="m 119.55859,38.429691 c 10.07813,-3.480469 20.15235,-6.953125 29.14063,-7.074219 8.98828,-0.125 16.89062,3.105469 24.79297,6.339844"
     id="path621" />
  <path
     fill="none"
     stroke-width="0.425"
     stroke-linecap="butt"
     stroke-linejoin="miter"
     stroke="#df3224"
     stroke-opacity="1"
     stroke-miterlimit="10"
     d="m 106.80469,75.960939 c 1.13281,2.59375 4.53906,5.871094 5.96484,11.679688 1.42969,5.808594 -0.91797,20.648433 -0.66797,25.687503"
     id="path623" />
  <path
     fill="none"
     stroke-width="0.35"
     stroke-linecap="butt"
     stroke-linejoin="miter"
     stroke="#000000"
     stroke-opacity="1"
     stroke-dasharray="0.681, 0.51"
     stroke-miterlimit="10"
     d="m 101.93359,60.667962 63.24219,25.2461"
     id="path625" />
  <path
     fill="none"
     stroke-width="0.51"
     stroke-linecap="butt"
     stroke-linejoin="bevel"
     stroke="#df3224"
     stroke-opacity="1"
     stroke-miterlimit="10"
     d="m 114.07812,26.968749 c 2.3086,0.859375 4.06641,1.863281 3.92188,2.25 l -2.69531,7.273438 c -0.14844,0.390625 1.61328,1.394531 3.92187,2.253906 -2.30859,-0.859375 -4.30078,-1.242188 -4.4414,-0.855469 l -2.70313,7.277344 c -0.14453,0.382812 -2.13281,0 -4.44141,-0.855469"
     id="path627" />
  <path
     fill-rule="nonzero"
     fill="#df3224"
     fill-opacity="1"
     d="m 178.57422,40.398442 c 0.11718,0.28125 0.17968,0.48828 0.17968,0.61718 l -0.1289,0.25391 c -0.0859,0.0664 -0.2461,0.10547 -0.48828,0.11719 v 0.16406 h 2.38672 v -0.16406 c -0.2461,-0.0156 -0.4375,-0.082 -0.57813,-0.20313 -0.13672,-0.12109 -0.29297,-0.38281 -0.46094,-0.78515 l -2.10547,-5.031255 h -0.15625 l -2.125,4.976565 c -0.18359,0.4375 -0.35156,0.72656 -0.5039,0.86719 -0.0742,0.0742 -0.23828,0.13281 -0.49219,0.17578 v 0.16406 h 1.90625 v -0.16406 c -0.29297,-0.0195 -0.48437,-0.0664 -0.57031,-0.13672 l -0.13281,-0.24219 c 0,-0.11719 0.0508,-0.28906 0.15234,-0.52734 l 0.41016,-0.95313 h 2.33984 z m -2.56641,-1.20313 1.05078,-2.44141 1.02735,2.44141 z m 7.39453,-1.84766 -0.0937,0.13672 -0.11328,0.0312 c -0.0508,0 -0.14844,-0.0234 -0.30078,-0.0664 -0.23047,-0.0703 -0.42188,-0.10157 -0.58594,-0.10157 -0.36328,0 -0.66406,0.11329 -0.89062,0.33985 -0.23047,0.22656 -0.34766,0.5039 -0.34766,0.83984 0,0.26172 0.0664,0.47266 0.19922,0.64063 0.13672,0.17578 0.41797,0.36718 0.84766,0.58203 0.43359,0.21484 0.71875,0.39062 0.86328,0.53125 0.14453,0.13672 0.21484,0.3125 0.21484,0.51562 0,0.17188 -0.0625,0.31641 -0.19141,0.4375 -0.1289,0.11719 -0.29687,0.17969 -0.5,0.17969 -0.29296,0 -0.55859,-0.10547 -0.78906,-0.31641 -0.23828,-0.21093 -0.39844,-0.52343 -0.48047,-0.9414 h -0.14453 v 1.45703 h 0.14453 l 0.16016,-0.11328 0.24219,0.043 c 0.32031,0.0898 0.60547,0.13281 0.85547,0.13281 0.34765,0 0.66406,-0.11328 0.94531,-0.33984 0.28125,-0.22657 0.41797,-0.52735 0.41797,-0.89844 0,-0.48438 -0.30078,-0.8711 -0.90235,-1.16406 l -0.65234,-0.31641 c -0.28125,-0.13672 -0.46875,-0.26563 -0.5625,-0.38672 -0.0937,-0.12109 -0.14063,-0.26172 -0.14063,-0.42969 0,-0.13281 0.0625,-0.2539 0.19141,-0.36718 0.12891,-0.10938 0.29688,-0.16407 0.50391,-0.16407 0.27343,0 0.5,0.0781 0.67578,0.23828 0.17578,0.15625 0.32031,0.45313 0.43359,0.89063 h 0.14844 v -1.39063 z m 3.67969,-1.41406 c -0.19531,0.25781 -0.29688,0.53516 -0.29688,0.83203 0,0.25391 0.082,0.46485 0.24219,0.63672 0.16016,0.17578 0.33985,0.26172 0.53906,0.26172 0.16407,0 0.30079,-0.0508 0.41016,-0.15625 0.10938,-0.10156 0.16797,-0.22266 0.16797,-0.36719 0,-0.1289 -0.0469,-0.24218 -0.13672,-0.33203 -0.0937,-0.0898 -0.19922,-0.13672 -0.32031,-0.13672 l -0.17969,0.0352 -0.15625,0.0312 -0.0937,-0.0625 c -0.0312,-0.0352 -0.0469,-0.10938 -0.0469,-0.21094 0,-0.17578 0.0547,-0.33984 0.16796,-0.48828 0.11329,-0.14844 0.30079,-0.28906 0.5625,-0.42578 v -0.183595 c -0.375,0.121095 -0.66015,0.312505 -0.85937,0.566405 m 2.14062,-0.008 c -0.20312,0.25781 -0.30078,0.54297 -0.30078,0.85547 0,0.25 0.0781,0.46484 0.23828,0.63281 0.15625,0.16797 0.33204,0.25391 0.52735,0.25391 0.16797,0 0.30859,-0.0547 0.42187,-0.16016 0.11719,-0.10937 0.17578,-0.23437 0.17578,-0.37891 0,-0.1289 -0.0469,-0.23828 -0.13671,-0.32421 -0.0937,-0.0859 -0.19922,-0.13282 -0.32032,-0.13282 l -0.19531,0.0352 -0.14844,0.0352 -0.10156,-0.0586 -0.0508,-0.1875 c 0,-0.18359 0.0469,-0.34375 0.14453,-0.48437 0.0937,-0.13672 0.29297,-0.28907 0.58984,-0.46094 v -0.171876 c -0.36328,0.109376 -0.64453,0.289066 -0.84375,0.546876 m 4.9375,4.01172 c -0.15625,0.35937 -0.3125,0.60937 -0.47656,0.74609 -0.23437,0.19531 -0.49609,0.29688 -0.78515,0.29688 -0.40625,0 -0.73047,-0.1875 -0.96875,-0.5586 -0.24219,-0.375 -0.36329,-0.80468 -0.36329,-1.29297 0,-0.47656 0.1211,-0.86328 0.36329,-1.15234 0.17968,-0.22266 0.42187,-0.33203 0.71875,-0.33203 0.18359,0 0.32812,0.0469 0.42968,0.13281 0.10547,0.0937 0.16407,0.22656 0.1836,0.40235 0.0156,0.17578 0.0469,0.29687 0.0977,0.35546 0.0898,0.11329 0.22266,0.17188 0.39844,0.17188 0.12891,0 0.23047,-0.0352 0.30469,-0.10547 0.0742,-0.0703 0.10937,-0.16016 0.10937,-0.27344 0,-0.23047 -0.1289,-0.44922 -0.38672,-0.66406 -0.26171,-0.21094 -0.58984,-0.31641 -0.99218,-0.31641 -0.53125,0 -0.99219,0.19922 -1.375,0.60157 -0.38282,0.40234 -0.57032,0.92187 -0.57032,1.5625 0,0.66406 0.17188,1.1914 0.51563,1.58203 0.34375,0.38672 0.75,0.58203 1.21484,0.58203 0.38672,0 0.74219,-0.14453 1.06641,-0.43359 0.31641,-0.28907 0.53516,-0.70313 0.64453,-1.24219 z m 1.91016,-4.726565 -1.21875,0.500005 0.0742,0.15625 c 0.12109,-0.0469 0.21875,-0.0742 0.29687,-0.0742 l 0.17579,0.0586 c 0.043,0.0391 0.0781,0.11328 0.10156,0.21875 0.0195,0.10156 0.0273,0.38672 0.0273,0.84766 v 3.71093 c 0,0.25 -0.0156,0.42188 -0.0547,0.51172 l -0.16406,0.19141 c -0.0664,0.0391 -0.19531,0.0586 -0.38281,0.0586 v 0.16016 h 2.00391 v -0.16016 c -0.21094,0 -0.35547,-0.0195 -0.4336,-0.0664 l -0.17187,-0.1875 c -0.0352,-0.082 -0.0547,-0.25 -0.0547,-0.50782 v -5.417965 z m 2.38672,2.402345 c -0.30469,0.17578 -0.54688,0.44922 -0.73438,0.82031 -0.18359,0.36719 -0.27734,0.74219 -0.27734,1.11328 0,0.51563 0.15234,0.98047 0.45703,1.39453 0.36328,0.49219 0.85156,0.73438 1.46875,0.73438 0.37891,0 0.71875,-0.0937 1.02735,-0.28516 0.30859,-0.1914 0.54687,-0.47265 0.72656,-0.84765 0.17187,-0.375 0.26172,-0.7461 0.26172,-1.10938 0,-0.51953 -0.16016,-0.98047 -0.47657,-1.38281 -0.375,-0.46875 -0.87109,-0.70313 -1.48828,-0.70313 -0.33984,0 -0.66406,0.0898 -0.96484,0.26563 m 1.63281,0.45312 c 0.3125,0.41407 0.46875,0.98438 0.46875,1.71094 0,0.57813 -0.0937,0.98828 -0.28515,1.22656 -0.1836,0.23829 -0.42188,0.35547 -0.71094,0.35547 -0.38672,0 -0.69922,-0.21484 -0.9336,-0.64453 -0.23828,-0.43359 -0.35546,-0.94531 -0.35546,-1.53906 0,-0.36719 0.0469,-0.67188 0.14843,-0.90625 0.0977,-0.23438 0.22657,-0.39844 0.38282,-0.49219 0.16015,-0.0937 0.32031,-0.14062 0.47656,-0.14062 0.32812,0 0.59765,0.14062 0.80859,0.42968 m 4.39063,-0.71875 -0.0937,0.13672 -0.10938,0.0312 c -0.0508,0 -0.15234,-0.0234 -0.30469,-0.0664 -0.23046,-0.0703 -0.42187,-0.10157 -0.58203,-0.10157 -0.36718,0 -0.66406,0.11329 -0.89453,0.33985 -0.23047,0.22656 -0.34765,0.5039 -0.34765,0.83984 0,0.26172 0.0703,0.47266 0.19921,0.64063 0.13672,0.17578 0.41797,0.36718 0.84766,0.58203 0.43359,0.21484 0.71875,0.39062 0.86328,0.53125 0.14453,0.13672 0.21875,0.3125 0.21875,0.51562 0,0.17188 -0.0664,0.31641 -0.19531,0.4375 -0.12891,0.11719 -0.29688,0.17969 -0.5,0.17969 -0.29297,0 -0.55859,-0.10547 -0.78906,-0.31641 -0.23828,-0.21093 -0.39844,-0.52343 -0.48047,-0.9414 h -0.14453 v 1.45703 h 0.14453 l 0.16406,-0.11328 0.23828,0.043 c 0.32031,0.0898 0.60547,0.13281 0.85547,0.13281 0.34766,0 0.66406,-0.11328 0.94531,-0.33984 0.28125,-0.22657 0.42188,-0.52735 0.42188,-0.89844 0,-0.48438 -0.30469,-0.8711 -0.90625,-1.16406 l -0.65235,-0.31641 c -0.28125,-0.13672 -0.46875,-0.26563 -0.5625,-0.38672 -0.0937,-0.12109 -0.14062,-0.26172 -0.14062,-0.42969 0,-0.13281 0.0625,-0.2539 0.19141,-0.36718 0.1289,-0.10938 0.29687,-0.16407 0.5039,-0.16407 0.27344,0 0.5,0.0781 0.67578,0.23828 0.17578,0.15625 0.32032,0.45313 0.4336,0.89063 h 0.14843 v -1.39063 z m 4.57031,1.65625 c 0,-0.5039 -0.14844,-0.90625 -0.44141,-1.21093 -0.29687,-0.30078 -0.67187,-0.44922 -1.1289,-0.44922 -0.53907,0 -0.98828,0.1914 -1.34766,0.58594 -0.35937,0.39062 -0.53906,0.93359 -0.53906,1.63281 0,0.64453 0.17578,1.16015 0.52344,1.53906 0.35156,0.38281 0.76953,0.57422 1.26171,0.57422 0.45313,0 0.82813,-0.16406 1.12891,-0.5 0.30078,-0.33594 0.48047,-0.70703 0.54297,-1.11328 l -0.13672,-0.0898 c -0.13672,0.35547 -0.30078,0.60938 -0.5,0.75782 -0.19531,0.14453 -0.42969,0.21875 -0.69531,0.21875 -0.40235,0 -0.75,-0.17188 -1.05078,-0.51563 -0.29688,-0.34765 -0.44141,-0.82031 -0.44141,-1.42969 z m -2.48438,-1.05859 c 0.19532,-0.19141 0.41797,-0.28516 0.66407,-0.28516 0.16015,0 0.3164,0.0469 0.46093,0.14063 0.14844,0.0977 0.26172,0.22656 0.33204,0.39453 0.0469,0.10547 0.082,0.28906 0.0937,0.55078 h -1.89063 c 0.0352,-0.33984 0.14844,-0.60937 0.33984,-0.80078 m 4.09375,-0.82812 c 0.19922,-0.25782 0.30079,-0.54297 0.30079,-0.85157 0,-0.26172 -0.0781,-0.47656 -0.23829,-0.64453 -0.16015,-0.16797 -0.33593,-0.253905 -0.53515,-0.253905 -0.16406,0 -0.30078,0.05469 -0.41797,0.160155 -0.11328,0.10547 -0.16797,0.23047 -0.16797,0.375 0,0.12891 0.043,0.23438 0.13281,0.32422 0.0899,0.0898 0.19532,0.13281 0.32032,0.13281 l 0.19531,-0.0352 0.14453,-0.0352 0.10547,0.0625 0.0469,0.1875 c 0,0.18359 -0.0469,0.33984 -0.14453,0.48047 -0.0898,0.13672 -0.28906,0.29297 -0.58984,0.46094 v 0.1875 c 0.36328,-0.10547 0.64453,-0.28907 0.84765,-0.55078 m 2.14063,-0.0195 c 0.19922,-0.2539 0.29687,-0.53515 0.29687,-0.82812 0,-0.25391 -0.082,-0.46875 -0.24218,-0.64453 -0.16016,-0.17188 -0.33985,-0.257815 -0.54297,-0.257815 -0.16016,0 -0.29688,0.05079 -0.40625,0.156255 -0.10938,0.10156 -0.16406,0.22656 -0.16406,0.37109 0,0.125 0.043,0.23437 0.13281,0.32812 0.0937,0.0937 0.19922,0.13672 0.32031,0.13672 l 0.17969,-0.0352 0.15625,-0.0352 0.0976,0.0586 c 0.0312,0.043 0.043,0.11329 0.043,0.21875 0,0.17579 -0.0547,0.33594 -0.17187,0.48829 -0.11328,0.14843 -0.30078,0.29296 -0.5586,0.42578 v 0.1875 c 0.375,-0.1211 0.66016,-0.3125 0.85938,-0.57032 m 5.45312,4.38282 c 0.0859,0.10156 0.20313,0.15234 0.34766,0.15234 0.30469,0 0.625,-0.22266 0.95703,-0.67187 v -0.2461 c -0.17969,0.17578 -0.30078,0.28516 -0.36328,0.32422 l -0.125,0.0312 -0.11719,-0.0469 -0.0742,-0.17188 c -0.0156,-0.0898 -0.0234,-0.32812 -0.0234,-0.71875 v -1.38672 c 0,-0.39453 -0.0234,-0.65625 -0.0781,-0.78515 -0.0859,-0.19532 -0.21484,-0.33985 -0.38672,-0.42969 -0.23437,-0.125 -0.53125,-0.1836 -0.89453,-0.1836 -0.47265,0 -0.83984,0.10547 -1.10156,0.32032 -0.26172,0.21484 -0.39453,0.44922 -0.39453,0.70312 0,0.13281 0.0391,0.24219 0.10547,0.31641 0.0703,0.0781 0.16015,0.11719 0.26953,0.11719 0.11328,0 0.20703,-0.0352 0.27734,-0.10938 0.0703,-0.0781 0.10547,-0.17969 0.10547,-0.32031 l -0.0117,-0.25781 c 0,-0.12891 0.0586,-0.2461 0.17188,-0.34766 0.10547,-0.10156 0.25781,-0.15234 0.44531,-0.15234 0.24609,0 0.43359,0.0781 0.5625,0.23046 0.13281,0.14844 0.19531,0.42969 0.19531,0.83594 v 0.16016 c -0.70312,0.25781 -1.20312,0.47265 -1.5039,0.65234 -0.30469,0.17578 -0.51563,0.36719 -0.63672,0.57031 -0.0899,0.14454 -0.13282,0.32032 -0.13282,0.51563 0,0.31641 0.0899,0.57031 0.27344,0.76562 0.1836,0.19141 0.41406,0.28907 0.69531,0.28907 0.1836,0 0.35547,-0.0352 0.51563,-0.10938 0.10547,-0.0508 0.37109,-0.24219 0.78906,-0.5664 0.004,0.24609 0.0469,0.41796 0.13281,0.51953 m -1.02734,-0.35938 c -0.16406,0 -0.3125,-0.0742 -0.44141,-0.21484 -0.125,-0.14063 -0.1875,-0.32031 -0.1875,-0.53125 0,-0.16797 0.0469,-0.32813 0.14844,-0.46875 0.10156,-0.14063 0.26953,-0.28125 0.50391,-0.41016 0.13281,-0.0742 0.42187,-0.20312 0.87109,-0.3789 v 1.55468 c -0.36719,0.30078 -0.66406,0.44922 -0.89453,0.44922 m 5.12109,-3.77344 -0.0937,0.13672 -0.11328,0.0312 c -0.0508,0 -0.15234,-0.0234 -0.30468,-0.0664 -0.23047,-0.0703 -0.42188,-0.10157 -0.58204,-0.10157 -0.36718,0 -0.66406,0.11329 -0.89843,0.33985 -0.22657,0.22656 -0.34375,0.5039 -0.34375,0.83984 0,0.26172 0.0664,0.47266 0.20312,0.64063 0.13281,0.17578 0.41406,0.36718 0.84375,0.58203 0.4336,0.21484 0.71875,0.39062 0.86719,0.53125 0.14062,0.13672 0.21484,0.3125 0.21484,0.51562 0,0.17188 -0.0625,0.31641 -0.19531,0.4375 -0.12891,0.11719 -0.29687,0.17969 -0.50391,0.17969 -0.28906,0 -0.55078,-0.10547 -0.78515,-0.31641 -0.23828,-0.21093 -0.39453,-0.52343 -0.47656,-0.9414 h -0.14844 v 1.45703 h 0.14844 l 0.16015,-0.11328 0.23828,0.043 c 0.32032,0.0898 0.60938,0.13281 0.85547,0.13281 0.34766,0 0.66406,-0.11328 0.94531,-0.33984 0.28125,-0.22657 0.42188,-0.52735 0.42188,-0.89844 0,-0.48438 -0.30078,-0.8711 -0.90625,-1.16406 l -0.65234,-0.31641 c -0.28125,-0.13672 -0.46875,-0.26563 -0.5625,-0.38672 -0.0937,-0.12109 -0.14063,-0.26172 -0.14063,-0.42969 0,-0.13281 0.0625,-0.2539 0.19141,-0.36718 0.1289,-0.10938 0.29687,-0.16407 0.5039,-0.16407 0.27344,0 0.4961,0.0781 0.67578,0.23828 0.17579,0.15625 0.32032,0.45313 0.4375,0.89063 h 0.14454 v -1.39063 z m 3.09766,0.66797 c 0.11328,-0.043 0.20313,-0.0625 0.27344,-0.0625 l 0.21094,0.0547 0.11718,0.16016 c 0.0195,0.0703 0.0352,0.23828 0.0352,0.5039 v 3.85938 c 0,0.30078 -0.0195,0.48437 -0.0469,0.55469 l -0.13281,0.16015 c -0.11719,0.0664 -0.25781,0.0977 -0.41797,0.0937 h -0.11328 v 0.16406 h 2.14063 v -0.16406 c -0.22266,0 -0.375,-0.0234 -0.46094,-0.0664 l -0.17969,-0.17969 c -0.0351,-0.0742 -0.0508,-0.25391 -0.0508,-0.53516 v -1.24219 c 0.14844,0.13282 0.28125,0.22266 0.40234,0.26563 0.16016,0.0664 0.35157,0.0937 0.57032,0.0937 0.5039,0 0.92578,-0.1875 1.25781,-0.56641 0.40234,-0.46093 0.60547,-1.04297 0.60547,-1.74609 0,-0.63281 -0.16797,-1.14063 -0.50391,-1.53516 -0.27344,-0.32031 -0.61328,-0.48047 -1.02344,-0.48047 -0.23437,0 -0.46093,0.0703 -0.67187,0.21485 -0.21484,0.14453 -0.42578,0.39453 -0.63672,0.75781 v -0.95703 h -0.16797 l -1.25781,0.50781 z m 1.90625,0.0859 c 0.14063,-0.0703 0.28125,-0.10937 0.42188,-0.10937 0.26171,0 0.48828,0.11718 0.67968,0.35156 0.27344,0.33203 0.41016,0.8125 0.41016,1.4375 0,0.55078 -0.12109,0.97656 -0.35938,1.28125 -0.1875,0.23047 -0.42578,0.34765 -0.72656,0.34765 -0.24219,0 -0.44922,-0.0664 -0.60937,-0.19921 -0.16407,-0.12891 -0.26563,-0.28125 -0.3086,-0.45313 -0.0234,-0.10547 -0.0391,-0.32031 -0.0391,-0.65234 v -1.52344 c 0.24609,-0.26563 0.42578,-0.42969 0.53125,-0.48047 m 3.9375,-0.48828 c -0.30469,0.17578 -0.54687,0.44922 -0.73437,0.82031 -0.1836,0.36719 -0.27735,0.74219 -0.27735,1.11328 0,0.51563 0.15235,0.98047 0.45703,1.39453 0.36328,0.49219 0.85547,0.73438 1.46875,0.73438 0.37891,0 0.72266,-0.0937 1.02735,-0.28516 0.30859,-0.1914 0.55078,-0.47265 0.72656,-0.84765 0.17578,-0.375 0.26172,-0.7461 0.26172,-1.10938 0,-0.51953 -0.16016,-0.98047 -0.47656,-1.38281 -0.375,-0.46875 -0.8711,-0.70313 -1.48829,-0.70313 -0.33984,0 -0.66015,0.0898 -0.96484,0.26563 m 1.63281,0.45312 c 0.3086,0.41407 0.46875,0.98438 0.46875,1.71094 0,0.57813 -0.0937,0.98828 -0.28125,1.22656 -0.1875,0.23829 -0.42578,0.35547 -0.71484,0.35547 -0.38672,0 -0.69922,-0.21484 -0.93359,-0.64453 -0.23438,-0.43359 -0.35547,-0.94531 -0.35547,-1.53906 0,-0.36719 0.0508,-0.67188 0.14843,-0.90625 0.0977,-0.23438 0.22657,-0.39844 0.38672,-0.49219 0.15625,-0.0937 0.31641,-0.14062 0.47266,-0.14062 0.32812,0 0.59766,0.14062 0.80859,0.42968 m 4.39063,-0.71875 -0.0899,0.13672 -0.11718,0.0312 c -0.0469,0 -0.14844,-0.0234 -0.30078,-0.0664 -0.22657,-0.0703 -0.42188,-0.10157 -0.58204,-0.10157 -0.36718,0 -0.66406,0.11329 -0.89453,0.33985 -0.23047,0.22656 -0.34765,0.5039 -0.34765,0.83984 0,0.26172 0.0664,0.47266 0.20312,0.64063 0.13281,0.17578 0.41406,0.36718 0.84375,0.58203 0.4336,0.21484 0.72266,0.39062 0.86719,0.53125 0.14453,0.13672 0.21094,0.3125 0.21094,0.51562 0,0.17188 -0.0625,0.31641 -0.19141,0.4375 -0.12891,0.11719 -0.29687,0.17969 -0.5,0.17969 -0.29297,0 -0.55469,-0.10547 -0.78906,-0.31641 -0.23828,-0.21093 -0.39453,-0.52343 -0.48047,-0.9414 h -0.14453 v 1.45703 h 0.14453 l 0.16406,-0.11328 0.23828,0.043 c 0.32422,0.0898 0.60547,0.13281 0.85547,0.13281 0.35156,0 0.66406,-0.11328 0.94531,-0.33984 0.28125,-0.22657 0.42188,-0.52735 0.42188,-0.89844 0,-0.48438 -0.30078,-0.8711 -0.90625,-1.16406 l -0.65234,-0.31641 c -0.28125,-0.13672 -0.46875,-0.26563 -0.5625,-0.38672 -0.0937,-0.12109 -0.14063,-0.26172 -0.14063,-0.42969 0,-0.13281 0.0625,-0.2539 0.19141,-0.36718 0.1289,-0.10938 0.29687,-0.16407 0.5039,-0.16407 0.27344,0 0.5,0.0781 0.67578,0.23828 0.17579,0.15625 0.32032,0.45313 0.4336,0.89063 h 0.14844 v -1.39063 z m 3.55469,0 -0.0937,0.13672 -0.11329,0.0312 c -0.0508,0 -0.14843,-0.0234 -0.30078,-0.0664 -0.23047,-0.0703 -0.42578,-0.10157 -0.58593,-0.10157 -0.36329,0 -0.66407,0.11329 -0.89454,0.33985 -0.23046,0.22656 -0.34375,0.5039 -0.34375,0.83984 0,0.26172 0.0664,0.47266 0.19922,0.64063 0.13282,0.17578 0.41797,0.36718 0.84766,0.58203 0.43359,0.21484 0.71875,0.39062 0.86328,0.53125 0.14453,0.13672 0.21484,0.3125 0.21484,0.51562 0,0.17188 -0.0625,0.31641 -0.1914,0.4375 -0.12891,0.11719 -0.29688,0.17969 -0.50391,0.17969 -0.29297,0 -0.55469,-0.10547 -0.78906,-0.31641 -0.23438,-0.21093 -0.39453,-0.52343 -0.47656,-0.9414 h -0.14844 v 1.45703 h 0.14844 l 0.16015,-0.11328 0.24219,0.043 c 0.32031,0.0898 0.60547,0.13281 0.85547,0.13281 0.34766,0 0.66406,-0.11328 0.94141,-0.33984 0.28515,-0.22657 0.42187,-0.52735 0.42187,-0.89844 0,-0.48438 -0.30078,-0.8711 -0.90234,-1.16406 l -0.65235,-0.31641 c -0.28515,-0.13672 -0.46875,-0.26563 -0.5625,-0.38672 -0.0976,-0.12109 -0.14062,-0.26172 -0.14062,-0.42969 0,-0.13281 0.0625,-0.2539 0.1914,-0.36718 0.125,-0.10938 0.29688,-0.16407 0.50391,-0.16407 0.26953,0 0.49609,0.0781 0.67578,0.23828 0.17578,0.15625 0.32031,0.45313 0.4336,0.89063 h 0.14453 v -1.39063 z m 1.77343,-2.003902 c -0.0859,0.08594 -0.1289,0.191402 -0.1289,0.316402 0,0.125 0.043,0.23438 0.13281,0.32032 0.0898,0.0898 0.19531,0.13672 0.32031,0.13672 0.125,0 0.23047,-0.0469 0.32031,-0.13672 0.0859,-0.0859 0.13282,-0.19532 0.13282,-0.32032 0,-0.125 -0.0469,-0.23046 -0.13282,-0.316402 -0.0898,-0.08984 -0.19531,-0.132813 -0.32031,-0.132813 -0.1289,0 -0.23437,0.04297 -0.32422,0.132813 m 0.5,2.003902 -1.23437,0.5 0.0664,0.16016 c 0.11719,-0.0469 0.21875,-0.0664 0.30079,-0.0664 l 0.18359,0.0547 0.0977,0.19922 c 0.0273,0.12891 0.0391,0.41797 0.0391,0.85938 v 1.57421 c 0,0.25 -0.0195,0.42188 -0.0586,0.51172 l -0.16406,0.19141 c -0.0664,0.0391 -0.19922,0.0586 -0.39844,0.0586 v 0.16016 h 1.98438 v -0.16016 c -0.19531,0 -0.32813,-0.0195 -0.39844,-0.0625 l -0.16797,-0.1875 c -0.0391,-0.0859 -0.0547,-0.2539 -0.0547,-0.51172 v -3.28125 z m 2.4336,-2.136715 h -0.19922 l -1.22656,0.500005 0.0625,0.15625 c 0.125,-0.0469 0.23046,-0.0742 0.3125,-0.0742 l 0.17968,0.0586 c 0.0469,0.0391 0.082,0.11328 0.10157,0.21875 0.0234,0.10938 0.0351,0.39453 0.0351,0.85938 v 4.23046 c 0.25781,0.17188 0.50781,0.30079 0.75,0.38672 0.2461,0.0859 0.48828,0.12891 0.72656,0.12891 0.50782,0 0.96875,-0.19141 1.38282,-0.57031 0.48047,-0.44141 0.72265,-1.02735 0.72265,-1.75391 0,-0.62109 -0.15625,-1.10937 -0.46875,-1.46875 -0.3125,-0.35547 -0.67968,-0.53516 -1.09765,-0.53516 -0.45703,0 -0.88282,0.27344 -1.28125,0.82422 z m 0.45703,2.890625 c 0.15625,-0.082 0.3164,-0.12109 0.47265,-0.12109 0.29688,0 0.5625,0.14062 0.79688,0.42187 0.23047,0.28125 0.34766,0.67969 0.34766,1.20313 0,0.57031 -0.11719,1.0039 -0.34766,1.30078 -0.23438,0.29687 -0.48828,0.44531 -0.75781,0.44531 -0.16797,0 -0.33594,-0.0391 -0.4961,-0.11328 -0.16406,-0.0781 -0.32031,-0.1875 -0.47265,-0.33594 v -2.44531 c 0.1875,-0.17969 0.33593,-0.29688 0.45703,-0.35547 m 4.19531,-2.890625 -1.21484,0.500005 0.0742,0.15625 c 0.11718,-0.0469 0.21484,-0.0742 0.29296,-0.0742 l 0.17579,0.0586 c 0.0469,0.0391 0.082,0.11328 0.10156,0.21875 0.0195,0.10156 0.0312,0.38672 0.0312,0.84766 v 3.71093 c 0,0.25 -0.0195,0.42188 -0.0586,0.51172 l -0.16015,0.19141 c -0.0703,0.0391 -0.19922,0.0586 -0.38281,0.0586 v 0.16016 h 2 v -0.16016 c -0.21094,0 -0.35547,-0.0195 -0.4336,-0.0664 l -0.16797,-0.1875 c -0.0391,-0.082 -0.0547,-0.25 -0.0547,-0.50782 v -5.417965 z m 4.89063,3.792965 c 0,-0.5039 -0.14844,-0.90625 -0.44141,-1.21093 -0.29297,-0.30078 -0.67188,-0.44922 -1.12891,-0.44922 -0.53906,0 -0.99218,0.1914 -1.35156,0.58594 -0.35547,0.39062 -0.53516,0.93359 -0.53516,1.63281 0,0.64453 0.17579,1.16015 0.52344,1.53906 0.35156,0.38281 0.76953,0.57422 1.26172,0.57422 0.45313,0 0.82813,-0.16406 1.125,-0.5 0.30469,-0.33594 0.48438,-0.70703 0.54688,-1.11328 l -0.14063,-0.0898 c -0.13281,0.35547 -0.29687,0.60938 -0.49609,0.75782 -0.19532,0.14453 -0.42969,0.21875 -0.69532,0.21875 -0.40234,0 -0.7539,-0.17188 -1.05078,-0.51563 -0.29687,-0.34765 -0.44531,-0.82031 -0.4414,-1.42969 z m -2.48047,-1.05859 c 0.19531,-0.19141 0.41406,-0.28516 0.66015,-0.28516 0.16016,0 0.31641,0.0469 0.46485,0.14063 0.14453,0.0977 0.2539,0.22656 0.33203,0.39453 0.0469,0.10547 0.0781,0.28906 0.0898,0.55078 h -1.89062 c 0.0351,-0.33984 0.14843,-0.60937 0.34375,-0.80078"
     id="path629" />
  <path
     fill-rule="nonzero"
     fill="#df3224"
     fill-opacity="1"
     d="m 4.472656,39.882812 c 0.117187,0.28516 0.175781,0.48828 0.175781,0.62109 l -0.125,0.25 c -0.08594,0.0664 -0.25,0.10938 -0.488281,0.11719 v 0.16797 h 2.386719 v -0.16797 c -0.25,-0.0117 -0.441406,-0.082 -0.578125,-0.19922 -0.140625,-0.12109 -0.292969,-0.38281 -0.464844,-0.78906 L 3.277343,34.855468 h -0.15625 l -2.128906,4.972654 c -0.183594,0.4375 -0.351562,0.72657 -0.503906,0.8711 C 0.414061,40.773422 0.25,40.828122 0,40.871092 v 0.16797 h 1.902343 v -0.16797 c -0.292968,-0.0195 -0.480468,-0.0625 -0.566406,-0.13281 l -0.132812,-0.24609 c 0,-0.11329 0.05078,-0.28907 0.152344,-0.52344 l 0.410156,-0.95703 h 2.339844 z m -2.570313,-1.19922 1.050782,-2.44531 1.027344,2.44531 z m 7.398438,-1.85156 -0.09375,0.14062 -0.113281,0.0312 c -0.05078,0 -0.152344,-0.0234 -0.300781,-0.0664 -0.230469,-0.0703 -0.425782,-0.10547 -0.585938,-0.10547 -0.367188,0 -0.664062,0.11328 -0.894531,0.33984 -0.230469,0.22657 -0.34375,0.50782 -0.34375,0.84375 0,0.25782 0.06641,0.47266 0.199219,0.64063 0.132812,0.17187 0.414062,0.36719 0.847656,0.58203 0.429687,0.21094 0.71875,0.39062 0.863281,0.52734 0.140625,0.14063 0.214844,0.3125 0.214844,0.51953 0,0.16797 -0.0625,0.3125 -0.195313,0.4336 -0.128906,0.12109 -0.296875,0.17969 -0.5,0.17969 -0.292968,0 -0.554687,-0.10547 -0.789062,-0.31641 C 7.375,40.371042 7.214843,40.058542 7.132812,39.644482 H 6.984375 v 1.45703 h 0.148437 l 0.160157,-0.11719 0.242187,0.0469 c 0.320313,0.0898 0.605469,0.13281 0.855469,0.13281 0.347656,0 0.660156,-0.11328 0.941406,-0.34375 0.28125,-0.22656 0.421875,-0.52734 0.421875,-0.89844 0,-0.48047 -0.300781,-0.86718 -0.90625,-1.16406 l -0.652344,-0.3125 c -0.28125,-0.13672 -0.46875,-0.26953 -0.558593,-0.39062 -0.09375,-0.11719 -0.144532,-0.26172 -0.144532,-0.42969 0,-0.13281 0.0625,-0.25391 0.191406,-0.36328 0.128907,-0.10938 0.296876,-0.16407 0.503907,-0.16407 0.273437,0 0.5,0.0781 0.675781,0.23438 0.175781,0.16016 0.324219,0.45703 0.4375,0.89453 h 0.144531 v -1.39453 z m 3.679688,-1.41016 c -0.199219,0.25782 -0.296876,0.53516 -0.296876,0.83203 0,0.25391 0.07813,0.46485 0.242188,0.63672 0.160156,0.17188 0.339844,0.25782 0.539062,0.25782 0.164063,0 0.296876,-0.0508 0.410157,-0.15235 0.109375,-0.10156 0.164062,-0.22656 0.164062,-0.36719 0,-0.13281 -0.04687,-0.24218 -0.136719,-0.33203 -0.08984,-0.0898 -0.195312,-0.13672 -0.320312,-0.13672 l -0.175781,0.0312 -0.15625,0.0352 -0.09766,-0.0625 c -0.03125,-0.0391 -0.04687,-0.10937 -0.04687,-0.21484 0,-0.17578 0.05859,-0.33594 0.171874,-0.48438 0.109376,-0.148436 0.300782,-0.292968 0.5625,-0.429686 v -0.179688 c -0.375,0.121094 -0.660156,0.308594 -0.859374,0.566404 m 2.136718,-0.008 c -0.199218,0.25391 -0.296875,0.53906 -0.296875,0.85156 0,0.25391 0.07813,0.46485 0.234375,0.63282 0.160156,0.17187 0.335938,0.25781 0.53125,0.25781 0.167969,0 0.304688,-0.0547 0.421875,-0.16406 0.113281,-0.10547 0.171875,-0.23047 0.171875,-0.37891 0,-0.125 -0.04687,-0.23438 -0.136718,-0.32422 -0.08984,-0.0859 -0.195313,-0.12891 -0.316407,-0.12891 l -0.199219,0.0352 -0.148437,0.0352 -0.101563,-0.0625 -0.04687,-0.1875 c 0,-0.1836 0.04687,-0.34375 0.140624,-0.48047 0.09766,-0.136721 0.292969,-0.292971 0.59375,-0.464846 v -0.167969 c -0.367187,0.105469 -0.648437,0.289063 -0.847656,0.546875 m 4.246089,1.8595 v -0.32032 H 18.3125 v -0.29297 c 0,-0.63671 0.01953,-1.03125 0.0625,-1.18359 0.04297,-0.15625 0.109375,-0.269531 0.207031,-0.339844 0.09375,-0.07422 0.207031,-0.109375 0.347656,-0.109375 0.113282,0 0.210938,0.02734 0.304688,0.08594 0.09375,0.05469 0.195312,0.164062 0.304687,0.328121 0.109375,0.16016 0.203125,0.26563 0.277344,0.31641 l 0.21875,0.0703 0.25,-0.11718 0.113281,-0.25 c 0,-0.167974 -0.08594,-0.316411 -0.257812,-0.45313 -0.261719,-0.199219 -0.546875,-0.300781 -0.859375,-0.300781 -0.339844,0 -0.640625,0.08594 -0.910157,0.261719 -0.269531,0.171874 -0.46875,0.398437 -0.597656,0.683592 -0.132812,0.28125 -0.195312,0.62891 -0.195312,1.03516 v 0.26562 h -0.792969 v 0.32032 h 0.792969 v 2.6875 c 0,0.28906 -0.01953,0.48437 -0.05859,0.58593 -0.03516,0.10157 -0.101562,0.1836 -0.203125,0.24219 -0.09766,0.0586 -0.207031,0.0898 -0.324219,0.0898 h -0.183594 v 0.16016 h 2.441407 v -0.16016 H 18.87891 c -0.183594,0 -0.332031,-0.0664 -0.441406,-0.19531 -0.08594,-0.10547 -0.125,-0.34375 -0.125,-0.72265 v -2.6875 z m 2.839844,3.69531 c 0.08984,0.0977 0.203125,0.15234 0.347656,0.15234 0.304688,0 0.625,-0.22656 0.957031,-0.67187 v -0.25 c -0.179687,0.17968 -0.300781,0.28906 -0.363281,0.32812 l -0.125,0.0273 -0.117188,-0.043 -0.07422,-0.17578 c -0.01563,-0.0898 -0.01953,-0.32422 -0.01953,-0.71485 v -1.38672 c 0,-0.39843 -0.02734,-0.66015 -0.08203,-0.78515 -0.08203,-0.19922 -0.210937,-0.33985 -0.386719,-0.4336 -0.234374,-0.12109 -0.53125,-0.18359 -0.894531,-0.18359 -0.472656,0 -0.839843,0.10937 -1.101562,0.32422 -0.257813,0.21094 -0.390625,0.44922 -0.390625,0.70312 0,0.13282 0.03516,0.23828 0.105468,0.31641 0.07031,0.0781 0.160157,0.11328 0.269532,0.11328 0.113281,0 0.203125,-0.0352 0.273437,-0.10937 0.07031,-0.0742 0.105469,-0.17969 0.105469,-0.31641 l -0.01172,-0.25781 c 0,-0.13282 0.05859,-0.2461 0.171875,-0.34766 0.109375,-0.10156 0.257813,-0.15234 0.445313,-0.15234 0.246093,0 0.4375,0.0781 0.566406,0.22656 0.128906,0.15234 0.191406,0.43359 0.191406,0.83984 v 0.16016 c -0.699219,0.25391 -1.203125,0.47266 -1.503906,0.64844 -0.300781,0.17968 -0.511719,0.37109 -0.636719,0.57422 -0.08594,0.14453 -0.132812,0.3164 -0.132812,0.51562 0,0.31641 0.08984,0.57031 0.273437,0.76172 0.183594,0.19531 0.417969,0.29297 0.699219,0.29297 0.179688,0 0.351562,-0.0391 0.511719,-0.11328 0.109375,-0.0508 0.371093,-0.23828 0.789062,-0.5625 0.0039,0.24218 0.04687,0.41797 0.132813,0.51953 m -1.023438,-0.36328 c -0.167968,0 -0.3125,-0.0703 -0.441406,-0.21094 -0.128906,-0.14063 -0.191406,-0.32031 -0.191406,-0.53125 0,-0.17188 0.05078,-0.32813 0.148437,-0.47266 0.105469,-0.14062 0.273438,-0.27734 0.507813,-0.41015 0.128906,-0.0742 0.417968,-0.19922 0.867187,-0.375 v 1.55468 c -0.367187,0.29688 -0.664062,0.44532 -0.890625,0.44532 m 3.628906,-3.77344 -1.234374,0.5 0.04687,0.16016 c 0.113282,-0.043 0.21875,-0.0664 0.308594,-0.0664 l 0.195313,0.0625 0.109375,0.19922 c 0.01953,0.0898 0.02734,0.375 0.02734,0.84765 v 1.58594 c 0,0.23828 -0.0078,0.37891 -0.01953,0.42969 -0.03125,0.10547 -0.08594,0.18359 -0.160156,0.23047 -0.09766,0.0625 -0.253906,0.0977 -0.460938,0.0977 v 0.16016 h 2.089844 v -0.16016 c -0.183594,0 -0.324218,-0.0273 -0.421875,-0.082 l -0.207031,-0.19922 c -0.05469,-0.11718 -0.08594,-0.28906 -0.08594,-0.51562 v -1.95703 c 0.144532,-0.27735 0.28125,-0.47656 0.417969,-0.60156 l 0.171875,-0.0898 c 0.0625,0 0.160156,0.0547 0.289063,0.15625 0.128906,0.10156 0.246093,0.15235 0.347656,0.15235 0.109375,0 0.199219,-0.0391 0.277344,-0.1211 0.07813,-0.0781 0.117187,-0.17578 0.117187,-0.29297 0,-0.13281 -0.05469,-0.24609 -0.160156,-0.34375 -0.109375,-0.10156 -0.242188,-0.15234 -0.40625,-0.15234 -0.359375,0 -0.710938,0.30859 -1.054688,0.91797 v -0.91797 z m 3.109376,-0.22656 c 0.199218,-0.25782 0.300781,-0.54297 0.300781,-0.85547 0,-0.25781 -0.08203,-0.472659 -0.242188,-0.644534 -0.15625,-0.167968 -0.335937,-0.25 -0.53125,-0.25 -0.164062,0 -0.300781,0.05078 -0.417969,0.160156 -0.113281,0.105469 -0.171874,0.230469 -0.171874,0.374998 0,0.125 0.04687,0.23438 0.136718,0.32422 0.08984,0.0859 0.195313,0.13281 0.320313,0.13281 l 0.195312,-0.0352 0.144531,-0.0352 0.105469,0.0625 0.04687,0.1875 c 0,0.17969 -0.04687,0.33985 -0.140625,0.47656 -0.09766,0.14063 -0.292969,0.29297 -0.59375,0.46485 v 0.1875 c 0.363281,-0.10938 0.644531,-0.29297 0.847657,-0.55078 m 2.136718,-0.0195 c 0.199219,-0.25782 0.296875,-0.53516 0.296875,-0.83204 0,-0.2539 -0.07813,-0.46484 -0.238281,-0.640621 -0.160156,-0.171875 -0.34375,-0.257813 -0.542969,-0.257813 -0.160156,0 -0.296875,0.05078 -0.40625,0.152344 -0.113281,0.105469 -0.167969,0.230469 -0.167969,0.371094 0,0.128906 0.04688,0.238286 0.136719,0.332036 0.08984,0.0898 0.199219,0.13671 0.320313,0.13671 l 0.175781,-0.0352 0.160156,-0.0352 0.09766,0.0547 c 0.02734,0.043 0.04297,0.11719 0.04297,0.22266 0,0.17578 -0.05859,0.33593 -0.171875,0.48437 -0.113281,0.15234 -0.300781,0.29297 -0.558593,0.42969 v 0.1875 c 0.375,-0.125 0.660156,-0.3125 0.855468,-0.57031 m 5.539063,4.38281 c 0.08594,0.0977 0.203125,0.15234 0.347656,0.15234 0.304687,0 0.621094,-0.22656 0.953125,-0.67187 v -0.25 c -0.175781,0.17968 -0.296875,0.28906 -0.359375,0.32812 l -0.125,0.0273 -0.117187,-0.043 -0.07422,-0.17578 c -0.01563,-0.0898 -0.02344,-0.32422 -0.02344,-0.71485 v -1.38672 c 0,-0.39843 -0.02734,-0.66015 -0.07813,-0.78515 -0.08594,-0.19922 -0.214844,-0.33985 -0.390625,-0.4336 -0.230469,-0.12109 -0.527343,-0.18359 -0.890625,-0.18359 -0.472656,0 -0.839844,0.10937 -1.101562,0.32422 -0.261719,0.21094 -0.394532,0.44922 -0.394532,0.70312 0,0.13282 0.03906,0.23828 0.105469,0.31641 0.07031,0.0781 0.160157,0.11328 0.269531,0.11328 0.113282,0 0.207032,-0.0352 0.277344,-0.10937 0.06641,-0.0742 0.101563,-0.17969 0.101563,-0.31641 l -0.0078,-0.25781 c 0,-0.13282 0.05859,-0.2461 0.171875,-0.34766 0.109375,-0.10156 0.257813,-0.15234 0.445313,-0.15234 0.246094,0 0.433594,0.0781 0.5625,0.22656 0.128906,0.15234 0.195312,0.43359 0.195312,0.83984 v 0.16016 c -0.703125,0.25391 -1.203125,0.47266 -1.503906,0.64844 -0.304688,0.17968 -0.515625,0.37109 -0.636719,0.57422 -0.08984,0.14453 -0.132812,0.3164 -0.132812,0.51562 0,0.31641 0.08984,0.57031 0.273437,0.76172 0.183594,0.19531 0.414063,0.29297 0.695313,0.29297 0.183593,0 0.351562,-0.0391 0.515625,-0.11328 0.105468,-0.0508 0.371094,-0.23828 0.789062,-0.5625 0,0.24218 0.04687,0.41797 0.132813,0.51953 m -1.027344,-0.36328 c -0.164063,0 -0.3125,-0.0703 -0.441406,-0.21094 -0.125,-0.14063 -0.191407,-0.32031 -0.191407,-0.53125 0,-0.17188 0.05078,-0.32813 0.152344,-0.47266 0.101563,-0.14062 0.269532,-0.27734 0.503906,-0.41015 0.132813,-0.0742 0.421876,-0.19922 0.871094,-0.375 v 1.55468 c -0.371094,0.29688 -0.667968,0.44532 -0.894531,0.44532 m 5.117187,-3.77344 -0.09375,0.14062 -0.113281,0.0312 c -0.04687,0 -0.148437,-0.0234 -0.300781,-0.0664 -0.230469,-0.0703 -0.421875,-0.10547 -0.582031,-0.10547 -0.367188,0 -0.667969,0.11328 -0.898438,0.33984 -0.230469,0.22657 -0.34375,0.50782 -0.34375,0.84375 0,0.25782 0.06641,0.47266 0.203125,0.64063 0.132813,0.17187 0.414063,0.36719 0.84375,0.58203 0.433594,0.21094 0.71875,0.39062 0.863282,0.52734 0.144531,0.14063 0.214843,0.3125 0.214843,0.51953 0,0.16797 -0.0625,0.3125 -0.191406,0.4336 -0.128906,0.12109 -0.296875,0.17969 -0.5,0.17969 -0.292969,0 -0.558594,-0.10547 -0.792969,-0.31641 -0.234375,-0.21094 -0.394531,-0.52344 -0.476562,-0.9375 h -0.144532 v 1.45703 h 0.144532 l 0.160156,-0.11719 0.242188,0.0469 c 0.324218,0.0898 0.605468,0.13281 0.855468,0.13281 0.347656,0 0.664063,-0.11328 0.945313,-0.34375 0.28125,-0.22656 0.417969,-0.52734 0.417969,-0.89844 0,-0.48047 -0.300782,-0.86718 -0.902344,-1.16406 l -0.652344,-0.3125 c -0.28125,-0.13672 -0.46875,-0.26953 -0.5625,-0.39062 -0.09375,-0.11719 -0.140625,-0.26172 -0.140625,-0.42969 0,-0.13281 0.0625,-0.25391 0.191406,-0.36328 0.128907,-0.10938 0.296875,-0.16407 0.503907,-0.16407 0.273437,0 0.496093,0.0781 0.675781,0.23438 0.175781,0.16016 0.320312,0.45703 0.433593,0.89453 h 0.148438 v -1.39453 z m 3.101563,0.67187 c 0.109375,-0.043 0.199219,-0.0625 0.273437,-0.0625 l 0.210938,0.0508 0.113281,0.16015 c 0.02344,0.0742 0.03516,0.24219 0.03516,0.50391 v 3.86328 c 0,0.29687 -0.01563,0.48047 -0.04688,0.55469 l -0.128906,0.16015 c -0.117187,0.0625 -0.257812,0.0937 -0.421875,0.0937 h -0.109375 v 0.16407 h 2.140625 v -0.16407 c -0.222656,0 -0.378906,-0.0234 -0.460937,-0.0664 l -0.179688,-0.1836 c -0.03516,-0.0742 -0.05078,-0.2539 -0.05078,-0.53125 v -1.24609 c 0.148437,0.13672 0.28125,0.22656 0.402344,0.26953 0.160156,0.0625 0.347656,0.0937 0.570312,0.0937 0.503907,0 0.921875,-0.1875 1.257813,-0.56641 0.402344,-0.46093 0.605466,-1.04296 0.605466,-1.75 0,-0.6289 -0.167966,-1.14062 -0.503904,-1.53125 -0.273437,-0.32421 -0.617187,-0.48437 -1.027344,-0.48437 -0.234374,0 -0.457031,0.0742 -0.667968,0.21875 -0.214844,0.14453 -0.425782,0.39453 -0.636719,0.75391 v -0.95313 h -0.167969 l -1.261718,0.50781 z m 1.90625,0.082 c 0.136719,-0.0703 0.28125,-0.10547 0.421875,-0.10547 0.261719,0 0.488281,0.11328 0.679688,0.34765 0.273437,0.33594 0.410156,0.81641 0.410156,1.44141 0,0.55078 -0.121094,0.97656 -0.363282,1.27734 -0.183593,0.23438 -0.421874,0.34766 -0.722656,0.34766 -0.246094,0 -0.449218,-0.0625 -0.609375,-0.19531 -0.164062,-0.12891 -0.265625,-0.28125 -0.308593,-0.45313 -0.02734,-0.10547 -0.03906,-0.32422 -0.03906,-0.65234 v -1.52344 c 0.246094,-0.26953 0.425781,-0.42969 0.53125,-0.48437 m 3.937505,-0.48829 c -0.30469,0.17969 -0.54688,0.44922 -0.73438,0.82032 -0.1875,0.37109 -0.27734,0.74218 -0.27734,1.11718 0,0.51563 0.15234,0.98047 0.45703,1.39063 0.36328,0.49219 0.85156,0.73828 1.46875,0.73828 0.3789,0 0.71875,-0.0977 1.02734,-0.28516 0.3086,-0.1914 0.55078,-0.47265 0.72656,-0.84765 0.17188,-0.375 0.26172,-0.7461 0.26172,-1.10938 0,-0.52343 -0.16015,-0.98437 -0.47656,-1.38281 -0.375,-0.46875 -0.87109,-0.70703 -1.48828,-0.70703 -0.33984,0 -0.66016,0.0898 -0.96484,0.26562 m 1.63281,0.45313 c 0.30859,0.41797 0.46875,0.98828 0.46875,1.71484 0,0.57813 -0.0937,0.98828 -0.28516,1.22266 -0.18359,0.23828 -0.42187,0.35937 -0.71094,0.35937 -0.38671,0 -0.69921,-0.21484 -0.93359,-0.64843 -0.23828,-0.42969 -0.35547,-0.94141 -0.35547,-1.53907 0,-0.36718 0.0508,-0.66796 0.14844,-0.90234 0.0977,-0.23437 0.22656,-0.40234 0.38672,-0.49609 0.15625,-0.0898 0.3164,-0.13672 0.47265,-0.13672 0.32813,0 0.59766,0.14062 0.8086,0.42578 m 4.39062,-0.71875 -0.0937,0.14062 -0.11328,0.0312 c -0.0469,0 -0.14844,-0.0234 -0.30078,-0.0664 -0.23047,-0.0703 -0.42187,-0.10547 -0.58594,-0.10547 -0.36328,0 -0.66406,0.11328 -0.89062,0.33984 -0.23438,0.22657 -0.34766,0.50782 -0.34766,0.84375 0,0.25782 0.0664,0.47266 0.20313,0.64063 0.13281,0.17187 0.41406,0.36719 0.84375,0.58203 0.43359,0.21094 0.71875,0.39062 0.86328,0.52734 0.14453,0.14063 0.21484,0.3125 0.21484,0.51953 0,0.16797 -0.0625,0.3125 -0.1914,0.4336 -0.12891,0.12109 -0.29688,0.17969 -0.50391,0.17969 -0.28906,0 -0.55469,-0.10547 -0.78906,-0.31641 -0.23438,-0.21094 -0.39063,-0.52344 -0.47657,-0.9375 h -0.14453 v 1.45703 h 0.14453 l 0.16016,-0.11719 0.24219,0.0469 c 0.32031,0.0898 0.60547,0.13281 0.85547,0.13281 0.34765,0 0.66406,-0.11328 0.94531,-0.34375 0.28125,-0.22656 0.41797,-0.52734 0.41797,-0.89844 0,-0.48047 -0.30078,-0.86718 -0.90235,-1.16406 l -0.65234,-0.3125 c -0.28125,-0.13672 -0.46875,-0.26953 -0.5625,-0.39062 -0.0937,-0.11719 -0.14062,-0.26172 -0.14062,-0.42969 0,-0.13281 0.0625,-0.25391 0.1914,-0.36328 0.125,-0.10938 0.29688,-0.16407 0.50391,-0.16407 0.27344,0 0.5,0.0781 0.67578,0.23438 0.17578,0.16016 0.32031,0.45703 0.43359,0.89453 h 0.14844 v -1.39453 z m 3.55469,0 -0.0937,0.14062 -0.11328,0.0312 c -0.0508,0 -0.15234,-0.0234 -0.30469,-0.0664 -0.22656,-0.0703 -0.42187,-0.10547 -0.58203,-0.10547 -0.36328,0 -0.66406,0.11328 -0.89453,0.33984 -0.23047,0.22657 -0.34375,0.50782 -0.34375,0.84375 0,0.25782 0.0664,0.47266 0.19922,0.64063 0.13281,0.17187 0.41797,0.36719 0.84765,0.58203 0.42969,0.21094 0.71875,0.39062 0.86329,0.52734 0.14453,0.14063 0.21484,0.3125 0.21484,0.51953 0,0.16797 -0.0664,0.3125 -0.19531,0.4336 -0.12891,0.12109 -0.29297,0.17969 -0.5,0.17969 -0.29297,0 -0.55469,-0.10547 -0.78907,-0.31641 -0.23437,-0.21094 -0.39453,-0.52344 -0.47656,-0.9375 h -0.14844 v 1.45703 h 0.14844 l 0.16016,-0.11719 0.23828,0.0469 c 0.32422,0.0898 0.60937,0.13281 0.85937,0.13281 0.34766,0 0.66016,-0.11328 0.94141,-0.34375 0.28125,-0.22656 0.42188,-0.52734 0.42188,-0.89844 0,-0.48047 -0.30079,-0.86718 -0.90625,-1.16406 l -0.64844,-0.3125 c -0.28516,-0.13672 -0.47266,-0.26953 -0.5625,-0.39062 -0.0977,-0.11719 -0.14453,-0.26172 -0.14453,-0.42969 0,-0.13281 0.0664,-0.25391 0.1914,-0.36328 0.12891,-0.10938 0.29688,-0.16407 0.50782,-0.16407 0.26953,0 0.49609,0.0781 0.67187,0.23438 0.17969,0.16016 0.32422,0.45703 0.4375,0.89453 h 0.14453 v -1.39453 z m 1.77344,-2.003908 c -0.0859,0.08984 -0.12891,0.195313 -0.12891,0.320313 0,0.125 0.043,0.230469 0.13281,0.320315 0.0898,0.0898 0.19532,0.13281 0.32032,0.13281 0.125,0 0.23047,-0.043 0.3164,-0.13281 0.0898,-0.08985 0.13282,-0.195315 0.13282,-0.320315 0,-0.125 -0.043,-0.230469 -0.13282,-0.320313 -0.0859,-0.08594 -0.1914,-0.132812 -0.3164,-0.132812 -0.12891,0 -0.23438,0.04687 -0.32422,0.132812 m 0.49609,2.003908 -1.23047,0.5 0.0625,0.16016 c 0.1211,-0.043 0.22266,-0.0664 0.30469,-0.0664 l 0.18359,0.0547 0.0977,0.19922 c 0.0273,0.13281 0.0391,0.41796 0.0391,0.86328 v 1.57031 c 0,0.25391 -0.0195,0.42578 -0.0586,0.51562 l -0.16406,0.19141 c -0.0664,0.0391 -0.20313,0.0586 -0.40235,0.0586 v 0.16016 h 1.98828 v -0.16016 c -0.19531,0 -0.32812,-0.0195 -0.40234,-0.0625 l -0.16406,-0.1914 c -0.0391,-0.0859 -0.0547,-0.25391 -0.0547,-0.51172 v -3.28125 z m 2.4375,-2.13672 h -0.19922 l -1.22656,0.5 0.0625,0.15625 c 0.125,-0.04687 0.22656,-0.07031 0.3125,-0.07031 l 0.17969,0.05859 c 0.0469,0.03906 0.082,0.109379 0.10156,0.218749 0.0234,0.10547 0.0352,0.39063 0.0352,0.85547 v 4.23047 c 0.2539,0.17578 0.5039,0.30469 0.75,0.39062 0.24609,0.0859 0.48828,0.12891 0.72265,0.12891 0.51172,0 0.97266,-0.19141 1.38672,-0.57031 0.48047,-0.44531 0.72266,-1.02735 0.72266,-1.75391 0,-0.62109 -0.15625,-1.10937 -0.46875,-1.46875 -0.31641,-0.35937 -0.67969,-0.53906 -1.09766,-0.53906 -0.46094,0 -0.88672,0.27734 -1.28125,0.82422 z m 0.45703,2.89063 c 0.15625,-0.0781 0.3125,-0.11719 0.47266,-0.11719 0.29297,0 0.5625,0.13672 0.79297,0.41797 0.23437,0.28125 0.35156,0.68359 0.35156,1.20703 0,0.5664 -0.11719,1 -0.35156,1.29687 -0.23047,0.29688 -0.48438,0.44532 -0.75391,0.44532 -0.16797,0 -0.33594,-0.0391 -0.49609,-0.10938 -0.16406,-0.0781 -0.32031,-0.19141 -0.47266,-0.33984 v -2.44532 c 0.1836,-0.17578 0.33594,-0.29296 0.45703,-0.35546 m 4.19532,-2.89063 -1.21875,0.5 0.0781,0.15625 c 0.11719,-0.04687 0.21484,-0.07031 0.29297,-0.07031 l 0.17578,0.05859 c 0.0469,0.03906 0.0781,0.109379 0.10156,0.214849 0.0195,0.10546 0.0312,0.39062 0.0312,0.85156 v 3.70703 c 0,0.25391 -0.0195,0.42578 -0.0586,0.51562 l -0.16016,0.19141 c -0.0703,0.0391 -0.19922,0.0586 -0.38281,0.0586 v 0.16016 h 2 v -0.16016 c -0.21094,0 -0.35547,-0.0234 -0.42969,-0.0664 l -0.17578,-0.1875 c -0.0352,-0.0859 -0.0547,-0.25391 -0.0547,-0.51172 v -5.417639 z m 4.89062,3.79688 c 0,-0.50391 -0.14844,-0.91016 -0.44141,-1.21094 -0.29687,-0.30078 -0.67187,-0.45313 -1.1289,-0.45313 -0.54297,0 -0.99219,0.19532 -1.34766,0.58594 -0.35937,0.39063 -0.53906,0.9375 -0.53906,1.63281 0,0.64844 0.17578,1.16016 0.52344,1.54297 0.34765,0.38281 0.76953,0.57422 1.26172,0.57422 0.44921,0 0.82812,-0.16797 1.125,-0.50391 0.30078,-0.33203 0.48437,-0.70312 0.54687,-1.11328 l -0.14062,-0.0859 c -0.13282,0.35546 -0.30079,0.60546 -0.4961,0.7539 -0.19922,0.14844 -0.42969,0.22266 -0.69531,0.22266 -0.40234,0 -0.75391,-0.17188 -1.05078,-0.51953 -0.29688,-0.34375 -0.44531,-0.82032 -0.44141,-1.42578 z m -2.48437,-1.0586 c 0.19531,-0.1914 0.41796,-0.28906 0.66406,-0.28906 0.16015,0 0.3164,0.0469 0.46094,0.14453 0.14843,0.0937 0.25781,0.22656 0.33203,0.39063 0.0469,0.10937 0.0781,0.29296 0.0937,0.55468 h -1.89063 c 0.0312,-0.34375 0.14844,-0.60937 0.33985,-0.80078"
     id="path631" />
  <path
     fill-rule="nonzero"
     fill="#df3224"
     fill-opacity="1"
     d="m 126.38672,7.441406 c 0.17187,0.01953 0.32812,0.03125 0.47265,0.03125 0.59766,0 1.0586,-0.152344 1.38282,-0.464844 0.32421,-0.308594 0.48437,-0.707031 0.48437,-1.203125 0,-0.363281 -0.10547,-0.675781 -0.32031,-0.941406 -0.21094,-0.261719 -0.47656,-0.453125 -0.78516,-0.5625 -0.3164,-0.113281 -0.74219,-0.167969 -1.28125,-0.167969 h -2.21875 v 0.164062 h 0.23047 c 0.22656,0 0.40234,0.06641 0.51563,0.195313 0.0781,0.09375 0.12109,0.332031 0.12109,0.710937 v 3.90625 c 0,0.34375 -0.0312,0.5625 -0.0898,0.65625 -0.10938,0.167969 -0.29297,0.25 -0.54688,0.25 h -0.23047 v 0.164063 h 2.59375 v -0.164063 h -0.23437 c -0.22657,0 -0.39844,-0.06641 -0.51172,-0.199218 -0.082,-0.08984 -0.125,-0.324219 -0.125,-0.707032 V 7.347656 c 0.1914,0.04297 0.375,0.07422 0.54297,0.09375 m -0.54297,-2.863282 c 0.23828,-0.05469 0.42969,-0.08594 0.58594,-0.08594 0.25,0 0.47265,0.05859 0.66796,0.167969 0.19532,0.113281 0.34766,0.28125 0.45313,0.503906 0.10937,0.226562 0.16016,0.46875 0.16016,0.730469 0,0.382812 -0.10938,0.691406 -0.33594,0.929687 -0.22656,0.242188 -0.49219,0.359375 -0.80078,0.359375 -0.0859,0 -0.1875,-0.0078 -0.3125,-0.02344 -0.1211,-0.01172 -0.26172,-0.03516 -0.41797,-0.06641 z m 4.5,1.398438 -1.23828,0.5 0.0469,0.15625 c 0.11719,-0.04297 0.21875,-0.06641 0.3125,-0.06641 l 0.19531,0.0625 0.10547,0.199218 c 0.0195,0.08984 0.0273,0.375 0.0273,0.851563 v 1.582031 c 0,0.238282 -0.008,0.382813 -0.0234,0.433594 -0.0273,0.101562 -0.082,0.179688 -0.15234,0.226562 -0.10157,0.06641 -0.25782,0.09766 -0.46485,0.09766 v 0.160156 h 2.08985 V 10.01953 c -0.1836,0 -0.32422,-0.02734 -0.42579,-0.07813 l -0.20318,-0.203119 c -0.0547,-0.117188 -0.0859,-0.285157 -0.0859,-0.511719 V 7.269531 c 0.14453,-0.28125 0.28125,-0.480469 0.41797,-0.605469 l 0.17188,-0.08594 c 0.0625,0 0.16015,0.05078 0.28906,0.152344 0.1289,0.101563 0.24609,0.15625 0.35156,0.15625 0.10156,0 0.19531,-0.04297 0.27344,-0.121094 0.0781,-0.08203 0.11719,-0.179687 0.11719,-0.296874 0,-0.128907 -0.0547,-0.242188 -0.16016,-0.34375 -0.10938,-0.101563 -0.24219,-0.148438 -0.40625,-0.148438 -0.35938,0 -0.71094,0.304688 -1.05469,0.917969 V 5.976562 Z m 3.0664,0.261719 c -0.30468,0.179687 -0.54687,0.453125 -0.73437,0.824219 -0.18359,0.367187 -0.27734,0.742187 -0.27734,1.117187 0,0.511719 0.15234,0.976563 0.45703,1.390625 0.36328,0.488281 0.85156,0.734375 1.46875,0.734375 0.3789,0 0.71875,-0.09375 1.02734,-0.285156 0.30859,-0.191407 0.55078,-0.472657 0.72656,-0.847657 0.17188,-0.375 0.26172,-0.746093 0.26172,-1.109374 0,-0.519532 -0.16015,-0.980469 -0.47656,-1.382813 -0.375,-0.46875 -0.87109,-0.703125 -1.49219,-0.703125 -0.33594,0 -0.65625,0.08594 -0.96094,0.261719 m 1.63282,0.453125 c 0.3125,0.417968 0.46875,0.988281 0.46875,1.714844 0,0.578124 -0.0937,0.988281 -0.28516,1.226562 -0.18359,0.238281 -0.42187,0.355469 -0.71094,0.355469 -0.38672,0 -0.69922,-0.214844 -0.93359,-0.644531 -0.23828,-0.433594 -0.35547,-0.945313 -0.35547,-1.539063 0,-0.371094 0.0508,-0.671875 0.14844,-0.90625 0.0977,-0.234375 0.22656,-0.398437 0.38672,-0.492187 0.15625,-0.09375 0.3164,-0.140626 0.47265,-0.140626 0.32813,0 0.59766,0.140626 0.8086,0.425782 m 2.61328,-2.722656 c -0.0898,0.08984 -0.13281,0.195312 -0.13281,0.324218 0,0.125 0.043,0.230469 0.13281,0.320313 0.0898,0.08984 0.19531,0.136719 0.32031,0.136719 0.12891,0 0.23828,-0.04688 0.32422,-0.136719 0.0898,-0.08984 0.13672,-0.195313 0.13672,-0.320313 0,-0.128906 -0.0469,-0.234375 -0.13672,-0.324218 -0.0859,-0.08984 -0.19531,-0.132813 -0.32422,-0.132813 -0.125,0 -0.23047,0.04297 -0.32031,0.132813 m 0.51172,2.007812 -1.23047,0.5 0.0625,0.15625 c 0.11719,-0.04297 0.21875,-0.06641 0.30469,-0.06641 l 0.17968,0.05859 0.0977,0.203124 c 0.0273,0.125 0.043,0.414063 0.043,0.863282 v 2.90625 c 0,0.433594 -0.0156,0.714844 -0.0508,0.84375 -0.0312,0.128906 -0.082,0.21875 -0.14844,0.273437 l -0.21094,0.08594 c -0.0977,0 -0.22265,-0.06641 -0.36328,-0.195313 -0.14453,-0.128906 -0.24219,-0.203125 -0.29297,-0.226562 l -0.23828,-0.05859 -0.25391,0.113281 c -0.0742,0.07422 -0.10937,0.164063 -0.10937,0.265625 0,0.105469 0.0625,0.207032 0.19531,0.304688 0.12891,0.09766 0.33203,0.148437 0.60156,0.148437 0.47657,0 0.86329,-0.171875 1.16016,-0.507812 0.29688,-0.339844 0.44531,-0.859375 0.44531,-1.558594 V 5.976562 Z m 4.8125,1.65625 c 0,-0.503906 -0.14453,-0.90625 -0.44141,-1.210938 -0.29297,-0.300781 -0.66797,-0.453124 -1.12891,-0.453124 -0.53906,0 -0.98828,0.195312 -1.34765,0.585937 -0.35938,0.394531 -0.53906,0.9375 -0.53906,1.636719 0,0.644531 0.17578,1.160156 0.52734,1.542968 0.34766,0.378907 0.76562,0.570313 1.25781,0.570313 0.45313,0 0.82813,-0.167969 1.12891,-0.5 0.30078,-0.335937 0.48437,-0.707031 0.54297,-1.113281 l -0.13672,-0.08984 c -0.13281,0.355469 -0.30078,0.609375 -0.5,0.757812 -0.19531,0.144532 -0.42969,0.21875 -0.69531,0.21875 -0.40235,0 -0.75391,-0.171874 -1.04688,-0.519531 -0.30078,-0.34375 -0.44531,-0.820312 -0.44531,-1.425781 z m -2.48047,-1.058594 c 0.1914,-0.191406 0.41406,-0.289062 0.66015,-0.289062 0.16016,0 0.31641,0.05078 0.46485,0.144531 0.14453,0.09375 0.25781,0.226563 0.33203,0.390625 0.0469,0.109375 0.0781,0.292969 0.0937,0.554688 h -1.89453 c 0.0352,-0.339844 0.14844,-0.609376 0.34375,-0.800782 m 6.35547,1.992188 c -0.15235,0.359375 -0.3125,0.609375 -0.47266,0.746094 -0.23437,0.199218 -0.49609,0.296874 -0.78906,0.296874 -0.40625,0 -0.73047,-0.1875 -0.96875,-0.558593 -0.23828,-0.375 -0.35938,-0.804688 -0.35938,-1.292969 0,-0.476562 0.1211,-0.863281 0.36328,-1.152344 0.17969,-0.222656 0.41797,-0.332031 0.71875,-0.332031 0.1836,0 0.32813,0.04297 0.42969,0.132813 0.10547,0.09375 0.16406,0.226562 0.1836,0.402343 0.0156,0.175781 0.0469,0.292969 0.0977,0.355469 0.0898,0.113281 0.22266,0.171875 0.39844,0.171875 0.12891,0 0.23047,-0.03516 0.30469,-0.105469 0.0742,-0.07031 0.10937,-0.164062 0.10937,-0.273437 0,-0.230469 -0.1289,-0.453125 -0.38672,-0.664063 -0.26172,-0.210937 -0.58984,-0.316406 -0.99218,-0.316406 -0.53516,0 -0.99219,0.199219 -1.375,0.601562 -0.38282,0.398438 -0.57422,0.921876 -0.57422,1.5625 0,0.664063 0.17578,1.191407 0.51953,1.582032 0.34375,0.386718 0.74609,0.582031 1.21094,0.582031 0.39062,0 0.74609,-0.144531 1.0664,-0.433594 0.32031,-0.289062 0.53516,-0.703125 0.64453,-1.242187 z m 1.7539,-3.8125 c -0.12109,0.300781 -0.21484,0.507812 -0.28515,0.617187 -0.13282,0.214844 -0.28516,0.402344 -0.45313,0.558594 -0.17578,0.15625 -0.33984,0.265625 -0.5039,0.332031 V 6.40625 h 0.64453 v 2.746093 c 0,0.296875 0.0352,0.511719 0.0937,0.65625 0.0625,0.140625 0.16015,0.25 0.28906,0.324219 0.13281,0.07422 0.26953,0.113281 0.40625,0.113281 0.19922,0 0.39453,-0.07422 0.58594,-0.21875 0.1914,-0.148437 0.33984,-0.367187 0.4414,-0.660156 h -0.17578 c -0.0469,0.121094 -0.12109,0.210937 -0.21484,0.269531 l -0.28516,0.09375 c -0.11719,0 -0.21484,-0.04687 -0.28906,-0.140625 -0.0781,-0.08984 -0.11328,-0.269531 -0.11328,-0.535156 V 6.40625 h 0.95312 V 6.097656 h -0.95312 v -1.34375 z m 2.24219,-0.78125 c -0.0859,0.08594 -0.12891,0.191406 -0.12891,0.316406 0,0.125 0.0469,0.230469 0.13282,0.320312 0.0898,0.08984 0.19922,0.136719 0.32422,0.136719 0.12109,0 0.23046,-0.04687 0.3164,-0.136719 0.0898,-0.08984 0.13281,-0.195312 0.13281,-0.320312 0,-0.125 -0.043,-0.230469 -0.13281,-0.316406 -0.0859,-0.08984 -0.19531,-0.136719 -0.3164,-0.136719 -0.12891,0 -0.23829,0.04687 -0.32813,0.136719 m 0.5,2.003906 -1.23047,0.5 0.0625,0.15625 c 0.11719,-0.04297 0.21875,-0.06641 0.30078,-0.06641 l 0.1836,0.05859 0.10156,0.195312 c 0.0273,0.132812 0.0391,0.417969 0.0391,0.863281 v 1.574227 c 0,0.253906 -0.0195,0.421875 -0.0586,0.511719 l -0.16406,0.191406 c -0.0703,0.03906 -0.20313,0.05859 -0.40235,0.05859 v 0.160156 h 1.98438 v -0.160156 c -0.19141,0 -0.32813,-0.01953 -0.39844,-0.0625 L 151.60158,9.76562 c -0.0352,-0.08203 -0.0547,-0.253906 -0.0547,-0.507812 v -3.28125 z m 2.35156,0.261719 c -0.30468,0.179687 -0.54687,0.453125 -0.73437,0.824219 -0.1836,0.367187 -0.28125,0.742187 -0.28125,1.117187 0,0.511719 0.15625,0.976563 0.46094,1.390625 0.36328,0.488281 0.85156,0.734375 1.46875,0.734375 0.3789,0 0.71875,-0.09375 1.02734,-0.285156 0.30859,-0.191407 0.54687,-0.472657 0.72656,-0.847657 0.17578,-0.375 0.26172,-0.746093 0.26172,-1.109374 0,-0.519532 -0.16016,-0.980469 -0.47656,-1.382813 -0.375,-0.46875 -0.8711,-0.703125 -1.48828,-0.703125 -0.33985,0 -0.66016,0.08594 -0.96485,0.261719 m 1.63282,0.453125 c 0.3125,0.417968 0.46875,0.988281 0.46875,1.714844 0,0.578124 -0.0937,0.988281 -0.28125,1.226562 -0.1875,0.238281 -0.42579,0.355469 -0.71485,0.355469 -0.38672,0 -0.69922,-0.214844 -0.93359,-0.644531 -0.23438,-0.433594 -0.35547,-0.945313 -0.35547,-1.539063 0,-0.371094 0.0469,-0.671875 0.14844,-0.90625 0.0977,-0.234375 0.22656,-0.398437 0.38672,-0.492187 0.15625,-0.09375 0.3164,-0.140626 0.47265,-0.140626 0.32813,0 0.59766,0.140626 0.8086,0.425782 m 3.08984,-0.714844 h -0.19141 l -1.23047,0.5 0.0664,0.15625 c 0.11719,-0.04297 0.21484,-0.06641 0.29688,-0.06641 l 0.1875,0.05859 c 0.0469,0.03906 0.0781,0.113281 0.10156,0.21875 0.0234,0.105468 0.0352,0.40625 0.0352,0.898437 v 1.515633 c 0,0.296875 -0.0391,0.496094 -0.10937,0.601562 -0.0742,0.109376 -0.21484,0.160157 -0.42188,0.160157 h -0.0898 v 0.160156 h 2.01953 v -0.160156 c -0.22265,0 -0.37109,-0.01953 -0.44531,-0.05859 l -0.17188,-0.191406 c -0.0312,-0.06641 -0.0469,-0.234375 -0.0469,-0.511719 v -2.15625 c 0.35156,-0.386719 0.70312,-0.578125 1.05469,-0.578125 0.23047,0 0.39453,0.08594 0.48828,0.25 0.0977,0.167969 0.14844,0.4375 0.14844,0.8125 v 1.671871 c 0,0.234375 -0.008,0.375 -0.0195,0.417969 -0.0312,0.113281 -0.082,0.199219 -0.16015,0.257812 -0.0742,0.05859 -0.20703,0.08594 -0.39844,0.08594 h -0.082 v 0.160156 h 2.01953 v -0.160156 c -0.19922,0 -0.33203,-0.01953 -0.40625,-0.0625 l -0.15625,-0.175781 c -0.043,-0.08984 -0.0625,-0.265626 -0.0625,-0.523438 V 7.515626 c 0,-0.371093 -0.0352,-0.644531 -0.0977,-0.824218 -0.0937,-0.253906 -0.22265,-0.4375 -0.38281,-0.546875 -0.16015,-0.113281 -0.35547,-0.167969 -0.57422,-0.167969 -0.4375,0 -0.89453,0.285156 -1.37109,0.863281 z m 8.43359,4.328125 h 0.20703 l 1.21094,-0.503906 -0.0469,-0.15625 c -0.13672,0.05078 -0.24219,0.07813 -0.32032,0.07813 l -0.17578,-0.0625 c -0.0469,-0.04297 -0.0859,-0.117188 -0.10547,-0.222656 -0.0234,-0.105469 -0.0312,-0.398438 -0.0312,-0.875 V 3.835942 h -0.20312 l -1.21484,0.503906 0.0547,0.152344 c 0.12891,-0.04687 0.23047,-0.07031 0.3086,-0.07031 l 0.17968,0.05859 c 0.0469,0.03906 0.082,0.113282 0.10547,0.21875 0.0195,0.105469 0.0312,0.394532 0.0312,0.859375 v 0.753907 c -0.23437,-0.226563 -0.53125,-0.34375 -0.89062,-0.34375 -0.57813,0 -1.05469,0.242187 -1.42188,0.730468 -0.37109,0.488282 -0.55468,1.023438 -0.55468,1.609375 0,0.585938 0.16796,1.0625 0.5,1.4375 0.33203,0.371094 0.72265,0.558594 1.16796,0.558594 0.21875,0 0.42579,-0.04687 0.61329,-0.136719 0.1914,-0.08984 0.38671,-0.238281 0.58593,-0.445312 z M 166.07421,9.8125 c -0.32032,0 -0.61328,-0.15625 -0.8711,-0.476563 -0.26562,-0.320313 -0.39453,-0.78125 -0.39453,-1.378906 0,-0.597657 0.13281,-1.046875 0.40625,-1.359375 0.20703,-0.234375 0.4375,-0.351563 0.69922,-0.351563 0.14063,0 0.28125,0.04297 0.42969,0.128907 0.14844,0.08203 0.26562,0.207031 0.35547,0.375 0.0898,0.167968 0.14453,0.351562 0.16015,0.554687 v 2.105469 c -0.2539,0.269531 -0.51172,0.402344 -0.78515,0.402344 m 3.18359,-5.839844 c -0.0898,0.08594 -0.13281,0.191406 -0.13281,0.316406 0,0.125 0.0469,0.230469 0.13672,0.320312 0.0859,0.08984 0.19531,0.136719 0.32031,0.136719 0.125,0 0.23047,-0.04687 0.31641,-0.136719 0.0859,-0.08984 0.13281,-0.195312 0.13281,-0.320312 0,-0.125 -0.0469,-0.230469 -0.13281,-0.316406 -0.0859,-0.08984 -0.19141,-0.136719 -0.31641,-0.136719 -0.12891,0 -0.23828,0.04687 -0.32422,0.136719 m 0.49609,2.003906 -1.23046,0.5 0.0625,0.15625 c 0.11718,-0.04297 0.21875,-0.06641 0.30468,-0.06641 l 0.17969,0.05859 0.10156,0.195312 c 0.0234,0.132812 0.0391,0.417969 0.0391,0.863281 v 1.574227 c 0,0.253906 -0.0234,0.421875 -0.0625,0.511719 l -0.16016,0.191406 c -0.0703,0.03906 -0.20313,0.05859 -0.40234,0.05859 v 0.160156 h 1.98437 v -0.160156 c -0.19141,0 -0.32812,-0.01953 -0.39844,-0.0625 L 170.00783,9.76562 c -0.0391,-0.08203 -0.0586,-0.253906 -0.0586,-0.507812 v -3.28125 z m 2.32422,0 -1.23437,0.5 0.043,0.15625 c 0.11718,-0.04297 0.21875,-0.06641 0.3125,-0.06641 l 0.19531,0.0625 0.10937,0.199218 c 0.0156,0.08984 0.0273,0.375 0.0273,0.851563 v 1.582031 c 0,0.238282 -0.008,0.382813 -0.0234,0.433594 -0.0312,0.101562 -0.082,0.179688 -0.15625,0.226562 -0.10156,0.06641 -0.25391,0.09766 -0.46484,0.09766 v 0.160156 h 2.09375 V 10.01953 c -0.1836,0 -0.32813,-0.02734 -0.42188,-0.07813 l -0.20703,-0.203125 c -0.0586,-0.117188 -0.0859,-0.285157 -0.0859,-0.511719 V 7.269525 c 0.14453,-0.28125 0.28125,-0.480469 0.41407,-0.605469 l 0.17578,-0.08594 c 0.0625,0 0.15625,0.05078 0.28515,0.152344 0.12891,0.101563 0.2461,0.15625 0.35157,0.15625 0.10937,0 0.19921,-0.04297 0.27734,-0.121094 0.0742,-0.08203 0.11719,-0.179687 0.11719,-0.296874 0,-0.128907 -0.0547,-0.242188 -0.16016,-0.34375 -0.10937,-0.101563 -0.24609,-0.148438 -0.41016,-0.148438 -0.35937,0 -0.71093,0.304688 -1.05078,0.917969 V 5.976562 Z m 5.57032,1.65625 c 0,-0.503906 -0.14454,-0.90625 -0.44141,-1.210938 -0.29297,-0.300781 -0.66797,-0.453124 -1.12891,-0.453124 -0.53906,0 -0.98828,0.195312 -1.34765,0.585937 -0.35547,0.394531 -0.53907,0.9375 -0.53907,1.636719 0,0.644531 0.17579,1.160156 0.52735,1.542968 0.34765,0.378907 0.76562,0.570313 1.25781,0.570313 0.45313,0 0.82813,-0.167969 1.12891,-0.5 0.30078,-0.335937 0.48047,-0.707031 0.54297,-1.113281 l -0.13672,-0.08984 c -0.13282,0.355469 -0.30078,0.609375 -0.4961,0.757812 -0.19922,0.144532 -0.43359,0.21875 -0.69922,0.21875 -0.40234,0 -0.7539,-0.171874 -1.04687,-0.519531 -0.30078,-0.34375 -0.44922,-0.820312 -0.44141,-1.425781 z m -2.48047,-1.058594 c 0.19532,-0.191406 0.41407,-0.289062 0.66407,-0.289062 0.16016,0 0.3125,0.05078 0.46094,0.144531 0.14453,0.09375 0.2539,0.226563 0.33203,0.390625 0.0469,0.109375 0.0781,0.292969 0.0937,0.554688 h -1.89063 c 0.0312,-0.339844 0.14453,-0.609376 0.33985,-0.800782 m 6.35547,1.992188 c -0.15235,0.359375 -0.3125,0.609375 -0.47657,0.746094 -0.23047,0.199218 -0.49218,0.296874 -0.78125,0.296874 -0.41015,0 -0.73437,-0.1875 -0.97265,-0.558593 -0.23828,-0.375 -0.35938,-0.804688 -0.35938,-1.292969 0,-0.476562 0.1211,-0.863281 0.36328,-1.152344 0.17969,-0.222656 0.42188,-0.332031 0.71875,-0.332031 0.1836,0 0.32813,0.04297 0.42969,0.132813 0.10547,0.09375 0.16406,0.226562 0.18359,0.402343 0.0156,0.175781 0.0469,0.292969 0.0977,0.355469 0.0898,0.113281 0.22266,0.171875 0.39844,0.171875 0.1289,0 0.23047,-0.03516 0.30469,-0.105469 0.0742,-0.07031 0.10937,-0.164062 0.10937,-0.273437 0,-0.230469 -0.12891,-0.453125 -0.39062,-0.664063 -0.25782,-0.210937 -0.58594,-0.316406 -0.98829,-0.316406 -0.53515,0 -0.99218,0.199219 -1.375,0.601562 -0.38281,0.398438 -0.57421,0.921876 -0.57421,1.5625 0,0.664063 0.17578,1.191407 0.51953,1.582032 0.34375,0.386718 0.74609,0.582031 1.21093,0.582031 0.39063,0 0.7461,-0.144531 1.06641,-0.433594 0.32031,-0.289062 0.53516,-0.703125 0.64844,-1.242187 z m 1.7539,-3.8125 c -0.12109,0.300781 -0.21484,0.507812 -0.28125,0.617187 -0.13672,0.214844 -0.28906,0.402344 -0.46094,0.558594 -0.16796,0.15625 -0.33593,0.265625 -0.5,0.332031 V 6.40625 h 0.64844 v 2.746093 c 0,0.296875 0.0312,0.511719 0.0898,0.65625 0.0664,0.140625 0.16015,0.25 0.29296,0.324219 0.12891,0.07422 0.26172,0.113281 0.40235,0.113281 0.19922,0 0.39453,-0.07422 0.58594,-0.21875 0.1914,-0.148437 0.33984,-0.367187 0.4414,-0.660156 h -0.17578 c -0.0508,0.121094 -0.12109,0.210937 -0.21094,0.269531 l -0.28515,0.09375 c -0.1211,0 -0.21875,-0.04687 -0.29297,-0.140625 -0.0742,-0.08984 -0.11328,-0.269531 -0.11328,-0.535156 V 6.40625 h 0.95312 V 6.097656 h -0.95312 v -1.34375 z m 2.22656,-0.78125 c -0.0859,0.08594 -0.1289,0.191406 -0.1289,0.316406 0,0.125 0.043,0.230469 0.13281,0.320312 0.0898,0.08984 0.19531,0.136719 0.32031,0.136719 0.125,0 0.23047,-0.04687 0.31641,-0.136719 0.0898,-0.08984 0.13281,-0.195312 0.13281,-0.320312 0,-0.125 -0.043,-0.230469 -0.13281,-0.316406 -0.0859,-0.08984 -0.19141,-0.136719 -0.31641,-0.136719 -0.1289,0 -0.23828,0.04687 -0.32422,0.136719 m 0.4961,2.003906 -1.23047,0.5 0.0625,0.15625 c 0.12109,-0.04297 0.22266,-0.06641 0.30469,-0.06641 l 0.17968,0.05859 0.10157,0.195312 c 0.0234,0.132812 0.0391,0.417969 0.0391,0.863281 v 1.574227 c 0,0.253906 -0.0195,0.421875 -0.0625,0.511719 l -0.16016,0.191406 c -0.0703,0.03906 -0.20312,0.05859 -0.40234,0.05859 v 0.160156 h 1.98437 v -0.160156 c -0.1914,0 -0.32421,-0.01953 -0.39843,-0.0625 L 186.25389,9.76562 c -0.0391,-0.08203 -0.0586,-0.253906 -0.0586,-0.507812 v -3.28125 z m 2.35156,0.261719 c -0.30078,0.179687 -0.54687,0.453125 -0.73047,0.824219 -0.1875,0.367187 -0.28125,0.742187 -0.28125,1.117187 0,0.511719 0.15235,0.976563 0.46094,1.390625 0.36328,0.488281 0.85156,0.734375 1.46484,0.734375 0.37891,0 0.72266,-0.09375 1.02735,-0.285156 0.30859,-0.191407 0.55078,-0.472657 0.72656,-0.847657 0.17578,-0.375 0.26172,-0.746093 0.26172,-1.109374 0,-0.519532 -0.15625,-0.980469 -0.47656,-1.382813 -0.375,-0.46875 -0.8711,-0.703125 -1.48829,-0.703125 -0.33984,0 -0.66015,0.08594 -0.96484,0.261719 m 1.63281,0.453125 c 0.3125,0.417968 0.46875,0.988281 0.46875,1.714844 0,0.578124 -0.0937,0.988281 -0.28125,1.226562 -0.1875,0.238281 -0.42187,0.355469 -0.71484,0.355469 -0.38672,0 -0.69531,-0.214844 -0.93359,-0.644531 -0.23438,-0.433594 -0.35157,-0.945313 -0.35157,-1.539063 0,-0.371094 0.0469,-0.671875 0.14453,-0.90625 0.0977,-0.234375 0.22657,-0.398437 0.38672,-0.492187 0.15625,-0.09375 0.31641,-0.140626 0.47657,-0.140626 0.32421,0 0.59375,0.140626 0.80468,0.425782 m 3.0625,-0.714844 h -0.1914 l -1.23047,0.5 0.0664,0.15625 c 0.11719,-0.04297 0.21875,-0.06641 0.30079,-0.06641 l 0.18359,0.05859 c 0.0469,0.03906 0.0781,0.113281 0.10156,0.21875 0.0234,0.105468 0.0352,0.40625 0.0352,0.898437 v 1.515633 c 0,0.296875 -0.0352,0.496094 -0.10938,0.601562 -0.0742,0.109376 -0.21093,0.160157 -0.42187,0.160157 h -0.0898 v 0.160156 h 2.01954 v -0.160156 c -0.22266,0 -0.36719,-0.01953 -0.44141,-0.05859 l -0.17188,-0.191406 c -0.0352,-0.06641 -0.0508,-0.234375 -0.0508,-0.511719 v -2.15625 c 0.35157,-0.386719 0.70313,-0.578125 1.0586,-0.578125 0.22656,0 0.39062,0.08594 0.48828,0.25 0.0937,0.167969 0.14453,0.4375 0.14453,0.8125 v 1.671871 c 0,0.234375 -0.008,0.375 -0.0195,0.417969 -0.0273,0.113281 -0.082,0.199219 -0.15625,0.257812 -0.0781,0.05859 -0.21094,0.08594 -0.39844,0.08594 h -0.0859 v 0.160156 h 2.01953 v -0.160156 c -0.19531,0 -0.32812,-0.01953 -0.40234,-0.0625 l -0.16016,-0.175781 c -0.0391,-0.08984 -0.0625,-0.265626 -0.0625,-0.523438 V 7.515626 c 0,-0.371093 -0.0312,-0.644531 -0.0977,-0.824218 -0.0937,-0.253906 -0.22266,-0.4375 -0.38281,-0.546875 -0.16016,-0.113281 -0.35157,-0.167969 -0.57422,-0.167969 -0.4375,0 -0.89063,0.285156 -1.3711,0.863281 z m 6.5586,0.261719 c -0.30469,0.179687 -0.55078,0.453125 -0.73438,0.824219 -0.1875,0.367187 -0.27734,0.742187 -0.27734,1.117187 0,0.511719 0.15234,0.976563 0.45703,1.390625 0.36328,0.488281 0.85156,0.734375 1.46875,0.734375 0.375,0 0.71875,-0.09375 1.02734,-0.285156 0.30469,-0.191407 0.55078,-0.472657 0.72266,-0.847657 0.17578,-0.375 0.26562,-0.746093 0.26562,-1.109374 0,-0.519532 -0.16015,-0.980469 -0.47656,-1.382813 -0.375,-0.46875 -0.87109,-0.703125 -1.49219,-0.703125 -0.33984,0 -0.66015,0.08594 -0.96093,0.261719 m 1.6289,0.453125 c 0.31641,0.417968 0.46875,0.988281 0.46875,1.714844 0,0.578124 -0.0937,0.988281 -0.27734,1.226562 -0.19141,0.238281 -0.42578,0.355469 -0.71484,0.355469 -0.39063,0 -0.69922,-0.214844 -0.9336,-0.644531 -0.23828,-0.433594 -0.35547,-0.945313 -0.35547,-1.539063 0,-0.371094 0.0469,-0.671875 0.14453,-0.90625 0.10157,-0.234375 0.23047,-0.398437 0.39063,-0.492187 0.15625,-0.09375 0.3125,-0.140626 0.47266,-0.140626 0.32812,0 0.59765,0.140626 0.80468,0.425782 M 205.7851,6.417968 V 6.097656 h -1.05468 V 5.800781 c 0,-0.636719 0.0234,-1.03125 0.0664,-1.183594 0.0391,-0.152344 0.10938,-0.265625 0.20313,-0.339844 0.0976,-0.07031 0.21094,-0.109375 0.34765,-0.109375 0.11329,0 0.21485,0.02734 0.3086,0.08594 0.0898,0.05469 0.1914,0.164062 0.30078,0.328125 0.11328,0.160156 0.20703,0.265625 0.27734,0.316406 l 0.21875,0.07422 0.25,-0.121094 0.11719,-0.25 c 0,-0.167969 -0.0859,-0.316406 -0.25781,-0.449219 -0.26172,-0.203125 -0.55078,-0.304687 -0.86328,-0.304687 -0.33203,0 -0.63672,0.08594 -0.90625,0.261718 -0.26953,0.171876 -0.46875,0.402344 -0.60157,0.683594 -0.1289,0.28125 -0.19531,0.625 -0.19531,1.035156 v 0.269532 h -0.79297 v 0.320312 h 0.79297 v 2.683594 c 0,0.292969 -0.0195,0.484375 -0.0547,0.589844 -0.0391,0.09766 -0.10546,0.179687 -0.20312,0.238281 -0.0977,0.05859 -0.20703,0.08984 -0.32422,0.08984 h -0.18359 v 0.160156 h 2.4375 V 10.01953 h -0.36719 c -0.1875,0 -0.33203,-0.06641 -0.44531,-0.195313 -0.082,-0.101562 -0.125,-0.34375 -0.125,-0.722656 V 6.417967 h 1.05468"
     id="path633" />
  <path
     fill-rule="nonzero"
     fill="#df3224"
     fill-opacity="1"
     d="m 84.171871,122.95703 c 0.11719,0.28125 0.17969,0.48828 0.17969,0.62109 l -0.12891,0.25 c -0.0859,0.0703 -0.24609,0.10938 -0.48828,0.1211 v 0.16406 h 2.38672 v -0.16406 c -0.24609,-0.0156 -0.4375,-0.082 -0.57812,-0.20313 -0.13672,-0.12109 -0.28907,-0.38281 -0.46094,-0.78906 l -2.10547,-5.03516 h -0.15625 l -2.12891,4.98047 c -0.1875,0.4375 -0.35546,0.73047 -0.5039,0.87109 -0.0781,0.0703 -0.24219,0.12891 -0.49219,0.17579 v 0.16406 h 1.90625 v -0.16406 c -0.29297,-0.0195 -0.48047,-0.0664 -0.57031,-0.13672 l -0.13281,-0.24219 c 0,-0.11719 0.0508,-0.29297 0.15234,-0.52734 l 0.41016,-0.95704 h 2.34375 z m -2.57031,-1.20313 1.05078,-2.44531 1.02735,2.44531 z m 7.40234,-1.85156 -0.0937,0.14063 -0.10937,0.0312 c -0.0508,0 -0.15234,-0.0234 -0.30469,-0.0664 -0.23047,-0.0703 -0.42578,-0.10547 -0.58594,-0.10547 -0.36328,0 -0.66406,0.11719 -0.89453,0.33984 -0.23047,0.22657 -0.34375,0.50782 -0.34375,0.84375 0,0.26172 0.0664,0.47657 0.19922,0.64454 0.13281,0.17187 0.41797,0.36718 0.84766,0.57812 0.43359,0.21484 0.71875,0.39063 0.86328,0.53125 0.14453,0.14063 0.21875,0.3125 0.21875,0.51953 0,0.16797 -0.0664,0.31641 -0.19531,0.4336 -0.12891,0.12109 -0.29688,0.18359 -0.50391,0.18359 -0.28906,0 -0.55469,-0.10547 -0.78906,-0.31641 -0.23438,-0.21484 -0.39453,-0.52734 -0.47656,-0.94531 h -0.14844 v 1.46094 h 0.14844 l 0.16015,-0.11719 0.24219,0.0469 c 0.32031,0.0898 0.60547,0.13281 0.85547,0.13281 0.34765,0 0.66406,-0.11328 0.94531,-0.33985 0.28125,-0.23046 0.42188,-0.52734 0.42188,-0.90234 0,-0.48047 -0.30469,-0.87109 -0.90625,-1.16406 l -0.65235,-0.31641 c -0.28125,-0.13672 -0.46875,-0.26562 -0.5625,-0.39062 -0.0977,-0.11719 -0.14453,-0.26172 -0.14453,-0.42578 0,-0.13282 0.0664,-0.25782 0.19531,-0.36719 0.125,-0.10938 0.29297,-0.16406 0.50391,-0.16406 0.27344,0 0.49609,0.0781 0.67578,0.23437 0.17578,0.16016 0.32031,0.45703 0.43359,0.89453 h 0.14844 v -1.39453 z m 3.65625,-1.41016 c -0.19531,0.25782 -0.29687,0.53516 -0.29687,0.83204 0,0.2539 0.082,0.46484 0.24219,0.63671 0.16015,0.17579 0.33984,0.26172 0.53906,0.26172 0.16406,0 0.30078,-0.0547 0.41406,-0.15625 0.10938,-0.10156 0.16406,-0.22656 0.16406,-0.36718 0,-0.13282 -0.0469,-0.24219 -0.13671,-0.33204 -0.0898,-0.0898 -0.19922,-0.13671 -0.32032,-0.13671 l -0.17968,0.0312 -0.15235,0.0352 -0.10156,-0.0625 c -0.0273,-0.0391 -0.043,-0.10937 -0.043,-0.21484 0,-0.17578 0.0547,-0.33594 0.17188,-0.48828 0.10937,-0.14844 0.29687,-0.28907 0.55859,-0.42578 v -0.1836 c -0.375,0.1211 -0.66016,0.3125 -0.85938,0.57031 m 2.14063,-0.008 c -0.19922,0.25391 -0.29688,0.53906 -0.29688,0.85156 0,0.25391 0.0781,0.46485 0.23438,0.63672 0.16016,0.16797 0.33594,0.25391 0.53125,0.25391 0.16797,0 0.30859,-0.0547 0.42187,-0.16016 0.11719,-0.10937 0.17188,-0.23437 0.17188,-0.38281 0,-0.125 -0.043,-0.23437 -0.13672,-0.32422 -0.0898,-0.0859 -0.19531,-0.1289 -0.31641,-0.1289 l -0.19921,0.0352 -0.14454,0.0352 -0.10546,-0.0625 -0.0469,-0.1875 c 0,-0.1836 0.0469,-0.34375 0.14453,-0.48047 0.0937,-0.13672 0.28906,-0.29297 0.58985,-0.46484 v -0.16797 c -0.36329,0.10547 -0.64844,0.28906 -0.84766,0.54687 m 4.94531,4.01172 c -0.15625,0.35938 -0.3164,0.60938 -0.47656,0.74609 -0.23438,0.19922 -0.49609,0.30079 -0.78906,0.30079 -0.40625,0 -0.73047,-0.1875 -0.96875,-0.5625 -0.24219,-0.3711 -0.35938,-0.80079 -0.35938,-1.29297 0,-0.47657 0.1211,-0.86328 0.35938,-1.15235 0.17968,-0.22265 0.42187,-0.33203 0.71875,-0.33203 0.18359,0 0.33203,0.043 0.43359,0.13281 0.10547,0.0937 0.16406,0.22657 0.18359,0.40235 0.0117,0.17578 0.0469,0.29687 0.0977,0.35937 0.0898,0.10938 0.22266,0.16797 0.39844,0.16797 0.1289,0 0.23047,-0.0352 0.30469,-0.10547 0.0742,-0.0703 0.10937,-0.16015 0.10937,-0.27343 0,-0.23047 -0.12891,-0.44922 -0.38672,-0.66407 -0.26172,-0.21093 -0.58984,-0.32031 -0.99219,-0.32031 -0.53515,0 -0.99609,0.20313 -1.3789,0.60547 -0.37891,0.40234 -0.57031,0.92187 -0.57031,1.56641 0,0.66406 0.17187,1.1914 0.51562,1.57812 0.34766,0.39063 0.75,0.58594 1.21484,0.58594 0.38672,0 0.74219,-0.14453 1.06641,-0.4336 0.32031,-0.29296 0.53516,-0.70703 0.64844,-1.24218 z m 1.910159,-4.73047 -1.21875,0.5 0.0742,0.15625 c 0.12109,-0.0469 0.21875,-0.0703 0.29687,-0.0703 l 0.17578,0.0586 c 0.0469,0.0352 0.0781,0.10938 0.10157,0.21485 0.0195,0.10547 0.0312,0.39062 0.0312,0.85156 v 3.71484 c 0,0.25 -0.0195,0.42188 -0.0586,0.51172 l -0.16015,0.19141 c -0.0703,0.0391 -0.19532,0.0586 -0.38672,0.0586 v 0.16016 h 2.00781 v -0.16016 c -0.21094,0 -0.35547,-0.0195 -0.43359,-0.0664 l -0.17188,-0.1875 c -0.0391,-0.0859 -0.0586,-0.25391 -0.0586,-0.50782 v -5.42578 z m 2.36328,2.40235 c -0.30469,0.17968 -0.54688,0.45312 -0.73438,0.82421 -0.1875,0.36719 -0.27734,0.74219 -0.27734,1.11719 0,0.51563 0.15234,0.97656 0.45703,1.39063 0.36328,0.49218 0.85156,0.73828 1.46875,0.73828 0.37891,0 0.72266,-0.0937 1.02735,-0.28516 0.30859,-0.1914 0.55078,-0.47265 0.72656,-0.84765 0.17578,-0.375 0.26562,-0.7461 0.26562,-1.11329 0,-0.51953 -0.16015,-0.98046 -0.48047,-1.38281 -0.375,-0.46875 -0.87109,-0.70703 -1.49218,-0.70703 -0.33594,0 -0.66016,0.0898 -0.96094,0.26563 m 1.63281,0.45312 c 0.3125,0.41797 0.46875,0.98828 0.46875,1.71484 0,0.58204 -0.0937,0.99219 -0.28125,1.22657 -0.1875,0.24218 -0.42578,0.35937 -0.71484,0.35937 -0.38672,0 -0.69922,-0.21484 -0.9336,-0.64844 -0.23828,-0.42968 -0.35546,-0.94531 -0.35546,-1.53906 0,-0.37109 0.0508,-0.67187 0.14843,-0.90625 0.0977,-0.23437 0.22657,-0.39844 0.38282,-0.49609 0.16015,-0.0898 0.32031,-0.13672 0.47656,-0.13672 0.32812,0 0.59765,0.14062 0.80859,0.42578 m 4.39844,-0.71875 -0.0937,0.14063 -0.11328,0.0312 c -0.0508,0 -0.15235,-0.0234 -0.30469,-0.0664 -0.22656,-0.0703 -0.42187,-0.10547 -0.58203,-0.10547 -0.36719,0 -0.66797,0.11719 -0.89844,0.33984 -0.22656,0.22657 -0.34375,0.50782 -0.34375,0.84375 0,0.26172 0.0664,0.47657 0.19922,0.64454 0.13672,0.17187 0.41797,0.36718 0.85156,0.57812 0.42969,0.21484 0.71875,0.39063 0.86328,0.53125 0.14063,0.14063 0.21485,0.3125 0.21485,0.51953 0,0.16797 -0.0664,0.31641 -0.19531,0.4336 -0.12891,0.12109 -0.29688,0.18359 -0.5,0.18359 -0.29297,0 -0.55469,-0.10547 -0.78907,-0.31641 -0.23828,-0.21484 -0.39453,-0.52734 -0.47656,-0.94531 h -0.15234 v 1.46094 h 0.15234 l 0.15625,-0.11719 0.24219,0.0469 c 0.32031,0.0898 0.60937,0.13281 0.85937,0.13281 0.34375,0 0.66016,-0.11328 0.94141,-0.33985 0.28125,-0.23046 0.42187,-0.52734 0.42187,-0.90234 0,-0.48047 -0.30078,-0.87109 -0.90625,-1.16406 l -0.65234,-0.31641 c -0.28125,-0.13672 -0.46875,-0.26562 -0.5625,-0.39062 -0.0937,-0.11719 -0.14062,-0.26172 -0.14062,-0.42578 0,-0.13282 0.0625,-0.25782 0.1914,-0.36719 0.12891,-0.10938 0.29688,-0.16406 0.50391,-0.16406 0.27344,0 0.5,0.0781 0.67578,0.23437 0.17969,0.16016 0.32422,0.45703 0.4375,0.89453 h 0.14453 v -1.39453 z m 4.57031,1.66406 c 0,-0.50781 -0.14453,-0.91015 -0.4375,-1.21484 -0.29687,-0.30078 -0.67187,-0.45313 -1.13281,-0.45313 -0.53906,0 -0.98828,0.19532 -1.34766,0.58985 -0.35937,0.39062 -0.53906,0.93359 -0.53906,1.63281 0,0.64844 0.17578,1.16016 0.52344,1.54297 0.35156,0.38281 0.77344,0.57422 1.26172,0.57422 0.45312,0 0.82812,-0.16797 1.1289,-0.5 0.30078,-0.33594 0.48438,-0.70703 0.54297,-1.11719 l -0.13672,-0.0859 c -0.13281,0.35547 -0.29687,0.60938 -0.49609,0.75391 -0.19922,0.14844 -0.43359,0.22266 -0.69922,0.22266 -0.40234,0 -0.75,-0.17579 -1.05078,-0.51954 -0.29688,-0.34375 -0.44141,-0.82031 -0.44141,-1.42578 z m -2.48047,-1.0625 c 0.19141,-0.1914 0.41407,-0.28906 0.66016,-0.28906 0.16406,0 0.31641,0.0508 0.46484,0.14453 0.14453,0.0937 0.25782,0.22656 0.33203,0.39063 0.0469,0.10937 0.0781,0.29297 0.0898,0.55468 h -1.89063 c 0.0352,-0.34375 0.14844,-0.60937 0.34375,-0.80078 m 4.09375,-0.82812 c 0.19922,-0.25781 0.30078,-0.54297 0.30078,-0.85547 0,-0.26172 -0.0781,-0.47266 -0.23828,-0.64453 -0.16015,-0.17188 -0.33593,-0.25391 -0.53515,-0.25391 -0.16407,0 -0.30078,0.0547 -0.41407,0.16016 -0.11718,0.10937 -0.17578,0.23437 -0.17578,0.375 0,0.1289 0.0469,0.23828 0.13672,0.32812 0.0859,0.0859 0.19531,0.13282 0.32031,0.13282 l 0.19532,-0.0352 0.14453,-0.0352 0.10547,0.0625 0.0469,0.1875 c 0,0.17969 -0.0469,0.33985 -0.14453,0.47657 -0.0898,0.14062 -0.28906,0.29296 -0.58984,0.46484 v 0.1875 c 0.36718,-0.10938 0.64843,-0.28906 0.84765,-0.55078 m 2.14063,-0.0195 c 0.19922,-0.25782 0.29687,-0.53516 0.29687,-0.83203 0,-0.25391 -0.0781,-0.46875 -0.23828,-0.64063 -0.16015,-0.17578 -0.34375,-0.26172 -0.54687,-0.26172 -0.16016,0 -0.29688,0.0508 -0.40625,0.15625 -0.10938,0.10547 -0.16407,0.22656 -0.16407,0.3711 0,0.1289 0.043,0.23828 0.13672,0.32812 0.0898,0.0937 0.19532,0.14063 0.31641,0.14063 l 0.17969,-0.0352 0.15625,-0.0352 0.10156,0.0547 c 0.0273,0.043 0.043,0.11719 0.043,0.21875 0,0.17578 -0.0586,0.33984 -0.17188,0.48828 -0.11718,0.15235 -0.30468,0.29297 -0.5625,0.42969 v 0.1875 c 0.375,-0.125 0.66407,-0.3125 0.85938,-0.57031 m 5.47265,4.38672 c 0.0859,0.10156 0.20313,0.15234 0.34766,0.15234 0.30078,0 0.62109,-0.22656 0.95313,-0.67188 v -0.25 c -0.17579,0.17969 -0.29688,0.28907 -0.35938,0.32813 l -0.125,0.0312 -0.12109,-0.0469 -0.0703,-0.17578 c -0.0156,-0.0859 -0.0234,-0.32812 -0.0234,-0.71875 v -1.38672 c 0,-0.39453 -0.0273,-0.65625 -0.082,-0.78515 -0.082,-0.19531 -0.21094,-0.33985 -0.38672,-0.4336 -0.23438,-0.12109 -0.53125,-0.18359 -0.89453,-0.18359 -0.47266,0 -0.83985,0.10938 -1.10157,0.32422 -0.26172,0.21484 -0.39453,0.44922 -0.39453,0.70312 0,0.13672 0.0352,0.23829 0.10547,0.31641 0.0703,0.0781 0.16016,0.11719 0.26953,0.11719 0.11328,0 0.20703,-0.0352 0.27735,-0.11328 0.0664,-0.0703 0.10546,-0.17969 0.10546,-0.31641 l -0.0117,-0.25781 c 0,-0.13281 0.0586,-0.2461 0.17187,-0.34766 0.10938,-0.10156 0.25781,-0.15234 0.44531,-0.15234 0.2461,0 0.4336,0.0742 0.5625,0.22656 0.12891,0.15234 0.19532,0.43359 0.19532,0.83984 v 0.16016 c -0.70313,0.25781 -1.20313,0.47266 -1.50391,0.65234 -0.30469,0.17969 -0.51563,0.3711 -0.64063,0.57032 -0.0898,0.14843 -0.13281,0.32031 -0.13281,0.51953 0,0.3164 0.0898,0.57031 0.27735,0.76172 0.18359,0.19531 0.41406,0.29297 0.69921,0.29297 0.17969,0 0.35157,-0.0391 0.51172,-0.11329 0.10547,-0.0508 0.3711,-0.23828 0.78907,-0.5625 0.004,0.2461 0.0469,0.41797 0.13671,0.51954 m -1.02734,-0.36329 c -0.16797,0 -0.31641,-0.0703 -0.44141,-0.21093 -0.1289,-0.14063 -0.1914,-0.32032 -0.1914,-0.53516 0,-0.16797 0.0469,-0.32422 0.14844,-0.46875 0.10156,-0.14062 0.26953,-0.27734 0.50781,-0.41016 0.1289,-0.0742 0.41797,-0.19921 0.86719,-0.3789 v 1.55859 c -0.36719,0.29688 -0.66407,0.44531 -0.89063,0.44531 m 5.11719,-3.77734 -0.0898,0.14063 -0.11328,0.0312 c -0.0508,0 -0.15234,-0.0234 -0.30468,-0.0664 -0.22657,-0.0703 -0.42188,-0.10547 -0.58204,-0.10547 -0.36718,0 -0.66406,0.11719 -0.89453,0.33984 -0.23047,0.22657 -0.34765,0.50782 -0.34765,0.84375 0,0.26172 0.0664,0.47657 0.19922,0.64454 0.13671,0.17187 0.41796,0.36718 0.85156,0.57812 0.42969,0.21484 0.71875,0.39063 0.86328,0.53125 0.14453,0.14063 0.21484,0.3125 0.21484,0.51953 0,0.16797 -0.0625,0.31641 -0.1914,0.4336 -0.13282,0.12109 -0.30078,0.18359 -0.50391,0.18359 -0.29297,0 -0.55469,-0.10547 -0.78906,-0.31641 -0.23438,-0.21484 -0.39844,-0.52734 -0.48047,-0.94531 h -0.14844 v 1.46094 h 0.14844 l 0.16406,-0.11719 0.23828,0.0469 c 0.32422,0.0898 0.60547,0.13281 0.85938,0.13281 0.34765,0 0.66015,-0.11328 0.9414,-0.33985 0.28125,-0.23046 0.42188,-0.52734 0.42188,-0.90234 0,-0.48047 -0.30078,-0.87109 -0.90625,-1.16406 l -0.65234,-0.31641 c -0.28125,-0.13672 -0.46875,-0.26562 -0.5625,-0.39062 -0.0937,-0.11719 -0.14063,-0.26172 -0.14063,-0.42578 0,-0.13282 0.0625,-0.25782 0.19141,-0.36719 0.1289,-0.10938 0.29687,-0.16406 0.5039,-0.16406 0.27344,0 0.5,0.0781 0.67578,0.23437 0.17969,0.16016 0.32422,0.45703 0.4336,0.89453 h 0.14844 v -1.39453 z m 3.10937,0.67188 c 0.10938,-0.043 0.19922,-0.0625 0.26953,-0.0625 l 0.21094,0.0547 0.11719,0.16016 c 0.0234,0.0703 0.0352,0.23828 0.0352,0.50391 v 3.86718 c 0,0.29688 -0.0156,0.48047 -0.0469,0.55469 l -0.13281,0.15625 c -0.11328,0.0664 -0.25391,0.0977 -0.41797,0.0937 h -0.11328 v 0.16406 h 2.14446 v -0.16406 c -0.22266,0 -0.37891,-0.0234 -0.46484,-0.0664 l -0.17579,-0.17968 c -0.0352,-0.0781 -0.0508,-0.25391 -0.0508,-0.53516 v -1.24609 c 0.14453,0.13672 0.28125,0.22656 0.40235,0.26953 0.15625,0.0625 0.34765,0.0937 0.57031,0.0937 0.50391,0 0.92578,-0.1875 1.25781,-0.56641 0.40625,-0.46094 0.60547,-1.04687 0.60547,-1.75 0,-0.63281 -0.16406,-1.14453 -0.50391,-1.53515 -0.27343,-0.32032 -0.61328,-0.48438 -1.02734,-0.48438 -0.23437,0 -0.45703,0.0742 -0.66797,0.21875 -0.21484,0.14453 -0.42578,0.39453 -0.63672,0.75391 v -0.95313 h -0.16797 l -1.26171,0.50781 z m 1.90625,0.082 c 0.14063,-0.0703 0.28125,-0.10547 0.42188,-0.10547 0.26172,0 0.48828,0.11719 0.67969,0.34765 0.27343,0.33594 0.41015,0.81641 0.41015,1.44141 0,0.55078 -0.12109,0.97656 -0.36328,1.28125 -0.18359,0.23438 -0.42187,0.34766 -0.71875,0.34766 -0.25,0 -0.45312,-0.0625 -0.61719,-0.19532 -0.16015,-0.1289 -0.26172,-0.28125 -0.30468,-0.45703 -0.0273,-0.10156 -0.0391,-0.32031 -0.0391,-0.64843 v -1.52735 c 0.2461,-0.26953 0.42188,-0.42969 0.53125,-0.48437 m 3.94141,-0.48828 c -0.30469,0.17968 -0.55078,0.45312 -0.73438,0.82421 -0.1875,0.36719 -0.28125,0.74219 -0.28125,1.11719 0,0.51563 0.15625,0.97656 0.46094,1.39063 0.36328,0.49218 0.85156,0.73828 1.46875,0.73828 0.37891,0 0.71875,-0.0937 1.02735,-0.28516 0.30859,-0.1914 0.55078,-0.47265 0.72656,-0.84765 0.17578,-0.375 0.26172,-0.7461 0.26172,-1.11329 0,-0.51953 -0.15625,-0.98046 -0.47657,-1.38281 -0.375,-0.46875 -0.87109,-0.70703 -1.49218,-0.70703 -0.33594,0 -0.66016,0.0898 -0.96094,0.26563 m 1.63281,0.45312 c 0.3125,0.41797 0.46875,0.98828 0.46875,1.71484 0,0.58204 -0.0937,0.99219 -0.28125,1.22657 -0.1875,0.24218 -0.42578,0.35937 -0.71484,0.35937 -0.38672,0 -0.69922,-0.21484 -0.9336,-0.64844 -0.23828,-0.42968 -0.35546,-0.94531 -0.35546,-1.53906 0,-0.37109 0.0469,-0.67187 0.14453,-0.90625 0.10156,-0.23437 0.23047,-0.39844 0.39062,-0.49609 0.15625,-0.0898 0.31641,-0.13672 0.47266,-0.13672 0.32812,0 0.59765,0.14062 0.80859,0.42578 m 4.39844,-0.71875 -0.0937,0.14063 -0.11328,0.0312 c -0.0508,0 -0.15235,-0.0234 -0.30469,-0.0664 -0.22656,-0.0703 -0.42187,-0.10547 -0.58594,-0.10547 -0.36328,0 -0.66406,0.11719 -0.89453,0.33984 -0.22656,0.22657 -0.34375,0.50782 -0.34375,0.84375 0,0.26172 0.0664,0.47657 0.19922,0.64454 0.13672,0.17187 0.41797,0.36718 0.85156,0.57812 0.42969,0.21484 0.71875,0.39063 0.86328,0.53125 0.14063,0.14063 0.21485,0.3125 0.21485,0.51953 0,0.16797 -0.0664,0.31641 -0.19531,0.4336 -0.12891,0.12109 -0.29688,0.18359 -0.50391,0.18359 -0.28906,0 -0.55078,-0.10547 -0.78906,-0.31641 -0.23438,-0.21484 -0.39063,-0.52734 -0.47657,-0.94531 h -0.14843 v 1.46094 h 0.14843 l 0.16016,-0.11719 0.24219,0.0469 c 0.32031,0.0898 0.60937,0.13281 0.85547,0.13281 0.34765,0 0.66406,-0.11328 0.94531,-0.33985 0.28125,-0.23046 0.42187,-0.52734 0.42187,-0.90234 0,-0.48047 -0.30078,-0.87109 -0.90625,-1.16406 l -0.65234,-0.31641 c -0.28125,-0.13672 -0.46875,-0.26562 -0.55859,-0.39062 -0.0977,-0.11719 -0.14453,-0.26172 -0.14453,-0.42578 0,-0.13282 0.0625,-0.25782 0.1914,-0.36719 0.12891,-0.10938 0.29297,-0.16406 0.50391,-0.16406 0.27344,0 0.5,0.0781 0.67578,0.23437 0.17969,0.16016 0.32422,0.45703 0.4375,0.89453 h 0.14453 V 119.902 Z m 3.55469,0 -0.0937,0.14063 -0.11328,0.0312 c -0.0469,0 -0.14844,-0.0234 -0.30079,-0.0664 -0.23046,-0.0703 -0.42578,-0.10547 -0.58593,-0.10547 -0.36719,0 -0.66407,0.11719 -0.89453,0.33984 -0.23047,0.22657 -0.34766,0.50782 -0.34766,0.84375 0,0.26172 0.0703,0.47657 0.20312,0.64454 0.13282,0.17187 0.41407,0.36718 0.84766,0.57812 0.43359,0.21484 0.71875,0.39063 0.86328,0.53125 0.14453,0.14063 0.21485,0.3125 0.21485,0.51953 0,0.16797 -0.0625,0.31641 -0.19141,0.4336 -0.12891,0.12109 -0.29688,0.18359 -0.50391,0.18359 -0.29297,0 -0.55468,-0.10547 -0.78906,-0.31641 -0.23437,-0.21484 -0.39453,-0.52734 -0.47656,-0.94531 h -0.14844 v 1.46094 h 0.14844 l 0.16015,-0.11719 0.24219,0.0469 c 0.32031,0.0898 0.60547,0.13281 0.85547,0.13281 0.34766,0 0.66406,-0.11328 0.94531,-0.33985 0.28125,-0.23046 0.42188,-0.52734 0.42188,-0.90234 0,-0.48047 -0.30469,-0.87109 -0.91016,-1.16406 l -0.64844,-0.31641 c -0.28515,-0.13672 -0.47265,-0.26562 -0.5625,-0.39062 -0.0977,-0.11719 -0.14453,-0.26172 -0.14453,-0.42578 0,-0.13282 0.0625,-0.25782 0.19141,-0.36719 0.12891,-0.10938 0.29687,-0.16406 0.50391,-0.16406 0.27734,0 0.5,0.0781 0.67968,0.23437 0.17578,0.16016 0.32032,0.45703 0.4336,0.89453 h 0.14843 V 119.902 Z m 1.77734,-2.00391 c -0.0898,0.0859 -0.13281,0.19141 -0.13281,0.31641 0,0.12891 0.0469,0.23438 0.13672,0.32422 0.0898,0.0859 0.19531,0.13281 0.32031,0.13281 0.125,0 0.23047,-0.0469 0.32031,-0.13281 0.0859,-0.0898 0.12891,-0.19531 0.12891,-0.32422 0,-0.125 -0.043,-0.23047 -0.12891,-0.31641 -0.0898,-0.0898 -0.19531,-0.13281 -0.32031,-0.13281 -0.12891,0 -0.23828,0.043 -0.32422,0.13281 m 0.5,2.00391 -1.23437,0.5 0.0625,0.16406 c 0.11718,-0.0469 0.21875,-0.0703 0.30468,-0.0703 l 0.17969,0.0586 0.10156,0.19532 c 0.0234,0.13281 0.0391,0.41797 0.0391,0.86328 v 1.57812 c 0,0.25 -0.0195,0.42188 -0.0625,0.51172 l -0.16016,0.19141 c -0.0703,0.0391 -0.20313,0.0586 -0.40234,0.0586 v 0.16016 h 1.98437 v -0.16016 c -0.19141,0 -0.32422,-0.0195 -0.39844,-0.0625 l -0.16406,-0.1914 c -0.0391,-0.082 -0.0547,-0.25391 -0.0547,-0.50782 v -3.28906 z m 2.43359,-2.13672 h -0.19921 l -1.22657,0.5 0.0625,0.15625 c 0.125,-0.0469 0.23047,-0.0703 0.3125,-0.0703 l 0.17578,0.0586 c 0.0508,0.0352 0.0859,0.10938 0.10938,0.21485 0.0195,0.10937 0.0312,0.39453 0.0312,0.85937 v 4.23828 c 0.25781,0.17188 0.50781,0.30078 0.75391,0.38672 0.24609,0.0859 0.48437,0.12891 0.72265,0.12891 0.51172,0 0.97266,-0.19141 1.38281,-0.57031 0.48438,-0.44532 0.72657,-1.02735 0.72657,-1.75391 0,-0.625 -0.15625,-1.11328 -0.46875,-1.47266 -0.3125,-0.35937 -0.67969,-0.53906 -1.09766,-0.53906 -0.46094,0 -0.88672,0.27734 -1.28516,0.82813 z m 0.45704,2.89063 c 0.15625,-0.0781 0.3164,-0.11719 0.47656,-0.11719 0.29687,0 0.5625,0.14062 0.79297,0.42187 0.23437,0.28125 0.35156,0.6836 0.35156,1.20704 0,0.5664 -0.11719,1 -0.35156,1.29687 -0.23047,0.29688 -0.48438,0.44922 -0.75391,0.44922 -0.17187,0 -0.33594,-0.0391 -0.5,-0.11719 -0.16016,-0.0742 -0.32031,-0.1875 -0.47266,-0.33594 v -2.44531 c 0.1875,-0.17969 0.33985,-0.29687 0.45704,-0.35937 m 4.20312,-2.89063 -1.21875,0.5 0.0742,0.15625 c 0.12109,-0.0469 0.21875,-0.0703 0.29687,-0.0703 l 0.17579,0.0586 c 0.0469,0.0352 0.0781,0.10938 0.0977,0.21485 0.0234,0.10547 0.0312,0.39062 0.0312,0.85156 v 3.71484 c 0,0.25 -0.0195,0.42188 -0.0547,0.51172 l -0.16406,0.19141 c -0.0664,0.0391 -0.19531,0.0586 -0.38281,0.0586 v 0.16016 h 2.00391 v -0.16016 c -0.21094,0 -0.35547,-0.0195 -0.4336,-0.0664 l -0.17187,-0.1875 c -0.0352,-0.0859 -0.0547,-0.25391 -0.0547,-0.50782 v -5.42578 z m 4.86719,3.80078 c 0,-0.50781 -0.14844,-0.91015 -0.44531,-1.21484 -0.29297,-0.30078 -0.66797,-0.45313 -1.12891,-0.45313 -0.53906,0 -0.99219,0.19532 -1.34766,0.58985 -0.35937,0.39062 -0.53906,0.93359 -0.53906,1.63281 0,0.64844 0.17578,1.16016 0.52734,1.54297 0.34766,0.38281 0.76563,0.57422 1.25782,0.57422 0.45312,0 0.82812,-0.16797 1.1289,-0.5 0.30078,-0.33594 0.48047,-0.70703 0.54688,-1.11719 l -0.14063,-0.0859 c -0.13281,0.35547 -0.30078,0.60938 -0.49609,0.75391 -0.19922,0.14844 -0.43359,0.22266 -0.69922,0.22266 -0.40234,0 -0.75,-0.17579 -1.05078,-0.51954 -0.29688,-0.34375 -0.44141,-0.82031 -0.44141,-1.42578 z m -2.48438,-1.0625 c 0.19532,-0.1914 0.41407,-0.28906 0.66016,-0.28906 0.16406,0 0.31641,0.0508 0.46484,0.14453 0.14453,0.0937 0.25782,0.22656 0.33203,0.39063 0.0469,0.10937 0.0781,0.29297 0.0937,0.55468 h -1.89453 c 0.0352,-0.34375 0.14844,-0.60937 0.34375,-0.80078"
     id="path635" />
  <path
     fill="none"
     stroke-width="0.51"
     stroke-linecap="butt"
     stroke-linejoin="bevel"
     stroke="#df3224"
     stroke-opacity="1"
     stroke-miterlimit="10"
     d="m 102.19141,60.1875 c 2.3125,0.859375 4.07031,1.863281 3.92578,2.25 l -4.01953,10.832031 c -0.14453,0.382813 1.61328,1.394532 3.92187,2.25 -2.30859,-0.855468 -4.29687,-1.242187 -4.4414,-0.855468 l -4.019534,10.832031 c -0.144532,0.382812 -2.132813,0 -4.441407,-0.855469"
     id="path637" />
  <path
     fill="none"
     stroke-width="0.681"
     stroke-linecap="butt"
     stroke-linejoin="miter"
     stroke="#000000"
     stroke-opacity="1"
     stroke-miterlimit="10"
     d="m 156.02344,85.574218 4.67578,0.01172"
     id="path639" />
  <path
     fill="none"
     stroke-width="0.681"
     stroke-linecap="butt"
     stroke-linejoin="miter"
     stroke="#000000"
     stroke-opacity="1"
     stroke-miterlimit="10"
     d="m 133.78516,35.894529 4.67968,0.01172"
     id="path641" />
  <path
     fill="none"
     stroke-width="0.681"
     stroke-linecap="butt"
     stroke-linejoin="miter"
     stroke="#000000"
     stroke-opacity="1"
     stroke-miterlimit="10"
     d="M 136.06641,33.609374 V 38.17578"
     id="path643" />
  <path
     fill="none"
     stroke-width="0.681"
     stroke-linecap="butt"
     stroke-linejoin="miter"
     stroke="#000000"
     stroke-opacity="1"
     stroke-miterlimit="10"
     d="m 141.22656,43.109373 4.67969,0.01172"
     id="path645" />
  <path
     fill="none"
     stroke-width="0.681"
     stroke-linecap="butt"
     stroke-linejoin="miter"
     stroke="#000000"
     stroke-opacity="1"
     stroke-miterlimit="10"
     d="m 143.51172,40.871092 v 4.566406"
     id="path647" />
  <path
     fill="none"
     stroke-width="0.681"
     stroke-linecap="butt"
     stroke-linejoin="miter"
     stroke="#000000"
     stroke-opacity="1"
     stroke-miterlimit="10"
     d="m 123.64844,44.570311 4.67578,0.01172"
     id="path649" />
  <path
     fill="none"
     stroke-width="0.681"
     stroke-linecap="butt"
     stroke-linejoin="miter"
     stroke="#000000"
     stroke-opacity="1"
     stroke-miterlimit="10"
     d="m 125.9336,42.285155 v 4.566406"
     id="path651" />
  <path
     fill="none"
     stroke-width="0.681"
     stroke-linecap="butt"
     stroke-linejoin="miter"
     stroke="#000000"
     stroke-opacity="1"
     stroke-miterlimit="10"
     d="m 99.582033,40.003905 4.675777,0.01172"
     id="path653" />
  <path
     fill="none"
     stroke-width="0.681"
     stroke-linecap="butt"
     stroke-linejoin="miter"
     stroke="#000000"
     stroke-opacity="1"
     stroke-miterlimit="10"
     d="m 101.86328,37.718748 v 4.566407"
     id="path655" />
  <path
     fill="none"
     stroke-width="0.681"
     stroke-linecap="butt"
     stroke-linejoin="miter"
     stroke="#000000"
     stroke-opacity="1"
     stroke-miterlimit="10"
     d="m 151.45703,57.765623 4.67579,0.01172"
     id="path657" />
  <path
     fill="none"
     stroke-width="0.681"
     stroke-linecap="butt"
     stroke-linejoin="miter"
     stroke="#000000"
     stroke-opacity="1"
     stroke-miterlimit="10"
     d="m 153.74219,55.484373 v 4.5625"
     id="path659" />
  <path
     fill="none"
     stroke-width="0.681"
     stroke-linecap="butt"
     stroke-linejoin="miter"
     stroke="#000000"
     stroke-opacity="1"
     stroke-miterlimit="10"
     d="m 126.89063,52.92578 4.67578,0.01172"
     id="path661" />
  <path
     fill="none"
     stroke-width="0.681"
     stroke-linecap="butt"
     stroke-linejoin="miter"
     stroke="#000000"
     stroke-opacity="1"
     stroke-miterlimit="10"
     d="M 129.17188,50.640623 V 55.20703"
     id="path663" />
  <path
     fill="none"
     stroke-width="0.681"
     stroke-linecap="butt"
     stroke-linejoin="miter"
     stroke="#000000"
     stroke-opacity="1"
     stroke-miterlimit="10"
     d="m 162.32422,85.851561 4.67969,0.0078"
     id="path665" />
  <path
     fill="none"
     stroke-width="0.681"
     stroke-linecap="butt"
     stroke-linejoin="miter"
     stroke="#000000"
     stroke-opacity="1"
     stroke-miterlimit="10"
     d="m 168.39844,92.242186 4.67578,0.01172"
     id="path667" />
  <path
     fill="none"
     stroke-width="0.681"
     stroke-linecap="butt"
     stroke-linejoin="miter"
     stroke="#000000"
     stroke-opacity="1"
     stroke-miterlimit="10"
     d="m 184.5625,101.60547 4.67969,0.0117"
     id="path669" />
  <path
     fill="none"
     stroke-width="0.681"
     stroke-linecap="butt"
     stroke-linejoin="miter"
     stroke="#000000"
     stroke-opacity="1"
     stroke-miterlimit="10"
     d="m 162.00781,94.984374 4.67579,0.0078"
     id="path671" />
  <path
     fill="none"
     stroke-width="0.681"
     stroke-linecap="butt"
     stroke-linejoin="miter"
     stroke="#000000"
     stroke-opacity="1"
     stroke-miterlimit="10"
     d="m 129.17188,84.933593 4.67968,0.01563"
     id="path673" />
  <path
     fill="none"
     stroke-width="0.681"
     stroke-linecap="butt"
     stroke-linejoin="miter"
     stroke="#000000"
     stroke-opacity="1"
     stroke-miterlimit="10"
     d="m 171.55078,103.15625 4.67579,0.0117"
     id="path675" />
  <path
     fill="none"
     stroke-width="0.681"
     stroke-linecap="butt"
     stroke-linejoin="miter"
     stroke="#000000"
     stroke-opacity="1"
     stroke-miterlimit="10"
     d="m 163.10157,105.53125 4.67578,0.0117"
     id="path677" />
  <path
     fill="none"
     stroke-width="0.681"
     stroke-linecap="butt"
     stroke-linejoin="miter"
     stroke="#000000"
     stroke-opacity="1"
     stroke-miterlimit="10"
     d="m 130.81641,95.984374 4.67969,0.01172"
     id="path679" />
  <path
     fill="none"
     stroke-width="0.681"
     stroke-linecap="butt"
     stroke-linejoin="miter"
     stroke="#000000"
     stroke-opacity="1"
     stroke-miterlimit="10"
     d="m 140.35938,94.480468 4.67968,0.01172"
     id="path681" />
  <path
     fill="none"
     stroke-width="0.681"
     stroke-linecap="butt"
     stroke-linejoin="miter"
     stroke="#000000"
     stroke-opacity="1"
     stroke-miterlimit="10"
     d="m 146.25,104.89062 4.67969,0.0117"
     id="path683" />
  <path
     fill-rule="nonzero"
     fill="#df3224"
     fill-opacity="1"
     d="m 215.47656,6.914062 c 0,-0.179688 0.082,-0.34375 0.24219,-0.484375 0.16406,-0.144531 0.32031,-0.21875 0.47656,-0.222656 0.16797,0 0.32031,0.0625 0.46094,0.179687 0.13672,0.121094 0.20703,0.324219 0.20703,0.609375 0,0.199219 -0.043,0.476563 -0.12109,0.832031 -0.082,0.359376 -0.23829,0.753907 -0.47657,1.1875 -0.23828,0.433594 -0.50781,0.722657 -0.8125,0.871094 -0.16797,0.07813 -0.35937,0.117188 -0.57422,0.117188 -0.58203,0 -1.02343,-0.140625 -1.3164,-0.421875 l -0.043,0.04297 c -0.22656,0.222656 -0.41797,0.328124 -0.74219,0.371093 l -0.15625,0.0078 c -0.32812,0 -0.60937,-0.03516 -0.83984,-0.109375 -0.23047,-0.07031 -0.39844,-0.164063 -0.50391,-0.285157 -0.10156,-0.121093 -0.17578,-0.242187 -0.22265,-0.363281 -0.0469,-0.121093 -0.0703,-0.246093 -0.0703,-0.371093 0,-0.257813 0.10547,-0.65625 0.3125,-1.195313 0.20703,-0.539063 0.3125,-0.851563 0.32032,-0.941406 0,-0.109375 -0.0937,-0.128907 -0.27735,-0.0625 -0.26562,0.109375 -0.46094,0.355469 -0.58984,0.742187 l -0.0781,0.171875 -0.17187,0.02344 h -0.14844 c -0.11719,0 -0.17187,-0.03906 -0.17187,-0.113281 0,-0.05078 0.0273,-0.136719 0.0859,-0.265626 0.0586,-0.125 0.14063,-0.265624 0.25391,-0.425781 0.10547,-0.160156 0.25391,-0.296875 0.4375,-0.414062 0.1875,-0.117188 0.39844,-0.175781 0.63281,-0.179688 0.30469,0 0.55469,0.06641 0.75391,0.203125 0.19531,0.140625 0.29687,0.316406 0.30078,0.535156 0,0.08984 -0.0977,0.382813 -0.29297,0.882813 -0.19531,0.5 -0.29687,0.878906 -0.30469,1.136719 0,0.40625 0.22266,0.609375 0.66797,0.609375 l 0.13672,-0.01563 0.125,-0.04297 0.10156,-0.05469 0.0899,-0.07422 0.0664,-0.07422 0.0508,-0.06641 0.043,-0.05859 0.0195,-0.03906 -0.008,-0.125 -0.0195,-0.15625 c 0,-0.05469 0.0117,-0.160157 0.0352,-0.3125 0.0117,-0.05469 0.0937,-0.371094 0.24218,-0.949219 0.15235,-0.574219 0.23438,-0.886719 0.25391,-0.9375 0.043,-0.101563 0.12109,-0.191407 0.23047,-0.273438 0.11328,-0.08203 0.23828,-0.125 0.38281,-0.125 0.15625,0 0.26953,0.04687 0.34375,0.136719 l 0.11328,0.25 c 0,0.07422 -0.0859,0.4375 -0.25781,1.089844 -0.17187,0.65625 -0.26172,1.066406 -0.26953,1.246094 0,0.390624 0.19922,0.582031 0.58984,0.582031 0.16407,0 0.32422,-0.0625 0.46875,-0.1875 0.14063,-0.125 0.25782,-0.28125 0.34375,-0.460938 0.0859,-0.183593 0.16407,-0.363281 0.22657,-0.542969 0.0625,-0.183593 0.10546,-0.335937 0.1289,-0.464843 l 0.0352,-0.1875 c 0,-0.132813 -0.12891,-0.265625 -0.39063,-0.394531 -0.21093,-0.113282 -0.32031,-0.253907 -0.32031,-0.429688"
     id="path685" />
  <path
     fill-rule="nonzero"
     fill="#000000"
     fill-opacity="1"
     d="m 71.472661,134.89453 c 0,0.55078 -0.14844,1.08203 -0.45313,1.59375 -0.30469,0.51172 -0.69531,0.92187 -1.17578,1.22656 -0.47656,0.30859 -0.96875,0.46094 -1.47266,0.46094 -0.45703,0 -0.85156,-0.13672 -1.17968,-0.41016 -0.32813,-0.27344 -0.53516,-0.66797 -0.6211,-1.1914 -0.004,-0.0391 -0.008,-0.14063 -0.008,-0.3086 0,-0.48828 0.11719,-0.95312 0.34375,-1.39062 0.22656,-0.44141 0.53125,-0.83203 0.91797,-1.17188 0.58984,-0.49609 1.17969,-0.74219 1.77344,-0.74219 0.17968,0 0.29296,0.004 0.33984,0.0117 0.45703,0.0664 0.82812,0.26953 1.10937,0.61328 0.28125,0.34766 0.42188,0.78125 0.42579,1.3086 m -0.73047,-0.29297 c 0,-0.42578 -0.10938,-0.76172 -0.32813,-1 -0.21875,-0.23828 -0.49219,-0.35938 -0.8164,-0.35938 -0.37891,0 -0.7461,0.14454 -1.09766,0.4336 -0.37891,0.30078 -0.66797,0.72265 -0.86719,1.26953 -0.19922,0.54297 -0.30078,1.05078 -0.30859,1.51953 0,0.43359 0.10156,0.77344 0.30859,1.02734 0.20313,0.25391 0.47266,0.38282 0.8086,0.38672 0.42968,0 0.83593,-0.1875 1.21875,-0.5664 0.38281,-0.37891 0.67578,-0.89453 0.875,-1.54297 0.13671,-0.45313 0.20703,-0.84375 0.20703,-1.16797"
     id="path687" />
  <path
     fill-rule="nonzero"
     fill="#000000"
     fill-opacity="1"
     d="m 215.23047,132.71875 c -0.35547,0.0625 -0.48828,0.32422 -0.48828,0.53125 0,0.26562 0.21093,0.34765 0.36718,0.34765 0.33594,0 0.57032,-0.28125 0.57032,-0.57422 0,-0.46093 -0.53516,-0.66796 -1.00782,-0.66796 -0.68359,0 -1.0625,0.65625 -1.16406,0.86328 -0.25781,-0.82032 -0.94922,-0.86328 -1.15234,-0.86328 -1.14453,0 -1.75,1.42968 -1.75,1.67187 l 0.125,0.0977 0.13672,-0.10938 c 0.3789,-1.21094 1.1289,-1.4414 1.45312,-1.4414 0.50391,0 0.60547,0.45703 0.60547,0.71875 0,0.24218 -0.0664,0.49218 -0.19922,1.01562 l -0.38281,1.49609 c -0.16797,0.65235 -0.49219,1.25391 -1.08594,1.25391 -0.0547,0 -0.33594,0 -0.57031,-0.14062 0.40234,-0.0742 0.49219,-0.40235 0.49219,-0.53516 0,-0.21875 -0.16797,-0.34766 -0.38282,-0.34766 -0.26562,0 -0.55859,0.22657 -0.55859,0.57813 0,0.45703 0.52734,0.66406 1.00781,0.66406 0.53516,0 0.91797,-0.41406 1.15235,-0.86328 0.18359,0.64453 0.74218,0.86328 1.15234,0.86328 1.14453,0 1.75,-1.42969 1.75,-1.66797 l -0.11328,-0.0977 c -0.10156,0 -0.11328,0.0547 -0.14453,0.14062 -0.30078,0.96094 -0.95313,1.40625 -1.45703,1.40625 -0.39063,0 -0.60547,-0.28125 -0.60547,-0.73047 0,-0.23828 0.0469,-0.41406 0.22656,-1.13281 l 0.39062,-1.48828 c 0.16797,-0.65235 0.54688,-1.13281 1.0625,-1.13281 0.0234,0 0.33594,0 0.57032,0.14453"
     id="path689" />
  <path
     fill-rule="nonzero"
     fill="#000000"
     fill-opacity="1"
     d="m 218.5,134.17187 c 0,-0.19922 -0.0195,-0.20312 -0.21485,-0.20312 -0.30859,0.28906 -0.70312,0.46484 -1.41406,0.46484 v 0.23828 c 0.20313,0 0.60547,0 1.03906,-0.19531 v 3.73437 c 0,0.26954 -0.0234,0.35547 -0.73437,0.35547 h -0.25781 v 0.23828 c 0.30468,-0.0195 0.94531,-0.0195 1.28125,-0.0195 0.33593,0 0.98437,0 1.29297,0.0195 v -0.23828 h -0.26172 c -0.71094,0 -0.73047,-0.0859 -0.73047,-0.35547 v -4.03906"
     id="path691" />
  <path
     fill-rule="nonzero"
     fill="#000000"
     fill-opacity="1"
     d="m 69.378911,4.699218 c -0.36329,0.07031 -0.5,0.335938 -0.5,0.550782 0,0.265624 0.21484,0.359374 0.375,0.359374 0.33984,0 0.58203,-0.292968 0.58203,-0.59375 0,-0.472656 -0.54688,-0.683593 -1.02344,-0.683593 -0.69531,0 -1.08203,0.671875 -1.18359,0.882812 -0.26172,-0.839843 -0.96875,-0.882812 -1.17188,-0.882812 -1.16016,0 -1.77344,1.464843 -1.77344,1.710937 l 0.125,0.101563 0.13672,-0.109375 c 0.38672,-1.246094 1.14844,-1.480469 1.47656,-1.480469 0.51172,0 0.61329,0.472656 0.61329,0.738281 0,0.246094 -0.0664,0.503906 -0.20313,1.042969 l -0.38672,1.535156 c -0.16797,0.671875 -0.5,1.285157 -1.10156,1.285157 -0.0586,0 -0.33984,0 -0.58203,-0.144532 0.41015,-0.07813 0.5,-0.414062 0.5,-0.546875 0,-0.226562 -0.16797,-0.359375 -0.38672,-0.359375 -0.27344,0 -0.56641,0.234375 -0.56641,0.59375 0,0.46875 0.53516,0.683594 1.02344,0.683594 0.54297,0 0.92969,-0.429688 1.17188,-0.886719 0.17968,0.660157 0.75,0.886719 1.16796,0.886719 1.16407,0 1.77735,-1.46875 1.77735,-1.714844 l -0.11719,-0.101562 c -0.10156,0 -0.11328,0.05859 -0.14453,0.144531 -0.30859,0.988281 -0.96875,1.445313 -1.48047,1.445313 -0.39844,0 -0.61328,-0.289063 -0.61328,-0.75 0,-0.246094 0.0469,-0.425782 0.22656,-1.164063 l 0.39844,-1.523437 c 0.17187,-0.671876 0.55859,-1.164063 1.08203,-1.164063 0.0195,0 0.33984,0 0.57813,0.144531"
     id="path693" />
  <path
     fill-rule="nonzero"
     fill="#000000"
     fill-opacity="1"
     d="m 71.320311,10.351562 0.83594,-0.800781 c 1.23047,-1.074219 1.70703,-1.492188 1.70703,-2.273438 0,-0.882812 -0.71094,-1.507812 -1.67578,-1.507812 -0.89063,0 -1.47656,0.714843 -1.47656,1.410156 0,0.433594 0.39453,0.433594 0.41797,0.433594 0.13671,0 0.41406,-0.09375 0.41406,-0.410157 0,-0.203124 -0.14453,-0.40625 -0.42188,-0.40625 l -0.10156,0.0078 c 0.17969,-0.503906 0.60938,-0.792969 1.06641,-0.792969 0.71875,0 1.05859,0.628906 1.05859,1.265625 0,0.625 -0.39453,1.238281 -0.82812,1.71875 l -1.51954,1.664063 c -0.0859,0.08594 -0.0859,0.105468 -0.0859,0.289062 h 2.92968 l 0.22263,-1.351549 h -0.19922 c -0.0391,0.230468 -0.0937,0.574218 -0.17187,0.6875 -0.0547,0.06641 -0.57813,0.06641 -0.75,0.06641 h -1.42188"
     id="path695" />
</svg>
