<?xml version="1.0" encoding="UTF-8" standalone="no"?>
<svg
   width="163.3047pt"
   height="133.6875pt"
   viewBox="0 0 163.3047 133.6875"
   version="1.1"
   id="svg7990"
   sodipodi:docname="Zhou2021_Book_MachineLearning.pdf"
   xmlns:inkscape="http://www.inkscape.org/namespaces/inkscape"
   xmlns:sodipodi="http://sodipodi.sourceforge.net/DTD/sodipodi-0.dtd"
   xmlns="http://www.w3.org/2000/svg"
   xmlns:svg="http://www.w3.org/2000/svg">
  <sodipodi:namedview
     id="namedview7992"
     pagecolor="#ffffff"
     bordercolor="#000000"
     borderopacity="0.25"
     inkscape:showpageshadow="2"
     inkscape:pageopacity="0.0"
     inkscape:pagecheckerboard="0"
     inkscape:deskcolor="#d1d1d1"
     inkscape:document-units="pt"
     showgrid="false" />
  <defs
     id="defs5298" />
  <path
     fill-rule="nonzero"
     fill="#000000"
     fill-opacity="1"
     d="m 25.230479,5.152338 h 0.89453 V 113.625 h -0.89453 z M 22.812509,5.726558 25.675789,-1.9554624e-6 28.539069,5.726558 h -5.72656"
     id="path5586" />
  <path
     fill-rule="nonzero"
     fill="#000000"
     fill-opacity="1"
     d="M 25.335949,113.20703 H 158.14845 v 0.89453 H 25.335949 Z m 132.242181,-2.41406 5.72657,2.86328 -5.72657,2.86328 v -5.72656"
     id="path5588" />
  <path
     fill-rule="nonzero"
     fill="#000000"
     fill-opacity="1"
     d="m 21.933599,118.98828 c 0.33985,0.60156 0.76172,0.89844 1.26953,0.89844 0.25391,0 0.52344,-0.0977 0.79688,-0.28906 0.27734,-0.19922 0.5039,-0.51172 0.68359,-0.94532 0.17578,-0.42968 0.26563,-0.95312 0.26563,-1.57421 0,-0.87891 -0.20313,-1.57813 -0.60938,-2.09375 -0.32422,-0.41797 -0.6914,-0.625 -1.09765,-0.625 -0.25,0 -0.4961,0.0859 -0.73047,0.2539 -0.30469,0.21485 -0.54688,0.54297 -0.73047,0.98047 -0.1836,0.4375 -0.27344,0.96094 -0.27344,1.57031 0,0.71094 0.14063,1.32032 0.42578,1.82422 m 0.44531,-3.10547 c 0.0664,-0.46484 0.19532,-0.80859 0.38282,-1.02343 0.14062,-0.16016 0.29687,-0.24219 0.47656,-0.24219 0.15234,0 0.28125,0.043 0.38672,0.1289 0.15234,0.12891 0.27344,0.34375 0.36719,0.64454 0.125,0.40625 0.1875,0.91015 0.1875,1.51562 0,0.82031 -0.0586,1.45313 -0.17969,1.90625 -0.0781,0.29688 -0.19531,0.50781 -0.34766,0.63672 -0.14844,0.125 -0.29687,0.19141 -0.4375,0.19141 -0.29687,0 -0.51953,-0.19532 -0.66797,-0.58594 -0.17968,-0.46094 -0.26953,-1.0625 -0.26953,-1.79297 0,-0.45313 0.0352,-0.91016 0.10156,-1.37891"
     id="path5590" />
  <path
     fill="none"
     stroke-width="0.55"
     stroke-linecap="butt"
     stroke-linejoin="miter"
     stroke="#000000"
     stroke-opacity="1"
     stroke-miterlimit="10"
     d="m 54.023449,110.39062 v 3.2461"
     id="path5592" />
  <path
     fill="none"
     stroke-width="0.55"
     stroke-linecap="butt"
     stroke-linejoin="miter"
     stroke="#000000"
     stroke-opacity="1"
     stroke-miterlimit="10"
     d="m 82.128919,110.39062 v 3.2461"
     id="path5594" />
  <path
     fill="none"
     stroke-width="0.55"
     stroke-linecap="butt"
     stroke-linejoin="miter"
     stroke="#000000"
     stroke-opacity="1"
     stroke-miterlimit="10"
     d="m 110.16407,110.39062 v 3.2461"
     id="path5596" />
  <path
     fill="none"
     stroke-width="0.55"
     stroke-linecap="butt"
     stroke-linejoin="miter"
     stroke="#000000"
     stroke-opacity="1"
     stroke-miterlimit="10"
     d="m 138.19923,110.39062 v 3.2461"
     id="path5598" />
  <path
     fill-rule="nonzero"
     fill="#000000"
     fill-opacity="1"
     d="m 48.597659,120.71875 c 0.33985,0.59766 0.76172,0.89844 1.26954,0.89844 0.2539,0 0.51953,-0.0977 0.79687,-0.29297 0.27734,-0.19531 0.50391,-0.50781 0.67969,-0.94141 0.17969,-0.42968 0.26953,-0.95312 0.26953,-1.57422 0,-0.8789 -0.20313,-1.58203 -0.60938,-2.09375 -0.32421,-0.41796 -0.6914,-0.625 -1.09765,-0.625 -0.25391,0 -0.4961,0.0859 -0.73047,0.25391 -0.30469,0.21484 -0.54688,0.54297 -0.73047,0.98047 -0.18359,0.4375 -0.27734,0.96094 -0.27734,1.57031 0,0.70703 0.14453,1.32031 0.42968,1.82422 m 0.44532,-3.10547 c 0.0664,-0.46875 0.19531,-0.80859 0.38281,-1.02344 0.14062,-0.16015 0.29687,-0.24218 0.47656,-0.24218 0.14844,0 0.28125,0.043 0.38672,0.1289 0.14844,0.125 0.27344,0.33985 0.36719,0.64063 0.125,0.40625 0.1875,0.91406 0.1875,1.51953 0,0.82031 -0.0625,1.45312 -0.17969,1.90234 -0.082,0.30078 -0.19531,0.51172 -0.34766,0.64063 -0.15234,0.125 -0.29687,0.1914 -0.4375,0.1914 -0.29687,0 -0.51953,-0.19531 -0.66796,-0.58593 -0.17969,-0.46485 -0.26954,-1.0625 -0.26954,-1.79297 0,-0.45313 0.0312,-0.91406 0.10157,-1.37891 m 3.57422,3.27344 c -0.082,0.0859 -0.125,0.1875 -0.125,0.30859 0,0.1211 0.043,0.22657 0.125,0.3086 0.0859,0.0859 0.1914,0.1289 0.3125,0.1289 0.11718,0 0.22265,-0.043 0.30859,-0.1289 0.082,-0.082 0.125,-0.1875 0.125,-0.3086 0,-0.11718 -0.043,-0.22265 -0.125,-0.30468 -0.082,-0.0859 -0.1875,-0.12891 -0.30859,-0.12891 -0.1211,0 -0.22657,0.043 -0.3125,0.125 m 4.85546,-0.39063 c -0.0664,0.1211 -0.14453,0.21094 -0.23828,0.27344 -0.0898,0.0664 -0.19531,0.10938 -0.30859,0.12891 -0.11328,0.0234 -0.3125,0.0312 -0.59375,0.0312 h -1.39063 c 0.16407,-0.14844 0.57032,-0.57813 1.21875,-1.28906 0.4375,-0.47266 0.75,-0.92188 0.94532,-1.34375 0.125,-0.26954 0.1875,-0.53907 0.1875,-0.8086 0,-0.3789 -0.14453,-0.70703 -0.4336,-0.98047 -0.28906,-0.28125 -0.65234,-0.41797 -1.08203,-0.41797 -0.40625,0 -0.74219,0.12891 -1.01172,0.38672 -0.27343,0.26172 -0.4414,0.63282 -0.50781,1.11719 h 0.14844 c 0.0976,-0.29687 0.25,-0.51953 0.46094,-0.67187 0.20703,-0.15625 0.4414,-0.23438 0.70312,-0.23438 0.28906,0 0.53516,0.11328 0.74219,0.32813 0.20703,0.21484 0.30859,0.49609 0.30859,0.83203 0,0.4414 -0.1875,0.92968 -0.5625,1.46484 -0.3789,0.53516 -1.02734,1.22266 -1.95312,2.06641 v 0.14453 h 3.14062 l 0.3711,-1.02735 h -0.14454"
     id="path5600" />
  <path
     fill-rule="nonzero"
     fill="#000000"
     fill-opacity="1"
     d="m 76.660159,120.71875 c 0.33985,0.59766 0.76172,0.89844 1.26954,0.89844 0.2539,0 0.52343,-0.0977 0.79687,-0.29297 0.27734,-0.19531 0.50391,-0.50781 0.68359,-0.94141 0.17579,-0.42968 0.26563,-0.95312 0.26563,-1.57422 0,-0.8789 -0.20313,-1.58203 -0.60938,-2.09375 -0.32421,-0.41796 -0.6875,-0.625 -1.09765,-0.625 -0.25,0 -0.49219,0.0859 -0.73047,0.25391 -0.30469,0.21484 -0.54688,0.54297 -0.73047,0.98047 -0.18359,0.4375 -0.27344,0.96094 -0.27344,1.57031 0,0.70703 0.14063,1.32031 0.42578,1.82422 m 0.44532,-3.10547 c 0.0664,-0.46875 0.19531,-0.80859 0.38281,-1.02344 0.14062,-0.16015 0.29687,-0.24218 0.47656,-0.24218 0.15235,0 0.28125,0.043 0.38672,0.1289 0.15234,0.125 0.27344,0.33985 0.36719,0.64063 0.125,0.40625 0.1875,0.91406 0.1875,1.51953 0,0.82031 -0.0586,1.45312 -0.17969,1.90234 -0.0781,0.30078 -0.19531,0.51172 -0.34766,0.64063 -0.14843,0.125 -0.29687,0.1914 -0.4375,0.1914 -0.29687,0 -0.51953,-0.19531 -0.66796,-0.58593 -0.17969,-0.46485 -0.26954,-1.0625 -0.26954,-1.79297 0,-0.45313 0.0352,-0.91406 0.10157,-1.37891 m 3.57812,3.27344 c -0.0859,0.0859 -0.125,0.1875 -0.125,0.30859 0,0.1211 0.0391,0.22657 0.125,0.3086 0.0859,0.0859 0.1875,0.1289 0.3086,0.1289 0.12109,0 0.22265,-0.043 0.30859,-0.1289 0.0859,-0.082 0.12891,-0.1875 0.12891,-0.3086 0,-0.11718 -0.043,-0.22265 -0.125,-0.30468 -0.0859,-0.0859 -0.1875,-0.12891 -0.3125,-0.12891 -0.1211,0 -0.22266,0.043 -0.3086,0.125 m 4.33985,-1.32813 v -3.46875 h -0.4336 l -2.46875,3.52344 v 0.50391 h 2.25391 v 1.40625 h 0.64844 v -1.40625 h 0.71484 v -0.5586 z m -2.51563,0 1.86719,-2.64062 v 2.64062 h -1.86719"
     id="path5602" />
  <path
     fill-rule="nonzero"
     fill="#000000"
     fill-opacity="1"
     d="m 104.73829,120.71875 c 0.33594,0.59766 0.75781,0.89844 1.26562,0.89844 0.25782,0 0.52344,-0.0977 0.80079,-0.29297 0.27734,-0.19531 0.5039,-0.50781 0.67968,-0.94141 0.17969,-0.42968 0.26953,-0.95312 0.26953,-1.57422 0,-0.8789 -0.20312,-1.58203 -0.60937,-2.09375 -0.32422,-0.41796 -0.69141,-0.625 -1.10156,-0.625 -0.25,0 -0.49219,0.0859 -0.72657,0.25391 -0.30468,0.21484 -0.54687,0.54297 -0.73046,0.98047 -0.1836,0.4375 -0.27735,0.96094 -0.27735,1.57031 0,0.70703 0.14453,1.32031 0.42969,1.82422 m 0.44531,-3.10547 c 0.0664,-0.46875 0.19531,-0.80859 0.38281,-1.02344 0.13672,-0.16015 0.29688,-0.24218 0.47266,-0.24218 0.15234,0 0.28516,0.043 0.39063,0.1289 0.14843,0.125 0.26953,0.33985 0.36328,0.64063 0.1289,0.40625 0.1914,0.91406 0.1914,1.51953 0,0.82031 -0.0625,1.45312 -0.17968,1.90234 -0.082,0.30078 -0.19532,0.51172 -0.34766,0.64063 -0.15234,0.125 -0.29688,0.1914 -0.4375,0.1914 -0.29688,0 -0.51953,-0.19531 -0.66797,-0.58593 -0.18359,-0.46485 -0.27344,-1.0625 -0.27344,-1.79297 0,-0.45313 0.0352,-0.91406 0.10547,-1.37891 m 3.57813,3.27344 c -0.0859,0.0859 -0.12891,0.1875 -0.12891,0.30859 0,0.1211 0.043,0.22657 0.12891,0.3086 0.082,0.0859 0.1875,0.1289 0.30859,0.1289 0.11719,0 0.22266,-0.043 0.30469,-0.1289 0.0859,-0.082 0.1289,-0.1875 0.1289,-0.3086 0,-0.11718 -0.043,-0.22265 -0.125,-0.30468 -0.0859,-0.0859 -0.1875,-0.12891 -0.30859,-0.12891 -0.12109,0 -0.22656,0.043 -0.30859,0.125 m 4.6875,-4.79688 c -0.28125,0 -0.58203,0.0547 -0.90625,0.17188 -0.32422,0.11719 -0.66407,0.33984 -1.01953,0.67187 -0.35547,0.33204 -0.625,0.71094 -0.81641,1.14063 -0.19141,0.42969 -0.28906,0.88281 -0.28906,1.35937 0,0.7461 0.25,1.35157 0.74609,1.82422 0.25391,0.23828 0.5625,0.35938 0.92578,0.35938 0.53516,0 0.96485,-0.22266 1.28906,-0.66797 0.26954,-0.36719 0.40235,-0.76953 0.40235,-1.21875 0,-0.46094 -0.13281,-0.83594 -0.39844,-1.12891 -0.26562,-0.29297 -0.58203,-0.4414 -0.94531,-0.4414 -0.37891,0 -0.75781,0.13281 -1.13672,0.39062 0.0937,-0.35937 0.21484,-0.66797 0.35156,-0.92969 0.14063,-0.25781 0.31641,-0.49609 0.53125,-0.70703 0.21485,-0.21093 0.42969,-0.37109 0.64844,-0.47265 0.21875,-0.10157 0.5,-0.17188 0.84375,-0.20703 v -0.14454 z m -1.71094,2.47657 c 0.11719,-0.043 0.22266,-0.0625 0.32031,-0.0625 0.32813,0 0.58203,0.16406 0.75781,0.49218 0.17969,0.32422 0.26563,0.71094 0.26563,1.16016 0,0.39844 -0.0859,0.70313 -0.26563,0.91797 -0.17968,0.21484 -0.38281,0.32031 -0.61328,0.32031 -0.1875,0 -0.35156,-0.0586 -0.48437,-0.17969 -0.1836,-0.17578 -0.32031,-0.41015 -0.41406,-0.70312 -0.0937,-0.29297 -0.14063,-0.56641 -0.14063,-0.82031 0,-0.21485 0.0234,-0.5 0.0703,-0.85157 0.22266,-0.14062 0.39063,-0.23046 0.50391,-0.27343"
     id="path5604" />
  <path
     fill-rule="nonzero"
     fill="#000000"
     fill-opacity="1"
     d="m 132.8047,120.71875 c 0.33593,0.59766 0.75781,0.89844 1.26562,0.89844 0.25391,0 0.52344,-0.0977 0.79688,-0.29297 0.27734,-0.19531 0.5039,-0.50781 0.68359,-0.94141 0.17969,-0.42968 0.26562,-0.95312 0.26562,-1.57422 0,-0.8789 -0.20312,-1.58203 -0.60937,-2.09375 -0.32031,-0.41796 -0.6875,-0.625 -1.09766,-0.625 -0.25,0 -0.49609,0.0859 -0.73047,0.25391 -0.30468,0.21484 -0.54687,0.54297 -0.73046,0.98047 -0.17969,0.4375 -0.27344,0.96094 -0.27344,1.57031 0,0.70703 0.14453,1.32031 0.42969,1.82422 m 0.4414,-3.10547 c 0.0664,-0.46875 0.19531,-0.80859 0.38281,-1.02344 0.14063,-0.16015 0.30079,-0.24218 0.47657,-0.24218 0.15234,0 0.28125,0.043 0.38672,0.1289 0.15234,0.125 0.27343,0.33985 0.36718,0.64063 0.125,0.40625 0.1875,0.91406 0.1875,1.51953 0,0.82031 -0.0586,1.45312 -0.17968,1.90234 -0.0781,0.30078 -0.19532,0.51172 -0.34766,0.64063 -0.14844,0.125 -0.29688,0.1914 -0.4375,0.1914 -0.29688,0 -0.51953,-0.19531 -0.66797,-0.58593 -0.17969,-0.46485 -0.26953,-1.0625 -0.26953,-1.79297 0,-0.45313 0.0352,-0.91406 0.10156,-1.37891 m 3.57813,3.27344 c -0.0859,0.0859 -0.12891,0.1875 -0.12891,0.30859 0,0.1211 0.043,0.22657 0.12891,0.3086 0.0859,0.0859 0.1875,0.1289 0.30859,0.1289 0.12109,0 0.22266,-0.043 0.30859,-0.1289 0.0859,-0.082 0.125,-0.1875 0.125,-0.3086 0,-0.11718 -0.0391,-0.22265 -0.125,-0.30468 -0.082,-0.0859 -0.18359,-0.12891 -0.30859,-0.12891 -0.12109,0 -0.22266,0.043 -0.30859,0.125 m 2.03906,-1.27734 c -0.16016,0.23046 -0.23828,0.46484 -0.23828,0.69921 0,0.30079 0.11328,0.57813 0.33594,0.83204 0.28515,0.3164 0.67968,0.47656 1.18359,0.47656 0.46094,0 0.83594,-0.13281 1.12109,-0.39844 0.28907,-0.26562 0.42969,-0.58594 0.42969,-0.96094 0,-0.29297 -0.0977,-0.57422 -0.30078,-0.84375 -0.14844,-0.20312 -0.45313,-0.48437 -0.91406,-0.83984 0.44922,-0.27734 0.74218,-0.52344 0.88281,-0.73047 0.14453,-0.20703 0.21094,-0.41016 0.21094,-0.60937 0,-0.29688 -0.12891,-0.5625 -0.39063,-0.79688 -0.26172,-0.23047 -0.60547,-0.34766 -1.03515,-0.34766 -0.44141,0 -0.79688,0.125 -1.0625,0.375 -0.26954,0.25 -0.40235,0.54688 -0.40235,0.89063 0,0.22656 0.0586,0.44531 0.1836,0.65234 0.12109,0.21094 0.39453,0.48828 0.8125,0.83594 -0.38672,0.27734 -0.66016,0.53125 -0.81641,0.76563 m 0.78906,-1.72266 c -0.1289,-0.12109 -0.22656,-0.25 -0.29687,-0.38672 -0.0664,-0.13672 -0.10157,-0.27344 -0.10157,-0.41016 0,-0.20703 0.082,-0.38671 0.25,-0.53906 0.16797,-0.15625 0.38672,-0.23437 0.65235,-0.23437 0.26562,0 0.47656,0.0781 0.63281,0.23437 0.15234,0.15625 0.23047,0.3711 0.23047,0.64453 0,0.20703 -0.043,0.39453 -0.125,0.55469 -0.082,0.16406 -0.28516,0.39063 -0.59766,0.67188 z m 1.33985,2.19141 c 0.10156,0.14843 0.14843,0.3164 0.14843,0.50781 0,0.22656 -0.082,0.42187 -0.2539,0.57812 -0.17188,0.16016 -0.39844,0.24219 -0.67969,0.24219 -0.28516,0 -0.51953,-0.10156 -0.70313,-0.30469 -0.1875,-0.20312 -0.27734,-0.47265 -0.27734,-0.8125 0,-0.25 0.0508,-0.48437 0.15625,-0.69922 0.10547,-0.21875 0.26563,-0.41406 0.48047,-0.59765 0.56641,0.44531 0.94531,0.80859 1.12891,1.08594"
     id="path5606" />
  <path
     fill="none"
     stroke-width="0.55"
     stroke-linecap="butt"
     stroke-linejoin="miter"
     stroke="#000000"
     stroke-opacity="1"
     stroke-miterlimit="10"
     d="m 28.890629,29.238278 h -3.24609"
     id="path5608" />
  <path
     fill="none"
     stroke-width="0.55"
     stroke-linecap="butt"
     stroke-linejoin="miter"
     stroke="#000000"
     stroke-opacity="1"
     stroke-miterlimit="10"
     d="m 28.890629,57.343748 h -3.24609"
     id="path5610" />
  <path
     fill="none"
     stroke-width="0.55"
     stroke-linecap="butt"
     stroke-linejoin="miter"
     stroke="#000000"
     stroke-opacity="1"
     stroke-miterlimit="10"
     d="m 28.890629,85.445308 h -3.24609"
     id="path5612" />
  <path
     fill-rule="nonzero"
     fill="#000000"
     fill-opacity="1"
     d="m 11.531259,87.597658 c 0.33594,0.59765 0.75781,0.89843 1.26562,0.89843 0.25782,0 0.52344,-0.0976 0.80078,-0.29296 0.27735,-0.19532 0.50391,-0.50782 0.67969,-0.94141 0.17969,-0.42969 0.26953,-0.95313 0.26953,-1.57422 0,-0.87891 -0.20312,-1.57812 -0.60937,-2.09375 -0.32422,-0.41797 -0.69141,-0.625 -1.10156,-0.625 -0.25,0 -0.49219,0.0859 -0.72657,0.25391 -0.30468,0.21484 -0.54687,0.54297 -0.73047,0.98047 -0.18359,0.4375 -0.27734,0.96093 -0.27734,1.57031 0,0.71094 0.14453,1.32031 0.42969,1.82422 m 0.44531,-3.10547 c 0.0664,-0.46485 0.19531,-0.8086 0.38281,-1.02344 0.13672,-0.16016 0.29688,-0.24219 0.47266,-0.24219 0.15234,0 0.28516,0.043 0.39062,0.12891 0.14844,0.12891 0.26954,0.33984 0.36329,0.64062 0.1289,0.40625 0.1914,0.91407 0.1914,1.51954 0,0.82031 -0.0625,1.45312 -0.17969,1.90625 -0.082,0.29687 -0.19531,0.50781 -0.34765,0.63671 -0.15235,0.125 -0.29688,0.19141 -0.4375,0.19141 -0.29688,0 -0.51953,-0.19531 -0.66797,-0.58594 -0.18359,-0.46484 -0.27344,-1.0625 -0.27344,-1.79297 0,-0.45312 0.0352,-0.91406 0.10547,-1.3789 m 3.57813,3.27344 c -0.0859,0.0859 -0.12891,0.1875 -0.12891,0.30859 0,0.12109 0.043,0.22656 0.12891,0.30859 0.082,0.0859 0.1875,0.12891 0.30859,0.12891 0.11719,0 0.22266,-0.043 0.30469,-0.12891 0.0859,-0.082 0.1289,-0.1875 0.1289,-0.30859 0,-0.11719 -0.043,-0.22266 -0.125,-0.30469 -0.0859,-0.0859 -0.1875,-0.1289 -0.30859,-0.1289 -0.12109,0 -0.22656,0.043 -0.30859,0.125 m 4.85156,-0.38672 c -0.0664,0.11718 -0.14453,0.20703 -0.23828,0.26953 -0.0937,0.0664 -0.19532,0.10937 -0.3086,0.1289 -0.11328,0.0234 -0.3125,0.0312 -0.59375,0.0312 h -1.39062 c 0.16406,-0.14843 0.57031,-0.57421 1.22265,-1.28906 0.4336,-0.47265 0.7461,-0.92187 0.94141,-1.34375 0.125,-0.26953 0.1875,-0.53906 0.1875,-0.80859 0,-0.37891 -0.14453,-0.70703 -0.43359,-0.98047 -0.28907,-0.28125 -0.64844,-0.41797 -1.08203,-0.41797 -0.40625,0 -0.74219,0.12891 -1.01563,0.38672 -0.26953,0.26172 -0.4375,0.63281 -0.50391,1.11719 h 0.14454 c 0.10156,-0.29688 0.2539,-0.51953 0.46093,-0.67188 0.21094,-0.15625 0.44532,-0.23047 0.70703,-0.23047 0.28516,0 0.53516,0.10938 0.74219,0.32422 0.20703,0.21875 0.3086,0.4961 0.3086,0.83203 0,0.44532 -0.1875,0.92969 -0.56641,1.46485 -0.375,0.53515 -1.02734,1.22265 -1.94922,2.0664 v 0.14453 h 3.14063 l 0.375,-1.02343 h -0.14844"
     id="path5614" />
  <path
     fill-rule="nonzero"
     fill="#000000"
     fill-opacity="1"
     d="m 11.531259,59.480468 c 0.33594,0.59766 0.75781,0.89844 1.26562,0.89844 0.25782,0 0.52344,-0.0977 0.80078,-0.28907 0.27735,-0.19531 0.50391,-0.51171 0.67969,-0.9414 0.17969,-0.4336 0.26953,-0.95703 0.26953,-1.57422 0,-0.88281 -0.20312,-1.58203 -0.60937,-2.09766 -0.32422,-0.41406 -0.69141,-0.625 -1.10156,-0.625 -0.25,0 -0.49219,0.0859 -0.72657,0.25782 -0.30468,0.21093 -0.54687,0.53906 -0.73047,0.97656 -0.18359,0.4414 -0.27734,0.96094 -0.27734,1.57031 0,0.71094 0.14453,1.32031 0.42969,1.82422 m 0.44531,-3.10547 c 0.0664,-0.46484 0.19531,-0.80859 0.38281,-1.02344 0.13672,-0.16015 0.29688,-0.23828 0.47266,-0.23828 0.15234,0 0.28516,0.043 0.39062,0.12891 0.14844,0.125 0.26954,0.33594 0.36329,0.64062 0.1289,0.40235 0.1914,0.91016 0.1914,1.51563 0,0.82031 -0.0625,1.45703 -0.17969,1.90625 -0.082,0.29687 -0.19531,0.51172 -0.34765,0.63672 -0.15235,0.1289 -0.29688,0.1914 -0.4375,0.1914 -0.29688,0 -0.51953,-0.19531 -0.66797,-0.58593 -0.18359,-0.46094 -0.27344,-1.0586 -0.27344,-1.79297 0,-0.45313 0.0352,-0.91016 0.10547,-1.37891 m 3.57813,3.27344 c -0.0859,0.0859 -0.12891,0.1875 -0.12891,0.3125 0,0.11719 0.043,0.22265 0.12891,0.30859 0.082,0.082 0.1875,0.125 0.30859,0.125 0.11719,0 0.22266,-0.043 0.30469,-0.125 0.0859,-0.0859 0.1289,-0.1914 0.1289,-0.30859 0,-0.1211 -0.043,-0.22266 -0.125,-0.3086 -0.0859,-0.0859 -0.1875,-0.1289 -0.30859,-0.1289 -0.12109,0 -0.22656,0.043 -0.30859,0.125 m 4.33984,-1.32422 v -3.47266 h -0.43359 l -2.46875,3.52735 v 0.5 h 2.2539 v 1.40625 h 0.64844 v -1.40625 h 0.71484 v -0.55469 z m -2.51953,0 1.87109,-2.64453 v 2.64453 h -1.87109"
     id="path5616" />
  <path
     fill-rule="nonzero"
     fill="#000000"
     fill-opacity="1"
     d="m 11.531259,31.347658 c 0.33594,0.59765 0.75781,0.89843 1.26562,0.89843 0.25782,0 0.52344,-0.0977 0.80078,-0.29296 0.27735,-0.19141 0.50391,-0.50782 0.67969,-0.9375 0.17969,-0.4336 0.26953,-0.95704 0.26953,-1.57422 0,-0.88282 -0.20312,-1.58203 -0.60937,-2.09766 -0.32422,-0.41406 -0.69141,-0.625 -1.10156,-0.625 -0.25,0 -0.49219,0.0859 -0.72657,0.25781 -0.30468,0.21094 -0.54687,0.53907 -0.73047,0.97657 -0.18359,0.4414 -0.27734,0.96093 -0.27734,1.57031 0,0.71094 0.14453,1.32031 0.42969,1.82422 m 0.44531,-3.10547 c 0.0664,-0.46485 0.19531,-0.8086 0.38281,-1.02344 0.13672,-0.16016 0.29688,-0.23828 0.47266,-0.23828 0.15234,0 0.28516,0.043 0.39062,0.12891 0.14844,0.125 0.26954,0.33593 0.36329,0.63671 0.1289,0.40625 0.1914,0.91407 0.1914,1.51954 0,0.82031 -0.0625,1.45703 -0.17969,1.90625 -0.082,0.29687 -0.19531,0.51171 -0.34765,0.63671 -0.15235,0.12891 -0.29688,0.19141 -0.4375,0.19141 -0.29688,0 -0.51953,-0.19531 -0.66797,-0.58594 -0.18359,-0.46093 -0.27344,-1.05859 -0.27344,-1.79297 0,-0.45312 0.0352,-0.91406 0.10547,-1.3789 m 3.57813,3.27344 c -0.0859,0.0859 -0.12891,0.1875 -0.12891,0.3125 0,0.11718 0.043,0.22265 0.12891,0.30859 0.082,0.082 0.1875,0.125 0.30859,0.125 0.11719,0 0.22266,-0.043 0.30469,-0.125 0.0859,-0.0859 0.1289,-0.19141 0.1289,-0.30859 0,-0.1211 -0.043,-0.22266 -0.125,-0.3086 -0.0859,-0.0859 -0.1875,-0.1289 -0.30859,-0.1289 -0.12109,0 -0.22656,0.043 -0.30859,0.125 m 4.6875,-4.79688 c -0.28125,0 -0.58204,0.0586 -0.90625,0.17188 -0.32422,0.11718 -0.66407,0.33984 -1.01954,0.67187 -0.35546,0.33203 -0.625,0.71484 -0.8164,1.14453 -0.19141,0.42969 -0.28906,0.88281 -0.28906,1.35547 0,0.74609 0.25,1.35547 0.74609,1.82422 0.25391,0.23828 0.5625,0.35937 0.92578,0.35937 0.53516,0 0.96484,-0.22265 1.28906,-0.66796 0.26953,-0.36329 0.40235,-0.76954 0.40235,-1.21485 0,-0.46094 -0.13282,-0.83984 -0.39844,-1.13281 -0.26563,-0.29297 -0.58203,-0.4375 -0.94531,-0.4375 -0.37891,0 -0.75782,0.12891 -1.13672,0.38672 0.0937,-0.35547 0.21484,-0.66797 0.35156,-0.92578 0.14063,-0.26172 0.31641,-0.4961 0.53125,-0.71094 0.21484,-0.21094 0.42969,-0.36719 0.64844,-0.47266 0.21875,-0.10156 0.5,-0.17187 0.84375,-0.20703 v -0.14453 z m -1.71094,2.47656 c 0.11719,-0.0391 0.22265,-0.0625 0.32031,-0.0625 0.32813,0 0.58203,0.16407 0.75781,0.49219 0.17969,0.32813 0.26563,0.71484 0.26563,1.16016 0,0.39843 -0.0859,0.70703 -0.26563,0.91797 -0.17968,0.21875 -0.38281,0.32421 -0.61328,0.32421 -0.1875,0 -0.35156,-0.0625 -0.48437,-0.18359 -0.1836,-0.17187 -0.32032,-0.40625 -0.41407,-0.70312 -0.0937,-0.29297 -0.14062,-0.56641 -0.14062,-0.81641 0,-0.21875 0.0234,-0.50391 0.0703,-0.85547 0.22266,-0.14062 0.39063,-0.23047 0.50391,-0.27344"
     id="path5618" />
  <path
     fill="none"
     stroke-width="0.893"
     stroke-linecap="butt"
     stroke-linejoin="miter"
     stroke="#000000"
     stroke-opacity="1"
     stroke-miterlimit="10"
     d="m 122.56642,48.101568 h 4.87109"
     id="path5620" />
  <path
     fill="none"
     stroke-width="0.893"
     stroke-linecap="butt"
     stroke-linejoin="miter"
     stroke="#000000"
     stroke-opacity="1"
     stroke-miterlimit="10"
     d="m 125.03907,45.695318 v 4.86719"
     id="path5622" />
  <path
     fill="none"
     stroke-width="0.893"
     stroke-linecap="butt"
     stroke-linejoin="miter"
     stroke="#000000"
     stroke-opacity="1"
     stroke-miterlimit="10"
     d="m 131.15626,64.386718 h 4.86719"
     id="path5624" />
  <path
     fill="none"
     stroke-width="0.893"
     stroke-linecap="butt"
     stroke-linejoin="miter"
     stroke="#000000"
     stroke-opacity="1"
     stroke-miterlimit="10"
     d="m 133.62891,61.980468 v 4.86719"
     id="path5626" />
  <path
     fill="none"
     stroke-width="0.893"
     stroke-linecap="butt"
     stroke-linejoin="miter"
     stroke="#000000"
     stroke-opacity="1"
     stroke-miterlimit="10"
     d="m 116.86329,77.371098 h 4.86719"
     id="path5628" />
  <path
     fill="none"
     stroke-width="0.893"
     stroke-linecap="butt"
     stroke-linejoin="miter"
     stroke="#000000"
     stroke-opacity="1"
     stroke-miterlimit="10"
     d="m 119.26954,74.968748 v 4.86719"
     id="path5630" />
  <path
     fill="none"
     stroke-width="0.893"
     stroke-linecap="butt"
     stroke-linejoin="miter"
     stroke="#000000"
     stroke-opacity="1"
     stroke-miterlimit="10"
     d="m 108.96095,70.296878 h 4.86719"
     id="path5632" />
  <path
     fill="none"
     stroke-width="0.893"
     stroke-linecap="butt"
     stroke-linejoin="miter"
     stroke="#000000"
     stroke-opacity="1"
     stroke-miterlimit="10"
     d="m 111.43751,67.820318 v 4.86718"
     id="path5634" />
  <path
     fill="none"
     stroke-width="0.893"
     stroke-linecap="butt"
     stroke-linejoin="miter"
     stroke="#000000"
     stroke-opacity="1"
     stroke-miterlimit="10"
     d="m 92.742199,81.218748 h 4.86719"
     id="path5636" />
  <path
     fill="none"
     stroke-width="0.893"
     stroke-linecap="butt"
     stroke-linejoin="miter"
     stroke="#000000"
     stroke-opacity="1"
     stroke-miterlimit="10"
     d="m 95.148449,78.746098 v 4.86719"
     id="path5638" />
  <path
     fill="none"
     stroke-width="0.893"
     stroke-linecap="butt"
     stroke-linejoin="miter"
     stroke="#000000"
     stroke-opacity="1"
     stroke-miterlimit="10"
     d="m 80.031259,77.507818 h 4.86719"
     id="path5640" />
  <path
     fill="none"
     stroke-width="0.893"
     stroke-linecap="butt"
     stroke-linejoin="miter"
     stroke="#000000"
     stroke-opacity="1"
     stroke-miterlimit="10"
     d="m 82.507819,75.035158 v 4.86719"
     id="path5642" />
  <path
     fill="none"
     stroke-width="0.893"
     stroke-linecap="butt"
     stroke-linejoin="miter"
     stroke="#000000"
     stroke-opacity="1"
     stroke-miterlimit="10"
     d="m 91.371109,93.175788 h 4.86718"
     id="path5644" />
  <path
     fill="none"
     stroke-width="0.893"
     stroke-linecap="butt"
     stroke-linejoin="miter"
     stroke="#000000"
     stroke-opacity="1"
     stroke-miterlimit="10"
     d="m 93.773449,90.773438 v 4.86719"
     id="path5646" />
  <path
     fill="none"
     stroke-width="0.893"
     stroke-linecap="butt"
     stroke-linejoin="miter"
     stroke="#000000"
     stroke-opacity="1"
     stroke-miterlimit="10"
     d="m 84.910169,81.703128 h 4.86719"
     id="path5648" />
  <path
     fill="none"
     stroke-width="0.893"
     stroke-linecap="butt"
     stroke-linejoin="miter"
     stroke="#000000"
     stroke-opacity="1"
     stroke-miterlimit="10"
     d="m 87.386729,79.226568 v 4.86719"
     id="path5650" />
  <path
     fill="none"
     stroke-width="0.893"
     stroke-linecap="butt"
     stroke-linejoin="miter"
     stroke="#000000"
     stroke-opacity="1"
     stroke-miterlimit="10"
     d="m 119.26954,100.46094 h 4.86719"
     id="path5652" />
  <path
     fill="none"
     stroke-width="0.893"
     stroke-linecap="butt"
     stroke-linejoin="miter"
     stroke="#000000"
     stroke-opacity="1"
     stroke-miterlimit="10"
     d="m 61.820319,76.546878 h 4.86719"
     id="path5654" />
  <path
     fill="none"
     stroke-width="0.893"
     stroke-linecap="butt"
     stroke-linejoin="miter"
     stroke="#000000"
     stroke-opacity="1"
     stroke-miterlimit="10"
     d="m 62.921889,106.16016 h 4.86718"
     id="path5656" />
  <path
     fill="none"
     stroke-width="0.893"
     stroke-linecap="butt"
     stroke-linejoin="miter"
     stroke="#000000"
     stroke-opacity="1"
     stroke-miterlimit="10"
     d="m 70.687509,98.808598 h 4.86719"
     id="path5658" />
  <path
     fill="none"
     stroke-width="0.893"
     stroke-linecap="butt"
     stroke-linejoin="miter"
     stroke="#000000"
     stroke-opacity="1"
     stroke-miterlimit="10"
     d="m 115.48829,91.937508 h 4.86719"
     id="path5660" />
  <path
     fill="none"
     stroke-width="0.893"
     stroke-linecap="butt"
     stroke-linejoin="miter"
     stroke="#000000"
     stroke-opacity="1"
     stroke-miterlimit="10"
     d="m 117.55079,86.027348 h 4.86719"
     id="path5662" />
  <path
     fill="none"
     stroke-width="0.893"
     stroke-linecap="butt"
     stroke-linejoin="miter"
     stroke="#000000"
     stroke-opacity="1"
     stroke-miterlimit="10"
     d="m 70.550789,68.230468 h 4.86719"
     id="path5664" />
  <path
     fill="none"
     stroke-width="0.893"
     stroke-linecap="butt"
     stroke-linejoin="miter"
     stroke="#000000"
     stroke-opacity="1"
     stroke-miterlimit="10"
     d="m 107.31251,108.29297 h 4.86719"
     id="path5666" />
  <path
     fill="none"
     stroke-width="0.893"
     stroke-linecap="butt"
     stroke-linejoin="miter"
     stroke="#000000"
     stroke-opacity="1"
     stroke-miterlimit="10"
     d="m 122.98048,98.398438 h 4.86719"
     id="path5668" />
  <path
     fill="none"
     stroke-width="1.306"
     stroke-linecap="butt"
     stroke-linejoin="miter"
     stroke="#df3224"
     stroke-opacity="1"
     stroke-miterlimit="10"
     d="m 73.230479,38.273438 7.14453,75.988282"
     id="path5670" />
  <path
     fill="none"
     stroke-width="1.306"
     stroke-linecap="butt"
     stroke-linejoin="miter"
     stroke="#df3224"
     stroke-opacity="1"
     stroke-miterlimit="10"
     d="M 154.27345,48.582038 88.691419,113.91797"
     id="path5672" />
  <path
     fill="none"
     stroke-width="0.551"
     stroke-linecap="butt"
     stroke-linejoin="miter"
     stroke="#000000"
     stroke-opacity="1"
     stroke-miterlimit="10"
     d="m 30.472659,9.535158 h 42.5 v 25.97266 h -42.5 z m 0,0"
     id="path5674" />
  <path
     fill="none"
     stroke-width="0.893"
     stroke-linecap="butt"
     stroke-linejoin="miter"
     stroke="#000000"
     stroke-opacity="1"
     stroke-miterlimit="10"
     d="m 36.894539,28.878908 h 4.86719"
     id="path5676" />
  <path
     fill="none"
     stroke-width="0.893"
     stroke-linecap="butt"
     stroke-linejoin="miter"
     stroke="#000000"
     stroke-opacity="1"
     stroke-miterlimit="10"
     d="m 36.894539,17.609378 h 4.86719"
     id="path5678" />
  <path
     fill="none"
     stroke-width="0.893"
     stroke-linecap="butt"
     stroke-linejoin="miter"
     stroke="#000000"
     stroke-opacity="1"
     stroke-miterlimit="10"
     d="m 39.296889,15.136718 v 4.86719"
     id="path5680" />
  <path
     fill-rule="nonzero"
     fill="#000000"
     fill-opacity="1"
     d="m 45.503909,27.726558 h 0.4961 v 2.33594 c 0.004,0.73828 0.47265,1.10938 1.41015,1.10938 0.51172,0 0.92969,-0.125 1.25782,-0.375 0,0.0977 0.0195,0.17187 0.0625,0.22656 l 0.125,0.0859 0.17968,0.008 h 0.75782 c 0.24609,0 0.36718,-0.0898 0.36718,-0.27344 l -0.0703,-0.19922 -0.1289,-0.0781 -0.16797,-0.008 h -0.4961 v -3.01561 c 0,-0.14453 -0.0234,-0.24609 -0.0703,-0.29688 -0.043,-0.0508 -0.14453,-0.0781 -0.29687,-0.0781 h -0.76172 c -0.24219,0.004 -0.36328,0.0937 -0.36328,0.27734 l 0.0664,0.19532 0.12891,0.0781 0.17187,0.008 h 0.4961 v 1.95313 c 0,0.19922 -0.0469,0.37109 -0.13672,0.50781 -0.0937,0.13672 -0.21094,0.23438 -0.35156,0.28906 -0.14454,0.0547 -0.27344,0.0898 -0.38282,0.10938 -0.10937,0.0195 -0.22265,0.0273 -0.33203,0.0273 -0.19531,0 -0.35547,-0.0156 -0.47656,-0.0508 -0.12109,-0.0312 -0.20703,-0.082 -0.25781,-0.15234 l -0.0859,-0.17969 c -0.008,-0.0508 -0.0156,-0.125 -0.0156,-0.22266 v -2.46497 c 0,-0.14453 -0.0195,-0.24609 -0.0664,-0.29688 -0.0469,-0.0508 -0.14453,-0.0781 -0.29688,-0.0781 h -0.76172 l -0.17187,0.008 -0.125,0.0781 -0.0703,0.19922 c 0,0.18359 0.125,0.27343 0.36718,0.27343 m 5.33204,3.39063 h 1.625 c 0.24218,0 0.36718,-0.0898 0.36718,-0.27344 l -0.0703,-0.19922 -0.12891,-0.0781 -0.17187,-0.008 h -0.49219 v -1.60937 c 0,-0.30078 0.0742,-0.55469 0.22266,-0.75391 0.14844,-0.20312 0.3164,-0.33984 0.5039,-0.41406 0.1875,-0.0703 0.375,-0.10937 0.5625,-0.10937 0.30469,0 0.5,0.0664 0.60157,0.20312 0.0937,0.13281 0.14453,0.34375 0.14453,0.62891 v 2.05468 h -0.4961 c -0.24609,0.004 -0.36718,0.0937 -0.36718,0.27735 l 0.0664,0.19531 0.12891,0.0781 0.17187,0.008 h 1.6211 c 0.24609,0 0.36719,-0.0898 0.36719,-0.27344 l -0.0703,-0.19922 -0.125,-0.0781 -0.17187,-0.008 h -0.4961 v -2.10546 c 0,-0.89454 -0.4375,-1.33985 -1.3164,-1.33985 -0.51953,0 -0.96875,0.17578 -1.34766,0.52344 0,-0.19141 -0.0195,-0.31641 -0.0586,-0.375 -0.0352,-0.0625 -0.14063,-0.0937 -0.3086,-0.0937 h -0.76171 l -0.17188,0.008 -0.125,0.0781 -0.0703,0.19922 c 0,0.18359 0.12109,0.27343 0.36719,0.27343 h 0.49609 v 2.83203 h -0.49609 l -0.16797,0.008 -0.12891,0.0781 -0.0703,0.19922 c 0,0.18359 0.12109,0.27344 0.36719,0.27344 m 5.33203,0 h 1.84375 c 0.24218,0 0.36718,-0.0898 0.36718,-0.27344 l -0.0664,-0.19922 -0.12891,-0.0781 -0.17187,-0.008 h -0.71485 v -1.16406 c 0,-0.28125 0.0352,-0.53906 0.10938,-0.78125 0.0742,-0.24219 0.1914,-0.45312 0.35156,-0.6289 0.16406,-0.17579 0.35547,-0.27735 0.58594,-0.30079 0.004,0.14454 0.0508,0.2461 0.13281,0.30469 l 0.25,0.0859 c 0.10547,0 0.19531,-0.0352 0.26953,-0.10938 0.0781,-0.0703 0.11719,-0.16406 0.11719,-0.28125 0,-0.14062 -0.0625,-0.27343 -0.18359,-0.39062 -0.1211,-0.11719 -0.28516,-0.17969 -0.5,-0.17969 -0.4375,0 -0.81641,0.1875 -1.13282,0.5586 0,-0.21485 -0.0195,-0.35157 -0.0586,-0.41016 -0.0352,-0.0625 -0.14063,-0.0937 -0.30859,-0.0937 h -0.76172 l -0.16797,0.008 -0.12891,0.0781 -0.0703,0.19922 c 0,0.18359 0.12109,0.27343 0.37109,0.27343 h 0.49219 v 2.83203 h -0.49219 l -0.17187,0.008 -0.12891,0.0781 -0.0703,0.19922 c 0,0.18359 0.12109,0.27344 0.36719,0.27344 m 3.73047,0 h 1.54296 c 0.24219,0 0.36719,-0.0898 0.36719,-0.27344 0,-0.19141 -0.125,-0.28516 -0.3789,-0.28516 h -0.40625 v -3.01618 c 0,-0.14453 -0.0234,-0.24609 -0.0664,-0.29688 -0.0469,-0.0508 -0.14844,-0.0781 -0.30078,-0.0781 h -0.71485 c -0.25,0.004 -0.375,0.0937 -0.375,0.27734 0,0.1875 0.125,0.28125 0.37891,0.28125 h 0.44922 v 2.83203 h -0.49609 l -0.16797,0.008 -0.12891,0.0781 -0.0703,0.19922 c 0,0.18359 0.12109,0.27344 0.36719,0.27344 m 0.66796,-4.69141 c 0.12891,0 0.23829,-0.043 0.32422,-0.13281 0.0899,-0.0898 0.13282,-0.19531 0.13282,-0.32422 0,-0.12891 -0.043,-0.23437 -0.13282,-0.32422 -0.0859,-0.0859 -0.19531,-0.13281 -0.32422,-0.13281 -0.125,0 -0.23437,0.0469 -0.32421,0.13281 -0.0899,0.0898 -0.13282,0.19531 -0.13282,0.32422 0,0.12891 0.043,0.23438 0.13282,0.32422 0.0898,0.0898 0.19921,0.13281 0.32421,0.13281 m 1.98829,6.72656 h 1.61718 c 0.25,0 0.3711,-0.0937 0.3711,-0.27734 l -0.0664,-0.19141 -0.12891,-0.082 -0.17187,-0.008 h -0.49219 v -1.96484 c 0.33203,0.36328 0.74219,0.54297 1.22656,0.54297 0.55469,0 1.03516,-0.19532 1.44532,-0.58985 0.40625,-0.39453 0.60937,-0.875 0.60937,-1.4414 0,-0.5586 -0.1875,-1.03516 -0.5664,-1.4336 -0.37891,-0.39453 -0.84375,-0.59375 -1.38672,-0.59375 -0.50782,0 -0.94922,0.16797 -1.32813,0.4961 0,-0.17579 -0.0195,-0.29688 -0.0586,-0.35547 -0.0352,-0.0586 -0.14063,-0.0859 -0.3086,-0.0859 h -0.76171 l -0.16797,0.008 -0.12891,0.0781 -0.0703,0.19922 c 0,0.18359 0.125,0.27343 0.37109,0.27343 h 0.49201 v 4.86719 h -0.49219 l -0.17187,0.008 -0.12891,0.0781 -0.0703,0.19531 c 0,0.18359 0.12109,0.27734 0.36719,0.27734 m 1.1289,-4.4375 c 0,-0.28125 0.12891,-0.52343 0.38672,-0.73046 0.25781,-0.20704 0.55078,-0.3125 0.88281,-0.3125 0.39453,0 0.71875,0.14843 0.98438,0.4375 0.26562,0.28906 0.39844,0.63281 0.39844,1.03125 0,0.41406 -0.14844,0.76171 -0.4375,1.04687 -0.29297,0.28516 -0.63282,0.42578 -1.02344,0.42578 -0.35547,0 -0.64453,-0.14062 -0.86328,-0.42187 -0.21875,-0.28125 -0.32813,-0.56641 -0.32813,-0.85938 z m 4.90625,1.85547 c 0.40235,0.40235 0.88672,0.60157 1.46485,0.60157 0.50781,0 0.89843,-0.12891 1.17578,-0.38672 0.27734,-0.25391 0.41797,-0.47657 0.41797,-0.66407 0,-0.17578 -0.10938,-0.26171 -0.32813,-0.26171 l -0.19531,0.0391 -0.10938,0.16406 c -0.15234,0.36719 -0.45703,0.55078 -0.91797,0.55078 -0.35546,0 -0.67578,-0.11719 -0.95312,-0.34765 -0.28125,-0.23047 -0.45313,-0.53125 -0.51563,-0.89844 h 2.64454 l 0.14453,-0.004 0.11328,-0.0391 0.0859,-0.10156 0.0312,-0.19532 c 0,-0.5664 -0.15625,-1.03125 -0.46094,-1.39453 -0.30469,-0.36328 -0.73047,-0.54687 -1.27344,-0.54687 -0.53516,0 -0.99219,0.20312 -1.36328,0.60156 -0.37109,0.40234 -0.55859,0.87891 -0.55859,1.43359 0,0.56641 0.19921,1.05079 0.59765,1.44922 m 0.5,-2.59375 c 0.23828,-0.21875 0.51172,-0.33203 0.81641,-0.33203 0.27344,0 0.51562,0.0898 0.72265,0.26953 0.21094,0.17578 0.32813,0.47657 0.35938,0.90625 h -2.34766 c 0.0586,-0.34375 0.21094,-0.625 0.44922,-0.84375"
     id="path5682" />
  <path
     fill-rule="nonzero"
     fill="#000000"
     fill-opacity="1"
     d="m 45.746099,19.546878 h 1.83985 c 0.24609,0 0.36718,-0.0937 0.36718,-0.27344 l -0.0664,-0.19922 -0.125,-0.0781 -0.17578,-0.0117 h -0.71485 v -1.16016 c 0,-0.28125 0.0391,-0.54297 0.11328,-0.78516 0.0703,-0.24218 0.1875,-0.44922 0.35157,-0.6289 0.16015,-0.17578 0.35546,-0.27735 0.58203,-0.30078 0.008,0.14453 0.0508,0.24609 0.13281,0.30468 l 0.25391,0.0898 c 0.10546,0 0.19531,-0.0391 0.26953,-0.10938 0.0781,-0.0742 0.11328,-0.16797 0.11328,-0.28515 0,-0.14063 -0.0586,-0.26954 -0.17969,-0.39063 -0.12109,-0.11719 -0.28906,-0.17969 -0.50391,-0.17969 -0.4375,0 -0.8125,0.1875 -1.13281,0.5625 0,-0.21484 -0.0156,-0.35547 -0.0547,-0.41406 -0.0391,-0.0625 -0.14062,-0.0937 -0.3125,-0.0937 h -0.75781 l -0.17187,0.0117 -0.125,0.0781 -0.0703,0.19922 c 0,0.17969 0.1211,0.26953 0.36719,0.26953 h 0.4961 v 2.83204 h -0.4961 l -0.17187,0.0117 -0.125,0.0781 -0.0703,0.19922 c 0,0.17969 0.1211,0.27344 0.36719,0.27344 m 3.73047,0 h 1.53906 c 0.2461,0 0.3711,-0.0937 0.3711,-0.27344 0,-0.19141 -0.12891,-0.28906 -0.37891,-0.28906 h -0.40625 v -3.01172 c 0,-0.14844 -0.0234,-0.2461 -0.0703,-0.30078 -0.0469,-0.0508 -0.14453,-0.0781 -0.29688,-0.0781 h -0.71484 c -0.25,0.004 -0.375,0.0977 -0.375,0.27734 0,0.1875 0.125,0.28125 0.375,0.28125 h 0.45312 v 2.83204 h -0.49609 l -0.17187,0.0117 -0.12891,0.0781 -0.0703,0.19922 c 0,0.17969 0.125,0.27344 0.37109,0.27344 m 0.66797,-4.69532 c 0.125,0 0.23437,-0.043 0.32422,-0.13281 0.0898,-0.0859 0.13281,-0.19531 0.13281,-0.32422 0,-0.125 -0.043,-0.23437 -0.13281,-0.32422 -0.0899,-0.0859 -0.19922,-0.1289 -0.32422,-0.1289 -0.12891,0 -0.23828,0.043 -0.32422,0.1289 -0.0898,0.0898 -0.13672,0.19922 -0.13672,0.32422 0,0.12891 0.0469,0.23828 0.13672,0.32422 0.0859,0.0898 0.19531,0.13281 0.32422,0.13281 m 1.98437,6.73047 h 1.6211 c 0.25,-0.004 0.37109,-0.0977 0.37109,-0.27734 l -0.07036,-0.19526 -0.12891,-0.0781 -0.16797,-0.0117 h -0.49609 v -1.96094 c 0.33594,0.35938 0.74609,0.53907 1.23047,0.53907 0.55469,0 1.03516,-0.19532 1.44141,-0.58985 0.40625,-0.39453 0.61328,-0.875 0.61328,-1.4414 0,-0.55469 -0.19141,-1.03516 -0.57032,-1.42969 -0.3789,-0.39844 -0.83984,-0.59766 -1.38281,-0.59766 -0.50781,0 -0.95312,0.16797 -1.33203,0.5 0,-0.17968 -0.0195,-0.30078 -0.0547,-0.35547 -0.0391,-0.0586 -0.14062,-0.0898 -0.3125,-0.0898 h -0.76172 l -0.16796,0.0117 -0.12891,0.0781 -0.0664,0.19922 c 0,0.17969 0.1211,0.26953 0.36719,0.26953 h 0.49609 v 4.86719 h -0.49609 l -0.17187,0.0117 -0.12891,0.0742 -0.0664,0.19922 c 0,0.17969 0.1211,0.27344 0.36328,0.27734 m 1.12891,-4.4375 c 0,-0.28125 0.12891,-0.52734 0.38672,-0.73437 0.26172,-0.20703 0.55469,-0.3086 0.88672,-0.3086 0.39062,0 0.71875,0.14453 0.98437,0.4336 0.26172,0.29297 0.39453,0.63672 0.39453,1.03125 0,0.41406 -0.14453,0.76562 -0.4375,1.04687 -0.28906,0.28516 -0.6289,0.42578 -1.02343,0.42578 -0.35547,0 -0.64063,-0.14062 -0.86328,-0.42187 -0.21875,-0.27735 -0.32813,-0.56641 -0.32813,-0.85547 z m 4.91797,1.85547 c 0.39844,0.39844 0.88672,0.59766 1.46484,0.59766 0.50782,0 0.89844,-0.12891 1.17578,-0.38282 0.27735,-0.25781 0.41407,-0.48046 0.41407,-0.66796 0,-0.17188 -0.10938,-0.25782 -0.32422,-0.25782 l -0.19531,0.0352 -0.10938,0.16406 c -0.15234,0.36719 -0.45703,0.55078 -0.91797,0.55078 -0.35547,0 -0.67187,-0.11328 -0.95312,-0.34765 -0.28125,-0.23047 -0.45313,-0.52735 -0.51172,-0.89453 h 2.64062 l 0.14453,-0.008 0.11329,-0.0352 0.0859,-0.10547 0.0274,-0.19141 c 0,-0.5664 -0.15235,-1.03125 -0.45703,-1.39844 -0.30469,-0.36328 -0.73047,-0.54296 -1.27344,-0.54296 -0.53516,0 -0.99219,0.19921 -1.36328,0.60156 -0.3711,0.39844 -0.5586,0.8789 -0.5586,1.43359 0,0.56641 0.19922,1.05078 0.59766,1.44922 m 0.5,-2.59766 c 0.23828,-0.21875 0.51172,-0.32812 0.81641,-0.32812 0.27343,0 0.51562,0.0859 0.72656,0.26562 0.20703,0.17579 0.32422,0.48047 0.35547,0.90625 h -2.34766 c 0.0586,-0.34375 0.21094,-0.625 0.44922,-0.84375"
     id="path5684" />
  <path
     fill-rule="nonzero"
     fill="#000000"
     fill-opacity="1"
     d="m 4.5117291,68.324218 v -0.0117 c 0,-0.17578 -0.11328,-0.29297 -0.33985,-0.34375 0.22657,-0.28516 0.33985,-0.65234 0.33985,-1.10156 0,-0.58985 -0.13282,-1.01953 -0.40235,-1.28516 -0.26953,-0.26172 -0.57422,-0.39453 -0.91406,-0.39453 -0.69922,0 -1.14453,0.49609 -1.33203,1.49609 -0.0859,0.48438 -0.17188,0.82813 -0.25,1.03516 -0.082,0.20313 -0.21484,0.30078 -0.40234,0.30078 -0.17188,0 -0.30859996,-0.0859 -0.41796996,-0.26172 -0.10547,-0.17187 -0.15625,-0.4375 -0.15625,-0.79687 0,-0.17578 0.0156,-0.32031 0.0508,-0.44141 0.0391,-0.11719 0.0937,-0.19922 0.16797,-0.25 l 0.17967996,-0.10156 0.1836,-0.0352 0.15234,-0.0273 0.11719,-0.0977 c 0.0352,-0.0586 0.0508,-0.13672 0.0508,-0.23437 l -0.0703,-0.22656 -0.14063,-0.0899 -0.20312,-0.008 H 0.43364914 c -0.27734,0 -0.41406,0.0977 -0.41406,0.27734 0,0.14453 0.0664,0.24219 0.20312,0.28907 -0.13671,0.23437 -0.20312,0.53515 -0.20312,0.91015 0,0.34375 0.043,0.63672 0.125,0.875 0.0859,0.24219 0.19141,0.41797 0.32812,0.52735 0.13282,0.11328 0.26172,0.1914 0.38282,0.23437 0.12109,0.043 0.24217996,0.0625 0.35546996,0.0625 0.60937,0 1.0039,-0.48828 1.18359,-1.46875 0.0781,-0.29687 0.11328,-0.50391 0.11328,-0.61719 0.0469,-0.20703 0.12891,-0.38672 0.24219,-0.53906 0.11719,-0.15234 0.26172,-0.22656 0.44531,-0.22656 0.16016,0 0.29297,0.043 0.40234,0.13281 0.10547,0.0898 0.17969,0.21094 0.21485,0.35547 0.0391,0.14844 0.0586,0.26172 0.0703,0.34375 l 0.0156,0.24219 c 0,0.17968 -0.0273,0.33593 -0.0781,0.46484 -0.0547,0.13281 -0.13281,0.23828 -0.23437,0.3125 -0.0977,0.0781 -0.19532,0.13281 -0.28125,0.17188 -0.0859,0.0391 -0.19922,0.0781 -0.33204,0.11328 -0.16796,0.0469 -0.25,0.16406 -0.25,0.35547 0,0.10937 0.0195,0.1914 0.0664,0.25 l 0.14063,0.10156 0.20312,0.008 h 0.96484 c 0.27735,0 0.41407,-0.10156 0.41407,-0.30078 m -3.78906996,-4.07813 v -0.54296 H 3.2930091 c 0.8125,-0.004 1.21875,-0.52344 1.21875,-1.55469 0,-0.5625 -0.13672,-1.02344 -0.41407,-1.37891 0.10938,0 0.19141,-0.0234 0.25,-0.0742 l 0.0977,-0.13281 0.008,-0.19922 v -0.83594 c 0,-0.26953 -0.10156,-0.40234 -0.30078,-0.40234 l -0.21875,0.0781 -0.0859,0.14062 -0.0117,0.1875 v 0.54297 H 0.52375914 c -0.16016,0 -0.27344,0.0273 -0.32813,0.0781 -0.0586,0.0508 -0.0859,0.15625 -0.0859,0.32422 v 0.83985 c 0.004,0.26562 0.10547,0.40234 0.30469,0.40234 l 0.21094,-0.0781 0.0859,-0.14063 0.0117,-0.1875 v -0.54297 H 2.8674991 c 0.22656,0 0.41406,0.0508 0.5625,0.14844 0.14843,0.10156 0.25781,0.23047 0.3164,0.38672 0.0625,0.16015 0.10156,0.30078 0.1211,0.41797 0.0195,0.125 0.0312,0.24609 0.0312,0.36718 0,0.21875 -0.0195,0.39063 -0.0547,0.52344 -0.0352,0.13281 -0.0937,0.23047 -0.17188,0.28516 l -0.19531,0.0937 c -0.0547,0.008 -0.13672,0.0156 -0.24219,0.0156 H 0.52368914 c -0.16016,0 -0.27344,0.0234 -0.32813,0.0742 -0.0586,0.0508 -0.0859,0.16016 -0.0859,0.32813 v 0.83593 l 0.008,0.1875 0.0859,0.14063 0.21875,0.0781 c 0.19922,0 0.30078,-0.13671 0.30078,-0.40625 m 5.62109996,-6.26562 c 0.27734,-0.45313 0.41797,-1.00781 0.41797,-1.66406 0,-0.65235 -0.14063,-1.21094 -0.42578,-1.66797 -0.28125,-0.45703 -0.63282,-0.6836 -1.05469,-0.6836 -0.21875,0 -0.4336,0.0547 -0.64453,0.16797 -0.21094,0.11719 -0.38282,0.29297 -0.50782,0.53125 -0.19531,0.36328 -0.29296,0.85157 -0.29296,1.46094 v 0.70703 c 0,0.14063 -0.004,0.23828 -0.0156,0.28906 0,0.14063 -0.0508,0.25391 -0.14453,0.33594 -0.0977,0.0781 -0.21875,0.11719 -0.35938,0.11719 -0.0898,0 -0.18359,-0.0195 -0.28515,-0.0586 0.16797,-0.2461 0.25,-0.54688 0.25,-0.90625 0,-0.46094 -0.15625,-0.85547 -0.47266,-1.17969 -0.3125,-0.32422 -0.69531,-0.48828 -1.14453,-0.48828 -0.29687,0 -0.58984,0.0859 -0.87890996,0.26172 -0.0937,-0.16797 -0.14843,-0.36329 -0.16796,-0.58594 0.12109,-0.0234 0.20703,-0.0781 0.25781,-0.16016 l 0.0781,-0.23437 -0.10547,-0.27344 c -0.0703,-0.082 -0.17187,-0.125 -0.30859,-0.125 -0.13672,0 -0.26562,0.0625 -0.375,0.17969 -0.10937,0.12109 -0.16406000027,0.30468 -0.16406000027,0.55468 v 0.0156 c 0,0.39062 0.11719000027,0.73828 0.34765000027,1.05078 -0.19921,0.29688 -0.30078,0.625 -0.30078,0.98438 0,0.46093 0.16016,0.85546 0.48438,1.17578 0.3164,0.32422 0.69530996,0.48437 1.13280996,0.48437 0.35938,0 0.67969,-0.10937 0.95313,-0.32422 0.19921,0.14453 0.42578,0.21485 0.6914,0.21485 0.27344,0 0.51563,-0.082 0.72266,-0.24219 0.30078,0.49609 0.71875,0.74609 1.25,0.74609 0.42969,0 0.78515,-0.23047 1.0625,-0.68359 m -1.76953,-0.31641 c -0.0781,-0.12109 -0.12891,-0.23437 -0.14063,-0.33984 -0.0117,-0.10547 -0.0195,-0.35156 -0.0195,-0.73047 0,-0.3125 0.004,-0.55078 0.0156,-0.72266 0.008,-0.16796 0.0391,-0.375 0.0898,-0.61328 0.0508,-0.24218 0.14062,-0.42187 0.26953,-0.53515 0.125,-0.11719 0.28906,-0.17188 0.49219,-0.17188 0.23047,0 0.43359,0.16797 0.60937,0.51172 0.17578,0.34375 0.26563,0.76172 0.26563,1.25391 0,0.49218 -0.0898,0.91015 -0.26563,1.25 -0.17578,0.33984 -0.3789,0.50781 -0.60937,0.50781 -0.29688,0 -0.53125,-0.13281 -0.70703,-0.41016 m -3.62499996,-0.375 c -0.19532,-0.1914 -0.29297,-0.41797 -0.29297,-0.67968 0,-0.26954 0.0977,-0.5 0.30078,-0.6875 0.19921996,-0.19141 0.43749996,-0.28516 0.70702996,-0.28516 0.28125,0 0.52344,0.0937 0.71875,0.28906 0.19922,0.19141 0.30078,0.41797 0.30078,0.6836 0,0.26953 -0.10547,0.49609 -0.30469,0.68359 -0.20312,0.1875 -0.4375,0.28125 -0.70703,0.28125 -0.28125,0 -0.51953,-0.0937 -0.72264996,-0.28516 m 3.16796996,-4.60547 c 0.26171,-0.30078 0.39453,-0.6875 0.39453,-1.15625 0,-0.58593 -0.125,-1.0625 -0.38282,-1.43359 0.21485,-0.14844 0.32422,-0.5 0.32422,-1.05859 0,-0.11328 -0.004,-0.19922 -0.008,-0.25782 l -0.082,-0.16015 c -0.043,-0.0469 -0.12109,-0.0742 -0.22656,-0.0742 -0.19922,0 -0.30078,0.13281 -0.30078,0.39844 0,0.25781 -0.0234,0.44531 -0.0742,0.5664 h -2.1836 c -0.41797,0 -0.78124996,0.16407 -1.08983996,0.48828 -0.3125,0.32422 -0.46875,0.8086 -0.46875,1.45704 v 0.0195 c 0,0.9414 0.24609,1.41015 0.73437,1.41015 0.14454,0 0.26171996,-0.043 0.34374996,-0.1289 0.082,-0.0859 0.1211,-0.19532 0.1211,-0.32422 0,-0.10547 -0.0352,-0.20703 -0.11328,-0.29688 -0.0742,-0.0898 -0.19140996,-0.13672 -0.35156996,-0.14453 l -0.082,-0.0234 -0.0273,-0.14843 c -0.004,-0.082 -0.008,-0.20703 -0.008,-0.375 0,-0.37891 0.0859,-0.67969 0.25781,-0.90625 0.17186996,-0.22266 0.42968996,-0.33203 0.76952996,-0.33203 0.0117,0.91406 0.15234,1.63281 0.41797,2.15234 0.26562,0.51953 0.625,0.78125 1.08203,0.78125 0.37109,0 0.6875,-0.15234 0.95313,-0.45313 m -1.57032,-0.80078 c -0.16406,-0.375 -0.26172,-0.9375 -0.28906,-1.67968 h 0.84766 l 0.22656,0.0156 0.20312,0.10547 c 0.0859,0.0586 0.15235,0.14844 0.20704,0.27344 0.10156,0.23437 0.15625,0.51562 0.15625,0.84375 0,0.30078 -0.0742,0.53906 -0.21875,0.72265 -0.14454,0.1836 -0.31641,0.27735 -0.51563,0.27735 -0.24219,0 -0.44922,-0.1875 -0.61719,-0.5586 m 1.90625,-3.91406 v -2.02344 c 0,-0.26953 -0.10156,-0.40625 -0.30078,-0.40625 l -0.21875,0.0742 -0.0859,0.14453 -0.0117,0.1875 v 0.78516 h -1.27735 c -0.30859,0 -0.59765,-0.0391 -0.85937,-0.12109 -0.26953,-0.082 -0.5,-0.21094 -0.69141,-0.38672 -0.19530996,-0.17969 -0.30858996,-0.39453 -0.33593996,-0.64453 0.16407,-0.004 0.27735,-0.0547 0.33984996,-0.14454 l 0.0937,-0.27734 c 0,-0.11719 -0.0391,-0.21484 -0.11718996,-0.29687 -0.082,-0.0859 -0.1875,-0.125 -0.31641,-0.125 -0.15234,0 -0.29687,0.0664 -0.42578,0.19921 -0.13281,0.13282 -0.19922,0.31641 -0.19922,0.55079 0,0.48437 0.20703,0.89843 0.61719,1.24609 -0.23437,0 -0.38672,0.0195 -0.45703,0.0625 -0.0664,0.0391 -0.0977,0.15625 -0.0977,0.33984 v 0.83594 l 0.008,0.1875 0.0859,0.14453 0.21875,0.0742 c 0.19922,0 0.30078,-0.13672 0.30078,-0.40625 v -0.54297 H 3.8361991 v 0.54297 l 0.0117,0.1875 0.0859,0.14063 0.21875,0.0781 c 0.19922,0 0.30078,-0.13672 0.30078,-0.40625"
     id="path5686" />
  <path
     fill-rule="nonzero"
     fill="#000000"
     fill-opacity="1"
     d="m 76.144539,130.80078 c 0.42578,0.42969 0.92969,0.64844 1.51172,0.64844 0.57812,0 1.0664,-0.21484 1.46094,-0.64453 v 0.17187 c 0,0.16016 0.0273,0.26953 0.0781,0.32813 0.0508,0.0547 0.16016,0.0859 0.32422,0.0859 h 0.83594 c 0.26953,0 0.40625,-0.10157 0.40625,-0.30079 l -0.0781,-0.21875 -0.14062,-0.0859 -0.1875,-0.0117 h -0.54297 v -5.12891 c 0,-0.16406 -0.0274,-0.27344 -0.0781,-0.32812 -0.0508,-0.0547 -0.16015,-0.082 -0.32422,-0.082 h -0.83984 c -0.26953,0 -0.40234,0.0976 -0.40234,0.29687 l 0.0742,0.21875 0.14062,0.0898 0.19141,0.008 h 0.54297 v 1.64843 c -0.38672,-0.33984 -0.83594,-0.51171 -1.34766,-0.51171 -0.625,0 -1.16016,0.21875 -1.60156,0.65234 -0.4375,0.43359 -0.65625,0.96484 -0.65625,1.58594 0,0.61718 0.21093,1.14062 0.63281,1.57812 m 0.53906,-2.72656 c 0.32031,-0.31641 0.69531,-0.47266 1.13672,-0.47266 0.34766,0 0.65234,0.11328 0.91016,0.33985 0.25781,0.23047 0.38672,0.49609 0.38672,0.79687 v 0.66797 c 0,0.33203 -0.13282,0.65625 -0.40235,0.96484 -0.26562,0.3086 -0.60156,0.46094 -1.0039,0.46094 -0.41797,0 -0.77344,-0.15625 -1.06641,-0.47265 -0.29297,-0.3125 -0.44141,-0.69532 -0.44141,-1.13672 0,-0.44922 0.16016,-0.82813 0.48047,-1.14844 m 5.30469,2.71484 c 0.4375,0.44141 0.97266,0.66016 1.60547,0.66016 0.55859,0 0.99219,-0.14063 1.29687,-0.42578 0.30469,-0.28125 0.45703,-0.52344 0.45703,-0.73047 0,-0.19141 -0.12109,-0.28516 -0.35937,-0.28516 l -0.21094,0.0391 -0.125,0.17968 c -0.16797,0.40625 -0.5039,0.60547 -1.00781,0.60547 -0.39063,0 -0.74219,-0.125 -1.05078,-0.3789 -0.3086,-0.25782 -0.4961,-0.58594 -0.5625,-0.98829 h 2.90625 l 0.16015,-0.004 0.1211,-0.043 0.0976,-0.11328 0.0312,-0.21094 c 0,-0.625 -0.16796,-1.13672 -0.5039,-1.53906 -0.33985,-0.39844 -0.80469,-0.60156 -1.40235,-0.60156 -0.58984,0 -1.08984,0.22265 -1.5,0.66406 -0.41015,0.4414 -0.61328,0.96875 -0.61328,1.57812 0,0.6211 0.21875,1.15235 0.66016,1.59375 m 0.54687,-2.85547 c 0.26172,-0.24218 0.5625,-0.36328 0.89844,-0.36328 0.30078,0 0.56641,0.0977 0.79688,0.29297 0.23047,0.19531 0.35937,0.52735 0.39062,0.9961 h -2.58203 c 0.0664,-0.37891 0.23047,-0.6875 0.49609,-0.92579 m 3.65625,3.45704 h 1.78516 c 0.26953,0 0.40234,-0.10157 0.40234,-0.30079 l -0.0742,-0.21875 -0.14063,-0.0859 -0.19141,-0.0117 h -0.54296 v -1.76953 c 0,-0.33203 0.082,-0.60938 0.24609,-0.83203 0.16406,-0.21875 0.35156,-0.3711 0.55469,-0.44922 0.20703,-0.082 0.41406,-0.1211 0.62109,-0.1211 0.33203,0 0.55078,0.0742 0.65625,0.21875 0.10938,0.14844 0.16016,0.37891 0.16016,0.69532 v 2.25781 h -0.54297 c -0.26953,0.004 -0.40625,0.10547 -0.40625,0.30469 l 0.0781,0.21484 0.14063,0.0859 0.1875,0.0117 h 1.78515 c 0.26563,0 0.40235,-0.10157 0.40235,-0.30079 l -0.0742,-0.21875 -0.14063,-0.0859 -0.1914,-0.0117 h -0.54297 v -2.31641 c 0,-0.98047 -0.48438,-1.47265 -1.44922,-1.47265 -0.57031,0 -1.06641,0.1914 -1.48437,0.57812 0,-0.21094 -0.0195,-0.35156 -0.0625,-0.41797 -0.0391,-0.0664 -0.15625,-0.10156 -0.33985,-0.10156 h -0.83594 l -0.1875,0.0117 -0.14062,0.0859 -0.0781,0.21875 c 0,0.19921 0.13672,0.30078 0.40625,0.30078 h 0.54297 v 3.11328 h -0.54297 l -0.1875,0.0117 -0.14062,0.0859 -0.0781,0.21875 c 0,0.19922 0.13672,0.30079 0.40625,0.30079 m 5.94922,0.0586 h 0.0117 c 0.17969,0 0.29297,-0.11328 0.34375,-0.33984 0.28516,0.22656 0.65235,0.33984 1.10547,0.33984 0.58594,0 1.01563,-0.13672 1.27734,-0.40234 0.26954,-0.26954 0.39844,-0.57422 0.39844,-0.91407 0,-0.70312 -0.49609,-1.14453 -1.49219,-1.33203 -0.48828,-0.0859 -0.83203,-0.17187 -1.03515,-0.2539 -0.20313,-0.0781 -0.30469,-0.21485 -0.30469,-0.40235 0,-0.16797 0.0859,-0.30469 0.26172,-0.41406 0.17187,-0.10547 0.44141,-0.16016 0.79687,-0.16016 0.17579,0 0.32422,0.0195 0.44141,0.0547 0.11719,0.0352 0.20313,0.0898 0.25,0.16406 l 0.10156,0.1836 0.0352,0.18359 0.0273,0.15234 0.0977,0.11329 c 0.0586,0.0351 0.13281,0.0547 0.23828,0.0547 l 0.22266,-0.0703 0.0898,-0.14062 0.0117,-0.20313 v -0.69531 c -0.004,-0.27344 -0.0977,-0.41406 -0.28125,-0.41406 -0.14844,0 -0.24219,0.0703 -0.28516,0.20312 -0.23828,-0.13281 -0.53906,-0.20312 -0.91406,-0.20312 -0.34375,0 -0.63672,0.043 -0.875,0.1289 -0.24219,0.082 -0.41797,0.19141 -0.52734,0.32422 -0.11328,0.13672 -0.19141,0.26563 -0.23438,0.38672 -0.043,0.12109 -0.0625,0.23828 -0.0625,0.35156 0,0.61328 0.48828,1.00781 1.46875,1.1875 0.29688,0.0742 0.50391,0.11328 0.61719,0.11328 0.21094,0.0469 0.38672,0.125 0.53906,0.24219 0.15235,0.11328 0.23047,0.26172 0.23047,0.44531 0,0.15625 -0.0469,0.29297 -0.13672,0.39844 -0.0898,0.10938 -0.20703,0.18359 -0.35547,0.21875 -0.14843,0.0352 -0.26172,0.0586 -0.34375,0.0703 l -0.23828,0.0117 c -0.18359,0 -0.33984,-0.0273 -0.46875,-0.0781 -0.1289,-0.0508 -0.23828,-0.12891 -0.3125,-0.23047 -0.0781,-0.10156 -0.13281,-0.19531 -0.17187,-0.28516 -0.0391,-0.0859 -0.0781,-0.19531 -0.11719,-0.33203 -0.043,-0.16797 -0.16016,-0.25 -0.35156,-0.25 -0.10938,0 -0.19532,0.0234 -0.25,0.0703 l -0.10157,0.14063 -0.008,0.20312 v 0.96485 c 0,0.27343 0.10156,0.41406 0.30078,0.41406 m 4.07813,-0.0586 h 1.69531 c 0.26953,0 0.40625,-0.10157 0.40625,-0.30079 0,-0.21093 -0.14062,-0.3164 -0.41797,-0.3164 h -0.44531 v -3.31641 c 0,-0.16015 -0.0234,-0.26953 -0.0742,-0.32812 -0.0508,-0.0547 -0.16016,-0.0859 -0.32812,-0.0859 h -0.78907 c -0.27343,0.004 -0.41015,0.10547 -0.41015,0.30859 0,0.20313 0.13672,0.3086 0.41406,0.3086 h 0.49609 v 3.11328 h -0.54687 l -0.1875,0.0117 -0.14063,0.0859 -0.0742,0.21875 c 0,0.19922 0.13282,0.30079 0.40235,0.30079 m 0.73437,-5.16407 c 0.14063,0 0.25782,-0.0469 0.35938,-0.14453 0.0976,-0.0976 0.14453,-0.21484 0.14453,-0.35547 0,-0.14453 -0.0469,-0.26172 -0.14453,-0.35937 -0.10156,-0.0977 -0.21875,-0.14453 -0.35938,-0.14453 -0.14062,0 -0.25781,0.0469 -0.35547,0.14453 -0.10156,0.0976 -0.14843,0.21484 -0.14843,0.35937 0,0.14063 0.0469,0.25782 0.14843,0.35547 0.0977,0.0977 0.21485,0.14453 0.35547,0.14453 m 2.21094,1.4336 h 0.52344 v 2.48828 c 0,0.46094 0.11719,0.79297 0.351561,0.99609 0.23438,0.20313 0.5,0.30469 0.79688,0.30469 0.34375,0 0.63281,-0.125 0.8789,-0.37109 0.2461,-0.25 0.36719,-0.5625 0.36719,-0.94532 l -0.008,-0.19922 -0.0937,-0.13671 c -0.0586,-0.0469 -0.14063,-0.0703 -0.25,-0.0703 -0.10547,0 -0.1875,0.0234 -0.23828,0.0703 l -0.0899,0.13671 -0.0117,0.1875 c 0,0.22657 -0.0508,0.40235 -0.15234,0.52735 -0.0977,0.12109 -0.22266,0.18359 -0.36328,0.18359 h -0.004 c -0.32812,0 -0.49219,-0.24609 -0.49219,-0.74219 v -2.42968 h 1.1211 c 0.27344,0 0.40625,-0.10157 0.40625,-0.30078 l -0.0781,-0.21875 -0.14062,-0.0859 -0.1875,-0.0117 h -1.1211 v -0.82422 c 0,-0.13672 -0.0195,-0.23828 -0.0547,-0.30859 -0.0391,-0.0703 -0.13282,-0.10547 -0.28516,-0.10547 -0.109371,0 -0.187501,0.0234 -0.250001,0.0703 l -0.0937,0.14063 -0.008,0.20312 v 0.82422 h -0.51563 c -0.27734,0.004 -0.41406,0.10937 -0.41406,0.31641 0,0.19921 0.13281,0.30078 0.40625,0.30078 m 3.710941,5.78125 c 0.1875,0.16406 0.42187,0.24609 0.70312,0.24609 0.42578,0 0.78907,-0.15234 1.10157,-0.45312 0.30468,-0.30079 0.52343,-0.63672 0.65234,-1.00782 l 1.55859,-4.5664 h 0.40625 c 0.26563,0 0.40235,-0.10157 0.40235,-0.30078 l -0.0742,-0.21875 -0.14063,-0.0859 -0.1875,-0.0117 h -1.41797 l -0.1914,0.0117 -0.14063,0.0859 -0.0703,0.21875 c 0,0.19921 0.13281,0.30078 0.40234,0.30078 h 0.41016 l -0.98437,3.03515 c -0.0469,-0.14062 -0.125,-0.35156 -0.23438,-0.63281 l -0.96094,-2.40234 h 0.38672 c 0.26953,0 0.40235,-0.10157 0.40235,-0.30078 l -0.0742,-0.21875 -0.14063,-0.0859 -0.1875,-0.0117 h -1.41406 c -0.27344,0.004 -0.41406,0.10547 -0.41406,0.30859 0,0.20313 0.14062,0.3086 0.41406,0.3086 h 0.41406 l 1.52344,3.73047 c -0.0156,0.0312 -0.0898,0.23828 -0.22266,0.625 -0.21484,0.70312 -0.61328,1.05468 -1.19531,1.05468 -0.10547,0 -0.15625,-0.0156 -0.15625,-0.0469 l 0.0117,-0.0625 0.008,-0.10156 c 0,-0.13282 -0.0391,-0.24219 -0.12109,-0.32032 -0.0859,-0.082 -0.1875,-0.12109 -0.3086,-0.12109 -0.13671,0 -0.24218,0.0391 -0.32421,0.12109 -0.082,0.0781 -0.1211,0.1875 -0.1211,0.32032 0,0.22265 0.0977,0.41796 0.28516,0.58203"
     id="path5688" />
</svg>
