<?xml version="1.0" encoding="UTF-8" standalone="no"?>
<svg
   width="130.36176pt"
   height="101.08594pt"
   viewBox="0 0 130.36176 101.08594"
   version="1.1"
   id="svg2806"
   sodipodi:docname="Zhou2021_Book_MachineLearning.pdf"
   xmlns:inkscape="http://www.inkscape.org/namespaces/inkscape"
   xmlns:sodipodi="http://sodipodi.sourceforge.net/DTD/sodipodi-0.dtd"
   xmlns="http://www.w3.org/2000/svg"
   xmlns:svg="http://www.w3.org/2000/svg">
  <sodipodi:namedview
     id="namedview2808"
     pagecolor="#ffffff"
     bordercolor="#000000"
     borderopacity="0.25"
     inkscape:showpageshadow="2"
     inkscape:pageopacity="0.0"
     inkscape:pagecheckerboard="0"
     inkscape:deskcolor="#d1d1d1"
     inkscape:document-units="pt"
     showgrid="false" />
  <defs
     id="defs682" />
  <path
     fill="none"
     stroke-width="0.412"
     stroke-linecap="butt"
     stroke-linejoin="miter"
     stroke="#000000"
     stroke-opacity="1"
     stroke-miterlimit="10"
     d="m 60.562509,83.874994 c 0,-2.5664 2.08985,-4.64453 4.67578,-4.64453 2.58594,0 4.67579,2.07813 4.67579,4.64453 0,2.5586 -2.08985,4.64063 -4.67579,4.64063 -2.58593,0 -4.67578,-2.08203 -4.67578,-4.64063 z m 0,0"
     id="path2624" />
  <path
     fill="none"
     stroke-width="0.412"
     stroke-linecap="butt"
     stroke-linejoin="miter"
     stroke="#000000"
     stroke-opacity="1"
     stroke-miterlimit="10"
     d="m 0.56250876,83.874994 c 0,-2.5664 2.09375004,-4.64453 4.67578004,-4.64453 2.58594,0 4.67579,2.07813 4.67579,4.64453 0,2.5586 -2.08985,4.64063 -4.67579,4.64063 -2.58203,0 -4.67578004,-2.08203 -4.67578004,-4.64063 z m 0,0"
     id="path2626" />
  <path
     fill="none"
     stroke-width="0.412"
     stroke-linecap="butt"
     stroke-linejoin="miter"
     stroke="#000000"
     stroke-opacity="1"
     stroke-miterlimit="10"
     d="m 30.531259,36.289064 c 0,-2.58594 2.08985,-4.67578 4.67579,-4.67578 2.58593,0 4.67578,2.08984 4.67578,4.67578 0,2.58593 -2.08985,4.67578 -4.67578,4.67578 -2.58594,0 -4.67579,-2.08985 -4.67579,-4.67578 z m 0,0"
     id="path2628" />
  <path
     fill-rule="nonzero"
     fill="#000000"
     fill-opacity="1"
     d="m 5.4648588,79.335934 23.9453102,-35.50391 -0.45703,-0.30859 -23.9375002,35.50391 z m 25.6835902,-33.66406 0.79297,-6.08985 -5.33985,3.01954 4.54688,3.07031"
     id="path2630" />
  <path
     fill-rule="nonzero"
     fill="#000000"
     fill-opacity="1"
     d="m 64.972669,79.335934 -23.9375,-35.50391 0.45312,-0.30859 23.94141,35.50391 z m -25.67578,-33.66406 -0.79688,-6.08985 5.34375,3.01954 -4.54687,3.07031"
     id="path2632" />
  <path
     fill-rule="nonzero"
     fill="#000000"
     fill-opacity="1"
     d="m 34.929699,31.613274 h 0.55078 V 4.9414044 h -0.55078 z m 0.55078,0 z M 37.949229,5.4882744 35.207039,-5.5696514e-6 32.460949,5.4882744 h 5.48828"
     id="path2634" />
  <g
     fill="#000000"
     fill-opacity="1"
     id="g2656"
     transform="translate(-115.6328,-507.0586)">
    <g
       id="use2636"
       transform="translate(196.16071,546.93213)">
      <path
         d="m 1.40625,-5.84375 c -0.703125,0.65625 -1.0625,1.515625 -1.0625,2.546875 0,1.015625 0.3125,1.84375 0.921875,2.484375 C 1.875,-0.171875 2.625,0.140625 3.53125,0.140625 c 0.890625,0 1.640625,-0.3125 2.28125,-0.984375 C 6.421875,-1.484375 6.75,-2.328125 6.75,-3.3125 6.75,-4.28125 6.4375,-5.078125 5.8125,-5.734375 5.1875,-6.375 4.453125,-6.6875 3.609375,-6.6875 2.75,-6.6875 2.015625,-6.40625 1.40625,-5.84375 Z m 3.578125,0.140625 c 0.4375,0.5625 0.65625,1.390625 0.65625,2.515625 0,1.03125 -0.203125,1.796875 -0.609375,2.265625 -0.390625,0.484375 -0.890625,0.71875 -1.5,0.71875 -0.59375,0 -1.046875,-0.21875 -1.390625,-0.65625 C 1.671875,-1.4375 1.453125,-2.25 1.453125,-3.3125 c 0,-1.046875 0.21875,-1.84375 0.65625,-2.390625 C 2.46875,-6.125 2.9375,-6.34375 3.515625,-6.34375 c 0.625,0 1.109375,0.21875 1.46875,0.640625 z m 0,0"
         id="path3091" />
    </g>
    <g
       id="use2638"
       transform="translate(203.29228,546.93213)">
      <path
         d="M 2.671875,-4.421875 V -4.25 C 2.96875,-4.234375 3.15625,-4.1875 3.25,-4.09375 c 0.09375,0.078125 0.140625,0.25 0.140625,0.515625 v 2.484375 c -0.234375,0.25 -0.453125,0.421875 -0.625,0.515625 -0.171875,0.078125 -0.34375,0.125 -0.46875,0.125 -0.203125,0 -0.375,-0.0625 -0.515625,-0.203125 C 1.625,-0.78125 1.5625,-1.046875 1.5625,-1.46875 V -4.421875 H 0.015625 V -4.25 C 0.25,-4.25 0.40625,-4.21875 0.5,-4.1875 0.578125,-4.140625 0.65625,-4.078125 0.6875,-4 c 0.046875,0.078125 0.078125,0.234375 0.078125,0.4375 v 1.96875 c 0,0.40625 0.03125,0.734375 0.109375,0.953125 0.0625,0.21875 0.1875,0.40625 0.375,0.546875 C 1.421875,0.0625 1.640625,0.125 1.890625,0.125 c 0.21875,0 0.4375,-0.046875 0.625,-0.15625 0.203125,-0.109375 0.5,-0.359375 0.875,-0.765625 V 0.125 h 0.21875 l 1.3125,-0.546875 -0.0625,-0.171875 c -0.125,0.0625 -0.234375,0.078125 -0.34375,0.078125 -0.0625,0 -0.125,-0.015625 -0.1875,-0.0625 C 4.28125,-0.625 4.25,-0.703125 4.21875,-0.8125 4.203125,-0.921875 4.1875,-1.234375 4.1875,-1.734375 v -2.6875 z m 0,0"
         id="path3095" />
    </g>
    <g
       id="use2640"
       transform="translate(208.23074,546.93213)">
      <path
         d="m 1.453125,-5.875 c -0.125,0.328125 -0.234375,0.546875 -0.3125,0.671875 -0.140625,0.21875 -0.3125,0.4375 -0.5,0.59375 C 0.453125,-4.4375 0.28125,-4.328125 0.09375,-4.25 v 0.15625 h 0.703125 v 2.984375 c 0,0.3125 0.03125,0.546875 0.109375,0.703125 0.0625,0.15625 0.171875,0.265625 0.3125,0.34375 0.140625,0.09375 0.28125,0.125 0.4375,0.125 0.203125,0 0.421875,-0.078125 0.640625,-0.234375 0.1875,-0.15625 0.359375,-0.40625 0.46875,-0.71875 h -0.1875 c -0.0625,0.125 -0.125,0.234375 -0.234375,0.296875 C 2.25,-0.515625 2.140625,-0.5 2.03125,-0.5 1.90625,-0.5 1.8125,-0.546875 1.71875,-0.640625 1.640625,-0.734375 1.59375,-0.9375 1.59375,-1.21875 v -2.875 H 2.625 V -4.421875 H 1.59375 V -5.875 Z m 0,0"
         id="path3099" />
    </g>
    <g
       id="use2642"
       transform="translate(210.97609,546.93213)">
      <path
         d="m 0.046875,-3.828125 c 0.125,-0.046875 0.21875,-0.078125 0.296875,-0.078125 0.09375,0 0.171875,0.03125 0.234375,0.0625 0.046875,0.046875 0.09375,0.09375 0.109375,0.171875 0.03125,0.078125 0.046875,0.25 0.046875,0.546875 V 1.0625 C 0.734375,1.375 0.71875,1.59375 0.6875,1.671875 0.640625,1.734375 0.609375,1.796875 0.53125,1.84375 0.421875,1.90625 0.25,1.9375 0.078125,1.9375 h -0.125 V 2.109375 H 2.28125 V 1.9375 c -0.25,0 -0.40625,-0.015625 -0.5,-0.078125 C 1.6875,1.8125 1.625,1.75 1.59375,1.671875 1.546875,1.578125 1.53125,1.390625 1.53125,1.09375 V -0.25 c 0.15625,0.125 0.3125,0.234375 0.4375,0.28125 0.171875,0.0625 0.375,0.09375 0.625,0.09375 0.53125,0 0.984375,-0.203125 1.359375,-0.609375 0.4375,-0.5 0.65625,-1.125 0.65625,-1.890625 0,-0.671875 -0.1875,-1.234375 -0.546875,-1.65625 C 3.765625,-4.375 3.390625,-4.546875 2.9375,-4.546875 2.703125,-4.546875 2.453125,-4.46875 2.21875,-4.3125 1.984375,-4.171875 1.75,-3.890625 1.53125,-3.5 v -1.03125 h -0.1875 l -1.359375,0.546875 z M 2.109375,-3.75 c 0.15625,-0.078125 0.296875,-0.109375 0.453125,-0.109375 0.28125,0 0.53125,0.125 0.734375,0.375 C 3.59375,-3.125 3.75,-2.59375 3.75,-1.921875 c 0,0.59375 -0.140625,1.0625 -0.40625,1.390625 -0.1875,0.25 -0.453125,0.375 -0.78125,0.375 -0.265625,0 -0.484375,-0.078125 -0.65625,-0.21875 C 1.734375,-0.515625 1.625,-0.6875 1.5625,-0.859375 1.546875,-0.984375 1.53125,-1.21875 1.53125,-1.5625 V -3.21875 C 1.796875,-3.515625 1.984375,-3.6875 2.109375,-3.75 Z m 0,0"
         id="path3103" />
    </g>
    <g
       id="use2644"
       transform="translate(215.91455,546.93213)">
      <path
         d="M 2.671875,-4.421875 V -4.25 C 2.96875,-4.234375 3.15625,-4.1875 3.25,-4.09375 c 0.09375,0.078125 0.140625,0.25 0.140625,0.515625 v 2.484375 c -0.234375,0.25 -0.453125,0.421875 -0.625,0.515625 -0.171875,0.078125 -0.34375,0.125 -0.46875,0.125 -0.203125,0 -0.375,-0.0625 -0.515625,-0.203125 C 1.625,-0.78125 1.5625,-1.046875 1.5625,-1.46875 V -4.421875 H 0.015625 V -4.25 C 0.25,-4.25 0.40625,-4.21875 0.5,-4.1875 0.578125,-4.140625 0.65625,-4.078125 0.6875,-4 c 0.046875,0.078125 0.078125,0.234375 0.078125,0.4375 v 1.96875 c 0,0.40625 0.03125,0.734375 0.109375,0.953125 0.0625,0.21875 0.1875,0.40625 0.375,0.546875 C 1.421875,0.0625 1.640625,0.125 1.890625,0.125 c 0.21875,0 0.4375,-0.046875 0.625,-0.15625 0.203125,-0.109375 0.5,-0.359375 0.875,-0.765625 V 0.125 h 0.21875 l 1.3125,-0.546875 -0.0625,-0.171875 c -0.125,0.0625 -0.234375,0.078125 -0.34375,0.078125 -0.0625,0 -0.125,-0.015625 -0.1875,-0.0625 C 4.28125,-0.625 4.25,-0.703125 4.21875,-0.8125 4.203125,-0.921875 4.1875,-1.234375 4.1875,-1.734375 v -2.6875 z m 0,0"
         id="path3107" />
    </g>
    <g
       id="use2646"
       transform="translate(220.85301,546.93213)">
      <path
         d="m 1.453125,-5.875 c -0.125,0.328125 -0.234375,0.546875 -0.3125,0.671875 -0.140625,0.21875 -0.3125,0.4375 -0.5,0.59375 C 0.453125,-4.4375 0.28125,-4.328125 0.09375,-4.25 v 0.15625 h 0.703125 v 2.984375 c 0,0.3125 0.03125,0.546875 0.109375,0.703125 0.0625,0.15625 0.171875,0.265625 0.3125,0.34375 0.140625,0.09375 0.28125,0.125 0.4375,0.125 0.203125,0 0.421875,-0.078125 0.640625,-0.234375 0.1875,-0.15625 0.359375,-0.40625 0.46875,-0.71875 h -0.1875 c -0.0625,0.125 -0.125,0.234375 -0.234375,0.296875 C 2.25,-0.515625 2.140625,-0.5 2.03125,-0.5 1.90625,-0.5 1.8125,-0.546875 1.71875,-0.640625 1.640625,-0.734375 1.59375,-0.9375 1.59375,-1.21875 v -2.875 H 2.625 V -4.421875 H 1.59375 V -5.875 Z m 0,0"
         id="path3111" />
    </g>
    <g
       id="use2648"
       transform="translate(223.59836,546.93213)" />
    <g
       id="use2650"
       transform="translate(226.06808,546.93213)">
      <path
         d="M 1.625,-6.859375 0.3125,-6.3125 0.390625,-6.140625 c 0.125,-0.046875 0.234375,-0.078125 0.3125,-0.078125 0.078125,0 0.140625,0.015625 0.203125,0.0625 0.046875,0.046875 0.078125,0.125 0.09375,0.234375 0.03125,0.109375 0.03125,0.40625 0.03125,0.90625 V -1 c 0,0.265625 -0.015625,0.453125 -0.046875,0.5625 -0.0625,0.09375 -0.109375,0.15625 -0.1875,0.203125 -0.0625,0.03125 -0.203125,0.0625 -0.40625,0.0625 V 0 h 2.15625 v -0.171875 c -0.21875,0 -0.390625,-0.03125 -0.46875,-0.078125 C 2,-0.296875 1.9375,-0.359375 1.890625,-0.453125 1.859375,-0.546875 1.84375,-0.71875 1.84375,-1 v -5.859375 z m 0,0"
         id="path3117" />
    </g>
    <g
       id="use2652"
       transform="translate(228.81343,546.93213)">
      <path
         d="m 2.953125,-0.09375 c 0.09375,0.109375 0.21875,0.171875 0.375,0.171875 0.328125,0 0.671875,-0.25 1.03125,-0.734375 v -0.265625 c -0.1875,0.1875 -0.328125,0.3125 -0.390625,0.359375 -0.03125,0.015625 -0.078125,0.03125 -0.125,0.03125 -0.046875,0 -0.09375,-0.015625 -0.125,-0.046875 C 3.671875,-0.609375 3.640625,-0.6875 3.625,-0.765625 3.609375,-0.875 3.609375,-1.125 3.609375,-1.546875 v -1.5 c 0,-0.421875 -0.03125,-0.703125 -0.09375,-0.84375 C 3.421875,-4.09375 3.28125,-4.25 3.09375,-4.359375 c -0.25,-0.125 -0.5625,-0.1875 -0.953125,-0.1875 -0.515625,0 -0.921875,0.109375 -1.203125,0.34375 -0.28125,0.234375 -0.421875,0.484375 -0.421875,0.765625 0,0.140625 0.03125,0.25 0.109375,0.34375 0.078125,0.078125 0.171875,0.125 0.296875,0.125 0.125,0 0.21875,-0.046875 0.296875,-0.125 0.078125,-0.078125 0.109375,-0.1875 0.109375,-0.34375 v -0.28125 c 0,-0.140625 0.046875,-0.265625 0.1875,-0.375 C 1.625,-4.203125 1.78125,-4.25 1.984375,-4.25 c 0.265625,0 0.46875,0.078125 0.609375,0.234375 0.140625,0.171875 0.203125,0.46875 0.203125,0.90625 V -2.9375 C 2.046875,-2.65625 1.5,-2.421875 1.171875,-2.234375 0.84375,-2.03125 0.625,-1.828125 0.5,-1.609375 c -0.109375,0.15625 -0.15625,0.34375 -0.15625,0.5625 0,0.328125 0.09375,0.609375 0.296875,0.8125 0.203125,0.21875 0.453125,0.328125 0.75,0.328125 0.203125,0 0.390625,-0.046875 0.5625,-0.125 0.109375,-0.0625 0.390625,-0.25 0.84375,-0.609375 0,0.265625 0.0625,0.4375 0.15625,0.546875 z m -1.109375,-0.375 c -0.1875,0 -0.359375,-0.078125 -0.484375,-0.234375 -0.140625,-0.15625 -0.21875,-0.34375 -0.21875,-0.578125 0,-0.1875 0.0625,-0.34375 0.171875,-0.5 C 1.421875,-1.9375 1.59375,-2.078125 1.859375,-2.234375 2,-2.3125 2.328125,-2.4375 2.796875,-2.640625 v 1.6875 C 2.40625,-0.625 2.078125,-0.46875 1.84375,-0.46875 Z m 0,0"
         id="path3121" />
    </g>
    <g
       id="use2654"
       transform="translate(233.19868,546.93213)">
      <path
         d="m 0.046875,-4.25 c 0.15625,0.046875 0.28125,0.09375 0.359375,0.140625 C 0.453125,-4.0625 0.515625,-4 0.609375,-3.875 0.71875,-3.734375 0.78125,-3.609375 0.828125,-3.5 l 1.59375,3.328125 -0.3125,0.765625 C 2,0.875 1.890625,1.0625 1.765625,1.171875 1.65625,1.265625 1.546875,1.3125 1.453125,1.3125 1.421875,1.3125 1.34375,1.296875 1.21875,1.25 1.03125,1.171875 0.875,1.140625 0.765625,1.140625 0.625,1.140625 0.5,1.1875 0.40625,1.265625 0.3125,1.359375 0.28125,1.46875 0.28125,1.59375 c 0,0.140625 0.046875,0.265625 0.1875,0.375 C 0.578125,2.078125 0.734375,2.140625 0.921875,2.140625 1.1875,2.140625 1.46875,2.03125 1.75,1.8125 2.03125,1.59375 2.25,1.265625 2.421875,0.84375 L 4.21875,-3.578125 C 4.3125,-3.78125 4.359375,-3.90625 4.390625,-3.953125 4.46875,-4.0625 4.53125,-4.125 4.609375,-4.171875 4.65625,-4.203125 4.765625,-4.234375 4.875,-4.25 V -4.421875 H 3.4375 V -4.25 c 0.140625,0 0.234375,0.015625 0.296875,0.03125 C 3.78125,-4.203125 3.828125,-4.171875 3.84375,-4.125 3.875,-4.09375 3.875,-4.0625 3.875,-4 c 0,0.125 -0.015625,0.25 -0.078125,0.390625 L 2.8125,-1.15625 1.734375,-3.390625 C 1.625,-3.609375 1.578125,-3.796875 1.578125,-3.921875 1.578125,-4.015625 1.625,-4.09375 1.6875,-4.140625 1.75,-4.21875 1.859375,-4.25 2.015625,-4.25 h 0.09375 v -0.171875 h -2.0625 z m 0,0"
         id="path3125" />
    </g>
  </g>
  <g
     fill="#000000"
     fill-opacity="1"
     id="g2660"
     transform="translate(-115.6328,-507.0586)">
    <g
       id="use2658"
       transform="translate(238.26656,546.93213)">
      <path
         d="m 4.09375,-2.75 c 0,-0.546875 -0.15625,-0.984375 -0.46875,-1.3125 -0.3125,-0.328125 -0.734375,-0.484375 -1.21875,-0.484375 -0.59375,0 -1.078125,0.203125 -1.453125,0.625 C 0.5625,-3.5 0.359375,-2.90625 0.359375,-2.15625 c 0,0.6875 0.1875,1.25 0.5625,1.65625 C 1.3125,-0.078125 1.75,0.125 2.296875,0.125 2.78125,0.125 3.1875,-0.046875 3.5,-0.421875 3.828125,-0.765625 4.03125,-1.171875 4.09375,-1.625 L 3.953125,-1.71875 c -0.15625,0.390625 -0.328125,0.65625 -0.53125,0.8125 -0.21875,0.171875 -0.484375,0.25 -0.765625,0.25 -0.4375,0 -0.8125,-0.1875 -1.140625,-0.5625 -0.3125,-0.375 -0.46875,-0.890625 -0.46875,-1.53125 z m -2.6875,-1.15625 c 0.21875,-0.203125 0.453125,-0.296875 0.734375,-0.296875 0.15625,0 0.328125,0.046875 0.484375,0.15625 0.15625,0.09375 0.28125,0.234375 0.359375,0.421875 0.0625,0.109375 0.09375,0.3125 0.109375,0.59375 H 1.046875 c 0.046875,-0.359375 0.15625,-0.65625 0.359375,-0.875 z m 0,0"
         id="path3129" />
    </g>
  </g>
  <g
     fill="#000000"
     fill-opacity="1"
     id="g2664"
     transform="translate(-115.6328,-507.0586)">
    <g
       id="use2662"
       transform="translate(242.65082,546.93213)">
      <path
         d="m 1.40625,-4.546875 -1.34375,0.53125 0.0625,0.1875 C 0.25,-3.875 0.359375,-3.90625 0.453125,-3.90625 c 0.078125,0 0.15625,0.03125 0.203125,0.0625 0.0625,0.046875 0.109375,0.125 0.125,0.21875 0.015625,0.09375 0.03125,0.40625 0.03125,0.921875 V -1 c 0,0.265625 -0.015625,0.421875 -0.015625,0.46875 -0.046875,0.109375 -0.09375,0.203125 -0.171875,0.25 -0.109375,0.0625 -0.28125,0.109375 -0.5,0.109375 V 0 h 2.25 v -0.171875 c -0.1875,0 -0.34375,-0.03125 -0.453125,-0.09375 -0.109375,-0.046875 -0.1875,-0.125 -0.21875,-0.203125 -0.0625,-0.140625 -0.09375,-0.328125 -0.09375,-0.5625 v -2.125 c 0.15625,-0.296875 0.3125,-0.515625 0.4375,-0.640625 C 2.125,-3.875 2.1875,-3.90625 2.234375,-3.90625 c 0.078125,0 0.171875,0.0625 0.3125,0.171875 0.15625,0.109375 0.265625,0.171875 0.375,0.171875 0.125,0 0.21875,-0.046875 0.296875,-0.125 0.09375,-0.09375 0.125,-0.203125 0.125,-0.328125 0,-0.140625 -0.0625,-0.265625 -0.15625,-0.375 C 3.0625,-4.5 2.90625,-4.546875 2.734375,-4.546875 c -0.390625,0 -0.765625,0.328125 -1.125,0.984375 v -0.984375 z m 0,0"
         id="path3133" />
    </g>
  </g>
  <g
     fill="#000000"
     fill-opacity="1"
     id="g2684"
     transform="translate(-115.6328,-507.0586)">
    <g
       id="use2666"
       transform="translate(196.97868,592.99646)">
      <path
         d="m 2.8125,-0.171875 c -0.140625,0 -0.296875,-0.046875 -0.4375,-0.125 -0.109375,-0.0625 -0.15625,-0.125 -0.203125,-0.203125 -0.03125,-0.109375 -0.0625,-0.328125 -0.0625,-0.65625 v -4.234375 c 0,-0.390625 0.046875,-0.640625 0.125,-0.734375 0.125,-0.171875 0.3125,-0.25 0.578125,-0.25 H 3.046875 V -6.546875 H 0.25 V -6.375 h 0.234375 c 0.140625,0 0.296875,0.046875 0.4375,0.125 0.109375,0.0625 0.171875,0.125 0.203125,0.203125 0.046875,0.109375 0.0625,0.328125 0.0625,0.65625 v 4.234375 c 0,0.390625 -0.046875,0.640625 -0.125,0.734375 -0.109375,0.171875 -0.3125,0.25 -0.578125,0.25 H 0.25 V 0 h 2.796875 v -0.171875 z m 0,0"
         id="path3137" />
    </g>
    <g
       id="use2668"
       transform="translate(200.27034,592.99646)">
      <path
         d="M 1.59375,-4.546875 H 1.390625 l -1.328125,0.53125 0.0625,0.1875 C 0.25,-3.875 0.359375,-3.90625 0.453125,-3.90625 c 0.078125,0 0.15625,0.03125 0.203125,0.0625 0.046875,0.046875 0.078125,0.125 0.109375,0.234375 0.03125,0.125 0.03125,0.4375 0.03125,0.96875 V -1 c 0,0.3125 -0.03125,0.53125 -0.109375,0.65625 -0.078125,0.109375 -0.234375,0.171875 -0.453125,0.171875 H 0.125 V 0 h 2.203125 v -0.171875 c -0.25,0 -0.40625,-0.03125 -0.484375,-0.078125 C 1.75,-0.28125 1.703125,-0.359375 1.65625,-0.4375 1.625,-0.515625 1.59375,-0.703125 1.59375,-1 v -2.34375 c 0.375,-0.421875 0.765625,-0.625 1.140625,-0.625 0.25,0 0.421875,0.09375 0.53125,0.28125 0.109375,0.171875 0.15625,0.46875 0.15625,0.875 V -1 c 0,0.265625 -0.015625,0.40625 -0.03125,0.453125 -0.015625,0.125 -0.078125,0.21875 -0.15625,0.28125 C 3.15625,-0.203125 3,-0.171875 2.796875,-0.171875 H 2.703125 V 0 h 2.1875 V -0.171875 C 4.6875,-0.171875 4.53125,-0.203125 4.453125,-0.25 4.375,-0.28125 4.3125,-0.359375 4.28125,-0.4375 4.234375,-0.53125 4.21875,-0.71875 4.21875,-1 v -1.890625 c 0,-0.390625 -0.046875,-0.6875 -0.109375,-0.875 C 4.015625,-4.046875 3.875,-4.25 3.6875,-4.375 3.53125,-4.5 3.3125,-4.546875 3.078125,-4.546875 2.609375,-4.546875 2.109375,-4.25 1.59375,-3.625 Z m 0,0"
         id="path3141" />
    </g>
    <g
       id="use2670"
       transform="translate(205.21176,592.99646)">
      <path
         d="m 0.046875,-3.828125 c 0.125,-0.046875 0.21875,-0.078125 0.296875,-0.078125 0.09375,0 0.171875,0.03125 0.234375,0.0625 0.046875,0.046875 0.09375,0.09375 0.109375,0.171875 0.03125,0.078125 0.046875,0.25 0.046875,0.546875 V 1.0625 C 0.734375,1.375 0.71875,1.59375 0.6875,1.671875 0.640625,1.734375 0.609375,1.796875 0.53125,1.84375 0.421875,1.90625 0.25,1.9375 0.078125,1.9375 h -0.125 V 2.109375 H 2.28125 V 1.9375 c -0.25,0 -0.40625,-0.015625 -0.5,-0.078125 C 1.6875,1.8125 1.625,1.75 1.59375,1.671875 1.546875,1.578125 1.53125,1.390625 1.53125,1.09375 V -0.25 c 0.15625,0.125 0.3125,0.234375 0.4375,0.28125 0.171875,0.0625 0.375,0.09375 0.625,0.09375 0.53125,0 0.984375,-0.203125 1.359375,-0.609375 0.4375,-0.5 0.65625,-1.125 0.65625,-1.890625 0,-0.671875 -0.1875,-1.234375 -0.546875,-1.65625 C 3.765625,-4.375 3.390625,-4.546875 2.9375,-4.546875 2.703125,-4.546875 2.453125,-4.46875 2.21875,-4.3125 1.984375,-4.171875 1.75,-3.890625 1.53125,-3.5 v -1.03125 h -0.1875 l -1.359375,0.546875 z M 2.109375,-3.75 c 0.15625,-0.078125 0.296875,-0.109375 0.453125,-0.109375 0.28125,0 0.53125,0.125 0.734375,0.375 C 3.59375,-3.125 3.75,-2.59375 3.75,-1.921875 c 0,0.59375 -0.140625,1.0625 -0.40625,1.390625 -0.1875,0.25 -0.453125,0.375 -0.78125,0.375 -0.265625,0 -0.484375,-0.078125 -0.65625,-0.21875 C 1.734375,-0.515625 1.625,-0.6875 1.5625,-0.859375 1.546875,-0.984375 1.53125,-1.21875 1.53125,-1.5625 V -3.21875 C 1.796875,-3.515625 1.984375,-3.6875 2.109375,-3.75 Z m 0,0"
         id="path3145" />
    </g>
    <g
       id="use2672"
       transform="translate(210.15318,592.99646)">
      <path
         d="M 2.671875,-4.421875 V -4.25 C 2.96875,-4.234375 3.15625,-4.1875 3.25,-4.09375 c 0.09375,0.078125 0.140625,0.25 0.140625,0.515625 v 2.484375 c -0.234375,0.25 -0.453125,0.421875 -0.625,0.515625 -0.171875,0.078125 -0.34375,0.125 -0.46875,0.125 -0.203125,0 -0.375,-0.0625 -0.515625,-0.203125 C 1.625,-0.78125 1.5625,-1.046875 1.5625,-1.46875 V -4.421875 H 0.015625 V -4.25 C 0.25,-4.25 0.40625,-4.21875 0.5,-4.1875 0.578125,-4.140625 0.65625,-4.078125 0.6875,-4 c 0.046875,0.078125 0.078125,0.234375 0.078125,0.4375 v 1.96875 c 0,0.40625 0.03125,0.734375 0.109375,0.953125 0.0625,0.21875 0.1875,0.40625 0.375,0.546875 C 1.421875,0.0625 1.640625,0.125 1.890625,0.125 c 0.21875,0 0.4375,-0.046875 0.625,-0.15625 0.203125,-0.109375 0.5,-0.359375 0.875,-0.765625 V 0.125 h 0.21875 l 1.3125,-0.546875 -0.0625,-0.171875 c -0.125,0.0625 -0.234375,0.078125 -0.34375,0.078125 -0.0625,0 -0.125,-0.015625 -0.1875,-0.0625 C 4.28125,-0.625 4.25,-0.703125 4.21875,-0.8125 4.203125,-0.921875 4.1875,-1.234375 4.1875,-1.734375 v -2.6875 z m 0,0"
         id="path3149" />
    </g>
    <g
       id="use2674"
       transform="translate(215.09462,592.99646)">
      <path
         d="m 1.453125,-5.875 c -0.125,0.328125 -0.234375,0.546875 -0.3125,0.671875 -0.140625,0.21875 -0.3125,0.4375 -0.5,0.59375 C 0.453125,-4.4375 0.28125,-4.328125 0.09375,-4.25 v 0.15625 h 0.703125 v 2.984375 c 0,0.3125 0.03125,0.546875 0.109375,0.703125 0.0625,0.15625 0.171875,0.265625 0.3125,0.34375 0.140625,0.09375 0.28125,0.125 0.4375,0.125 0.203125,0 0.421875,-0.078125 0.640625,-0.234375 0.1875,-0.15625 0.359375,-0.40625 0.46875,-0.71875 h -0.1875 c -0.0625,0.125 -0.125,0.234375 -0.234375,0.296875 C 2.25,-0.515625 2.140625,-0.5 2.03125,-0.5 1.90625,-0.5 1.8125,-0.546875 1.71875,-0.640625 1.640625,-0.734375 1.59375,-0.9375 1.59375,-1.21875 v -2.875 H 2.625 V -4.421875 H 1.59375 V -5.875 Z m 0,0"
         id="path3153" />
    </g>
    <g
       id="use2676"
       transform="translate(217.84293,592.99646)" />
    <g
       id="use2678"
       transform="translate(220.31265,592.99646)">
      <path
         d="M 1.625,-6.859375 0.3125,-6.3125 0.390625,-6.140625 c 0.125,-0.046875 0.234375,-0.078125 0.3125,-0.078125 0.078125,0 0.140625,0.015625 0.203125,0.0625 0.046875,0.046875 0.078125,0.125 0.09375,0.234375 0.03125,0.109375 0.03125,0.40625 0.03125,0.90625 V -1 c 0,0.265625 -0.015625,0.453125 -0.046875,0.5625 -0.0625,0.09375 -0.109375,0.15625 -0.1875,0.203125 -0.0625,0.03125 -0.203125,0.0625 -0.40625,0.0625 V 0 h 2.15625 v -0.171875 c -0.21875,0 -0.390625,-0.03125 -0.46875,-0.078125 C 2,-0.296875 1.9375,-0.359375 1.890625,-0.453125 1.859375,-0.546875 1.84375,-0.71875 1.84375,-1 v -5.859375 z m 0,0"
         id="path3159" />
    </g>
    <g
       id="use2680"
       transform="translate(223.06096,592.99646)">
      <path
         d="m 2.953125,-0.09375 c 0.09375,0.109375 0.21875,0.171875 0.375,0.171875 0.328125,0 0.671875,-0.25 1.03125,-0.734375 v -0.265625 c -0.1875,0.1875 -0.328125,0.3125 -0.390625,0.359375 -0.03125,0.015625 -0.078125,0.03125 -0.125,0.03125 -0.046875,0 -0.09375,-0.015625 -0.125,-0.046875 C 3.671875,-0.609375 3.640625,-0.6875 3.625,-0.765625 3.609375,-0.875 3.609375,-1.125 3.609375,-1.546875 v -1.5 c 0,-0.421875 -0.03125,-0.703125 -0.09375,-0.84375 C 3.421875,-4.09375 3.28125,-4.25 3.09375,-4.359375 c -0.25,-0.125 -0.5625,-0.1875 -0.953125,-0.1875 -0.515625,0 -0.921875,0.109375 -1.203125,0.34375 -0.28125,0.234375 -0.421875,0.484375 -0.421875,0.765625 0,0.140625 0.03125,0.25 0.109375,0.34375 0.078125,0.078125 0.171875,0.125 0.296875,0.125 0.125,0 0.21875,-0.046875 0.296875,-0.125 0.078125,-0.078125 0.109375,-0.1875 0.109375,-0.34375 v -0.28125 c 0,-0.140625 0.046875,-0.265625 0.1875,-0.375 C 1.625,-4.203125 1.78125,-4.25 1.984375,-4.25 c 0.265625,0 0.46875,0.078125 0.609375,0.234375 0.140625,0.171875 0.203125,0.46875 0.203125,0.90625 V -2.9375 C 2.046875,-2.65625 1.5,-2.421875 1.171875,-2.234375 0.84375,-2.03125 0.625,-1.828125 0.5,-1.609375 c -0.109375,0.15625 -0.15625,0.34375 -0.15625,0.5625 0,0.328125 0.09375,0.609375 0.296875,0.8125 0.203125,0.21875 0.453125,0.328125 0.75,0.328125 0.203125,0 0.390625,-0.046875 0.5625,-0.125 0.109375,-0.0625 0.390625,-0.25 0.84375,-0.609375 0,0.265625 0.0625,0.4375 0.15625,0.546875 z m -1.109375,-0.375 c -0.1875,0 -0.359375,-0.078125 -0.484375,-0.234375 -0.140625,-0.15625 -0.21875,-0.34375 -0.21875,-0.578125 0,-0.1875 0.0625,-0.34375 0.171875,-0.5 C 1.421875,-1.9375 1.59375,-2.078125 1.859375,-2.234375 2,-2.3125 2.328125,-2.4375 2.796875,-2.640625 v 1.6875 C 2.40625,-0.625 2.078125,-0.46875 1.84375,-0.46875 Z m 0,0"
         id="path3163" />
    </g>
    <g
       id="use2682"
       transform="translate(227.44916,592.99646)">
      <path
         d="m 0.046875,-4.25 c 0.15625,0.046875 0.28125,0.09375 0.359375,0.140625 C 0.453125,-4.0625 0.515625,-4 0.609375,-3.875 0.71875,-3.734375 0.78125,-3.609375 0.828125,-3.5 l 1.59375,3.328125 -0.3125,0.765625 C 2,0.875 1.890625,1.0625 1.765625,1.171875 1.65625,1.265625 1.546875,1.3125 1.453125,1.3125 1.421875,1.3125 1.34375,1.296875 1.21875,1.25 1.03125,1.171875 0.875,1.140625 0.765625,1.140625 0.625,1.140625 0.5,1.1875 0.40625,1.265625 0.3125,1.359375 0.28125,1.46875 0.28125,1.59375 c 0,0.140625 0.046875,0.265625 0.1875,0.375 C 0.578125,2.078125 0.734375,2.140625 0.921875,2.140625 1.1875,2.140625 1.46875,2.03125 1.75,1.8125 2.03125,1.59375 2.25,1.265625 2.421875,0.84375 L 4.21875,-3.578125 C 4.3125,-3.78125 4.359375,-3.90625 4.390625,-3.953125 4.46875,-4.0625 4.53125,-4.125 4.609375,-4.171875 4.65625,-4.203125 4.765625,-4.234375 4.875,-4.25 V -4.421875 H 3.4375 V -4.25 c 0.140625,0 0.234375,0.015625 0.296875,0.03125 C 3.78125,-4.203125 3.828125,-4.171875 3.84375,-4.125 3.875,-4.09375 3.875,-4.0625 3.875,-4 c 0,0.125 -0.015625,0.25 -0.078125,0.390625 L 2.8125,-1.15625 1.734375,-3.390625 C 1.625,-3.609375 1.578125,-3.796875 1.578125,-3.921875 1.578125,-4.015625 1.625,-4.09375 1.6875,-4.140625 1.75,-4.21875 1.859375,-4.25 2.015625,-4.25 h 0.09375 v -0.171875 h -2.0625 z m 0,0"
         id="path3167" />
    </g>
  </g>
  <g
     fill="#000000"
     fill-opacity="1"
     id="g2688"
     transform="translate(-115.6328,-507.0586)">
    <g
       id="use2686"
       transform="translate(232.50716,592.99646)">
      <path
         d="m 4.09375,-2.75 c 0,-0.546875 -0.15625,-0.984375 -0.46875,-1.3125 -0.3125,-0.328125 -0.734375,-0.484375 -1.21875,-0.484375 -0.59375,0 -1.078125,0.203125 -1.453125,0.625 C 0.5625,-3.5 0.359375,-2.90625 0.359375,-2.15625 c 0,0.6875 0.1875,1.25 0.5625,1.65625 C 1.3125,-0.078125 1.75,0.125 2.296875,0.125 2.78125,0.125 3.1875,-0.046875 3.5,-0.421875 3.828125,-0.765625 4.03125,-1.171875 4.09375,-1.625 L 3.953125,-1.71875 c -0.15625,0.390625 -0.328125,0.65625 -0.53125,0.8125 -0.21875,0.171875 -0.484375,0.25 -0.765625,0.25 -0.4375,0 -0.8125,-0.1875 -1.140625,-0.5625 -0.3125,-0.375 -0.46875,-0.890625 -0.46875,-1.53125 z m -2.6875,-1.15625 c 0.21875,-0.203125 0.453125,-0.296875 0.734375,-0.296875 0.15625,0 0.328125,0.046875 0.484375,0.15625 0.15625,0.09375 0.28125,0.234375 0.359375,0.421875 0.0625,0.109375 0.09375,0.3125 0.109375,0.59375 H 1.046875 c 0.046875,-0.359375 0.15625,-0.65625 0.359375,-0.875 z m 0,0"
         id="path3171" />
    </g>
  </g>
  <g
     fill="#000000"
     fill-opacity="1"
     id="g2692"
     transform="translate(-115.6328,-507.0586)">
    <g
       id="use2690"
       transform="translate(236.89142,592.99646)">
      <path
         d="m 1.40625,-4.546875 -1.34375,0.53125 0.0625,0.1875 C 0.25,-3.875 0.359375,-3.90625 0.453125,-3.90625 c 0.078125,0 0.15625,0.03125 0.203125,0.0625 0.0625,0.046875 0.109375,0.125 0.125,0.21875 0.015625,0.09375 0.03125,0.40625 0.03125,0.921875 V -1 c 0,0.265625 -0.015625,0.421875 -0.015625,0.46875 -0.046875,0.109375 -0.09375,0.203125 -0.171875,0.25 -0.109375,0.0625 -0.28125,0.109375 -0.5,0.109375 V 0 h 2.25 v -0.171875 c -0.1875,0 -0.34375,-0.03125 -0.453125,-0.09375 -0.109375,-0.046875 -0.1875,-0.125 -0.21875,-0.203125 -0.0625,-0.140625 -0.09375,-0.328125 -0.09375,-0.5625 v -2.125 c 0.15625,-0.296875 0.3125,-0.515625 0.4375,-0.640625 C 2.125,-3.875 2.1875,-3.90625 2.234375,-3.90625 c 0.078125,0 0.171875,0.0625 0.3125,0.171875 0.15625,0.109375 0.265625,0.171875 0.375,0.171875 0.125,0 0.21875,-0.046875 0.296875,-0.125 0.09375,-0.09375 0.125,-0.203125 0.125,-0.328125 0,-0.140625 -0.0625,-0.265625 -0.15625,-0.375 C 3.0625,-4.5 2.90625,-4.546875 2.734375,-4.546875 c -0.390625,0 -0.765625,0.328125 -1.125,0.984375 v -0.984375 z m 0,0"
         id="path3175" />
    </g>
  </g>
  <path
     fill-rule="nonzero"
     fill="#000000"
     fill-opacity="1"
     d="m 5.4492288,58.566404 c 0.29688,0.77734 1.13281,0.91797 1.64063,0.91797 1.01953,0 1.625,-0.85156 2.0039,-1.7461 0.3086,-0.75 0.80469,-2.46093 0.80469,-3.22265 0,-0.78906 -0.41406,-0.86719 -0.53906,-0.86719 -0.32031,0 -0.61719,0.3125 -0.61719,0.57031 0,0.15625 0.0977,0.2461 0.16406,0.29688 0.1211,0.11719 0.46875,0.46484 0.46875,1.14062 0,0.4375 -0.375,1.65235 -0.66015,2.26172 -0.375,0.79297 -0.8711,1.3086 -1.57032,1.3086 -0.7539,0 -0.99609,-0.54297 -0.99609,-1.14063 0,-0.375 0.12109,-0.82812 0.17578,-1.04687 l 0.56641,-2.17579 c 0.0664,-0.25781 0.1875,-0.71093 0.1875,-0.76171 0,-0.19141 -0.16406,-0.32422 -0.36328,-0.32422 -0.39063,0 -0.48438,0.32422 -0.56641,0.63672 -0.13281,0.5039 -0.69922,2.6875 -0.75,2.97265 -0.0547,0.22266 -0.0547,0.36328 -0.0547,0.64844 0,0.3125 -0.43359,0.80078 -0.44531,0.82812 -0.14453,0.14454 -0.35937,0.36329 -0.78125,0.36329 -1.05859,0 -1.05859,-0.96875 -1.05859,-1.19141 0,-0.41406 0.0937,-0.98438 0.69922,-2.52344 0.16015,-0.39844 0.23046,-0.57031 0.23046,-0.82812 0,-0.54297 -0.40625,-1.03516 -1.0664,-1.03516 -1.23438,0 -1.73047,1.87891 -1.73047,1.98047 0,0.0508 0.0547,0.11719 0.14844,0.11719 0.12109,0 0.13281,-0.0508 0.18359,-0.23438 0.33984,-1.13672 0.86328,-1.60156 1.36328,-1.60156 0.12891,0 0.34766,0.0117 0.34766,0.42578 0,0.0625 0,0.33594 -0.23047,0.90234 -0.63281,1.6211 -0.76563,2.14844 -0.76563,2.64454 0,1.35546 1.15625,1.60156 1.84375,1.60156 0.22657,0 0.82813,0 1.36719,-0.91797"
     id="path2694" />
  <path
     fill-rule="nonzero"
     fill="#000000"
     fill-opacity="1"
     d="m 13.050789,55.800774 c 0,-0.23046 -0.0234,-0.24218 -0.26172,-0.24218 -0.36718,0.34765 -0.84374,0.55468 -1.6914,0.55468 v 0.28516 c 0.24219,0 0.72266,0 1.24219,-0.23437 v 4.42578 c 0,0.32031 -0.0273,0.42187 -0.875,0.42187 h -0.31641 v 0.28516 c 0.36719,-0.0273 1.13672,-0.0273 1.54297,-0.0273 0.40234,0 1.17969,0 1.55078,0.0273 v -0.28516 h -0.31641 c -0.85156,0 -0.875,-0.10156 -0.875,-0.42187 v -4.78907"
     id="path2696" />
  <path
     fill-rule="nonzero"
     fill="#000000"
     fill-opacity="1"
     d="m 59.867199,58.281244 c 0.29297,0.76172 1.10547,0.90235 1.60156,0.90235 0.9961,0 1.58985,-0.83985 1.95703,-1.71485 0.29688,-0.73437 0.78516,-2.41015 0.78516,-3.15625 0,-0.77343 -0.40625,-0.85156 -0.52734,-0.85156 -0.3125,0 -0.60157,0.30469 -0.60157,0.55469 0,0.15625 0.0937,0.24609 0.15625,0.29687 0.11719,0.11328 0.46094,0.45703 0.46094,1.11328 0,0.42969 -0.36719,1.625 -0.64062,2.22266 -0.3711,0.77344 -0.85547,1.27734 -1.53516,1.27734 -0.73828,0 -0.97266,-0.53125 -0.97266,-1.11328 0,-0.36718 0.11719,-0.8125 0.17188,-1.02734 l 0.54687,-2.13281 c 0.0703,-0.25391 0.1875,-0.69532 0.1875,-0.7461 0,-0.1914 -0.15625,-0.32031 -0.35547,-0.32031 -0.3789,0 -0.47265,0.32031 -0.55078,0.625 -0.1289,0.49219 -0.68359,2.63672 -0.73437,2.91406 -0.0508,0.21875 -0.0508,0.35547 -0.0508,0.63672 0,0.30469 -0.42188,0.78516 -0.4336,0.8125 -0.14453,0.14063 -0.35547,0.35156 -0.76172,0.35156 -1.03515,0 -1.03515,-0.94921 -1.03515,-1.16406 0,-0.40625 0.0937,-0.96484 0.67969,-2.47265 0.16015,-0.39454 0.22265,-0.5586 0.22265,-0.8125 0,-0.53516 -0.39062,-1.01563 -1.03515,-1.01563 -1.20704,0 -1.69141,1.83984 -1.69141,1.94141 0,0.0508 0.0547,0.11328 0.14453,0.11328 0.11719,0 0.13281,-0.0508 0.18359,-0.22656 0.32813,-1.11719 0.83985,-1.57422 1.32422,-1.57422 0.13282,0 0.34375,0.0117 0.34375,0.41797 0,0.0625 0,0.33203 -0.22265,0.88671 -0.61719,1.58594 -0.75,2.10547 -0.75,2.58985 0,1.33203 1.1289,1.57422 1.79687,1.57422 0.22266,0 0.8125,0 1.33594,-0.90235"
     id="path2698" />
  <path
     fill-rule="nonzero"
     fill="#000000"
     fill-opacity="1"
     d="m 67.000009,59.230464 c 0.14453,-0.125 0.50781,-0.40234 0.64844,-0.51953 0.54297,-0.48437 1.05859,-0.94922 1.05859,-1.71875 0,-1.00391 -0.875,-1.66016 -1.96875,-1.66016 -1.04687,0 -1.73828,0.76954 -1.73828,1.52344 0,0.41406 0.34375,0.47656 0.46485,0.47656 0.17968,0 0.45312,-0.1289 0.45312,-0.44921 0,-0.44141 -0.4375,-0.44141 -0.54297,-0.44141 0.25391,-0.61719 0.83985,-0.82813 1.26953,-0.82813 0.8125,0 1.23047,0.66797 1.23047,1.37891 0,0.87891 -0.63672,1.51953 -1.66797,2.54297 l -1.10156,1.10156 c -0.10547,0.0937 -0.10547,0.11328 -0.10547,0.32031 h 3.45313 l 0.2539,-1.51171 h -0.27343 c -0.0234,0.16796 -0.0937,0.58984 -0.19922,0.75 -0.0508,0.0703 -0.71875,0.0703 -0.85547,0.0703 h -1.5586 l 1.17969,-1.03516"
     id="path2700" />
  <path
     fill-rule="nonzero"
     fill="#000000"
     fill-opacity="1"
     d="m 27.148449,9.8007744 c -0.34375,0.4882896 -0.83203,0.9257896 -1.45313,0.9257896 -0.14843,0 -0.7539,-0.0274 -0.9414,-0.61719 0.0391,0.0117 0.0977,0.0117 0.125,0.0117 0.3789,0 0.6289,-0.3320296 0.6289,-0.6249996 0,-0.29688 -0.23828,-0.40235 -0.42578,-0.40235 -0.20312,0 -0.64453,0.15625 -0.64453,0.78516 0,0.6523396 0.54297,1.1015596 1.25781,1.1015596 1.26172,0 2.53516,-1.1796896 2.88672,-2.6015596 l 1.23438,-5 c 0.0156,-0.0625 0.0391,-0.14063 0.0391,-0.21875 0,-0.19141 -0.14844,-0.31641 -0.33984,-0.31641 -0.11328,0 -0.375,0.0469 -0.47657,0.4336 l -0.93359,3.76953 c -0.0625,0.23047 -0.0625,0.2539 -0.16406,0.39844 -0.25391,0.35937 -0.66797,0.79296 -1.27344,0.79296 -0.70312,0 -0.76953,-0.70703 -0.76953,-1.05078 0,-0.73047 0.33984,-1.71875 0.68359,-2.64062 0.13672,-0.375 0.21094,-0.55078 0.21094,-0.8086 0,-0.53906 -0.375,-1.02343 -0.99609,-1.02343 -1.15625,0 -1.625,1.85547 -1.625,1.96093 0,0.0469 0.0508,0.11329 0.14062,0.11329 0.11328,0 0.125,-0.0508 0.17578,-0.23047 0.30469,-1.07422 0.78125,-1.58985 1.27344,-1.58985 0.11328,0 0.32813,0 0.32813,0.42578 0,0.33204 -0.14063,0.70313 -0.32813,1.19141 -0.61719,1.67578 -0.61719,2.10156 -0.61719,2.41016 0,1.21484 0.85547,1.49609 1.48438,1.49609 0.36719,0 0.82031,-0.11328 1.26172,-0.58594 l 0.0117,0.0117 c -0.1875,0.75391 -0.3125,1.25391 -0.75391,1.88281"
     id="path2702" />
  <path
     fill-rule="nonzero"
     fill="#000000"
     fill-opacity="1"
     d="m 65.847669,93.507814 c -0.44141,0.082 -0.60938,0.40625 -0.60938,0.66796 0,0.32422 0.26563,0.4336 0.45703,0.4336 0.41407,0 0.70704,-0.35156 0.70704,-0.71875 0,-0.57031 -0.66407,-0.83203 -1.2461,-0.83203 -0.83984,0 -1.3125,0.8164 -1.4375,1.07422 -0.3164,-1.01563 -1.17187,-1.07422 -1.42187,-1.07422 -1.41016,0 -2.15625,1.78125 -2.15625,2.08203 0,0.0547 0.0547,0.11719 0.15234,0.11719 0.10938,0 0.13672,-0.0781 0.16406,-0.13282 0.47266,-1.50781 1.39844,-1.79297 1.79688,-1.79297 0.625,0 0.74609,0.57032 0.74609,0.89844 0,0.29688 -0.082,0.60938 -0.24609,1.26172 l -0.47266,1.85938 c -0.20703,0.8164 -0.60547,1.5625 -1.33984,1.5625 -0.0703,0 -0.41406,0 -0.70703,-0.17579 0.5,-0.0937 0.60937,-0.5039 0.60937,-0.66406 0,-0.27344 -0.20703,-0.4375 -0.46875,-0.4375 -0.33203,0 -0.6914,0.28516 -0.6914,0.72266 0,0.57031 0.65234,0.82422 1.24609,0.82422 0.66016,0 1.13281,-0.51563 1.42187,-1.07032 0.22266,0.80079 0.91016,1.07032 1.42188,1.07032 1.41016,0 2.16016,-1.77735 2.16016,-2.07422 0,-0.0703 -0.0586,-0.1211 -0.14063,-0.1211 -0.125,0 -0.13672,0.0625 -0.17969,0.17188 -0.375,1.19922 -1.17578,1.75391 -1.79687,1.75391 -0.48438,0 -0.7461,-0.35157 -0.7461,-0.91016 0,-0.30078 0.0547,-0.51563 0.27735,-1.41406 l 0.48437,-1.84375 c 0.20313,-0.81641 0.67578,-1.41407 1.3125,-1.41407 0.0273,0 0.41407,0 0.70313,0.17579"
     id="path2704" />
  <path
     fill-rule="nonzero"
     fill="#000000"
     fill-opacity="1"
     d="m 68.207039,100.35937 1.01953,-0.968746 c 1.4961,-1.30469 2.07032,-1.8125 2.07032,-2.75391 0,-1.07812 -0.86328,-1.83203 -2.03516,-1.83203 -1.08203,0 -1.79297,0.86719 -1.79297,1.70703 0,0.53125 0.47656,0.53125 0.50781,0.53125 0.16407,0 0.5,-0.11719 0.5,-0.5 0,-0.24609 -0.17187,-0.49219 -0.51171,-0.49219 -0.0742,0 -0.0937,0 -0.1211,0.008 0.21875,-0.61328 0.73828,-0.96094 1.29297,-0.96094 0.875,0 1.28516,0.76562 1.28516,1.53906 0,0.75 -0.47657,1.5 -1.00782,2.08203 l -1.84375,2.019526 c -0.10156,0.10157 -0.10156,0.1211 -0.10156,0.34766 h 3.5586 l 0.26953,-1.640616 h -0.23828 c -0.0508,0.28125 -0.11719,0.699206 -0.21485,0.839836 -0.0664,0.0742 -0.69922,0.0742 -0.91015,0.0742 h -1.72657"
     id="path2706" />
  <path
     fill-rule="nonzero"
     fill="#000000"
     fill-opacity="1"
     d="m 5.9531388,93.613274 c -0.42578,0.07813 -0.58594,0.39454 -0.58594,0.64454 0,0.3164 0.25,0.42187 0.4375,0.42187 0.40234,0 0.68359,-0.33984 0.68359,-0.69922 0,-0.55469 -0.64062,-0.80469 -1.20312,-0.80469 -0.8125,0 -1.26953,0.79297 -1.38672,1.04297 -0.30859,-0.98828 -1.13672,-1.04297 -1.375,-1.04297 -1.36328,0 -2.08594004,1.73047 -2.08594004,2.01954 0,0.0508 0.0547,0.11718 0.14844,0.11718 0.10938,0 0.13281,-0.0781 0.16016,-0.1289 0.45312004,-1.46485 1.34765004,-1.74219 1.73437004,-1.74219 0.60156,0 0.72266,0.55469 0.72266,0.87109 0,0.28907 -0.0781,0.59375 -0.24219,1.22657 l -0.45312,1.80468 c -0.19922,0.78907 -0.58594,1.51563 -1.29297,1.51563 -0.0703,0 -0.40235004,0 -0.67969004,-0.17188 0.48047004,-0.0937 0.58594004,-0.48437 0.58594004,-0.64453 0,-0.26562 -0.19922004,-0.42187 -0.45313004,-0.42187 -0.32031,0 -0.6679700026594,0.27343 -0.6679700026594,0.69922 0,0.55078 0.6289100026594,0.80078 1.1992200426594,0.80078 0.64063,0 1.09766,-0.5 1.375,-1.03907 0.21485,0.77735 0.88281,1.03907 1.375,1.03907 1.36328,0 2.08203,-1.72657 2.08203,-2.01563 0,-0.0625 -0.0508,-0.11719 -0.13281,-0.11719 -0.12109,0 -0.13281,0.0664 -0.17187,0.17188 -0.35938,1.16016 -1.13282,1.69922 -1.73438,1.69922 -0.46875,0 -0.72266,-0.34375 -0.72266,-0.88281 0,-0.29297 0.0547,-0.5 0.26563,-1.3711 l 0.46875,-1.79297 c 0.19922,-0.78906 0.65234,-1.37109 1.26562,-1.37109 0.0312,0 0.40235,0 0.6836,0.17187"
     id="path2708" />
  <path
     fill-rule="nonzero"
     fill="#000000"
     fill-opacity="1"
     d="m 9.7773588,95.109374 c 0,-0.21875 0,-0.23828 -0.21094,-0.23828 -0.57422,0.58984 -1.39063,0.58984 -1.6875,0.58984 v 0.28125 c 0.18359,0 0.73047,0 1.21094,-0.23828 v 4.738276 c 0,0.33203 -0.0273,0.44141 -0.85938,0.44141 h -0.29687 v 0.28515 c 0.32422,-0.0273 1.1289,-0.0273 1.5,-0.0273 0.37109,0 1.1757802,0 1.5000002,0.0273 v -0.28515 h -0.29297 c -0.8359402,0 -0.8632802,-0.10157 -0.8632802,-0.44141 v -5.132806"
     id="path2710" />
</svg>
