<?xml version="1.0" encoding="UTF-8" standalone="no"?>
<svg
   width="255.11719pt"
   height="129.27344pt"
   viewBox="0 0 255.11719 129.27344"
   version="1.1"
   id="svg3676"
   xmlns="http://www.w3.org/2000/svg"
   xmlns:svg="http://www.w3.org/2000/svg">
  <defs
     id="defs458" />
  <path
     fill-rule="nonzero"
     fill="#000000"
     fill-opacity="1"
     d="m 120.04687,3.253905 h 0.54297 V 120.28124 h -0.54297 z M 118.51171,3.617185 120.32031,-5.0000001e-6 122.1289,3.617185 h -3.61719"
     id="path3448" />
  <path
     fill-rule="nonzero"
     fill="#000000"
     fill-opacity="1"
     d="M 4.351564,120.2539 H 235.34765 v 0.54297 H 4.351564 Z m 230.636716,-1.53516 3.61718,1.80469 -3.61718,1.8086 v -3.61329"
     id="path3450" />
  <path
     fill="none"
     stroke-width="0.35"
     stroke-linecap="butt"
     stroke-linejoin="miter"
     stroke="#000000"
     stroke-opacity="1"
     stroke-miterlimit="10"
     d="m 121.07812,19.156248 h 1.95313"
     id="path3452" />
  <path
     fill="none"
     stroke-width="0.35"
     stroke-linecap="butt"
     stroke-linejoin="miter"
     stroke="#000000"
     stroke-opacity="1"
     stroke-miterlimit="10"
     d="m 121.07812,69.828123 h 1.95313"
     id="path3454" />
  <path
     fill="none"
     stroke-width="0.97"
     stroke-linecap="butt"
     stroke-linejoin="miter"
     stroke="#df3224"
     stroke-opacity="1"
     stroke-miterlimit="10"
     d="m 120.97265,19.003906 h 97.60547"
     id="path3456" />
  <path
     fill="none"
     stroke-width="0.97"
     stroke-linecap="butt"
     stroke-linejoin="miter"
     stroke="#df3224"
     stroke-opacity="1"
     stroke-miterlimit="10"
     d="M 20.011715,120.22265 H 121.51952"
     id="path3458" />
  <path
     fill-rule="nonzero"
     fill="#000000"
     fill-opacity="1"
     d="m 119.78125,128.12499 c 0.30468,0.54297 0.6875,0.8125 1.14453,0.8125 0.23047,0 0.46875,-0.0898 0.71875,-0.26562 0.25,-0.17188 0.45312,-0.45703 0.61328,-0.84375 0.16015,-0.39063 0.24219,-0.86328 0.24219,-1.42188 0,-0.79296 -0.1836,-1.42578 -0.54688,-1.89062 -0.29687,-0.37109 -0.625,-0.55859 -0.99219,-0.55859 -0.22656,0 -0.44531,0.0742 -0.66015,0.22656 -0.27344,0.19531 -0.49219,0.48828 -0.65625,0.88281 -0.16407,0.39844 -0.2461,0.86719 -0.2461,1.41406 0,0.64453 0.125,1.19141 0.38282,1.64453 m 0.40234,-2.79687 c 0.0586,-0.41797 0.17578,-0.72656 0.34375,-0.92188 0.125,-0.14453 0.26953,-0.21875 0.42969,-0.21875 0.13672,0 0.2539,0.0391 0.35156,0.11719 0.13281,0.11328 0.24219,0.3086 0.32812,0.57813 0.11329,0.36328 0.16797,0.82422 0.16797,1.36718 0,0.73829 -0.0547,1.3125 -0.16015,1.71875 -0.0703,0.26563 -0.17578,0.46094 -0.3125,0.57422 -0.13672,0.11328 -0.26953,0.17188 -0.39453,0.17188 -0.26954,0 -0.46875,-0.17578 -0.60157,-0.52735 -0.16406,-0.41796 -0.24609,-0.95703 -0.24609,-1.61718 0,-0.40625 0.0312,-0.82032 0.0937,-1.24219"
     id="path3460" />
  <path
     fill-rule="nonzero"
     fill="#df3224"
     fill-opacity="1"
     d="m 186.23437,23.847655 h -0.54297 v 23.23047 h 0.54297 z m 0.8125,0.36328 -1.08594,-2.17187 -1.08203,2.17187 h 2.16797"
     id="path3462" />
  <path
     fill-rule="nonzero"
     fill="#df3224"
     fill-opacity="1"
     d="m 178.05078,56.093745 -51.16407,11.26954 0.11329,0.53125 51.16796,-11.27344 z m -50.98828,10.39844 -1.88282,1.52344 2.35157,0.59766 -0.46875,-2.1211"
     id="path3464" />
  <path
     fill-rule="nonzero"
     fill="#df3224"
     fill-opacity="1"
     d="m 181.8789,62.910155 -72.45703,53.437495 0.32422,0.4375 72.45312,-53.441405 z m -72.64844,52.566405 -1.10156,2.16406 2.39063,-0.41797 -1.28907,-1.74609"
     id="path3466" />
  <path
     fill-rule="nonzero"
     fill="#000000"
     fill-opacity="1"
     d="m 174.89843,124.05468 -0.92187,1.86328 c 0.4414,0.0156 0.79297,0.0781 1.05078,0.1836 0.32812,0.14062 0.58594,0.33203 0.77344,0.58203 0.1875,0.25 0.27734,0.52344 0.27734,0.8125 0,0.30078 -0.10156,0.55469 -0.3125,0.76172 -0.21094,0.21093 -0.45312,0.3164 -0.72656,0.3164 -0.17969,0 -0.36328,-0.0625 -0.53906,-0.1875 -0.10938,-0.0781 -0.1875,-0.125 -0.23438,-0.14453 l -0.16016,-0.0273 -0.20703,0.0742 -0.082,0.17578 c 0,0.11719 0.0664,0.22656 0.19922,0.32422 0.12891,0.0976 0.33984,0.14843 0.625,0.14843 0.28516,0 0.56641,-0.0664 0.83594,-0.19531 0.1914,-0.0937 0.36328,-0.21094 0.51953,-0.36328 0.15625,-0.15234 0.28516,-0.33594 0.38672,-0.55078 0.10547,-0.21484 0.15625,-0.44531 0.15625,-0.69922 0,-0.43359 -0.16016,-0.8125 -0.46875,-1.13281 -0.36719,-0.3711 -0.86328,-0.60547 -1.48828,-0.69531 l 0.3164,-0.64454 h 1.44141 l 0.27734,-0.60155 h -1.71875"
     id="path3468" />
  <path
     fill="none"
     stroke-width="0.35"
     stroke-linecap="butt"
     stroke-linejoin="miter"
     stroke="#000000"
     stroke-opacity="1"
     stroke-miterlimit="10"
     d="m 221.51563,119.98829 v -1.69532"
     id="path3470" />
  <path
     fill="none"
     stroke-width="0.35"
     stroke-linecap="butt"
     stroke-linejoin="miter"
     stroke="#000000"
     stroke-opacity="1"
     stroke-miterlimit="10"
     d="m 174.70313,120.11719 v -1.69531"
     id="path3472" />
  <path
     fill-rule="nonzero"
     fill="#000000"
     fill-opacity="1"
     d="m 218.72265,124.63281 c 0.15625,-0.0703 0.27735,-0.10938 0.36719,-0.10938 l 0.15625,0.0547 0.0898,0.16797 c 0.0234,0.0977 0.0352,0.32031 0.0352,0.67187 v 2.58985 c 0,0.28515 -0.0117,0.46093 -0.0391,0.51562 l -0.13672,0.14063 c -0.0664,0.0312 -0.21485,0.0508 -0.44141,0.0586 v 0.12891 h 1.80473 v -0.12891 c -0.21484,-0.008 -0.35938,-0.0273 -0.42969,-0.0625 l -0.14062,-0.15234 c -0.0234,-0.0664 -0.0352,-0.23438 -0.0352,-0.5 v -4.05078 h -0.11328 l -1.16797,0.5664 z m 3.39063,3.49218 c 0.30468,0.54297 0.68359,0.8125 1.14062,0.8125 0.23438,0 0.47266,-0.0898 0.72266,-0.26562 0.24609,-0.17578 0.45312,-0.45703 0.61328,-0.84766 0.16016,-0.38672 0.24219,-0.85937 0.24219,-1.41797 0,-0.79296 -0.1836,-1.42578 -0.55078,-1.88671 -0.28907,-0.37891 -0.6211,-0.5625 -0.98829,-0.5625 -0.22656,0 -0.44921,0.0742 -0.66015,0.22656 -0.27344,0.19531 -0.49219,0.48828 -0.65625,0.88672 -0.16406,0.39453 -0.25,0.86328 -0.25,1.41015 0,0.64453 0.1289,1.19141 0.38672,1.64453 m 0.39843,-2.79687 c 0.0625,-0.41797 0.17969,-0.72656 0.35157,-0.92188 0.12109,-0.14453 0.26562,-0.21875 0.42578,-0.21875 0.13672,0 0.2539,0.0391 0.34765,0.11719 0.13672,0.11328 0.2461,0.3086 0.32813,0.57813 0.11719,0.36718 0.17187,0.82031 0.17187,1.36718 0,0.73829 -0.0547,1.3125 -0.16406,1.71875 -0.0703,0.26563 -0.17187,0.46094 -0.30859,0.57422 -0.13672,0.11328 -0.26953,0.16797 -0.39844,0.16797 -0.26562,0 -0.46484,-0.17187 -0.59766,-0.52344 -0.16406,-0.41796 -0.24609,-0.95703 -0.24609,-1.61718 0,-0.40625 0.0312,-0.82032 0.0898,-1.24219"
     id="path3474" />
  <path
     fill="none"
     stroke-width="0.97"
     stroke-linecap="butt"
     stroke-linejoin="miter"
     stroke="#000000"
     stroke-opacity="1"
     stroke-miterlimit="10"
     d="m 214.64063,20.832028 c -26.75391,0.191406 -40.48438,-1.179688 -54.26172,3.421875 -13.77344,4.597656 -22.97656,16.113281 -28.39844,24.183594 -5.42578,8.074218 -7.21875,14.523437 -10.58984,21.476562 -3.3711,6.953125 -4.25391,12.703125 -9.62891,20.222656 -5.3711,7.523438 -11.953126,17.898435 -22.621096,22.523435 -10.67187,4.61719 -31.53515,4.60938 -41.39453,5.21094 -9.86328,0.60156 -9.53125,0.16406 -24.13281,0.39844"
     id="path3476" />
  <path
     fill="none"
     stroke-width="0.35"
     stroke-linecap="butt"
     stroke-linejoin="miter"
     stroke="#000000"
     stroke-opacity="1"
     stroke-miterlimit="10"
     d="m 66.457028,120.60157 v -1.39844"
     id="path3478" />
  <path
     fill="none"
     stroke-width="0.35"
     stroke-linecap="butt"
     stroke-linejoin="miter"
     stroke="#000000"
     stroke-opacity="1"
     stroke-miterlimit="10"
     d="m 6.1093707,120.67969 v -1.69531"
     id="path3480" />
  <path
     fill-rule="evenodd"
     fill="#df3224"
     fill-opacity="1"
     d="m 118.82421,69.960935 c 0,-1.07812 0.875,-1.95312 1.95313,-1.95312 1.07812,0 1.95312,0.875 1.95312,1.95312 0,1.07813 -0.875,1.94922 -1.95312,1.94922 -1.07813,0 -1.95313,-0.87109 -1.95313,-1.94922"
     id="path3482" />
  <path
     fill="none"
     stroke-width="0.35"
     stroke-linecap="butt"
     stroke-linejoin="miter"
     stroke="#df3224"
     stroke-opacity="1"
     stroke-miterlimit="10"
     d="m 118.82422,69.960941 c 0,-1.078125 0.875,-1.953125 1.95312,-1.953125 1.07813,0 1.95313,0.875 1.95313,1.953125 0,1.078125 -0.875,1.949219 -1.95313,1.949219 -1.07812,0 -1.95312,-0.871094 -1.95312,-1.949219 z m 0,0"
     id="path3484" />
  <path
     fill-rule="nonzero"
     fill="#000000"
     fill-opacity="1"
     d="m 67.691404,89.378905 24.14453,19.124995 -0.33984,0.42578 -24.14453,-19.124995 z m 24.36328,18.265625 1.02735,2.19531 -2.3711,-0.4961 1.34375,-1.69921"
     id="path3486" />
  <path
     fill-rule="nonzero"
     fill="#000000"
     fill-opacity="1"
     d="m 4e-6,126.58593 h 3.8125 v -0.28906 H 4e-6 Z m 0,0"
     id="path3488" />
  <path
     fill-rule="nonzero"
     fill="#000000"
     fill-opacity="1"
     d="m 4.859374,124.63281 c 0.15625,-0.0703 0.27734,-0.10938 0.36328,-0.10938 l 0.16016,0.0547 0.0859,0.16797 c 0.0273,0.0977 0.0391,0.32031 0.0391,0.67187 v 2.58985 c 0,0.28515 -0.0156,0.46093 -0.0391,0.51562 l -0.13672,0.14063 c -0.0664,0.0312 -0.21485,0.0508 -0.44141,0.0586 v 0.12891 h 1.80469 v -0.12891 c -0.21485,-0.008 -0.35938,-0.0273 -0.4336,-0.0625 l -0.13671,-0.15234 c -0.0234,-0.0664 -0.0352,-0.23438 -0.0352,-0.5 v -4.05078 h -0.11719 l -1.16406,0.5664 z m 3.39063,3.49218 c 0.30468,0.54297 0.68359,0.8125 1.14453,0.8125 0.23047,0 0.46875,-0.0898 0.71875,-0.26562 0.24609,-0.17578 0.45312,-0.45703 0.61328,-0.84766 0.16015,-0.38672 0.23828,-0.85937 0.23828,-1.41797 0,-0.79296 -0.17969,-1.42578 -0.54688,-1.88671 -0.29296,-0.37891 -0.62109,-0.5625 -0.99218,-0.5625 -0.22657,0 -0.44532,0.0742 -0.65625,0.22656 -0.27344,0.19531 -0.49219,0.48828 -0.66016,0.88672 -0.16406,0.39453 -0.24609,0.86328 -0.24609,1.41015 0,0.64453 0.1289,1.19141 0.38672,1.64453 m 0.39843,-2.79687 c 0.0625,-0.41797 0.17969,-0.72656 0.34766,-0.92188 0.125,-0.14453 0.26562,-0.21875 0.42578,-0.21875 0.14063,0 0.25391,0.0391 0.35156,0.11719 0.13672,0.11328 0.2461,0.3086 0.33203,0.57813 0.10938,0.36718 0.16797,0.82031 0.16797,1.36718 0,0.73829 -0.0547,1.3125 -0.16406,1.71875 -0.0703,0.26563 -0.17187,0.46094 -0.3125,0.57422 -0.13672,0.11328 -0.26562,0.16797 -0.39453,0.16797 -0.26563,0 -0.46484,-0.17187 -0.60156,-0.52344 -0.16407,-0.41796 -0.24219,-0.95703 -0.24219,-1.61718 0,-0.40625 0.0312,-0.82032 0.0898,-1.24219"
     id="path3490" />
  <path
     fill-rule="nonzero"
     fill="#000000"
     fill-opacity="1"
     d="m 106.99609,72.031245 c 0.30078,0.53907 0.68359,0.8086 1.14062,0.8086 0.23047,0 0.47266,-0.0898 0.71875,-0.26172 0.25,-0.17969 0.45704,-0.46094 0.61329,-0.85156 0.16015,-0.38672 0.24218,-0.85938 0.24218,-1.41797 0,-0.79297 -0.18359,-1.42188 -0.54687,-1.88672 -0.29297,-0.375 -0.625,-0.5625 -0.99219,-0.5625 -0.22656,0 -0.44531,0.0742 -0.65625,0.23047 -0.27344,0.1914 -0.49609,0.48828 -0.66016,0.8789 -0.16406,0.39844 -0.24609,0.86719 -0.24609,1.41407 0,0.64062 0.12891,1.1914 0.38672,1.64843 m 0.39844,-2.80078 c 0.0625,-0.41797 0.17578,-0.72656 0.34765,-0.92187 0.125,-0.14453 0.26563,-0.21875 0.42578,-0.21875 0.13672,0 0.25391,0.043 0.35157,0.12109 0.13281,0.11328 0.24218,0.30469 0.32812,0.57422 0.11328,0.36328 0.17188,0.82422 0.17188,1.37109 0,0.73438 -0.0586,1.3086 -0.16407,1.71485 -0.0703,0.26953 -0.17578,0.46094 -0.3125,0.57422 -0.13671,0.11328 -0.26953,0.17187 -0.39453,0.17187 -0.26953,0 -0.46875,-0.17578 -0.60156,-0.52734 -0.16406,-0.41797 -0.24609,-0.95703 -0.24609,-1.61719 0,-0.40625 0.0312,-0.82031 0.0937,-1.24219 m 3.20312,2.94922 c -0.0781,0.0781 -0.11328,0.17188 -0.11328,0.28125 0,0.10938 0.0352,0.20313 0.11328,0.27735 0.0742,0.0781 0.16797,0.11328 0.27735,0.11328 0.10937,0 0.20312,-0.0352 0.27734,-0.11328 0.0781,-0.0742 0.11719,-0.16797 0.11719,-0.27735 0,-0.10937 -0.0391,-0.20312 -0.11328,-0.27734 -0.0781,-0.0781 -0.17188,-0.11328 -0.28125,-0.11328 -0.10938,0 -0.20313,0.0351 -0.27735,0.10937 m 2.63281,-4.22265 -0.92187,1.86328 c 0.44141,0.0195 0.79297,0.0781 1.05078,0.1875 0.32813,0.13281 0.58594,0.32812 0.76953,0.58203 0.1875,0.25 0.28125,0.51953 0.28125,0.80859 0,0.30078 -0.10547,0.55469 -0.3125,0.76563 -0.21094,0.20703 -0.45312,0.3125 -0.72656,0.3125 -0.18359,0 -0.36328,-0.0625 -0.53906,-0.1836 -0.11328,-0.0781 -0.1875,-0.1289 -0.23438,-0.14843 l -0.16015,-0.0274 -0.20704,0.0781 -0.082,0.17578 c 0,0.11719 0.0664,0.22265 0.19532,0.32031 0.13281,0.10156 0.34375,0.14844 0.6289,0.14844 0.28516,0 0.56641,-0.0664 0.83594,-0.19531 0.19141,-0.0937 0.36328,-0.21485 0.51953,-0.36329 0.15625,-0.15234 0.28516,-0.33593 0.38672,-0.55078 0.10547,-0.21484 0.15625,-0.44531 0.15625,-0.69922 0,-0.43359 -0.16016,-0.8125 -0.47266,-1.13281 -0.36328,-0.37109 -0.85937,-0.60156 -1.48437,-0.69531 l 0.3164,-0.64453 h 1.44141 l 0.27734,-0.60156 h -1.71875"
     id="path3492" />
  <path
     fill-rule="nonzero"
     fill="#000000"
     fill-opacity="1"
     d="m 110.46093,16.929685 c 0.15625,-0.0742 0.27735,-0.10937 0.36328,-0.10937 l 0.16016,0.0508 0.0898,0.16797 c 0.0234,0.0976 0.0352,0.32422 0.0352,0.67187 v 2.59375 c 0,0.28906 -0.0156,0.46094 -0.0391,0.51953 l -0.14063,0.13672 c -0.0625,0.0352 -0.21093,0.0547 -0.4375,0.0586 v 0.13281 h 1.80469 v -0.13281 c -0.21484,-0.004 -0.35937,-0.0234 -0.42969,-0.0586 l -0.14062,-0.15234 c -0.0195,-0.0664 -0.0312,-0.23438 -0.0312,-0.50391 v -4.05469 h -0.11719 l -1.17187,0.57032 0.0547,0.10937"
     id="path3494" />
  <path
     fill-rule="nonzero"
     fill="#000000"
     fill-opacity="1"
     d="m 62.640624,126.92187 h 3.8125 v -0.28906 h -3.8125 z m 0,0"
     id="path3496" />
  <path
     fill-rule="nonzero"
     fill="#000000"
     fill-opacity="1"
     d="m 68.011714,124.39062 -0.91796,1.86328 c 0.44531,0.0156 0.79296,0.0781 1.05078,0.18359 0.32812,0.13672 0.58593,0.33204 0.76953,0.58204 0.1875,0.2539 0.28125,0.52343 0.28125,0.8125 0,0.30078 -0.10547,0.55468 -0.3125,0.76171 -0.21094,0.21094 -0.45313,0.31641 -0.72656,0.31641 -0.1836,0 -0.36329,-0.0625 -0.53907,-0.1875 -0.10937,-0.0742 -0.1875,-0.125 -0.23437,-0.14453 l -0.16016,-0.0273 -0.20703,0.0742 -0.082,0.17579 c 0,0.11718 0.0664,0.22656 0.19531,0.32421 0.13281,0.0977 0.34375,0.14844 0.62891,0.14844 0.28515,0 0.5664,-0.0664 0.83594,-0.1953 0.1914,-0.0937 0.36328,-0.21095 0.51953,-0.36329 0.15625,-0.15234 0.28515,-0.33594 0.38672,-0.55078 0.10546,-0.21484 0.15625,-0.44532 0.15625,-0.69921 0,-0.4336 -0.15625,-0.8125 -0.47266,-1.13281 -0.36328,-0.3711 -0.85938,-0.60547 -1.48438,-0.69532 l 0.3125,-0.64454 h 1.44532 l 0.27734,-0.60155 h -1.72266"
     id="path3498" />
  <path
     fill-rule="nonzero"
     fill="#000000"
     fill-opacity="1"
     d="m 36.316404,79.535155 c -0.27344,0.37891 -0.66797,0.71875 -1.16015,0.71875 -0.1211,0 -0.60547,-0.0195 -0.75782,-0.48047 l 0.10157,0.0117 c 0.30078,0 0.5039,-0.26172 0.5039,-0.49219 0,-0.23047 -0.1914,-0.30859 -0.34375,-0.30859 -0.16015,0 -0.51172,0.12109 -0.51172,0.60937 0,0.51172 0.4336,0.86329 1.00782,0.86329 1.00781,0 2.02734,-0.92188 2.30859,-2.03516 l 0.98828,-3.90234 0.0273,-0.16797 c 0,-0.15235 -0.12109,-0.25 -0.26953,-0.25 -0.0898,0 -0.30468,0.0391 -0.38281,0.33984 l -0.74609,2.94141 c -0.0508,0.17968 -0.0508,0.19922 -0.13282,0.3125 -0.19921,0.27734 -0.53515,0.61718 -1.01562,0.61718 -0.56641,0 -0.61719,-0.55078 -0.61719,-0.82031 0,-0.57031 0.27344,-1.33984 0.54297,-2.05859 0.11328,-0.29297 0.17188,-0.4336 0.17188,-0.63281 0,-0.41797 -0.30079,-0.80079 -0.79688,-0.80079 -0.92578,0 -1.29687,1.45313 -1.29687,1.53125 l 0.10937,0.0898 c 0.0898,0 0.10156,-0.0391 0.14063,-0.17578 0.24218,-0.84375 0.625,-1.2461 1.01953,-1.2461 0.0898,0 0.26172,0 0.26172,0.33203 0,0.26172 -0.10938,0.55079 -0.26172,0.92969 -0.4961,1.3125 -0.4961,1.64063 -0.4961,1.88281 0,0.94922 0.6875,1.16797 1.19141,1.16797 0.29297,0 0.65234,-0.0898 1.00781,-0.45703 l 0.008,0.008 c -0.14843,0.58985 -0.25,0.98047 -0.60156,1.47266"
     id="path3500" />
  <path
     fill-rule="nonzero"
     fill="#000000"
     fill-opacity="1"
     d="m 48.121094,75.203125 c 0.15234,0 0.30078,0 0.30078,-0.17188 0,-0.17968 -0.17187,-0.17968 -0.34375,-0.17968 h -5.63281 c -0.17188,0 -0.34375,0 -0.34375,0.17968 0,0.17188 0.15234,0.17188 0.30469,0.17188 z m -0.043,1.78125 c 0.17188,0 0.34375,0 0.34375,-0.18359 0,-0.16797 -0.14844,-0.16797 -0.30078,-0.16797 h -5.71484 c -0.15235,0 -0.30469,0 -0.30469,0.16797 0,0.18359 0.17187,0.18359 0.34375,0.18359 h 5.63281"
     id="path3502" />
  <path
     fill-rule="nonzero"
     fill="#000000"
     fill-opacity="1"
     d="m 68.484374,65.249995 c 0,-0.20703 -0.0117,-0.21875 -0.14844,-0.21875 -0.39453,0.46875 -0.99218,0.6211 -1.55468,0.64063 l -0.0898,0.0195 c -0.0117,0.0195 -0.0117,0.0391 -0.0117,0.25 0.3125,0 0.83594,-0.0625 1.24219,-0.30078 v 5.27344 c 0,0.35156 -0.0195,0.46875 -0.89062,0.46875 h -0.30079 v 0.26172 c 0.48438,-0.008 0.98829,-0.0195 1.47266,-0.0195 0.48047,0 0.98828,0.0117 1.47266,0.0195 v -0.26172 h -0.30469 c -0.86719,0 -0.88672,-0.10547 -0.88672,-0.46875 v -5.66407"
     id="path3504" />
  <path
     fill-rule="nonzero"
     fill="#000000"
     fill-opacity="1"
     d="m 52.179684,76.113285 h 31.8711 v -0.40235 h -31.8711 z m 0,0"
     id="path3506" />
  <path
     fill-rule="nonzero"
     fill="#000000"
     fill-opacity="1"
     d="m 54.859374,78.882815 c 0,-0.20703 -0.008,-0.21875 -0.14844,-0.21875 -0.39453,0.46875 -0.98828,0.62109 -1.55468,0.64062 l -0.0898,0.0195 c -0.008,0.0195 -0.008,0.0391 -0.008,0.25 0.30859,0 0.83594,-0.0625 1.23828,-0.30078 v 5.27344 c 0,0.35156 -0.0195,0.46875 -0.88672,0.46875 h -0.30469 v 0.26172 c 0.48438,-0.008 0.98829,-0.0195 1.47266,-0.0195 0.48438,0 0.98828,0.0117 1.47266,0.0195 v -0.26172 h -0.30078 c -0.86719,0 -0.89063,-0.10938 -0.89063,-0.46875 v -5.66406"
     id="path3508" />
  <path
     fill-rule="nonzero"
     fill="#000000"
     fill-opacity="1"
     d="m 62.843754,82.957035 h 2.67187 c 0.14063,0 0.3125,0 0.3125,-0.17188 0,-0.17969 -0.16406,-0.17969 -0.3125,-0.17969 h -2.67187 v -2.65234 c 0,-0.14063 0,-0.30859 -0.17188,-0.30859 -0.17969,0 -0.17969,0.16015 -0.17969,0.30859 v 2.65234 h -2.67187 c -0.14453,0 -0.31641,0 -0.31641,0.17188 0,0.17969 0.16406,0.17969 0.31641,0.17969 h 2.67187 v 2.64843 c 0,0.14063 0,0.3125 0.16797,0.3125 0.1836,0 0.1836,-0.16015 0.1836,-0.3125 v -2.64843"
     id="path3510" />
  <path
     fill-rule="nonzero"
     fill="#000000"
     fill-opacity="1"
     d="m 70.343754,82.957035 c 0.27343,0 0.95703,-0.0195 1.4414,-0.20313 0.76563,-0.28906 0.83594,-0.87109 0.83594,-1.04687 0,-0.44141 -0.38281,-0.84375 -1.04688,-0.84375 -1.05859,0 -2.58203,0.94921 -2.58203,2.73437 0,1.04688 0.60547,1.78125 1.52344,1.78125 1.37109,0 2.23828,-1.0625 2.23828,-1.19141 l -0.10156,-0.10937 -0.13281,0.0977 c -0.64063,0.85156 -1.60157,1 -1.98438,1 -0.57422,0 -0.8789,-0.44922 -0.8789,-1.1875 0,-0.14063 0,-0.39063 0.15234,-1.03125 z m -0.48438,-0.20313 c 0.43359,-1.53906 1.39063,-1.6875 1.71484,-1.6875 0.44141,0 0.7461,0.25781 0.7461,0.64063 0,1.04687 -1.61719,1.04687 -2.03906,1.04687 h -0.42188"
     id="path3512" />
  <path
     fill-rule="nonzero"
     fill="#000000"
     fill-opacity="1"
     d="m 78.652344,80.468745 c 0.14062,0 0.29297,0 0.29297,-0.16796 0,-0.16797 -0.15235,-0.16797 -0.29297,-0.16797 h -4.54688 c -0.14453,0 -0.29296,0 -0.29296,0.16797 0,0.16796 0.14843,0.16796 0.29296,0.16796 h 4.54688"
     id="path3514" />
  <path
     fill-rule="nonzero"
     fill="#000000"
     fill-opacity="1"
     d="m 80.718754,81.710935 c 0.35937,-0.41015 0.65234,-0.66797 1.07421,-1.04297 0.50391,-0.43359 0.72266,-0.64062 0.83985,-0.76562 0.58984,-0.57813 0.88281,-1.0625 0.88281,-1.125 l -0.0859,-0.0703 -0.11718,0.0937 c -0.20704,0.35546 -0.41016,0.53125 -0.62891,0.53125 -0.17578,0 -0.26953,-0.0742 -0.42969,-0.27344 -0.17578,-0.20703 -0.32031,-0.35156 -0.5625,-0.35156 -0.61328,0 -0.98437,0.76171 -0.98437,0.93359 l 0.0859,0.0742 0.10157,-0.0898 c 0.14453,-0.33203 0.54687,-0.39453 0.70312,-0.39453 0.17578,0 0.34766,0.0625 0.52344,0.13672 0.32031,0.13281 0.45312,0.13281 0.53906,0.13281 l 0.13281,-0.008 c -0.27734,0.32422 -0.73046,0.72266 -1.10937,1.06641 l -0.84766,0.77734 c -0.51172,0.51563 -0.82422,1.00781 -0.82422,1.06641 l 0.0937,0.0664 0.11719,-0.10546 c 0.13281,-0.21094 0.40235,-0.51954 0.71094,-0.51954 0.17969,0 0.26172,0.0586 0.42969,0.26563 0.16015,0.18359 0.30468,0.35937 0.57031,0.35937 0.82422,0 1.29687,-1.05859 1.29687,-1.25 l -0.0937,-0.082 -0.10156,0.11328 c -0.18359,0.49219 -0.67969,0.69532 -1.00781,0.69532 -0.17578,0 -0.34375,-0.0586 -0.51953,-0.13672 -0.33594,-0.13281 -0.42969,-0.13281 -0.53906,-0.13281 l -0.25,0.0351"
     id="path3516" />
  <path
     fill-rule="nonzero"
     fill="#000000"
     fill-opacity="1"
     d="m 232.23828,127.93749 c 0.41015,-0.46093 0.74218,-0.7539 1.21875,-1.17968 0.57422,-0.48828 0.82031,-0.72266 0.95312,-0.86328 0.66797,-0.65235 1,-1.19922 1,-1.27344 l -0.0937,-0.0781 -0.13281,0.10547 c -0.23828,0.40625 -0.46875,0.60547 -0.71484,0.60547 -0.20313,0 -0.30469,-0.0859 -0.48438,-0.3125 -0.20312,-0.23437 -0.36719,-0.39844 -0.64062,-0.39844 -0.69532,0 -1.11719,0.85938 -1.11719,1.0586 l 0.0976,0.082 0.11329,-0.10156 c 0.16015,-0.37891 0.61718,-0.44532 0.80078,-0.44532 0.19922,0 0.39062,0.0664 0.59375,0.15235 0.35937,0.14843 0.51172,0.14843 0.60937,0.14843 l 0.14844,-0.008 c -0.3125,0.36719 -0.82813,0.82031 -1.25781,1.20703 l -0.96094,0.87891 c -0.58203,0.58203 -0.93359,1.14062 -0.93359,1.20312 l 0.10546,0.0781 c 0.0547,0 0.0664,-0.0117 0.13282,-0.125 0.15234,-0.23438 0.45703,-0.58203 0.80859,-0.58203 0.19922,0 0.29688,0.0625 0.48828,0.30078 0.17969,0.20703 0.34375,0.40625 0.64453,0.40625 0.9375,0 1.46875,-1.19922 1.46875,-1.41406 l -0.10156,-0.0937 -0.11719,0.13281 c -0.20703,0.55469 -0.76953,0.78125 -1.14062,0.78125 -0.20313,0 -0.39453,-0.0664 -0.59375,-0.15234 -0.37891,-0.14844 -0.48438,-0.14844 -0.60938,-0.14844 l -0.28515,0.0352"
     id="path3518" />
  <path
     fill-rule="nonzero"
     fill="#000000"
     fill-opacity="1"
     d="m 111.64062,7.574215 c -0.25781,0.36719 -0.62891,0.69532 -1.09375,0.69532 -0.11328,0 -0.57031,-0.0195 -0.71484,-0.46485 l 0.0976,0.0117 c 0.28516,0 0.47657,-0.25 0.47657,-0.47266 0,-0.22265 -0.17969,-0.30078 -0.32422,-0.30078 -0.15235,0 -0.48438,0.11719 -0.48438,0.58985 0,0.49218 0.40625,0.82812 0.94922,0.82812 0.95313,0 1.91016,-0.88672 2.17969,-1.95703 l 0.93359,-3.75781 0.0274,-0.16406 c 0,-0.14454 -0.11329,-0.23829 -0.25782,-0.23829 -0.0859,0 -0.28515,0.0352 -0.36328,0.32422 l -0.70312,2.83594 c -0.0469,0.17188 -0.0469,0.19141 -0.1211,0.29688 -0.1914,0.26953 -0.5039,0.59765 -0.96093,0.59765 -0.53516,0 -0.58204,-0.53125 -0.58204,-0.78906 0,-0.55078 0.25782,-1.29297 0.51563,-1.98438 0.10547,-0.28125 0.16016,-0.41406 0.16016,-0.60937 0,-0.40234 -0.28516,-0.76953 -0.75,-0.76953 -0.875,0 -1.22657,1.39844 -1.22657,1.47265 l 0.10157,0.0899 c 0.0859,0 0.0976,-0.043 0.13281,-0.17578 0.23047,-0.8086 0.59375,-1.19532 0.96094,-1.19532 0.0859,0 0.25,0 0.25,0.32032 0,0.25 -0.10547,0.52734 -0.25,0.89453 -0.46485,1.26172 -0.46485,1.58203 -0.46485,1.8125 0,0.91406 0.64844,1.1289 1.1211,1.1289 0.27734,0 0.62109,-0.0898 0.95312,-0.44531 l 0.008,0.0117 c -0.14062,0.56641 -0.23828,0.94141 -0.57031,1.41406"
     id="path3520" />
  <path
     fill-rule="nonzero"
     fill="#df3224"
     fill-opacity="1"
     d="m 185.74609,58.406245 c -0.25391,0.35157 -0.61719,0.66797 -1.07422,0.66797 -0.10937,0 -0.55859,-0.0195 -0.69922,-0.44531 l 0.0937,0.008 c 0.28125,0 0.46875,-0.24218 0.46875,-0.45312 0,-0.21485 -0.17578,-0.28906 -0.32031,-0.28906 -0.14844,0 -0.47266,0.11328 -0.47266,0.5664 0,0.47266 0.39844,0.79688 0.92969,0.79688 0.93359,0 1.87109,-0.85157 2.13281,-1.88282 l 0.91407,-3.61718 0.0273,-0.15625 c 0,-0.14063 -0.11328,-0.23047 -0.25,-0.23047 -0.0859,0 -0.28125,0.0352 -0.35547,0.3164 l -0.6875,2.72266 c -0.0469,0.16797 -0.0469,0.1875 -0.12109,0.28906 -0.1875,0.25782 -0.4961,0.57422 -0.94141,0.57422 -0.51953,0 -0.56641,-0.51172 -0.56641,-0.76172 0,-0.52734 0.25,-1.24218 0.5,-1.90625 0.10157,-0.27343 0.16016,-0.40234 0.16016,-0.58593 0,-0.39063 -0.28125,-0.74219 -0.73828,-0.74219 -0.85547,0 -1.19922,1.34375 -1.19922,1.41797 l 0.10547,0.082 c 0.082,0 0.0898,-0.0352 0.12891,-0.16406 0.22265,-0.77735 0.57812,-1.15235 0.9375,-1.15235 0.0859,0 0.24218,0 0.24218,0.3086 0,0.23828 -0.10156,0.51171 -0.24218,0.86328 -0.45313,1.21093 -0.45313,1.51953 -0.45313,1.74218 0,0.87891 0.63281,1.08594 1.09766,1.08594 0.26953,0 0.60156,-0.0859 0.92968,-0.42969 l 0.008,0.0117 c -0.13672,0.54688 -0.23047,0.90625 -0.55469,1.36328"
     id="path3522" />
  <path
     fill-rule="nonzero"
     fill="#df3224"
     fill-opacity="1"
     d="m 196.94531,54.363285 c 0.1289,0 0.29687,0 0.29687,-0.16797 0,-0.17578 -0.16015,-0.17578 -0.29687,-0.17578 h -5.48438 c -0.1289,0 -0.29687,0 -0.29687,0.16406 0,0.17969 0.15625,0.17969 0.29687,0.17969 z m 0,1.72265 c 0.1289,0 0.29687,0 0.29687,-0.16797 0,-0.17578 -0.16015,-0.17578 -0.29687,-0.17578 h -5.48438 c -0.1289,0 -0.29687,0 -0.29687,0.16797 0,0.17578 0.15625,0.17578 0.29687,0.17578 h 5.48438"
     id="path3524" />
  <path
     fill-rule="nonzero"
     fill="#df3224"
     fill-opacity="1"
     d="m 205.02734,39.777345 c 0,-0.76172 0.20703,-2.53125 1.86328,-3.69922 0.11719,-0.0898 0.12891,-0.10156 0.12891,-0.26953 0,-0.21094 -0.0117,-0.21875 -0.24219,-0.21875 h -0.14844 c -2,1.07031 -2.71875,2.82422 -2.71875,4.1875 v 3.98828 c 0,0.24219 0.008,0.25 0.26172,0.25 h 0.59375 c 0.25391,0 0.26172,-0.008 0.26172,-0.25 v -3.98828"
     id="path3526" />
  <path
     fill-rule="nonzero"
     fill="#df3224"
     fill-opacity="1"
     d="m 205.02734,44.078125 c 0,-0.23828 -0.008,-0.24609 -0.26172,-0.24609 h -0.59375 c -0.25391,0 -0.26172,0.008 -0.26172,0.24609 v 2.46875 c 0,0.23828 0.008,0.25 0.26172,0.25 h 0.59375 c 0.25391,0 0.26172,-0.0117 0.26172,-0.25 v -2.46875"
     id="path3528" />
  <path
     fill-rule="nonzero"
     fill="#df3224"
     fill-opacity="1"
     d="m 203.91015,63.234375 c 0,0.24219 0.008,0.25 0.26172,0.25 h 0.59766 c 0.25,0 0.25781,-0.008 0.25781,-0.25 v -3.91016 c 0,-1.12109 -0.47266,-3.01562 -2.5625,-4.27734 2.10547,-1.26953 2.5625,-3.17969 2.5625,-4.27344 v -3.91015 c 0,-0.24219 -0.008,-0.25 -0.25781,-0.25 h -0.59766 c -0.25391,0 -0.26172,0.008 -0.26172,0.25 v 3.91796 c 0,0.78125 -0.16406,2.71094 -1.8789,4.00782 -0.10157,0.082 -0.11329,0.0937 -0.11329,0.25781 0,0.16797 0.0117,0.17578 0.11329,0.26172 0.24218,0.18359 0.88281,0.67578 1.32812,1.61328 0.36328,0.74219 0.55078,1.56641 0.55078,2.39062 v 3.92188"
     id="path3530" />
  <path
     fill-rule="nonzero"
     fill="#df3224"
     fill-opacity="1"
     d="m 205.02734,63.550785 c 0,-0.24219 -0.008,-0.25 -0.26172,-0.25 h -0.59375 c -0.25391,0 -0.26172,0.008 -0.26172,0.25 v 2.46484 c 0,0.24219 0.008,0.25391 0.26172,0.25391 h 0.59375 c 0.25391,0 0.26172,-0.0117 0.26172,-0.25391 v -2.46484"
     id="path3532" />
  <path
     fill-rule="nonzero"
     fill="#df3224"
     fill-opacity="1"
     d="m 206.77734,74.507815 c 0.23047,0 0.24219,-0.008 0.24219,-0.22266 0,-0.16406 -0.0117,-0.17187 -0.0469,-0.20312 -0.28906,-0.21094 -0.95703,-0.6836 -1.39453,-1.53907 -0.36719,-0.70312 -0.55078,-1.41797 -0.55078,-2.22265 v -3.98828 c 0,-0.24219 -0.008,-0.25 -0.26172,-0.25 h -0.59375 c -0.25391,0 -0.26172,0.008 -0.26172,0.25 v 3.98828 c 0,1.37109 0.71875,3.125 2.71875,4.1875 h 0.14844"
     id="path3534" />
  <path
     fill-rule="nonzero"
     fill="#df3224"
     fill-opacity="1"
     d="m 211.29296,37.976565 c 0,-0.21485 0,-0.21875 -0.1875,-0.21875 -0.22265,0.25 -0.6875,0.58984 -1.64843,0.58984 v 0.26953 c 0.21484,0 0.67968,0 1.19531,-0.23828 v 4.82813 c 0,0.33593 -0.0312,0.44531 -0.85156,0.44531 h -0.28516 v 0.26953 c 0.25,-0.0156 1.15234,-0.0156 1.46094,-0.0156 0.30469,0 1.19922,0 1.45312,0.0156 v -0.26953 h -0.28906 c -0.82031,0 -0.84766,-0.10938 -0.84766,-0.44531 v -5.23047"
     id="path3536" />
  <path
     fill-rule="nonzero"
     fill="#df3224"
     fill-opacity="1"
     d="m 214.98437,43.960935 c 0,-0.53906 -0.17578,-0.9375 -0.55859,-0.9375 -0.29688,0 -0.44532,0.24219 -0.44532,0.44531 0,0.20313 0.14063,0.45313 0.45313,0.45313 0.12109,0 0.22656,-0.0391 0.30859,-0.12109 l 0.0391,-0.0195 0.0156,0.17969 c 0,0.30469 -0.0547,0.90625 -0.59375,1.51172 -0.10156,0.10938 -0.10156,0.12891 -0.10156,0.14453 l 0.0937,0.0937 c 0.0703,0 0.78906,-0.68359 0.78906,-1.75"
     id="path3538" />
  <path
     fill-rule="nonzero"
     fill="#df3224"
     fill-opacity="1"
     d="m 233.08984,43.171875 c 0.39844,-0.45703 0.72266,-0.74219 1.19141,-1.16016 0.55468,-0.48047 0.80078,-0.71093 0.92968,-0.85156 0.65235,-0.64062 0.98047,-1.17969 0.98047,-1.25 l -0.0976,-0.0781 -0.12891,0.10546 c -0.23438,0.39844 -0.45703,0.59375 -0.70313,0.59375 -0.1914,0 -0.29296,-0.0859 -0.46875,-0.30859 -0.19921,-0.23047 -0.35546,-0.39062 -0.625,-0.39062 -0.67968,0 -1.08984,0.84375 -1.08984,1.03906 l 0.0937,0.0859 0.11328,-0.10547 c 0.15625,-0.3711 0.60547,-0.4336 0.77735,-0.4336 0.19921,0 0.38671,0.0625 0.57812,0.14844 0.35547,0.14844 0.50781,0.14844 0.60156,0.14844 l 0.14453,-0.008 c -0.30468,0.35937 -0.80859,0.80468 -1.23046,1.18359 l -0.9375,0.86328 c -0.56641,0.57422 -0.91407,1.12109 -0.91407,1.1875 l 0.10547,0.0742 c 0.0547,0 0.0625,-0.008 0.12891,-0.12109 0.14844,-0.23047 0.44922,-0.57422 0.79297,-0.57422 0.19531,0 0.28906,0.0664 0.47656,0.29687 0.17578,0.20313 0.33203,0.39844 0.62891,0.39844 0.91406,0 1.43359,-1.17578 1.43359,-1.39063 l -0.10156,-0.0937 -0.10938,0.12891 c -0.21094,0.54688 -0.75781,0.76953 -1.11719,0.76953 -0.19921,0 -0.38671,-0.0625 -0.57812,-0.14453 -0.375,-0.15234 -0.47656,-0.15234 -0.59766,-0.15234 l -0.27734,0.0391"
     id="path3540" />
  <path
     fill-rule="nonzero"
     fill="#df3224"
     fill-opacity="1"
     d="m 245.27343,41.808595 c 0.17969,-0.082 0.1875,-0.14063 0.1875,-0.20313 0,-0.0547 -0.0195,-0.12109 -0.1875,-0.19531 l -5.03125,-2.30859 c -0.125,-0.0547 -0.14062,-0.0664 -0.16015,-0.0664 -0.11328,0 -0.17578,0.0937 -0.17578,0.16797 0,0.11328 0.0703,0.14844 0.19531,0.20312 l 4.78125,2.19922 -4.78906,2.20703 c -0.1875,0.082 -0.1875,0.14844 -0.1875,0.20313 0,0.0742 0.0625,0.16797 0.17578,0.16797 0.0195,0 0.0273,-0.0117 0.16015,-0.0664 l 5.03125,-2.30859"
     id="path3542" />
  <path
     fill-rule="nonzero"
     fill="#df3224"
     fill-opacity="1"
     d="m 252.98828,40.957035 c 0,-0.76954 -0.0469,-1.52344 -0.37891,-2.22657 -0.38281,-0.76953 -1.05469,-0.97265 -1.51172,-0.97265 -0.53906,0 -1.19922,0.26953 -1.54297,1.03906 -0.26172,0.58203 -0.35547,1.15625 -0.35547,2.16016 0,0.89843 0.0664,1.57421 0.40235,2.23046 0.35937,0.70704 1.0039,0.92969 1.48437,0.92969 0.8125,0 1.28125,-0.48047 1.55078,-1.01953 0.33204,-0.69531 0.35157,-1.60156 0.35157,-2.14062 m -1.90235,2.97265 c -0.29297,0 -0.89843,-0.16406 -1.07812,-1.17578 -0.10156,-0.55469 -0.10156,-1.25781 -0.10156,-1.91016 0,-0.75781 0,-1.44531 0.14843,-1.99218 0.15625,-0.625 0.63672,-0.90625 1.03125,-0.90625 0.35547,0 0.89844,0.21093 1.07422,1.00781 0.1211,0.52734 0.1211,1.26172 0.1211,1.89062 0,0.6211 0,1.32813 -0.10547,1.89063 -0.17578,1.01953 -0.76172,1.19531 -1.08985,1.19531"
     id="path3544" />
  <path
     fill-rule="nonzero"
     fill="#df3224"
     fill-opacity="1"
     d="m 255.08593,40.371095 c 0,-0.25 -0.21093,-0.44531 -0.44531,-0.44531 -0.26953,0 -0.45703,0.21484 -0.45703,0.44531 0,0.27734 0.23437,0.45703 0.44922,0.45703 0.25,0 0.45312,-0.19531 0.45312,-0.45703 m -0.15625,3.46094 c 0,0.32421 0,0.98046 -0.5664,1.67578 l -0.0586,0.11328 0.0977,0.0937 c 0.0625,0 0.71484,-0.6875 0.71484,-1.77344 0,-0.34375 -0.0312,-0.91797 -0.48437,-0.91797 -0.26953,0 -0.44922,0.20313 -0.44922,0.44531 0,0.25 0.17969,0.45313 0.45703,0.45313 0.17969,0 0.24219,-0.0547 0.28906,-0.0898"
     id="path3546" />
  <path
     fill-rule="nonzero"
     fill="#df3224"
     fill-opacity="1"
     d="m 212.78125,54.863285 c 0,-0.76954 -0.0469,-1.51954 -0.37891,-2.22657 -0.38281,-0.76953 -1.05469,-0.97265 -1.51172,-0.97265 -0.53906,0 -1.19922,0.26953 -1.54297,1.03906 -0.26172,0.58203 -0.35156,1.16016 -0.35156,2.16016 0,0.89843 0.0625,1.57812 0.39453,2.23437 0.36328,0.70313 1.00781,0.92578 1.49219,0.92578 0.80859,0 1.27734,-0.48047 1.54297,-1.01953 0.33593,-0.69531 0.35547,-1.60156 0.35547,-2.14062 m -1.89844,2.97656 c -0.29688,0 -0.90235,-0.16797 -1.08203,-1.17969 -0.0977,-0.55469 -0.0977,-1.25781 -0.0977,-1.90625 0,-0.76172 0,-1.44922 0.14453,-1.99609 0.16016,-0.6211 0.63281,-0.90625 1.03516,-0.90625 0.35547,0 0.89453,0.21093 1.07031,1.00781 0.12109,0.53125 0.12109,1.26172 0.12109,1.89453 0,0.61719 0,1.32422 -0.10156,1.89063 -0.17969,1.01953 -0.76562,1.19531 -1.08984,1.19531"
     id="path3548" />
  <path
     fill-rule="nonzero"
     fill="#df3224"
     fill-opacity="1"
     d="m 214.88281,57.382815 c 0,-0.26563 -0.22266,-0.45313 -0.44922,-0.45313 -0.26953,0 -0.45313,0.22266 -0.45313,0.44531 0,0.26954 0.22266,0.45313 0.44532,0.45313 0.26953,0 0.45703,-0.21875 0.45703,-0.44531"
     id="path3550" />
  <path
     fill-rule="nonzero"
     fill="#df3224"
     fill-opacity="1"
     d="m 216.89062,52.519535 c 0.40234,0.1289 0.73047,0.13671 0.83203,0.13671 1.05078,0 1.71875,-0.76953 1.71875,-0.89843 l -0.0703,-0.082 -0.12109,0.0351 c -0.52344,0.22266 -0.96875,0.25 -1.21094,0.25 -0.61719,0 -1.05469,-0.1875 -1.23047,-0.25781 l -0.0937,-0.0273 c -0.0742,0 -0.0742,0.0508 -0.0742,0.19921 v 2.75782 c 0,0.16406 0,0.22265 0.10938,0.22265 0.0469,0 0.0586,-0.0117 0.15234,-0.12109 0.26172,-0.38281 0.69531,-0.60156 1.16406,-0.60156 0.49219,0 0.73438,0.45312 0.8086,0.60937 0.16015,0.36328 0.16796,0.81641 0.16796,1.16797 0,0.35547 0,0.88281 -0.25781,1.29688 -0.20703,0.33593 -0.57031,0.5664 -0.98047,0.5664 -0.61718,0 -1.21875,-0.41797 -1.38672,-1.09375 l 0.14844,0.0274 c 0.15625,0 0.41016,-0.0899 0.41016,-0.40625 0,-0.26172 -0.17969,-0.41016 -0.41016,-0.41016 -0.16797,0 -0.41015,0.0859 -0.41015,0.44531 0,0.78906 0.63281,1.6875 1.66796,1.6875 1.05079,0 1.97266,-0.8789 1.97266,-2.05469 0,-1.10546 -0.74609,-2.02343 -1.72266,-2.02343 -0.53125,0 -0.9414,0.23047 -1.18359,0.49218 v -1.91796"
     id="path3552" />
  <path
     fill-rule="nonzero"
     fill="#df3224"
     fill-opacity="1"
     d="m 222.07421,57.867185 c 0,-0.53906 -0.17578,-0.9375 -0.55859,-0.9375 -0.30078,0 -0.44531,0.24219 -0.44531,0.44531 0,0.20704 0.13672,0.45313 0.45312,0.45313 0.1211,0 0.22266,-0.0352 0.3086,-0.11719 l 0.0351,-0.0195 0.0195,0.17578 c 0,0.30469 -0.0547,0.91016 -0.59375,1.51172 -0.10156,0.10938 -0.10156,0.12891 -0.10156,0.14844 l 0.0899,0.0937 c 0.0742,0 0.79296,-0.6875 0.79296,-1.75391"
     id="path3554" />
  <path
     fill-rule="nonzero"
     fill="#df3224"
     fill-opacity="1"
     d="m 233.08984,57.078125 c 0.39844,-0.45313 0.72266,-0.74219 1.19141,-1.15625 0.55468,-0.48438 0.80078,-0.71484 0.92968,-0.85547 0.65235,-0.63672 0.98047,-1.17578 0.98047,-1.25391 l -0.0976,-0.0703 -0.12891,0.10156 c -0.23438,0.39844 -0.45703,0.59375 -0.70313,0.59375 -0.1914,0 -0.29296,-0.0859 -0.46875,-0.30468 -0.19921,-0.23047 -0.35546,-0.39063 -0.625,-0.39063 -0.67968,0 -1.08984,0.84375 -1.08984,1.03906 l 0.0937,0.082 0.11328,-0.10157 c 0.15625,-0.37109 0.60547,-0.4375 0.77735,-0.4375 0.19921,0 0.38671,0.0664 0.57812,0.14844 0.35547,0.14844 0.50781,0.14844 0.60156,0.14844 l 0.14453,-0.008 c -0.30468,0.35937 -0.80859,0.80468 -1.23046,1.1875 l -0.9375,0.85937 c -0.56641,0.57813 -0.91407,1.125 -0.91407,1.1875 l 0.10547,0.0742 c 0.0547,0 0.0625,-0.008 0.12891,-0.12109 0.14844,-0.23047 0.44922,-0.57422 0.79297,-0.57422 0.19531,0 0.28906,0.0664 0.47656,0.29687 0.17578,0.20313 0.33203,0.39844 0.62891,0.39844 0.91406,0 1.43359,-1.17578 1.43359,-1.39063 l -0.10156,-0.0898 -0.10938,0.12891 c -0.21094,0.54687 -0.75781,0.76953 -1.11719,0.76953 -0.19921,0 -0.38671,-0.0664 -0.57812,-0.14844 -0.375,-0.14844 -0.47656,-0.14844 -0.59766,-0.14844 l -0.27734,0.0352"
     id="path3556" />
  <path
     fill-rule="nonzero"
     fill="#df3224"
     fill-opacity="1"
     d="m 245.42578,54.828125 c 0.1289,0 0.29687,0 0.29687,-0.16797 0,-0.17578 -0.15625,-0.17578 -0.29687,-0.17578 h -5.48438 c -0.1289,0 -0.29687,0 -0.29687,0.16406 0,0.17969 0.15625,0.17969 0.29687,0.17969 z m 0,1.72266 c 0.1289,0 0.29687,0 0.29687,-0.16797 0,-0.17578 -0.15625,-0.17578 -0.29687,-0.17578 h -5.48438 c -0.1289,0 -0.29687,0 -0.29687,0.16796 0,0.17579 0.15625,0.17579 0.29687,0.17579 h 5.48438"
     id="path3558" />
  <path
     fill-rule="nonzero"
     fill="#df3224"
     fill-opacity="1"
     d="m 252.98828,54.863285 c 0,-0.76954 -0.0469,-1.51954 -0.37891,-2.22657 -0.38281,-0.76953 -1.05469,-0.97265 -1.51172,-0.97265 -0.53906,0 -1.19922,0.26953 -1.54297,1.03906 -0.26172,0.58203 -0.35547,1.16016 -0.35547,2.16016 0,0.89843 0.0664,1.57812 0.40235,2.23437 0.35937,0.70313 1.0039,0.92578 1.48437,0.92578 0.8125,0 1.28125,-0.48047 1.55078,-1.01953 0.33204,-0.69531 0.35157,-1.60156 0.35157,-2.14062 m -1.90235,2.97656 c -0.29297,0 -0.89843,-0.16797 -1.07812,-1.17969 -0.10156,-0.55469 -0.10156,-1.25781 -0.10156,-1.90625 0,-0.76172 0,-1.44922 0.14843,-1.99609 0.15625,-0.6211 0.63672,-0.90625 1.03125,-0.90625 0.35547,0 0.89844,0.21093 1.07422,1.00781 0.1211,0.53125 0.1211,1.26172 0.1211,1.89453 0,0.61719 0,1.32422 -0.10547,1.89063 -0.17578,1.01953 -0.76172,1.19531 -1.08985,1.19531"
     id="path3560" />
  <path
     fill-rule="nonzero"
     fill="#df3224"
     fill-opacity="1"
     d="m 255.08593,54.281245 c 0,-0.25 -0.21093,-0.44531 -0.44531,-0.44531 -0.26953,0 -0.45703,0.21094 -0.45703,0.44531 0,0.27735 0.23437,0.45313 0.44922,0.45313 0.25,0 0.45312,-0.19531 0.45312,-0.45313 m -0.15625,3.45704 c 0,0.32421 0,0.98437 -0.5664,1.67578 l -0.0586,0.11328 0.0977,0.0898 c 0.0625,0 0.71484,-0.68359 0.71484,-1.76953 0,-0.34375 -0.0312,-0.91797 -0.48437,-0.91797 -0.26953,0 -0.44922,0.20313 -0.44922,0.44531 0,0.25 0.17969,0.45704 0.45703,0.45704 0.17969,0 0.24219,-0.0586 0.28906,-0.0937"
     id="path3562" />
  <path
     fill-rule="nonzero"
     fill="#df3224"
     fill-opacity="1"
     d="m 212.78125,68.769535 c 0,-0.76954 -0.0469,-1.51954 -0.37891,-2.22657 -0.38281,-0.76953 -1.05469,-0.97265 -1.51172,-0.97265 -0.53906,0 -1.19922,0.26953 -1.54297,1.03906 -0.26172,0.58594 -0.35156,1.16016 -0.35156,2.16016 0,0.89843 0.0625,1.57812 0.39453,2.23437 0.36328,0.70703 1.00781,0.92578 1.49219,0.92578 0.80859,0 1.27734,-0.48047 1.54297,-1.01953 0.33593,-0.69531 0.35547,-1.60156 0.35547,-2.14062 m -1.89844,2.97656 c -0.29688,0 -0.90235,-0.16797 -1.08203,-1.17969 -0.0977,-0.55469 -0.0977,-1.25781 -0.0977,-1.90625 0,-0.76172 0,-1.44922 0.14453,-1.99219 0.16016,-0.625 0.63281,-0.91406 1.03516,-0.91406 0.35547,0 0.89453,0.21484 1.07031,1.01563 0.12109,0.52734 0.12109,1.25781 0.12109,1.89062 0,0.62109 0,1.32422 -0.10156,1.89063 -0.17969,1.01953 -0.76562,1.19531 -1.08984,1.19531"
     id="path3564" />
  <path
     fill-rule="nonzero"
     fill="#df3224"
     fill-opacity="1"
     d="m 214.98437,71.773435 c 0,-0.53906 -0.17578,-0.9375 -0.55859,-0.9375 -0.29688,0 -0.44532,0.24219 -0.44532,0.44531 0,0.20704 0.14063,0.45704 0.45313,0.45704 0.12109,0 0.22656,-0.0391 0.30859,-0.1211 l 0.0391,-0.0195 0.0156,0.17578 c 0,0.3086 -0.0547,0.91016 -0.59375,1.51172 -0.10156,0.10938 -0.10156,0.12891 -0.10156,0.14844 l 0.0937,0.0937 c 0.0703,0 0.78906,-0.6875 0.78906,-1.75391"
     id="path3566" />
  <path
     fill-rule="nonzero"
     fill="#df3224"
     fill-opacity="1"
     d="m 233.08984,70.988285 c 0.39844,-0.45704 0.72266,-0.74219 1.19141,-1.16016 0.55468,-0.48438 0.80078,-0.71484 0.92968,-0.85547 0.65235,-0.63672 0.98047,-1.17578 0.98047,-1.25 l -0.0976,-0.0742 -0.12891,0.10156 c -0.23438,0.39844 -0.45703,0.59375 -0.70313,0.59375 -0.1914,0 -0.29296,-0.082 -0.46875,-0.30468 -0.19921,-0.23438 -0.35546,-0.39063 -0.625,-0.39063 -0.67968,0 -1.08984,0.84375 -1.08984,1.03906 l 0.0937,0.082 0.11328,-0.10157 c 0.15625,-0.37109 0.60547,-0.4375 0.77735,-0.4375 0.19921,0 0.38671,0.0664 0.57812,0.14844 0.35547,0.14844 0.50781,0.14844 0.60156,0.14844 l 0.14453,-0.008 c -0.30468,0.36328 -0.80859,0.80859 -1.23046,1.1875 l -0.9375,0.86328 c -0.56641,0.57422 -0.91407,1.12109 -0.91407,1.18359 l 0.10547,0.0742 c 0.0547,0 0.0625,-0.008 0.12891,-0.11719 0.14844,-0.23437 0.44922,-0.57812 0.79297,-0.57812 0.19531,0 0.28906,0.0664 0.47656,0.29687 0.17578,0.20313 0.33203,0.39844 0.62891,0.39844 0.91406,0 1.43359,-1.17578 1.43359,-1.39063 l -0.10156,-0.0898 -0.10938,0.12891 c -0.21094,0.54687 -0.75781,0.76953 -1.11719,0.76953 -0.19921,0 -0.38671,-0.0664 -0.57812,-0.14844 -0.375,-0.14844 -0.47656,-0.14844 -0.59766,-0.14844 l -0.27734,0.0391"
     id="path3568" />
  <path
     fill-rule="nonzero"
     fill="#df3224"
     fill-opacity="1"
     d="m 245.27343,67.222655 c 0.16797,-0.0742 0.1875,-0.14062 0.1875,-0.19531 0,-0.10156 -0.0703,-0.17578 -0.17578,-0.17578 -0.0156,0 -0.0273,0.0117 -0.15625,0.0664 l -5.03515,2.30469 c -0.17188,0.0781 -0.1875,0.14063 -0.1875,0.19531 0,0.0664 0.008,0.1211 0.1875,0.20313 l 5.03515,2.3125 c 0.1211,0.0547 0.14063,0.0625 0.15625,0.0625 0.10547,0 0.17578,-0.0742 0.17578,-0.17578 0,-0.0586 -0.0195,-0.1211 -0.1875,-0.19532 l -4.78906,-2.19531 4.78906,-2.20703"
     id="path3570" />
  <path
     fill-rule="nonzero"
     fill="#df3224"
     fill-opacity="1"
     d="m 252.98828,68.769535 c 0,-0.76954 -0.0469,-1.51954 -0.37891,-2.22657 -0.38281,-0.76953 -1.05469,-0.97265 -1.51172,-0.97265 -0.53906,0 -1.19922,0.26953 -1.54297,1.03906 -0.26172,0.58594 -0.35547,1.16016 -0.35547,2.16016 0,0.89843 0.0664,1.57812 0.40235,2.23437 0.35937,0.70703 1.0039,0.92578 1.48437,0.92578 0.8125,0 1.28125,-0.48047 1.55078,-1.01953 0.33204,-0.69531 0.35157,-1.60156 0.35157,-2.14062 m -1.90235,2.97656 c -0.29297,0 -0.90234,-0.16797 -1.07812,-1.17969 -0.10156,-0.55469 -0.10156,-1.25781 -0.10156,-1.90625 0,-0.76172 0,-1.44922 0.14843,-1.99219 0.15625,-0.625 0.63672,-0.91406 1.03125,-0.91406 0.35547,0 0.89844,0.21484 1.07422,1.01563 0.1211,0.52734 0.1211,1.25781 0.1211,1.89062 0,0.62109 0,1.32422 -0.10547,1.89063 -0.17578,1.01953 -0.76172,1.19531 -1.08985,1.19531"
     id="path3572" />
  <path
     fill-rule="nonzero"
     fill="#df3224"
     fill-opacity="1"
     d="m 255.08593,71.292965 c 0,-0.26953 -0.21875,-0.45312 -0.44531,-0.45312 -0.26953,0 -0.45703,0.21875 -0.45703,0.44531 0,0.26563 0.22266,0.45313 0.44922,0.45313 0.26953,0 0.45312,-0.22266 0.45312,-0.44532"
     id="path3574" />
</svg>
