<?xml version="1.0" encoding="UTF-8" standalone="no"?>
<!DOCTYPE svg PUBLIC "-//W3C//DTD SVG 1.1//EN"
 "http://www.w3.org/Graphics/SVG/1.1/DTD/svg11.dtd">
<!-- Generated by graphviz version 3.0.0 (20220226.1711)
 -->
<!-- Title: G Pages: 1 -->
<svg width="168pt" height="131pt"
 viewBox="0.00 0.00 168.00 131.00" xmlns="http://www.w3.org/2000/svg" xmlns:xlink="http://www.w3.org/1999/xlink">
<g id="graph0" class="graph" transform="scale(1 1) rotate(0) translate(4 127)">
<title>G</title>
<polygon fill="white" stroke="transparent" points="-4,4 -4,-127 164,-127 164,4 -4,4"/>
<!-- Running -->
<g id="node1" class="node">
<title>Running</title>
<polygon fill="none" stroke="black" points="91,-123 28,-123 28,-87 91,-87 91,-123"/>
<text text-anchor="middle" x="59.5" y="-101.3" font-family="Times New Roman,serif" font-size="14.00">Running</text>
</g>
<!-- Waiting -->
<g id="node2" class="node">
<title>Waiting</title>
<polygon fill="none" stroke="black" points="59,-36 0,-36 0,0 59,0 59,-36"/>
<text text-anchor="middle" x="29.5" y="-14.3" font-family="Times New Roman,serif" font-size="14.00">Waiting</text>
</g>
<!-- Running&#45;&gt;Waiting -->
<g id="edge1" class="edge">
<title>Running&#45;&gt;Waiting</title>
<path fill="none" stroke="black" d="M42.94,-86.73C38.8,-81.44 34.87,-75.32 32.5,-69 29.85,-61.92 28.65,-53.87 28.23,-46.34"/>
<polygon fill="black" stroke="black" points="31.72,-46.13 28.07,-36.18 24.72,-46.23 31.72,-46.13"/>
<text text-anchor="middle" x="36" y="-57.8" font-family="Times New Roman,serif" font-size="14.00">1</text>
</g>
<!-- Termination -->
<g id="node3" class="node">
<title>Termination</title>
<polygon fill="none" stroke="black" points="160,-36 77,-36 77,0 160,0 160,-36"/>
<text text-anchor="middle" x="118.5" y="-14.3" font-family="Times New Roman,serif" font-size="14.00">Termination</text>
</g>
<!-- Running&#45;&gt;Termination -->
<g id="edge3" class="edge">
<title>Running&#45;&gt;Termination</title>
<path fill="none" stroke="black" d="M71.44,-86.8C79.84,-74.7 91.22,-58.3 100.68,-44.67"/>
<polygon fill="black" stroke="black" points="103.75,-46.39 106.58,-36.18 98,-42.39 103.75,-46.39"/>
<text text-anchor="middle" x="96" y="-57.8" font-family="Times New Roman,serif" font-size="14.00">3</text>
</g>
<!-- Waiting&#45;&gt;Running -->
<g id="edge2" class="edge">
<title>Waiting&#45;&gt;Running</title>
<path fill="none" stroke="black" d="M35.56,-36.18C39.71,-47.92 45.29,-63.73 50.02,-77.13"/>
<polygon fill="black" stroke="black" points="46.8,-78.53 53.43,-86.8 53.4,-76.2 46.8,-78.53"/>
<text text-anchor="middle" x="50" y="-57.8" font-family="Times New Roman,serif" font-size="14.00">2</text>
</g>
</g>
</svg>
