<?xml version="1.0" encoding="UTF-8"?>
<svg xmlns="http://www.w3.org/2000/svg" xmlns:xlink="http://www.w3.org/1999/xlink" width="535.3112pt" height="201.916pt" viewBox="0 0 535.3112 201.916" version="1.1">
<defs>
<clipPath id="clip1">
  <path d="M 0 0 L 535.3125 0 L 535.3125 201.914062 L 0 201.914062 Z M 0 0 "/>
</clipPath>
<clipPath id="clip2">
  <path d="M 5.476562 44 L 91 44 L 91 79 L 5.476562 79 Z M 5.476562 44 "/>
</clipPath>
<clipPath id="clip3">
  <path d="M 5.476562 44 L 92 44 L 92 80 L 5.476562 80 Z M 5.476562 44 "/>
</clipPath>
<clipPath id="clip4">
  <path d="M 446 44 L 530.582031 44 L 530.582031 79 L 446 79 Z M 446 44 "/>
</clipPath>
<clipPath id="clip5">
  <path d="M 445 44 L 530.582031 44 L 530.582031 80 L 445 80 Z M 445 44 "/>
</clipPath>
</defs>
<g id="surface1">
<g clip-path="url(#clip1)" clip-rule="nonzero">
<rect x="0" y="0" width="535.3112" height="201.916" style="fill:rgb(100%,100%,100%);fill-opacity:1;stroke:none;"/>
</g>
<g clip-path="url(#clip2)" clip-rule="nonzero">
<path style=" stroke:none;fill-rule:nonzero;fill:rgb(77.999878%,91.799927%,98.399353%);fill-opacity:1;" d="M 5.867188 78.914062 L 90.726562 78.914062 L 90.726562 44.890625 L 5.867188 44.890625 Z M 5.867188 78.914062 "/>
</g>
<g clip-path="url(#clip3)" clip-rule="nonzero">
<path style="fill:none;stroke-width:0.45;stroke-linecap:butt;stroke-linejoin:miter;stroke:rgb(13.699341%,12.199402%,12.5%);stroke-opacity:1;stroke-miterlimit:10;" d="M 0.000387678 0.000793884 L -48.981893 0.000793884 L -48.981893 18.682801 L 0.000387678 18.682801 Z M 0.000387678 0.000793884 " transform="matrix(1.73245,0,0,-1.821188,90.725891,78.915508)"/>
</g>
<path style=" stroke:none;fill-rule:nonzero;fill:rgb(13.699341%,12.199402%,12.5%);fill-opacity:1;" d="M 33.804688 64.566406 C 33.804688 64.976562 33.417969 66.074219 32.378906 66.074219 C 30.6875 66.074219 30.6875 64.160156 30.6875 63.203125 C 30.6875 62.109375 31.078125 60.742188 32.378906 60.742188 C 33.417969 60.605469 33.804688 61.5625 33.804688 62.109375 L 36.015625 62.109375 C 35.886719 59.375 33.675781 58.828125 32.378906 58.828125 C 29.648438 58.828125 28.480469 60.878906 28.480469 63.613281 C 28.480469 65.386719 29.128906 67.984375 32.246094 67.984375 C 35.238281 67.984375 36.015625 65.386719 36.015625 64.566406 Z M 33.804688 64.566406 "/>
<path style=" stroke:none;fill-rule:nonzero;fill:rgb(13.699341%,12.199402%,12.5%);fill-opacity:1;" d="M 39.914062 55.960938 L 37.707031 55.960938 L 37.707031 67.710938 L 39.914062 67.710938 Z M 39.914062 55.960938 "/>
<path style=" stroke:none;fill-rule:nonzero;fill:rgb(13.699341%,12.199402%,12.5%);fill-opacity:1;" d="M 41.992188 59.101562 L 41.992188 67.710938 L 44.203125 67.710938 L 44.203125 59.101562 Z M 44.203125 55.960938 L 41.992188 55.960938 L 41.992188 58.011719 L 44.203125 58.011719 Z M 44.203125 55.960938 "/>
<path style=" stroke:none;fill-rule:nonzero;fill:rgb(13.699341%,12.199402%,12.5%);fill-opacity:1;" d="M 51.089844 65.113281 C 50.960938 65.796875 50.3125 66.074219 49.792969 66.074219 C 47.972656 66.074219 47.84375 64.566406 47.84375 64.023438 L 53.429688 64.023438 L 53.429688 63.613281 C 53.429688 59.648438 51.222656 58.828125 49.53125 58.828125 C 46.023438 58.828125 45.632812 62.109375 45.632812 63.203125 C 45.632812 66.753906 47.453125 67.984375 49.792969 67.984375 C 51.089844 67.984375 52.78125 67.300781 53.300781 65.113281 Z M 47.84375 62.519531 C 47.972656 61.425781 48.492188 60.742188 49.53125 60.742188 C 50.3125 60.742188 51.089844 61.152344 51.222656 62.519531 Z M 47.84375 62.519531 "/>
<path style=" stroke:none;fill-rule:nonzero;fill:rgb(13.699341%,12.199402%,12.5%);fill-opacity:1;" d="M 62.398438 61.699219 C 62.398438 59.785156 61.097656 58.828125 59.539062 58.828125 C 57.976562 58.828125 57.328125 59.785156 57.066406 60.332031 L 57.066406 59.101562 L 54.988281 59.101562 L 54.988281 67.710938 L 57.066406 67.710938 L 57.066406 62.792969 C 57.066406 61.425781 57.847656 60.742188 58.886719 60.742188 C 60.1875 60.742188 60.1875 61.835938 60.1875 62.382812 L 60.1875 67.710938 L 62.398438 67.710938 Z M 62.398438 61.699219 "/>
<path style=" stroke:none;fill-rule:nonzero;fill:rgb(13.699341%,12.199402%,12.5%);fill-opacity:1;" d="M 66.945312 56.640625 L 64.734375 56.640625 L 64.734375 59.101562 L 63.695312 59.101562 L 63.695312 60.605469 L 64.734375 60.605469 L 64.734375 65.9375 C 64.734375 67.027344 65.125 67.847656 66.945312 67.847656 L 67.203125 67.847656 C 67.59375 67.847656 67.984375 67.710938 68.242188 67.710938 L 68.242188 66.074219 C 68.113281 66.074219 67.984375 66.074219 67.855469 66.074219 C 66.945312 66.074219 66.945312 65.9375 66.945312 65.386719 L 66.945312 60.605469 L 68.242188 60.605469 L 68.242188 59.101562 L 66.945312 59.101562 Z M 66.945312 56.640625 "/>
<path style=" stroke:none;fill-rule:nonzero;fill:rgb(13.699341%,12.199402%,12.5%);fill-opacity:1;" d="M 124.382812 21.386719 C 122.695312 23.847656 121.65625 26.171875 121.65625 29.039062 C 121.65625 32.046875 122.824219 34.097656 124.382812 36.691406 L 125.292969 36.691406 C 123.992188 34.097656 123.214844 32.046875 123.214844 29.449219 C 123.214844 25.488281 123.992188 23.984375 125.292969 21.386719 Z M 124.382812 21.386719 "/>
<path style=" stroke:none;fill-rule:nonzero;fill:rgb(13.699341%,12.199402%,12.5%);fill-opacity:1;" d="M 131.402344 21.796875 L 130.363281 21.796875 C 129.84375 23.710938 129.191406 23.847656 127.371094 23.984375 L 127.371094 25.214844 L 129.972656 25.214844 L 129.972656 33.277344 L 131.402344 33.277344 Z M 131.402344 21.796875 "/>
<path style=" stroke:none;fill-rule:nonzero;fill:rgb(13.699341%,12.199402%,12.5%);fill-opacity:1;" d="M 135.949219 36.691406 C 137.640625 34.097656 138.679688 31.773438 138.679688 28.902344 C 138.679688 25.898438 137.507812 23.847656 135.949219 21.386719 L 135.039062 21.386719 C 136.339844 23.847656 137.121094 25.898438 137.121094 28.628906 C 137.121094 32.457031 136.339844 34.097656 135.039062 36.691406 Z M 135.949219 36.691406 "/>
<path style=" stroke:none;fill-rule:nonzero;fill:rgb(13.699341%,12.199402%,12.5%);fill-opacity:1;" d="M 146.605469 28.359375 C 146.605469 27.128906 147.386719 26.035156 148.683594 26.035156 L 149.203125 26.035156 L 149.203125 24.53125 C 149.074219 24.53125 148.945312 24.53125 148.816406 24.53125 C 147.777344 24.53125 147.125 25.214844 146.605469 26.171875 L 146.476562 26.171875 L 146.476562 24.804688 L 145.175781 24.804688 L 145.175781 33.277344 L 146.605469 33.277344 Z M 146.605469 28.359375 "/>
<path style=" stroke:none;fill-rule:nonzero;fill:rgb(13.699341%,12.199402%,12.5%);fill-opacity:1;" d="M 155.703125 30.679688 C 155.703125 31.226562 154.921875 32.320312 153.625 32.320312 C 152.066406 32.320312 151.285156 31.226562 151.285156 29.449219 L 157.261719 29.449219 C 157.261719 26.445312 156.09375 24.53125 153.753906 24.53125 C 151.023438 24.53125 149.855469 26.582031 149.855469 29.3125 C 149.855469 31.773438 151.152344 33.550781 153.496094 33.550781 C 154.792969 33.550781 155.3125 33.140625 155.703125 33.003906 C 156.742188 32.183594 157.003906 30.953125 157.132812 30.679688 Z M 151.285156 28.359375 C 151.285156 26.992188 152.324219 25.761719 153.496094 25.761719 C 155.183594 25.761719 155.703125 26.992188 155.832031 28.359375 Z M 151.285156 28.359375 "/>
<path style=" stroke:none;fill-rule:nonzero;fill:rgb(13.699341%,12.199402%,12.5%);fill-opacity:1;" d="M 165.578125 24.804688 L 164.28125 24.804688 L 164.28125 26.035156 C 163.890625 25.488281 163.242188 24.53125 161.808594 24.53125 C 159.730469 24.53125 158.433594 26.445312 158.433594 28.765625 C 158.433594 30.816406 159.210938 33.550781 162.070312 33.550781 C 163.109375 33.550781 163.761719 33.003906 164.152344 32.320312 L 164.152344 36.691406 L 165.578125 36.691406 Z M 164.28125 29.449219 C 164.28125 31.636719 162.847656 32.320312 162.070312 32.320312 C 160.511719 32.320312 159.859375 30.816406 159.859375 29.039062 C 159.859375 27.949219 159.992188 25.761719 162.070312 25.761719 C 164.019531 25.761719 164.28125 28.085938 164.28125 29.449219 Z M 164.28125 29.449219 "/>
<path style=" stroke:none;fill-rule:nonzero;fill:rgb(13.699341%,12.199402%,12.5%);fill-opacity:1;" d="M 174.15625 33.277344 L 174.15625 24.804688 L 172.726562 24.804688 L 172.726562 29.449219 C 172.726562 30.679688 172.335938 32.320312 170.515625 32.320312 C 169.738281 32.320312 168.957031 31.773438 168.957031 30.40625 L 168.957031 24.804688 L 167.660156 24.804688 L 167.660156 30.953125 C 167.660156 32.867188 169.089844 33.550781 170.257812 33.550781 C 171.558594 33.550781 172.207031 33.003906 172.855469 32.046875 L 172.855469 33.277344 Z M 174.15625 33.277344 "/>
<path style=" stroke:none;fill-rule:nonzero;fill:rgb(13.699341%,12.199402%,12.5%);fill-opacity:1;" d="M 181.824219 30.679688 C 181.703125 31.226562 180.921875 32.320312 179.605469 32.320312 C 178.054688 32.320312 177.277344 31.226562 177.277344 29.449219 L 183.261719 29.449219 C 183.261719 26.445312 182.082031 24.53125 179.746094 24.53125 C 177.015625 24.53125 175.847656 26.582031 175.847656 29.3125 C 175.847656 31.773438 177.277344 33.550781 179.484375 33.550781 C 180.785156 33.550781 181.304688 33.140625 181.703125 33.003906 C 182.742188 32.183594 183.121094 30.953125 183.121094 30.679688 Z M 177.277344 28.359375 C 177.277344 26.992188 178.316406 25.761719 179.605469 25.761719 C 181.183594 25.761719 181.703125 26.992188 181.824219 28.359375 Z M 177.277344 28.359375 "/>
<path style=" stroke:none;fill-rule:nonzero;fill:rgb(13.699341%,12.199402%,12.5%);fill-opacity:1;" d="M 190.796875 27.265625 C 190.796875 26.71875 190.660156 24.53125 187.800781 24.53125 C 186.121094 24.53125 184.683594 25.351562 184.683594 27.265625 C 184.683594 28.359375 185.460938 29.039062 186.5 29.3125 L 188.199219 29.722656 C 189.238281 29.996094 189.757812 30.269531 189.757812 30.953125 C 189.757812 31.910156 188.839844 32.320312 187.9375 32.320312 C 185.980469 32.320312 185.722656 31.226562 185.722656 30.542969 L 184.421875 30.542969 C 184.421875 31.636719 184.683594 33.550781 187.9375 33.550781 C 189.757812 33.550781 191.058594 32.457031 191.058594 30.679688 C 191.058594 29.585938 190.539062 28.902344 188.839844 28.492188 L 187.417969 28.085938 C 186.378906 27.8125 185.980469 27.675781 185.980469 26.992188 C 185.980469 25.898438 187.160156 25.761719 187.539062 25.761719 C 189.359375 25.761719 189.5 26.71875 189.5 27.265625 Z M 190.796875 27.265625 "/>
<path style=" stroke:none;fill-rule:nonzero;fill:rgb(13.699341%,12.199402%,12.5%);fill-opacity:1;" d="M 195.734375 25.898438 L 195.734375 24.804688 L 194.4375 24.804688 L 194.4375 22.347656 L 192.996094 22.347656 L 192.996094 24.804688 L 191.957031 24.804688 L 191.957031 25.898438 L 192.996094 25.898438 L 192.996094 31.636719 C 192.996094 32.59375 193.394531 33.414062 194.695312 33.414062 C 194.816406 33.414062 195.214844 33.277344 195.734375 33.277344 L 195.734375 32.183594 L 195.214844 32.183594 C 194.957031 32.183594 194.4375 32.183594 194.4375 31.5 L 194.4375 25.898438 Z M 195.734375 25.898438 "/>
<path style=" stroke:none;fill-rule:nonzero;fill:rgb(13.699341%,12.199402%,12.5%);fill-opacity:1;" d="M 332.5625 5 C 330.882812 7.457031 329.964844 9.769531 329.964844 12.648438 C 329.964844 15.652344 331.003906 17.691406 332.5625 20.296875 L 333.480469 20.296875 C 332.304688 17.691406 331.402344 15.652344 331.402344 13.046875 C 331.402344 9.097656 332.183594 7.585938 333.480469 5 Z M 332.5625 5 "/>
<path style=" stroke:none;fill-rule:nonzero;fill:rgb(13.699341%,12.199402%,12.5%);fill-opacity:1;" d="M 336.082031 9.496094 C 336.203125 8.824219 336.203125 6.765625 338.28125 6.765625 C 339.839844 6.765625 340.5 7.859375 340.5 8.824219 C 340.5 10.316406 339.582031 10.734375 338.417969 11.410156 L 336.980469 12.375 C 335.5625 13.195312 334.523438 14.558594 334.523438 16.875 L 341.917969 16.875 L 341.917969 15.507812 L 335.941406 15.507812 C 336.082031 15.105469 336.339844 14.140625 337.898438 13.320312 L 338.9375 12.648438 C 340.621094 11.828125 341.917969 10.863281 341.917969 8.824219 C 341.917969 6.765625 340.359375 5.398438 338.539062 5.398438 C 337.378906 5.398438 334.78125 5.820312 334.78125 9.496094 Z M 336.082031 9.496094 "/>
<path style=" stroke:none;fill-rule:nonzero;fill:rgb(13.699341%,12.199402%,12.5%);fill-opacity:1;" d="M 344.257812 20.296875 C 345.957031 17.691406 346.855469 15.378906 346.855469 12.503906 C 346.855469 9.496094 345.816406 7.457031 344.136719 5 L 343.21875 5 C 344.519531 7.457031 345.4375 9.496094 345.4375 12.230469 C 345.4375 16.054688 344.65625 17.691406 343.21875 20.296875 Z M 344.257812 20.296875 "/>
<path style=" stroke:none;fill-rule:nonzero;fill:rgb(13.699341%,12.199402%,12.5%);fill-opacity:1;" d="M 359.605469 11.28125 C 359.46875 9.769531 358.6875 8.132812 356.609375 8.132812 C 353.871094 8.132812 352.710938 10.1875 352.710938 12.921875 C 352.710938 15.378906 354.011719 17.144531 356.351562 17.144531 C 358.6875 17.144531 359.46875 15.234375 359.605469 13.867188 L 358.308594 13.867188 C 358.046875 15.234375 357.269531 15.925781 356.351562 15.925781 C 354.53125 15.925781 354.132812 14.140625 354.132812 12.648438 C 354.132812 11.136719 354.652344 9.371094 356.351562 9.371094 C 357.527344 9.371094 358.167969 10.042969 358.308594 11.28125 Z M 359.605469 11.28125 "/>
<path style=" stroke:none;fill-rule:nonzero;fill:rgb(13.699341%,12.199402%,12.5%);fill-opacity:1;" d="M 362.585938 11.957031 C 362.585938 10.734375 363.367188 9.644531 364.667969 9.644531 L 365.1875 9.644531 L 365.1875 8.132812 C 365.066406 8.132812 365.066406 8.132812 364.804688 8.132812 C 363.765625 8.132812 363.105469 8.824219 362.585938 9.769531 L 362.585938 8.40625 L 361.289062 8.40625 L 361.289062 16.875 L 362.585938 16.875 Z M 362.585938 11.957031 "/>
<path style=" stroke:none;fill-rule:nonzero;fill:rgb(13.699341%,12.199402%,12.5%);fill-opacity:1;" d="M 371.820312 14.285156 C 371.683594 14.832031 370.902344 15.925781 369.742188 15.925781 C 368.183594 15.925781 367.265625 14.832031 367.265625 13.046875 L 373.242188 13.046875 C 373.242188 10.042969 372.082031 8.132812 369.742188 8.132812 C 367.144531 8.132812 365.84375 10.1875 365.84375 12.921875 C 365.84375 15.378906 367.265625 17.144531 369.480469 17.144531 C 370.78125 17.144531 371.300781 16.746094 371.683594 16.601562 C 372.722656 15.78125 373.121094 14.558594 373.121094 14.285156 Z M 367.265625 11.957031 C 367.265625 10.589844 368.304688 9.371094 369.605469 9.371094 C 371.164062 9.371094 371.683594 10.589844 371.820312 11.957031 Z M 367.265625 11.957031 "/>
<path style=" stroke:none;fill-rule:nonzero;fill:rgb(13.699341%,12.199402%,12.5%);fill-opacity:1;" d="M 376.101562 11.007812 C 376.238281 10.316406 376.5 9.371094 378.058594 9.371094 C 379.21875 9.371094 379.878906 9.769531 379.878906 10.734375 C 379.878906 11.554688 379.480469 11.683594 379.21875 11.683594 L 376.878906 11.957031 C 374.679688 12.230469 374.542969 14.015625 374.542969 14.6875 C 374.542969 16.199219 375.582031 17.144531 377.019531 17.144531 C 378.578125 17.144531 379.355469 16.328125 380 15.78125 C 380 16.328125 380.136719 17.019531 381.4375 17.019531 C 381.695312 17.019531 381.957031 16.875 382.078125 16.875 L 382.078125 15.78125 C 381.957031 15.925781 381.816406 15.925781 381.695312 15.925781 C 381.4375 15.925781 381.175781 15.78125 381.175781 15.378906 L 381.175781 10.460938 C 381.175781 8.277344 378.835938 8.132812 378.179688 8.132812 C 376.238281 8.132812 374.941406 8.949219 374.941406 11.007812 Z M 379.878906 13.867188 C 379.878906 15.105469 378.578125 15.925781 377.398438 15.925781 C 376.359375 15.925781 375.839844 15.378906 375.839844 14.414062 C 375.839844 13.320312 377.019531 13.195312 377.660156 13.046875 C 379.355469 12.921875 379.617188 12.777344 379.878906 12.503906 Z M 379.878906 13.867188 "/>
<path style=" stroke:none;fill-rule:nonzero;fill:rgb(13.699341%,12.199402%,12.5%);fill-opacity:1;" d="M 386.632812 9.496094 L 386.632812 8.40625 L 385.335938 8.40625 L 385.335938 5.945312 L 383.894531 5.945312 L 383.894531 8.40625 L 382.855469 8.40625 L 382.855469 9.496094 L 383.894531 9.496094 L 383.894531 15.234375 C 383.894531 16.199219 384.15625 17.019531 385.59375 17.019531 C 385.714844 17.019531 386.113281 16.875 386.632812 16.875 L 386.632812 15.78125 L 386.113281 15.78125 C 385.855469 15.78125 385.335938 15.78125 385.335938 15.105469 L 385.335938 9.496094 Z M 386.632812 9.496094 "/>
<path style=" stroke:none;fill-rule:nonzero;fill:rgb(13.699341%,12.199402%,12.5%);fill-opacity:1;" d="M 393.390625 14.285156 C 393.390625 14.832031 392.609375 15.925781 391.3125 15.925781 C 389.753906 15.925781 388.972656 14.832031 388.972656 13.046875 L 394.949219 13.046875 C 394.949219 10.042969 393.769531 8.132812 391.433594 8.132812 C 388.710938 8.132812 387.535156 10.1875 387.535156 12.921875 C 387.535156 15.378906 388.832031 17.144531 391.171875 17.144531 C 392.472656 17.144531 392.992188 16.746094 393.390625 16.601562 C 394.429688 15.78125 394.8125 14.558594 394.8125 14.285156 Z M 388.972656 11.957031 C 388.972656 10.589844 390.011719 9.371094 391.3125 9.371094 C 392.871094 9.371094 393.390625 10.589844 393.511719 11.957031 Z M 388.972656 11.957031 "/>
<path style=" stroke:none;fill-rule:nonzero;fill:rgb(13.699341%,12.199402%,12.5%);fill-opacity:1;" d="M 407.542969 11.136719 C 407.542969 8.679688 405.984375 8.132812 404.6875 8.132812 C 403.265625 8.132812 402.484375 9.097656 402.226562 9.644531 L 402.226562 8.40625 L 400.925781 8.40625 L 400.925781 16.875 L 402.347656 16.875 L 402.347656 12.230469 C 402.347656 9.917969 403.644531 9.371094 404.425781 9.371094 C 405.726562 9.371094 406.125 10.1875 406.125 11.683594 L 406.125 16.875 L 407.542969 16.875 Z M 407.542969 11.136719 "/>
<path style=" stroke:none;fill-rule:nonzero;fill:rgb(13.699341%,12.199402%,12.5%);fill-opacity:1;" d="M 415.097656 14.285156 C 415.097656 14.832031 414.300781 15.925781 413 15.925781 C 411.441406 15.925781 410.664062 14.832031 410.664062 13.046875 L 416.65625 13.046875 C 416.65625 10.042969 415.480469 8.132812 413.140625 8.132812 C 410.402344 8.132812 409.242188 10.1875 409.242188 12.921875 C 409.242188 15.378906 410.542969 17.144531 412.878906 17.144531 C 414.179688 17.144531 414.699219 16.746094 415.097656 16.601562 C 416 15.78125 416.398438 14.558594 416.519531 14.285156 Z M 410.664062 11.957031 C 410.664062 10.589844 411.703125 9.371094 412.878906 9.371094 C 414.578125 9.371094 415.097656 10.589844 415.21875 11.957031 Z M 410.664062 11.957031 "/>
<path style=" stroke:none;fill-rule:nonzero;fill:rgb(13.699341%,12.199402%,12.5%);fill-opacity:1;" d="M 422.753906 10.316406 L 422.894531 10.316406 L 424.453125 16.875 L 425.875 16.875 L 428.210938 8.40625 L 426.914062 8.40625 L 425.234375 15.105469 L 423.671875 8.40625 L 422.113281 8.40625 L 420.554688 15.105469 L 418.996094 8.40625 L 417.4375 8.40625 L 419.777344 16.875 L 421.195312 16.875 Z M 422.753906 10.316406 "/>
<path style=" stroke:none;fill-rule:nonzero;fill:rgb(13.699341%,12.199402%,12.5%);fill-opacity:1;" d="M 325.027344 25.898438 L 325.027344 24.804688 L 323.726562 24.804688 L 323.726562 22.347656 L 322.429688 22.347656 L 322.429688 24.804688 L 321.269531 24.804688 L 321.269531 25.898438 L 322.429688 25.898438 L 322.429688 31.636719 C 322.429688 32.59375 322.6875 33.414062 323.988281 33.414062 C 324.125 33.414062 324.507812 33.277344 325.027344 33.277344 L 325.027344 32.183594 L 324.507812 32.183594 C 324.25 32.183594 323.726562 32.183594 323.726562 31.5 L 323.726562 25.898438 Z M 325.027344 25.898438 "/>
<path style=" stroke:none;fill-rule:nonzero;fill:rgb(13.699341%,12.199402%,12.5%);fill-opacity:1;" d="M 332.960938 27.539062 C 332.960938 25.078125 331.402344 24.53125 330.226562 24.53125 C 328.925781 24.53125 328.144531 25.351562 327.765625 25.898438 L 327.765625 21.660156 L 326.464844 21.660156 L 326.464844 33.277344 L 327.765625 33.277344 L 327.765625 28.628906 C 327.765625 26.445312 328.925781 25.761719 329.964844 25.761719 C 331.265625 25.761719 331.664062 26.582031 331.664062 27.675781 L 331.664062 33.277344 L 332.960938 33.277344 Z M 332.960938 27.539062 "/>
<path style=" stroke:none;fill-rule:nonzero;fill:rgb(13.699341%,12.199402%,12.5%);fill-opacity:1;" d="M 336.601562 28.359375 C 336.601562 27.128906 337.378906 26.035156 338.679688 26.035156 L 339.199219 26.035156 L 339.199219 24.53125 C 339.058594 24.53125 339.058594 24.53125 338.800781 24.53125 C 337.761719 24.53125 337.121094 25.214844 336.601562 26.171875 L 336.601562 24.804688 L 335.300781 24.804688 L 335.300781 33.277344 L 336.601562 33.277344 Z M 336.601562 28.359375 "/>
<path style=" stroke:none;fill-rule:nonzero;fill:rgb(13.699341%,12.199402%,12.5%);fill-opacity:1;" d="M 345.816406 30.679688 C 345.695312 31.226562 344.917969 32.320312 343.738281 32.320312 C 342.179688 32.320312 341.277344 31.226562 341.277344 29.449219 L 347.253906 29.449219 C 347.253906 26.445312 346.078125 24.53125 343.738281 24.53125 C 341.140625 24.53125 339.839844 26.582031 339.839844 29.3125 C 339.839844 31.773438 341.277344 33.550781 343.476562 33.550781 C 344.777344 33.550781 345.296875 33.140625 345.695312 33.003906 C 346.734375 32.183594 347.117188 30.953125 347.117188 30.679688 Z M 341.277344 28.359375 C 341.277344 26.992188 342.316406 25.761719 343.617188 25.761719 C 345.175781 25.761719 345.816406 26.992188 345.816406 28.359375 Z M 341.277344 28.359375 "/>
<path style=" stroke:none;fill-rule:nonzero;fill:rgb(13.699341%,12.199402%,12.5%);fill-opacity:1;" d="M 350.113281 27.402344 C 350.234375 26.71875 350.496094 25.761719 352.054688 25.761719 C 353.230469 25.761719 353.871094 26.171875 353.871094 27.128906 C 353.871094 27.949219 353.492188 28.085938 353.230469 28.085938 L 350.894531 28.359375 C 348.675781 28.628906 348.554688 30.40625 348.554688 31.089844 C 348.554688 32.59375 349.59375 33.550781 351.015625 33.550781 C 352.574219 33.550781 353.492188 32.730469 354.011719 32.183594 C 354.011719 32.730469 354.132812 33.414062 355.433594 33.414062 C 355.691406 33.414062 355.953125 33.277344 356.089844 33.277344 L 356.089844 32.183594 C 355.953125 32.320312 355.832031 32.320312 355.691406 32.320312 C 355.433594 32.320312 355.171875 32.183594 355.171875 31.773438 L 355.171875 26.855469 C 355.171875 24.667969 352.832031 24.53125 352.191406 24.53125 C 350.234375 24.53125 348.933594 25.351562 348.933594 27.402344 Z M 353.871094 30.269531 C 353.871094 31.5 352.574219 32.320312 351.414062 32.320312 C 350.375 32.320312 349.855469 31.773438 349.855469 30.816406 C 349.855469 29.722656 351.015625 29.585938 351.671875 29.449219 C 353.351562 29.3125 353.613281 29.175781 353.871094 28.902344 Z M 353.871094 30.269531 "/>
<path style=" stroke:none;fill-rule:nonzero;fill:rgb(13.699341%,12.199402%,12.5%);fill-opacity:1;" d="M 364.285156 21.660156 L 362.984375 21.660156 L 362.984375 26.035156 C 362.585938 25.488281 361.945312 24.53125 360.507812 24.53125 C 358.429688 24.53125 357.128906 26.445312 357.128906 28.765625 C 357.128906 30.816406 357.910156 33.550781 360.769531 33.550781 C 361.546875 33.550781 362.464844 33.277344 362.984375 32.046875 L 362.984375 33.277344 L 364.285156 33.277344 Z M 358.566406 29.039062 C 358.566406 27.949219 358.6875 25.761719 360.769531 25.761719 C 362.726562 25.761719 362.984375 28.085938 362.984375 29.449219 C 362.984375 31.636719 361.546875 32.320312 360.769531 32.320312 C 359.207031 32.320312 358.566406 30.816406 358.566406 29.039062 Z M 358.566406 29.039062 "/>
<path style=" stroke:none;fill-rule:nonzero;fill:rgb(13.699341%,12.199402%,12.5%);fill-opacity:1;" d="M 373.640625 25.898438 L 373.640625 24.804688 L 372.339844 24.804688 L 372.339844 22.347656 L 370.902344 22.347656 L 370.902344 24.804688 L 369.863281 24.804688 L 369.863281 25.898438 L 370.902344 25.898438 L 370.902344 31.636719 C 370.902344 32.59375 371.164062 33.414062 372.601562 33.414062 C 372.722656 33.414062 373.121094 33.277344 373.640625 33.277344 L 373.640625 32.183594 L 373.121094 32.183594 C 372.859375 32.183594 372.339844 32.183594 372.339844 31.5 L 372.339844 25.898438 Z M 373.640625 25.898438 "/>
<path style=" stroke:none;fill-rule:nonzero;fill:rgb(13.699341%,12.199402%,12.5%);fill-opacity:1;" d="M 374.542969 29.039062 C 374.542969 31.226562 375.71875 33.550781 378.179688 33.550781 C 380.777344 33.550781 381.957031 31.226562 381.957031 29.039062 C 381.957031 26.855469 380.777344 24.53125 378.179688 24.53125 C 375.71875 24.53125 374.542969 26.855469 374.542969 29.039062 Z M 375.839844 29.039062 C 375.839844 27.949219 376.359375 25.761719 378.179688 25.761719 C 380.136719 25.761719 380.65625 27.949219 380.65625 29.039062 C 380.65625 30.132812 380.136719 32.320312 378.179688 32.320312 C 376.359375 32.320312 375.839844 30.132812 375.839844 29.039062 Z M 375.839844 29.039062 "/>
<path style=" stroke:none;fill-rule:nonzero;fill:rgb(13.699341%,12.199402%,12.5%);fill-opacity:1;" d="M 393.910156 27.265625 C 393.910156 26.71875 393.648438 24.53125 390.792969 24.53125 C 389.230469 24.53125 387.671875 25.351562 387.671875 27.265625 C 387.671875 28.359375 388.453125 29.039062 389.613281 29.3125 L 391.171875 29.722656 C 392.351562 29.996094 392.730469 30.269531 392.730469 30.953125 C 392.730469 31.910156 391.832031 32.320312 390.914062 32.320312 C 388.972656 32.320312 388.832031 31.226562 388.710938 30.542969 L 387.414062 30.542969 C 387.535156 31.636719 387.671875 33.550781 390.914062 33.550781 C 392.730469 33.550781 394.167969 32.457031 394.167969 30.679688 C 394.167969 29.585938 393.511719 28.902344 391.832031 28.492188 L 390.53125 28.085938 C 389.492188 27.8125 388.972656 27.675781 388.972656 26.992188 C 388.972656 25.898438 390.273438 25.761719 390.652344 25.761719 C 392.351562 25.761719 392.472656 26.71875 392.609375 27.265625 Z M 393.910156 27.265625 "/>
<path style=" stroke:none;fill-rule:nonzero;fill:rgb(13.699341%,12.199402%,12.5%);fill-opacity:1;" d="M 401.308594 30.679688 C 401.1875 31.226562 400.40625 32.320312 399.230469 32.320312 C 397.667969 32.320312 396.769531 31.226562 396.769531 29.449219 L 402.746094 29.449219 C 402.746094 26.445312 401.566406 24.53125 399.230469 24.53125 C 396.628906 24.53125 395.332031 26.582031 395.332031 29.3125 C 395.332031 31.773438 396.769531 33.550781 398.96875 33.550781 C 400.269531 33.550781 400.789062 33.140625 401.1875 33.003906 C 402.226562 32.183594 402.605469 30.953125 402.605469 30.679688 Z M 396.769531 28.359375 C 396.769531 26.992188 397.808594 25.761719 399.105469 25.761719 C 400.667969 25.761719 401.1875 26.992188 401.308594 28.359375 Z M 396.769531 28.359375 "/>
<path style=" stroke:none;fill-rule:nonzero;fill:rgb(13.699341%,12.199402%,12.5%);fill-opacity:1;" d="M 405.984375 28.359375 C 405.984375 27.128906 406.765625 26.035156 408.0625 26.035156 L 408.582031 26.035156 L 408.582031 24.53125 C 408.460938 24.53125 408.324219 24.53125 408.203125 24.53125 C 407.164062 24.53125 406.503906 25.214844 405.863281 26.171875 L 405.863281 24.804688 L 404.566406 24.804688 L 404.566406 33.277344 L 405.984375 33.277344 Z M 405.984375 28.359375 "/>
<path style=" stroke:none;fill-rule:nonzero;fill:rgb(13.699341%,12.199402%,12.5%);fill-opacity:1;" d="M 412.480469 31.636719 L 412.359375 31.636719 L 410.28125 24.804688 L 408.722656 24.804688 L 411.703125 33.277344 L 413.140625 33.277344 L 416.257812 24.804688 L 414.699219 24.804688 Z M 412.480469 31.636719 "/>
<path style=" stroke:none;fill-rule:nonzero;fill:rgb(13.699341%,12.199402%,12.5%);fill-opacity:1;" d="M 418.855469 24.804688 L 417.4375 24.804688 L 417.4375 33.277344 L 418.855469 33.277344 Z M 418.855469 23.164062 L 418.855469 21.660156 L 417.4375 21.660156 L 417.4375 23.164062 Z M 418.855469 23.164062 "/>
<path style=" stroke:none;fill-rule:nonzero;fill:rgb(13.699341%,12.199402%,12.5%);fill-opacity:1;" d="M 427.3125 27.675781 C 427.171875 26.171875 426.394531 24.53125 424.191406 24.53125 C 421.59375 24.53125 420.296875 26.582031 420.296875 29.3125 C 420.296875 31.773438 421.714844 33.550781 423.933594 33.550781 C 426.273438 33.550781 427.171875 31.636719 427.3125 30.269531 L 425.875 30.269531 C 425.753906 31.636719 424.972656 32.320312 424.054688 32.320312 C 422.113281 32.320312 421.855469 30.542969 421.855469 29.039062 C 421.855469 27.539062 422.375 25.761719 424.054688 25.761719 C 425.234375 25.761719 425.753906 26.445312 425.875 27.675781 Z M 427.3125 27.675781 "/>
<path style=" stroke:none;fill-rule:nonzero;fill:rgb(13.699341%,12.199402%,12.5%);fill-opacity:1;" d="M 434.1875 30.679688 C 434.1875 31.226562 433.410156 32.320312 432.109375 32.320312 C 430.550781 32.320312 429.773438 31.226562 429.773438 29.449219 L 435.628906 29.449219 C 435.628906 26.445312 434.449219 24.53125 432.109375 24.53125 C 429.511719 24.53125 428.351562 26.582031 428.351562 29.3125 C 428.351562 31.773438 429.648438 33.550781 431.851562 33.550781 C 433.148438 33.550781 433.667969 33.140625 434.066406 33.003906 C 435.109375 32.183594 435.488281 30.953125 435.488281 30.679688 Z M 429.773438 28.359375 C 429.773438 26.992188 430.691406 25.761719 431.988281 25.761719 C 433.667969 25.761719 434.1875 26.992188 434.1875 28.359375 Z M 429.773438 28.359375 "/>
<path style=" stroke:none;fill-rule:nonzero;fill:rgb(13.699341%,12.199402%,12.5%);fill-opacity:1;" d="M 343.617188 42.296875 L 343.617188 41.203125 L 342.316406 41.203125 L 342.316406 38.742188 L 341.019531 38.742188 L 341.019531 41.203125 L 339.839844 41.203125 L 339.839844 42.296875 L 341.019531 42.296875 L 341.019531 48.035156 C 341.019531 48.992188 341.277344 49.8125 342.699219 49.8125 C 342.835938 49.8125 343.21875 49.675781 343.617188 49.675781 L 343.617188 48.582031 L 343.21875 48.582031 C 342.957031 48.582031 342.316406 48.582031 342.316406 47.898438 L 342.316406 42.296875 Z M 343.617188 42.296875 "/>
<path style=" stroke:none;fill-rule:nonzero;fill:rgb(13.699341%,12.199402%,12.5%);fill-opacity:1;" d="M 351.671875 43.933594 C 351.671875 41.476562 349.976562 40.929688 348.8125 40.929688 C 347.515625 40.929688 346.855469 41.75 346.476562 42.296875 L 346.335938 42.296875 L 346.335938 38.058594 L 345.039062 38.058594 L 345.039062 49.675781 L 346.335938 49.675781 L 346.335938 45.027344 C 346.335938 42.839844 347.515625 42.160156 348.675781 42.160156 C 349.976562 42.160156 350.234375 42.976562 350.234375 44.074219 L 350.234375 49.675781 L 351.671875 49.675781 Z M 351.671875 43.933594 "/>
<path style=" stroke:none;fill-rule:nonzero;fill:rgb(13.699341%,12.199402%,12.5%);fill-opacity:1;" d="M 359.207031 47.078125 C 359.207031 47.625 358.429688 48.71875 357.128906 48.71875 C 355.570312 48.71875 354.792969 47.625 354.792969 45.847656 L 360.648438 45.847656 C 360.648438 42.839844 359.46875 40.929688 357.269531 40.929688 C 354.53125 40.929688 353.351562 42.976562 353.351562 45.710938 C 353.351562 48.171875 354.652344 49.949219 357.007812 49.949219 C 358.308594 49.949219 358.828125 49.539062 359.085938 49.402344 C 360.128906 48.582031 360.507812 47.351562 360.507812 47.078125 Z M 354.792969 44.753906 C 354.792969 43.386719 355.691406 42.160156 357.007812 42.160156 C 358.6875 42.160156 359.207031 43.386719 359.207031 44.753906 Z M 354.792969 44.753906 "/>
<path style=" stroke:none;fill-rule:nonzero;fill:rgb(13.699341%,12.199402%,12.5%);fill-opacity:1;" d="M 368.304688 44.753906 C 368.304688 43.523438 369.082031 42.433594 370.382812 42.433594 L 370.902344 42.433594 L 370.902344 40.929688 C 370.78125 40.929688 370.644531 40.929688 370.523438 40.929688 C 369.480469 40.929688 368.703125 41.613281 368.183594 42.566406 L 368.183594 41.203125 L 366.882812 41.203125 L 366.882812 49.675781 L 368.304688 49.675781 Z M 368.304688 44.753906 "/>
<path style=" stroke:none;fill-rule:nonzero;fill:rgb(13.699341%,12.199402%,12.5%);fill-opacity:1;" d="M 377.398438 47.078125 C 377.398438 47.625 376.621094 48.71875 375.320312 48.71875 C 373.761719 48.71875 372.980469 47.625 372.980469 45.847656 L 378.835938 45.847656 C 378.835938 42.839844 377.796875 40.929688 375.460938 40.929688 C 372.722656 40.929688 371.5625 42.976562 371.5625 45.710938 C 371.5625 48.171875 372.859375 49.949219 375.199219 49.949219 C 376.5 49.949219 377.019531 49.539062 377.277344 49.402344 C 378.316406 48.582031 378.699219 47.351562 378.835938 47.078125 Z M 372.980469 44.753906 C 372.980469 43.386719 374.019531 42.160156 375.199219 42.160156 C 376.878906 42.160156 377.398438 43.386719 377.539062 44.753906 Z M 372.980469 44.753906 "/>
<path style=" stroke:none;fill-rule:nonzero;fill:rgb(13.699341%,12.199402%,12.5%);fill-opacity:1;" d="M 387.152344 41.203125 L 385.976562 41.203125 L 385.976562 42.433594 L 385.855469 42.433594 C 385.59375 41.886719 384.9375 40.929688 383.515625 40.929688 C 381.296875 40.929688 380.136719 42.839844 380.136719 45.164062 C 380.136719 47.214844 380.917969 49.949219 383.636719 49.949219 C 384.816406 49.949219 385.457031 49.402344 385.855469 48.71875 L 385.855469 53.089844 L 387.152344 53.089844 Z M 385.855469 45.847656 C 385.855469 48.035156 384.554688 48.71875 383.636719 48.71875 C 382.214844 48.71875 381.558594 47.214844 381.558594 45.4375 C 381.558594 44.347656 381.558594 42.160156 383.773438 42.160156 C 385.714844 42.160156 385.855469 44.480469 385.855469 45.847656 Z M 385.855469 45.847656 "/>
<path style=" stroke:none;fill-rule:nonzero;fill:rgb(13.699341%,12.199402%,12.5%);fill-opacity:1;" d="M 395.851562 49.675781 L 395.851562 41.203125 L 394.429688 41.203125 L 394.429688 45.847656 C 394.429688 47.078125 393.910156 48.71875 392.210938 48.71875 C 391.3125 48.71875 390.652344 48.171875 390.652344 46.804688 L 390.652344 41.203125 L 389.230469 41.203125 L 389.230469 47.351562 C 389.230469 49.265625 390.792969 49.949219 391.953125 49.949219 C 393.25 49.949219 393.910156 49.402344 394.429688 48.445312 L 394.550781 48.445312 L 394.550781 49.675781 Z M 395.851562 49.675781 "/>
<path style=" stroke:none;fill-rule:nonzero;fill:rgb(13.699341%,12.199402%,12.5%);fill-opacity:1;" d="M 403.386719 47.078125 C 403.386719 47.625 402.605469 48.71875 401.308594 48.71875 C 399.75 48.71875 398.96875 47.625 398.96875 45.847656 L 404.945312 45.847656 C 404.945312 42.839844 403.785156 40.929688 401.445312 40.929688 C 398.707031 40.929688 397.546875 42.976562 397.546875 45.710938 C 397.546875 48.171875 398.847656 49.949219 401.1875 49.949219 C 402.484375 49.949219 403.003906 49.539062 403.386719 49.402344 C 404.304688 48.582031 404.6875 47.351562 404.824219 47.078125 Z M 398.96875 44.753906 C 398.96875 43.386719 400.007812 42.160156 401.1875 42.160156 C 402.867188 42.160156 403.386719 43.386719 403.523438 44.753906 Z M 398.96875 44.753906 "/>
<path style=" stroke:none;fill-rule:nonzero;fill:rgb(13.699341%,12.199402%,12.5%);fill-opacity:1;" d="M 412.480469 43.660156 C 412.480469 43.113281 412.222656 40.929688 409.363281 40.929688 C 407.804688 40.929688 406.382812 41.75 406.382812 43.660156 C 406.382812 44.753906 407.023438 45.4375 408.203125 45.710938 L 409.761719 46.121094 C 410.921875 46.394531 411.441406 46.667969 411.441406 47.351562 C 411.441406 48.308594 410.542969 48.71875 409.503906 48.71875 C 407.683594 48.71875 407.421875 47.625 407.421875 46.941406 L 406.125 46.941406 C 406.125 48.035156 406.382812 49.949219 409.503906 49.949219 C 411.320312 49.949219 412.742188 48.855469 412.742188 47.078125 C 412.742188 45.984375 412.222656 45.300781 410.542969 44.890625 L 409.101562 44.480469 C 408.0625 44.210938 407.683594 44.074219 407.683594 43.386719 C 407.683594 42.296875 408.84375 42.160156 409.242188 42.160156 C 410.921875 42.160156 411.183594 43.113281 411.183594 43.660156 Z M 412.480469 43.660156 "/>
<path style=" stroke:none;fill-rule:nonzero;fill:rgb(13.699341%,12.199402%,12.5%);fill-opacity:1;" d="M 417.296875 42.296875 L 417.296875 41.203125 L 416 41.203125 L 416 38.742188 L 414.699219 38.742188 L 414.699219 41.203125 L 413.519531 41.203125 L 413.519531 42.296875 L 414.699219 42.296875 L 414.699219 48.035156 C 414.699219 48.992188 414.960938 49.8125 416.398438 49.8125 C 416.519531 49.8125 416.917969 49.675781 417.296875 49.675781 L 417.296875 48.582031 L 416.917969 48.582031 C 416.65625 48.582031 416 48.582031 416 47.898438 L 416 42.296875 Z M 417.296875 42.296875 "/>
<path style=" stroke:none;fill-rule:nonzero;fill:rgb(13.699341%,12.199402%,12.5%);fill-opacity:1;" d="M 203.652344 151.613281 C 201.972656 154.207031 201.054688 156.394531 201.054688 159.265625 C 201.054688 162.40625 202.09375 164.457031 203.652344 166.914062 L 204.570312 166.914062 C 203.269531 164.320312 202.492188 162.40625 202.492188 159.675781 C 202.492188 155.847656 203.269531 154.207031 204.570312 151.613281 Z M 203.652344 151.613281 "/>
<path style=" stroke:none;fill-rule:nonzero;fill:rgb(13.699341%,12.199402%,12.5%);fill-opacity:1;" d="M 208.589844 158.304688 C 208.847656 158.304688 208.988281 158.304688 209.246094 158.304688 C 210.148438 158.304688 211.707031 158.445312 211.707031 160.355469 C 211.707031 161.722656 210.808594 162.542969 209.371094 162.542969 C 207.429688 162.542969 207.167969 161.175781 207.03125 160.085938 L 205.609375 160.085938 C 205.730469 161.449219 206.128906 162.679688 207.289062 163.363281 C 207.808594 163.636719 208.46875 163.910156 209.246094 163.910156 C 212.105469 163.910156 213.144531 162.132812 213.144531 160.21875 C 213.144531 158.71875 212.488281 157.898438 211.449219 157.488281 C 211.96875 157.351562 212.746094 156.667969 212.746094 155.164062 C 212.746094 153.386719 211.585938 152.160156 209.371094 152.160156 C 206.511719 152.160156 205.871094 154.207031 205.871094 155.847656 L 207.289062 155.847656 C 207.289062 155.027344 207.429688 153.386719 209.371094 153.386719 C 210.929688 153.386719 211.328125 154.480469 211.328125 155.164062 C 211.328125 156.667969 210.410156 157.078125 209.246094 157.078125 C 209.109375 157.078125 208.847656 157.078125 208.589844 157.078125 Z M 208.589844 158.304688 "/>
<path style=" stroke:none;fill-rule:nonzero;fill:rgb(13.699341%,12.199402%,12.5%);fill-opacity:1;" d="M 215.347656 166.914062 C 216.90625 164.457031 217.945312 162.132812 217.945312 159.265625 C 217.945312 156.257812 216.90625 154.207031 215.226562 151.613281 L 214.308594 151.613281 C 215.605469 154.207031 216.386719 156.121094 216.386719 158.855469 C 216.386719 162.816406 215.605469 164.320312 214.308594 166.914062 Z M 215.347656 166.914062 "/>
<path style=" stroke:none;fill-rule:nonzero;fill:rgb(13.699341%,12.199402%,12.5%);fill-opacity:1;" d="M 225.878906 158.582031 C 225.878906 157.351562 226.660156 156.394531 227.957031 156.394531 L 228.476562 156.394531 L 228.476562 154.890625 C 228.339844 154.890625 228.21875 154.753906 228.078125 154.753906 C 227.039062 154.753906 226.398438 155.4375 225.878906 156.53125 L 225.742188 156.53125 L 225.742188 155.027344 L 224.582031 155.027344 L 224.582031 163.5 L 225.878906 163.5 Z M 225.878906 158.582031 "/>
<path style=" stroke:none;fill-rule:nonzero;fill:rgb(13.699341%,12.199402%,12.5%);fill-opacity:1;" d="M 234.976562 160.902344 C 234.976562 161.585938 234.195312 162.542969 232.894531 162.542969 C 231.335938 162.542969 230.558594 161.585938 230.558594 159.8125 L 236.535156 159.8125 C 236.535156 156.804688 235.355469 154.753906 233.015625 154.753906 C 230.296875 154.753906 229.121094 156.941406 229.121094 159.539062 C 229.121094 161.996094 230.417969 163.773438 232.757812 163.773438 C 234.058594 163.773438 234.578125 163.5 234.976562 163.226562 C 236.015625 162.542969 236.394531 161.3125 236.394531 160.902344 Z M 230.558594 158.582031 C 230.558594 157.351562 231.597656 156.121094 232.894531 156.121094 C 234.457031 156.121094 234.976562 157.351562 235.097656 158.582031 Z M 230.558594 158.582031 "/>
<path style=" stroke:none;fill-rule:nonzero;fill:rgb(13.699341%,12.199402%,12.5%);fill-opacity:1;" d="M 244.070312 157.488281 C 244.070312 157.078125 243.949219 154.753906 240.953125 154.753906 C 239.394531 154.753906 237.953125 155.710938 237.953125 157.488281 C 237.953125 158.71875 238.734375 159.265625 239.792969 159.539062 L 241.351562 159.949219 C 242.511719 160.355469 243.03125 160.492188 243.03125 161.175781 C 243.03125 162.132812 242.128906 162.542969 241.210938 162.542969 C 239.269531 162.542969 239.011719 161.449219 239.011719 160.902344 L 237.695312 160.902344 C 237.695312 161.859375 237.953125 163.773438 241.210938 163.773438 C 243.03125 163.773438 244.332031 162.816406 244.332031 161.039062 C 244.332031 159.8125 243.808594 159.128906 242.128906 158.71875 L 240.691406 158.445312 C 239.652344 158.171875 239.269531 157.898438 239.269531 157.214844 C 239.269531 156.257812 240.433594 156.121094 240.832031 156.121094 C 242.648438 156.121094 242.769531 156.941406 242.769531 157.488281 Z M 244.070312 157.488281 "/>
<path style=" stroke:none;fill-rule:nonzero;fill:rgb(13.699341%,12.199402%,12.5%);fill-opacity:1;" d="M 252.523438 163.5 L 252.523438 155.027344 L 251.226562 155.027344 L 251.226562 159.8125 C 251.226562 161.039062 250.707031 162.542969 249.007812 162.542969 C 248.105469 162.542969 247.449219 162.132812 247.449219 160.765625 L 247.449219 155.027344 L 246.027344 155.027344 L 246.027344 161.175781 C 246.027344 163.226562 247.449219 163.773438 248.625 163.773438 C 249.925781 163.773438 250.707031 163.226562 251.226562 162.269531 L 251.226562 163.5 Z M 252.523438 163.5 "/>
<path style=" stroke:none;fill-rule:nonzero;fill:rgb(13.699341%,12.199402%,12.5%);fill-opacity:1;" d="M 254.726562 163.5 L 256.023438 163.5 L 256.023438 158.992188 C 256.023438 156.667969 257.324219 156.121094 258.101562 156.121094 C 259.144531 156.121094 259.402344 156.941406 259.402344 157.625 L 259.402344 163.5 L 260.839844 163.5 L 260.839844 158.445312 C 260.839844 157.214844 261.480469 156.121094 262.660156 156.121094 C 263.820312 156.121094 264.21875 156.941406 264.21875 158.035156 L 264.21875 163.5 L 265.519531 163.5 L 265.519531 157.625 C 265.519531 155.300781 263.957031 154.753906 263.039062 154.753906 C 261.742188 154.753906 261.222656 155.4375 260.582031 156.257812 C 260.320312 155.710938 259.921875 154.753906 258.363281 154.753906 C 256.941406 154.753906 256.285156 155.847656 256.023438 156.257812 L 255.902344 156.257812 L 255.902344 155.027344 L 254.726562 155.027344 Z M 254.726562 163.5 "/>
<path style=" stroke:none;fill-rule:nonzero;fill:rgb(13.699341%,12.199402%,12.5%);fill-opacity:1;" d="M 273.175781 160.902344 C 273.175781 161.585938 272.394531 162.542969 271.097656 162.542969 C 269.539062 162.542969 268.757812 161.585938 268.757812 159.8125 L 274.613281 159.8125 C 274.613281 156.804688 273.433594 154.753906 271.097656 154.753906 C 268.496094 154.753906 267.335938 156.941406 267.335938 159.539062 C 267.335938 161.996094 268.636719 163.773438 270.835938 163.773438 C 272.136719 163.773438 272.65625 163.5 273.054688 163.226562 C 274.09375 162.542969 274.476562 161.3125 274.476562 160.902344 Z M 268.757812 158.582031 C 268.757812 157.351562 269.675781 156.121094 270.976562 156.121094 C 272.65625 156.121094 273.175781 157.351562 273.175781 158.582031 Z M 268.757812 158.582031 "/>
<path style=" stroke:none;fill-rule:nonzero;fill:rgb(13.699341%,12.199402%,12.5%);fill-opacity:1;" d="M 282.011719 151.886719 L 280.710938 151.886719 L 280.710938 163.5 L 282.011719 163.5 Z M 282.011719 151.886719 "/>
<path style=" stroke:none;fill-rule:nonzero;fill:rgb(13.699341%,12.199402%,12.5%);fill-opacity:1;" d="M 285.527344 155.027344 L 284.089844 155.027344 L 284.089844 163.5 L 285.527344 163.5 Z M 285.527344 153.523438 L 285.527344 151.886719 L 284.089844 151.886719 L 284.089844 153.523438 Z M 285.527344 153.523438 "/>
<path style=" stroke:none;fill-rule:nonzero;fill:rgb(13.699341%,12.199402%,12.5%);fill-opacity:1;" d="M 293.445312 157.488281 C 293.445312 157.078125 293.324219 154.753906 290.464844 154.753906 C 288.765625 154.753906 287.347656 155.710938 287.347656 157.488281 C 287.347656 158.71875 288.125 159.265625 289.164062 159.539062 L 290.847656 159.949219 C 291.886719 160.355469 292.40625 160.492188 292.40625 161.175781 C 292.40625 162.132812 291.503906 162.542969 290.585938 162.542969 C 288.644531 162.542969 288.386719 161.449219 288.386719 160.902344 L 287.085938 160.902344 C 287.085938 161.859375 287.347656 163.773438 290.585938 163.773438 C 292.40625 163.773438 293.703125 162.816406 293.703125 161.039062 C 293.703125 159.8125 293.183594 159.128906 291.503906 158.71875 L 290.066406 158.445312 C 289.027344 158.171875 288.644531 157.898438 288.644531 157.214844 C 288.644531 156.257812 289.808594 156.121094 290.207031 156.121094 C 292.023438 156.121094 292.144531 156.941406 292.144531 157.488281 Z M 293.445312 157.488281 "/>
<path style=" stroke:none;fill-rule:nonzero;fill:rgb(13.699341%,12.199402%,12.5%);fill-opacity:1;" d="M 298.398438 156.257812 L 298.398438 155.027344 L 297.082031 155.027344 L 297.082031 152.703125 L 295.664062 152.703125 L 295.664062 155.027344 L 294.625 155.027344 L 294.625 156.257812 L 295.664062 156.257812 L 295.664062 161.859375 C 295.664062 162.816406 296.042969 163.636719 297.34375 163.636719 C 297.480469 163.636719 297.878906 163.636719 298.398438 163.5 L 298.398438 162.40625 L 297.878906 162.40625 C 297.621094 162.40625 297.082031 162.40625 297.082031 161.722656 L 297.082031 156.257812 Z M 298.398438 156.257812 "/>
<path style=" stroke:none;fill-rule:nonzero;fill:rgb(13.699341%,12.199402%,12.5%);fill-opacity:1;" d="M 305.277344 160.902344 C 305.15625 161.585938 304.375 162.542969 303.199219 162.542969 C 301.640625 162.542969 300.738281 161.585938 300.738281 159.8125 L 306.714844 159.8125 C 306.714844 156.804688 305.539062 154.753906 303.199219 154.753906 C 300.601562 154.753906 299.300781 156.941406 299.300781 159.539062 C 299.300781 161.996094 300.738281 163.773438 302.9375 163.773438 C 304.238281 163.773438 304.757812 163.5 305.15625 163.226562 C 306.195312 162.542969 306.578125 161.3125 306.578125 160.902344 Z M 300.738281 158.582031 C 300.738281 157.351562 301.777344 156.121094 303.078125 156.121094 C 304.636719 156.121094 305.15625 157.351562 305.277344 158.582031 Z M 300.738281 158.582031 "/>
<path style=" stroke:none;fill-rule:nonzero;fill:rgb(13.699341%,12.199402%,12.5%);fill-opacity:1;" d="M 315.03125 157.761719 C 315.03125 155.300781 313.472656 154.753906 312.171875 154.753906 C 310.734375 154.753906 309.957031 155.847656 309.695312 156.257812 L 309.695312 155.027344 L 308.394531 155.027344 L 308.394531 163.5 L 309.695312 163.5 L 309.695312 158.992188 C 309.695312 156.667969 311.132812 156.121094 311.914062 156.121094 C 313.210938 156.121094 313.59375 156.804688 313.59375 158.304688 L 313.59375 163.5 L 315.03125 163.5 Z M 315.03125 157.761719 "/>
<path style=" stroke:none;fill-rule:nonzero;fill:rgb(13.699341%,12.199402%,12.5%);fill-opacity:1;" d="M 318.410156 155.027344 L 317.109375 155.027344 L 317.109375 163.5 L 318.410156 163.5 Z M 318.410156 153.523438 L 318.410156 151.886719 L 317.109375 151.886719 L 317.109375 153.523438 Z M 318.410156 153.523438 "/>
<path style=" stroke:none;fill-rule:nonzero;fill:rgb(13.699341%,12.199402%,12.5%);fill-opacity:1;" d="M 327.105469 157.761719 C 327.105469 155.300781 325.546875 154.753906 324.25 154.753906 C 322.949219 154.753906 322.167969 155.847656 321.789062 156.257812 L 321.789062 155.027344 L 320.488281 155.027344 L 320.488281 163.5 L 321.910156 163.5 L 321.910156 158.992188 C 321.910156 156.667969 323.207031 156.121094 323.988281 156.121094 C 325.289062 156.121094 325.808594 156.804688 325.808594 158.304688 L 325.808594 163.5 L 327.105469 163.5 Z M 327.105469 157.761719 "/>
<path style=" stroke:none;fill-rule:nonzero;fill:rgb(13.699341%,12.199402%,12.5%);fill-opacity:1;" d="M 330.226562 159.265625 C 330.226562 158.171875 330.363281 156.121094 332.441406 156.121094 C 334.382812 156.121094 334.644531 158.304688 334.644531 159.675781 C 334.644531 161.996094 333.222656 162.542969 332.441406 162.542969 C 330.882812 162.542969 330.226562 161.175781 330.226562 159.265625 Z M 335.941406 155.027344 L 334.644531 155.027344 L 334.644531 156.257812 C 334.261719 155.710938 333.601562 154.753906 332.183594 154.753906 C 329.964844 154.753906 328.804688 156.667969 328.804688 159.128906 C 328.804688 161.039062 329.585938 163.773438 332.304688 163.773438 C 333.480469 163.773438 334.125 163.226562 334.523438 162.679688 L 334.523438 162.542969 L 334.523438 162.953125 C 334.523438 163.910156 334.644531 165.960938 332.183594 165.960938 C 331.921875 165.960938 330.625 165.960938 330.363281 164.59375 L 329.0625 164.59375 C 329.324219 166.914062 331.144531 167.191406 332.183594 167.191406 C 335.941406 167.191406 335.941406 164.046875 335.941406 162.816406 Z M 335.941406 155.027344 "/>
<path style=" stroke:none;fill-rule:nonzero;fill:rgb(13.699341%,12.199402%,12.5%);fill-opacity:1;" d="M 227.820312 172.65625 L 227.820312 171.425781 L 226.398438 171.425781 L 226.398438 170.46875 C 226.398438 169.785156 226.660156 169.375 227.300781 169.375 C 227.4375 169.375 227.699219 169.375 227.820312 169.375 L 227.820312 168.144531 C 227.558594 168.144531 227.4375 168.144531 227.179688 168.144531 C 225.878906 168.144531 225.101562 168.691406 225.101562 170.058594 L 225.101562 171.425781 L 223.921875 171.425781 L 223.921875 172.65625 L 225.101562 172.65625 L 225.101562 179.898438 L 226.398438 179.898438 L 226.398438 172.65625 Z M 227.820312 172.65625 "/>
<path style=" stroke:none;fill-rule:nonzero;fill:rgb(13.699341%,12.199402%,12.5%);fill-opacity:1;" d="M 228.597656 175.660156 C 228.597656 177.847656 229.777344 180.167969 232.375 180.167969 C 234.976562 180.167969 236.136719 177.847656 236.136719 175.660156 C 236.136719 173.476562 234.976562 171.152344 232.375 171.152344 C 229.777344 171.152344 228.597656 173.476562 228.597656 175.660156 Z M 230.039062 175.660156 C 230.039062 174.566406 230.417969 172.519531 232.375 172.519531 C 234.316406 172.519531 234.714844 174.566406 234.714844 175.660156 C 234.714844 176.890625 234.316406 178.941406 232.375 178.941406 C 230.417969 178.941406 230.039062 176.890625 230.039062 175.660156 Z M 230.039062 175.660156 "/>
<path style=" stroke:none;fill-rule:nonzero;fill:rgb(13.699341%,12.199402%,12.5%);fill-opacity:1;" d="M 239.269531 174.976562 C 239.269531 173.75 240.171875 172.792969 241.351562 172.792969 L 241.871094 172.792969 L 241.871094 171.289062 C 241.730469 171.289062 241.730469 171.152344 241.609375 171.152344 C 240.570312 171.152344 239.792969 171.835938 239.269531 172.929688 L 239.269531 171.425781 L 237.953125 171.425781 L 237.953125 179.898438 L 239.269531 179.898438 Z M 239.269531 174.976562 "/>
<path style=" stroke:none;fill-rule:nonzero;fill:rgb(13.699341%,12.199402%,12.5%);fill-opacity:1;" d="M 248.488281 174.023438 C 248.625 173.339844 248.746094 172.382812 250.308594 172.382812 C 251.605469 172.382812 252.265625 172.929688 252.265625 173.75 C 252.265625 174.566406 251.867188 174.703125 251.605469 174.839844 L 249.269531 175.113281 C 247.066406 175.386719 246.808594 177.027344 246.808594 177.710938 C 246.808594 179.214844 247.847656 180.167969 249.40625 180.167969 C 250.964844 180.167969 251.746094 179.488281 252.265625 178.804688 C 252.386719 179.488281 252.523438 180.167969 253.683594 180.167969 C 254.082031 180.167969 254.207031 180.035156 254.464844 179.898438 L 254.464844 178.941406 C 254.34375 178.941406 254.207031 178.941406 254.082031 178.941406 C 253.824219 178.941406 253.5625 178.804688 253.5625 178.53125 L 253.5625 173.613281 C 253.5625 171.425781 251.226562 171.152344 250.566406 171.152344 C 248.625 171.152344 247.328125 171.972656 247.1875 174.023438 Z M 252.265625 177.027344 C 252.265625 178.121094 250.964844 179.078125 249.789062 179.078125 C 248.746094 179.078125 248.226562 178.53125 248.226562 177.574219 C 248.226562 176.480469 249.269531 176.207031 250.046875 176.207031 C 251.746094 175.933594 252.003906 175.796875 252.265625 175.660156 Z M 252.265625 177.027344 "/>
<path style=" stroke:none;fill-rule:nonzero;fill:rgb(13.699341%,12.199402%,12.5%);fill-opacity:1;" d="M 262.660156 168.28125 L 261.359375 168.28125 L 261.359375 172.519531 L 261.222656 172.65625 C 260.960938 172.109375 260.320312 171.152344 258.882812 171.152344 C 256.683594 171.152344 255.503906 173.066406 255.503906 175.523438 C 255.503906 177.4375 256.285156 180.167969 259.019531 180.167969 C 259.800781 180.167969 260.839844 179.898438 261.359375 178.804688 L 261.359375 179.898438 L 262.660156 179.898438 Z M 256.941406 175.660156 C 256.941406 174.566406 257.0625 172.519531 259.144531 172.519531 C 261.101562 172.519531 261.359375 174.703125 261.359375 176.070312 C 261.359375 178.394531 259.921875 178.941406 259.144531 178.941406 C 257.582031 178.941406 256.941406 177.574219 256.941406 175.660156 Z M 256.941406 175.660156 "/>
<path style=" stroke:none;fill-rule:nonzero;fill:rgb(13.699341%,12.199402%,12.5%);fill-opacity:1;" d="M 271.355469 168.28125 L 269.9375 168.28125 L 269.9375 172.65625 C 269.675781 172.109375 269.015625 171.152344 267.597656 171.152344 C 265.378906 171.152344 264.21875 173.066406 264.21875 175.523438 C 264.21875 177.4375 265 180.167969 267.71875 180.167969 C 268.496094 180.167969 269.417969 179.898438 270.058594 178.804688 L 270.058594 179.898438 L 271.355469 179.898438 Z M 265.640625 175.660156 C 265.640625 174.566406 265.640625 172.519531 267.855469 172.519531 C 269.796875 172.519531 269.9375 174.703125 269.9375 176.070312 C 269.9375 178.394531 268.636719 178.941406 267.71875 178.941406 C 266.296875 178.941406 265.640625 177.574219 265.640625 175.660156 Z M 265.640625 175.660156 "/>
<path style=" stroke:none;fill-rule:nonzero;fill:rgb(13.699341%,12.199402%,12.5%);fill-opacity:1;" d="M 274.734375 171.425781 L 273.3125 171.425781 L 273.3125 179.898438 L 274.734375 179.898438 Z M 274.734375 169.921875 L 274.734375 168.28125 L 273.3125 168.28125 L 273.3125 169.921875 Z M 274.734375 169.921875 "/>
<path style=" stroke:none;fill-rule:nonzero;fill:rgb(13.699341%,12.199402%,12.5%);fill-opacity:1;" d="M 279.671875 172.65625 L 279.671875 171.425781 L 278.371094 171.425781 L 278.371094 169.101562 L 277.074219 169.101562 L 277.074219 171.425781 L 276.035156 171.425781 L 276.035156 172.65625 L 277.074219 172.65625 L 277.074219 178.257812 C 277.074219 179.214844 277.332031 180.035156 278.769531 180.035156 C 278.890625 180.035156 279.289062 180.035156 279.671875 179.898438 L 279.671875 178.804688 L 279.289062 178.804688 C 279.03125 178.804688 278.371094 178.804688 278.371094 178.121094 L 278.371094 172.65625 Z M 279.671875 172.65625 "/>
<path style=" stroke:none;fill-rule:nonzero;fill:rgb(13.699341%,12.199402%,12.5%);fill-opacity:1;" d="M 282.53125 171.425781 L 281.109375 171.425781 L 281.109375 179.898438 L 282.53125 179.898438 Z M 282.53125 169.921875 L 282.53125 168.28125 L 281.109375 168.28125 L 281.109375 169.921875 Z M 282.53125 169.921875 "/>
<path style=" stroke:none;fill-rule:nonzero;fill:rgb(13.699341%,12.199402%,12.5%);fill-opacity:1;" d="M 284.089844 175.660156 C 284.089844 177.847656 285.269531 180.167969 287.867188 180.167969 C 290.464844 180.167969 291.625 177.847656 291.625 175.660156 C 291.625 173.476562 290.464844 171.152344 287.867188 171.152344 C 285.269531 171.152344 284.089844 173.476562 284.089844 175.660156 Z M 285.527344 175.660156 C 285.527344 174.566406 285.910156 172.519531 287.867188 172.519531 C 289.808594 172.519531 290.207031 174.566406 290.207031 175.660156 C 290.207031 176.890625 289.808594 178.941406 287.867188 178.941406 C 285.910156 178.941406 285.527344 176.890625 285.527344 175.660156 Z M 285.527344 175.660156 "/>
<path style=" stroke:none;fill-rule:nonzero;fill:rgb(13.699341%,12.199402%,12.5%);fill-opacity:1;" d="M 299.820312 174.15625 C 299.820312 171.699219 298.261719 171.152344 296.960938 171.152344 C 295.664062 171.152344 294.882812 172.246094 294.484375 172.65625 L 294.484375 171.425781 L 293.183594 171.425781 L 293.183594 179.898438 L 294.625 179.898438 L 294.625 175.386719 C 294.625 173.066406 295.921875 172.519531 296.703125 172.519531 C 298 172.519531 298.519531 173.203125 298.519531 174.703125 L 298.519531 179.898438 L 299.820312 179.898438 Z M 299.820312 174.15625 "/>
<path style=" stroke:none;fill-rule:nonzero;fill:rgb(13.699341%,12.199402%,12.5%);fill-opacity:1;" d="M 303.078125 174.023438 C 303.199219 173.339844 303.457031 172.382812 305.019531 172.382812 C 306.316406 172.382812 306.835938 172.929688 306.835938 173.75 C 306.835938 174.566406 306.457031 174.703125 306.195312 174.839844 L 303.976562 175.113281 C 301.640625 175.386719 301.519531 177.027344 301.519531 177.710938 C 301.519531 179.214844 302.558594 180.167969 303.976562 180.167969 C 305.539062 180.167969 306.457031 179.488281 306.976562 178.804688 C 306.976562 179.488281 307.097656 180.167969 308.394531 180.167969 C 308.65625 180.167969 308.914062 180.035156 309.054688 179.898438 L 309.054688 178.941406 C 308.914062 178.941406 308.792969 178.941406 308.65625 178.941406 C 308.394531 178.941406 308.273438 178.804688 308.273438 178.53125 L 308.273438 173.613281 C 308.273438 171.425781 305.796875 171.152344 305.15625 171.152344 C 303.199219 171.152344 301.898438 171.972656 301.898438 174.023438 Z M 306.835938 177.027344 C 306.835938 178.121094 305.675781 179.078125 304.375 179.078125 C 303.335938 179.078125 302.816406 178.53125 302.816406 177.574219 C 302.816406 176.480469 303.976562 176.207031 304.636719 176.207031 C 306.316406 175.933594 306.578125 175.796875 306.835938 175.660156 Z M 306.835938 177.027344 "/>
<path style=" stroke:none;fill-rule:nonzero;fill:rgb(13.699341%,12.199402%,12.5%);fill-opacity:1;" d="M 311.914062 168.28125 L 310.613281 168.28125 L 310.613281 179.898438 L 311.914062 179.898438 Z M 311.914062 168.28125 "/>
<path style=" stroke:none;fill-rule:nonzero;fill:rgb(13.699341%,12.199402%,12.5%);fill-opacity:1;" d="M 225.480469 190.691406 C 225.359375 189.191406 224.582031 187.550781 222.5 187.550781 C 219.765625 187.550781 218.601562 189.734375 218.601562 192.332031 C 218.601562 194.792969 219.902344 196.566406 222.242188 196.566406 C 224.582031 196.566406 225.359375 194.65625 225.480469 193.289062 L 224.183594 193.289062 C 223.921875 194.65625 223.140625 195.339844 222.242188 195.339844 C 220.421875 195.339844 220.023438 193.5625 220.023438 192.058594 C 220.023438 190.554688 220.542969 188.917969 222.242188 188.917969 C 223.402344 188.917969 224.058594 189.601562 224.183594 190.691406 Z M 225.480469 190.691406 "/>
<path style=" stroke:none;fill-rule:nonzero;fill:rgb(13.699341%,12.199402%,12.5%);fill-opacity:1;" d="M 228.339844 184.679688 L 226.917969 184.679688 L 226.917969 196.296875 L 228.339844 196.296875 Z M 228.339844 184.679688 "/>
<path style=" stroke:none;fill-rule:nonzero;fill:rgb(13.699341%,12.199402%,12.5%);fill-opacity:1;" d="M 231.71875 187.824219 L 230.417969 187.824219 L 230.417969 196.296875 L 231.71875 196.296875 Z M 231.71875 186.320312 L 231.71875 184.679688 L 230.417969 184.679688 L 230.417969 186.320312 Z M 231.71875 186.320312 "/>
<path style=" stroke:none;fill-rule:nonzero;fill:rgb(13.699341%,12.199402%,12.5%);fill-opacity:1;" d="M 239.394531 193.699219 C 239.269531 194.382812 238.613281 195.335938 237.3125 195.335938 C 235.753906 195.335938 234.976562 194.382812 234.976562 192.605469 L 240.832031 192.605469 C 240.832031 189.597656 239.652344 187.550781 237.3125 187.550781 C 234.714844 187.550781 233.414062 189.734375 233.414062 192.332031 C 233.414062 194.792969 234.835938 196.570312 237.054688 196.570312 C 238.351562 196.570312 238.871094 196.296875 239.269531 196.023438 C 240.3125 195.335938 240.691406 194.109375 240.691406 193.699219 Z M 234.976562 191.375 C 234.976562 190.144531 235.875 188.917969 237.175781 188.917969 C 238.871094 188.917969 239.394531 190.144531 239.394531 191.375 Z M 234.976562 191.375 "/>
<path style=" stroke:none;fill-rule:nonzero;fill:rgb(13.699341%,12.199402%,12.5%);fill-opacity:1;" d="M 249.144531 190.554688 C 249.144531 188.09375 247.585938 187.550781 246.289062 187.550781 C 244.851562 187.550781 244.070312 188.644531 243.808594 189.054688 L 243.808594 187.820312 L 242.511719 187.820312 L 242.511719 196.292969 L 243.949219 196.292969 L 243.949219 191.785156 C 243.949219 189.464844 245.25 188.917969 246.027344 188.917969 C 247.328125 188.917969 247.707031 189.601562 247.707031 191.101562 L 247.707031 196.292969 L 249.144531 196.292969 Z M 249.144531 190.554688 "/>
<path style=" stroke:none;fill-rule:nonzero;fill:rgb(13.699341%,12.199402%,12.5%);fill-opacity:1;" d="M 254.207031 189.050781 L 254.207031 187.824219 L 252.90625 187.824219 L 252.90625 185.5 L 251.484375 185.5 L 251.484375 187.824219 L 250.445312 187.824219 L 250.445312 189.050781 L 251.484375 189.050781 L 251.484375 194.65625 C 251.484375 195.609375 251.746094 196.433594 253.164062 196.433594 C 253.304688 196.433594 253.683594 196.433594 254.207031 196.296875 L 254.207031 195.199219 L 253.683594 195.199219 C 253.425781 195.199219 252.90625 195.199219 252.90625 194.519531 L 252.90625 189.050781 Z M 254.207031 189.050781 "/>
<path style=" stroke:none;fill-rule:nonzero;fill:rgb(13.699341%,12.199402%,12.5%);fill-opacity:1;" d="M 261.359375 191.375 C 261.359375 190.144531 262.261719 189.1875 263.4375 189.1875 L 263.957031 189.1875 L 263.957031 187.6875 C 263.820312 187.6875 263.820312 187.550781 263.699219 187.550781 C 262.660156 187.550781 261.878906 188.230469 261.359375 189.328125 L 261.359375 187.824219 L 260.0625 187.824219 L 260.0625 196.292969 L 261.359375 196.292969 Z M 261.359375 191.375 "/>
<path style=" stroke:none;fill-rule:nonzero;fill:rgb(13.699341%,12.199402%,12.5%);fill-opacity:1;" d="M 270.578125 193.699219 C 270.578125 194.382812 269.796875 195.335938 268.496094 195.335938 C 266.9375 195.335938 266.160156 194.382812 266.160156 192.605469 L 272.015625 192.605469 C 272.015625 189.597656 270.835938 187.550781 268.496094 187.550781 C 265.898438 187.550781 264.738281 189.734375 264.738281 192.332031 C 264.738281 194.792969 266.039062 196.570312 268.238281 196.570312 C 269.539062 196.570312 270.058594 196.296875 270.457031 196.023438 C 271.496094 195.335938 271.875 194.109375 271.875 193.699219 Z M 266.160156 191.375 C 266.160156 190.144531 267.078125 188.917969 268.375 188.917969 C 270.058594 188.917969 270.578125 190.144531 270.578125 191.375 Z M 266.160156 191.375 "/>
<path style=" stroke:none;fill-rule:nonzero;fill:rgb(13.699341%,12.199402%,12.5%);fill-opacity:1;" d="M 280.332031 187.824219 L 279.03125 187.824219 L 279.03125 189.050781 C 278.769531 188.503906 278.113281 187.550781 276.691406 187.550781 C 274.476562 187.550781 273.3125 189.460938 273.3125 191.921875 C 273.3125 193.835938 274.09375 196.566406 276.8125 196.566406 C 277.851562 196.566406 278.632812 196.023438 279.03125 195.476562 L 279.03125 199.710938 L 280.332031 199.710938 Z M 279.03125 192.46875 C 279.03125 194.792969 277.730469 195.339844 276.8125 195.339844 C 275.394531 195.339844 274.613281 193.972656 274.613281 192.058594 C 274.613281 190.964844 274.734375 188.914062 276.953125 188.914062 C 278.890625 188.914062 279.03125 191.101562 279.03125 192.46875 Z M 279.03125 192.46875 "/>
<path style=" stroke:none;fill-rule:nonzero;fill:rgb(13.699341%,12.199402%,12.5%);fill-opacity:1;" d="M 288.90625 196.292969 L 288.90625 187.824219 L 287.605469 187.824219 L 287.605469 192.605469 C 287.605469 193.835938 287.085938 195.339844 285.390625 195.339844 C 284.488281 195.339844 283.828125 194.929688 283.828125 193.5625 L 283.828125 187.824219 L 282.410156 187.824219 L 282.410156 193.972656 C 282.410156 196.023438 283.828125 196.566406 285.128906 196.566406 C 286.429688 196.566406 287.085938 196.023438 287.605469 195.066406 L 287.726562 195.066406 L 287.726562 196.292969 Z M 288.90625 196.292969 "/>
<path style=" stroke:none;fill-rule:nonzero;fill:rgb(13.699341%,12.199402%,12.5%);fill-opacity:1;" d="M 296.5625 193.699219 C 296.5625 194.382812 295.785156 195.335938 294.484375 195.335938 C 292.925781 195.335938 292.144531 194.382812 292.144531 192.605469 L 298 192.605469 C 298 189.597656 296.960938 187.550781 294.625 187.550781 C 291.886719 187.550781 290.726562 189.734375 290.726562 192.332031 C 290.726562 194.792969 292.023438 196.570312 294.363281 196.570312 C 295.664062 196.570312 296.183594 196.296875 296.441406 196.023438 C 297.480469 195.335938 297.878906 194.109375 298 193.699219 Z M 292.144531 191.375 C 292.144531 190.144531 293.0625 188.917969 294.363281 188.917969 C 296.042969 188.917969 296.5625 190.144531 296.703125 191.375 Z M 292.144531 191.375 "/>
<path style=" stroke:none;fill-rule:nonzero;fill:rgb(13.699341%,12.199402%,12.5%);fill-opacity:1;" d="M 305.675781 190.28125 C 305.675781 189.871094 305.417969 187.550781 302.558594 187.550781 C 301 187.550781 299.4375 188.507812 299.4375 190.28125 C 299.4375 191.511719 300.21875 192.058594 301.378906 192.332031 L 302.9375 192.742188 C 304.117188 193.152344 304.5 193.289062 304.5 193.972656 C 304.5 194.929688 303.71875 195.339844 302.679688 195.339844 C 300.738281 195.339844 300.601562 194.246094 300.601562 193.699219 L 299.179688 193.699219 C 299.300781 194.65625 299.5625 196.566406 302.679688 196.566406 C 304.5 196.566406 305.9375 195.613281 305.9375 193.835938 C 305.9375 192.605469 305.277344 191.921875 303.597656 191.511719 L 302.296875 191.238281 C 301.257812 190.964844 300.859375 190.691406 300.859375 190.007812 C 300.859375 189.054688 302.039062 188.917969 302.417969 188.917969 C 304.117188 188.917969 304.375 189.734375 304.375 190.28125 Z M 305.675781 190.28125 "/>
<path style=" stroke:none;fill-rule:nonzero;fill:rgb(13.699341%,12.199402%,12.5%);fill-opacity:1;" d="M 310.476562 189.050781 L 310.476562 187.824219 L 309.175781 187.824219 L 309.175781 185.5 L 307.875 185.5 L 307.875 187.824219 L 306.714844 187.824219 L 306.714844 189.050781 L 307.875 189.050781 L 307.875 194.65625 C 307.875 195.609375 308.136719 196.433594 309.4375 196.433594 C 309.574219 196.433594 309.957031 196.433594 310.476562 196.296875 L 310.476562 195.199219 L 310.09375 195.199219 C 309.695312 195.199219 309.175781 195.199219 309.175781 194.519531 L 309.175781 189.050781 Z M 310.476562 189.050781 "/>
<path style=" stroke:none;fill-rule:nonzero;fill:rgb(13.699341%,12.199402%,12.5%);fill-opacity:1;" d="M 317.75 190.28125 C 317.75 189.871094 317.628906 187.550781 314.632812 187.550781 C 313.074219 187.550781 311.652344 188.507812 311.652344 190.28125 C 311.652344 191.511719 312.433594 192.058594 313.472656 192.332031 L 315.03125 192.742188 C 316.191406 193.152344 316.710938 193.289062 316.710938 193.972656 C 316.710938 194.929688 315.8125 195.339844 314.773438 195.339844 C 312.953125 195.339844 312.691406 194.246094 312.691406 193.699219 L 311.394531 193.699219 C 311.394531 194.65625 311.652344 196.566406 314.894531 196.566406 C 316.710938 196.566406 318.011719 195.613281 318.011719 193.835938 C 318.011719 192.605469 317.492188 191.921875 315.8125 191.511719 L 314.375 191.238281 C 313.332031 190.964844 312.953125 190.691406 312.953125 190.007812 C 312.953125 189.054688 314.113281 188.917969 314.511719 188.917969 C 316.332031 188.917969 316.453125 189.734375 316.453125 190.28125 Z M 317.75 190.28125 "/>
<path style=" stroke:none;fill-rule:nonzero;fill:rgb(77.999878%,91.799927%,98.399353%);fill-opacity:1;" d="M 225.878906 78.914062 L 310.875 78.914062 L 310.875 44.890625 L 225.878906 44.890625 Z M 225.878906 78.914062 "/>
<path style="fill:none;stroke-width:0.45;stroke-linecap:butt;stroke-linejoin:miter;stroke:rgb(13.699341%,12.199402%,12.5%);stroke-opacity:1;stroke-miterlimit:10;" d="M 0.000824862 0.000793884 L -49.060372 0.000793884 L -49.060372 18.682801 L 0.000824862 18.682801 Z M 0.000824862 0.000793884 " transform="matrix(1.73245,0,0,-1.821188,310.873571,78.915508)"/>
<path style=" stroke:none;fill-rule:nonzero;fill:rgb(13.699341%,12.199402%,12.5%);fill-opacity:1;" d="M 252.785156 61.699219 C 252.644531 59.238281 250.707031 58.828125 249.007812 58.828125 C 246.546875 58.828125 245.769531 60.46875 245.769531 61.699219 C 245.769531 64.976562 250.828125 63.886719 250.828125 65.25 C 250.828125 65.660156 250.566406 66.210938 249.527344 66.210938 C 248.105469 66.210938 247.707031 65.660156 247.707031 64.976562 L 245.507812 64.976562 C 245.507812 67.300781 247.585938 67.984375 249.40625 67.984375 C 250.707031 67.984375 253.042969 67.4375 253.042969 64.976562 C 253.042969 61.699219 247.847656 62.792969 247.847656 61.425781 C 247.847656 61.015625 247.96875 60.605469 249.144531 60.605469 C 250.308594 60.605469 250.566406 61.152344 250.707031 61.699219 Z M 252.785156 61.699219 "/>
<path style=" stroke:none;fill-rule:nonzero;fill:rgb(13.699341%,12.199402%,12.5%);fill-opacity:1;" d="M 259.542969 65.113281 C 259.28125 65.796875 258.761719 66.074219 258.101562 66.074219 C 256.421875 66.074219 256.285156 64.566406 256.164062 64.023438 L 261.878906 64.023438 L 261.878906 63.613281 C 261.878906 59.648438 259.542969 58.828125 257.980469 58.828125 C 254.34375 58.828125 254.082031 62.109375 254.082031 63.203125 C 254.082031 66.753906 255.765625 67.984375 258.101562 67.984375 C 259.542969 67.984375 261.222656 67.300781 261.742188 65.113281 Z M 256.285156 62.519531 C 256.421875 61.425781 256.941406 60.742188 257.980469 60.742188 C 258.621094 60.742188 259.542969 61.152344 259.542969 62.519531 Z M 256.285156 62.519531 "/>
<path style=" stroke:none;fill-rule:nonzero;fill:rgb(13.699341%,12.199402%,12.5%);fill-opacity:1;" d="M 263.300781 67.710938 L 265.519531 67.710938 L 265.519531 63.203125 C 265.519531 62.246094 265.777344 61.152344 267.457031 61.152344 C 267.71875 61.152344 267.855469 61.152344 268.117188 61.152344 L 268.117188 58.828125 C 267.976562 58.828125 267.855469 58.828125 267.71875 58.828125 C 266.417969 58.828125 265.898438 59.648438 265.378906 60.605469 L 265.378906 59.101562 L 263.300781 59.101562 Z M 263.300781 67.710938 "/>
<path style=" stroke:none;fill-rule:nonzero;fill:rgb(13.699341%,12.199402%,12.5%);fill-opacity:1;" d="M 276.8125 59.101562 L 274.476562 59.101562 L 272.792969 65.386719 L 272.65625 65.386719 L 270.976562 59.101562 L 268.636719 59.101562 L 271.496094 67.710938 L 273.832031 67.710938 Z M 276.8125 59.101562 "/>
<path style=" stroke:none;fill-rule:nonzero;fill:rgb(13.699341%,12.199402%,12.5%);fill-opacity:1;" d="M 282.929688 65.113281 C 282.789062 65.796875 282.148438 66.074219 281.492188 66.074219 C 279.8125 66.074219 279.671875 64.566406 279.550781 64.023438 L 285.269531 64.023438 L 285.269531 63.613281 C 285.269531 59.648438 282.929688 58.828125 281.371094 58.828125 C 277.730469 58.828125 277.472656 62.109375 277.472656 63.203125 C 277.472656 66.753906 279.152344 67.984375 281.492188 67.984375 C 282.929688 67.984375 284.609375 67.300781 285.128906 65.113281 Z M 279.671875 62.519531 C 279.8125 61.425781 280.332031 60.742188 281.371094 60.742188 C 282.011719 60.742188 282.929688 61.152344 283.050781 62.519531 Z M 279.671875 62.519531 "/>
<path style=" stroke:none;fill-rule:nonzero;fill:rgb(13.699341%,12.199402%,12.5%);fill-opacity:1;" d="M 286.6875 67.710938 L 288.90625 67.710938 L 288.90625 63.203125 C 288.90625 62.246094 289.164062 61.152344 290.847656 61.152344 C 291.105469 61.152344 291.367188 61.152344 291.503906 61.152344 L 291.503906 58.828125 C 291.367188 58.828125 291.246094 58.828125 291.105469 58.828125 C 289.808594 58.828125 289.289062 59.648438 288.765625 60.605469 L 288.765625 59.101562 L 286.6875 59.101562 Z M 286.6875 67.710938 "/>
<g clip-path="url(#clip4)" clip-rule="nonzero">
<path style=" stroke:none;fill-rule:nonzero;fill:rgb(77.999878%,91.799927%,98.399353%);fill-opacity:1;" d="M 446.023438 78.914062 L 531.015625 78.914062 L 531.015625 44.890625 L 446.023438 44.890625 Z M 446.023438 78.914062 "/>
</g>
<g clip-path="url(#clip5)" clip-rule="nonzero">
<path style="fill:none;stroke-width:0.45;stroke-linecap:butt;stroke-linejoin:miter;stroke:rgb(13.699341%,12.199402%,12.5%);stroke-opacity:1;stroke-miterlimit:10;" d="M -0.000247461 0.000793884 L -49.059189 0.000793884 L -49.059189 18.682801 L -0.000247461 18.682801 Z M -0.000247461 0.000793884 " transform="matrix(1.73245,0,0,-1.821188,531.016054,78.915508)"/>
</g>
<path style=" stroke:none;fill-rule:nonzero;fill:rgb(13.699341%,12.199402%,12.5%);fill-opacity:1;" d="M 468.109375 56.640625 L 465.894531 56.640625 L 465.894531 59.101562 L 464.855469 59.101562 L 464.855469 60.605469 L 465.894531 60.605469 L 465.894531 65.9375 C 465.894531 67.027344 466.292969 67.847656 468.109375 67.847656 L 468.371094 67.847656 C 468.75 67.847656 469.148438 67.710938 469.410156 67.710938 L 469.410156 66.074219 C 469.273438 66.074219 469.148438 66.074219 469.011719 66.074219 C 468.109375 66.074219 468.109375 65.9375 468.109375 65.386719 L 468.109375 60.605469 L 469.410156 60.605469 L 469.410156 59.101562 L 468.109375 59.101562 Z M 468.109375 56.640625 "/>
<path style=" stroke:none;fill-rule:nonzero;fill:rgb(13.699341%,12.199402%,12.5%);fill-opacity:1;" d="M 478.246094 61.699219 C 478.246094 59.785156 477.085938 58.828125 475.386719 58.828125 C 474.226562 58.828125 473.308594 59.511719 473.046875 60.195312 L 473.046875 55.960938 L 470.832031 55.960938 L 470.832031 67.710938 L 473.046875 67.710938 L 473.046875 62.792969 C 473.046875 61.425781 473.828125 60.742188 474.746094 60.742188 C 476.046875 60.742188 476.167969 61.835938 476.167969 62.382812 L 476.167969 67.710938 L 478.246094 67.710938 Z M 478.246094 61.699219 "/>
<path style=" stroke:none;fill-rule:nonzero;fill:rgb(13.699341%,12.199402%,12.5%);fill-opacity:1;" d="M 480.324219 67.710938 L 482.542969 67.710938 L 482.542969 63.203125 C 482.542969 62.246094 482.800781 61.152344 484.484375 61.152344 C 484.742188 61.152344 485.003906 61.152344 485.140625 61.152344 L 485.140625 58.828125 C 485.003906 58.828125 484.882812 58.828125 484.742188 58.828125 C 483.441406 58.828125 482.921875 59.648438 482.542969 60.605469 L 482.402344 60.605469 L 482.402344 59.101562 L 480.324219 59.101562 Z M 480.324219 67.710938 "/>
<path style=" stroke:none;fill-rule:nonzero;fill:rgb(13.699341%,12.199402%,12.5%);fill-opacity:1;" d="M 491.238281 65.113281 C 491.117188 65.796875 490.460938 66.074219 489.941406 66.074219 C 488.121094 66.074219 488 64.566406 488 64.023438 L 493.578125 64.023438 L 493.578125 63.613281 C 493.578125 59.648438 491.378906 58.828125 489.679688 58.828125 C 486.179688 58.828125 485.78125 62.109375 485.78125 63.203125 C 485.78125 66.753906 487.601562 67.984375 489.941406 67.984375 C 491.238281 67.984375 492.9375 67.300781 493.578125 65.113281 Z M 488 62.519531 C 488.121094 61.425781 488.640625 60.742188 489.679688 60.742188 C 490.460938 60.742188 491.238281 61.152344 491.378906 62.519531 Z M 488 62.519531 "/>
<path style=" stroke:none;fill-rule:nonzero;fill:rgb(13.699341%,12.199402%,12.5%);fill-opacity:1;" d="M 501.773438 61.289062 C 501.773438 59.238281 499.691406 58.828125 498.515625 58.828125 C 496.835938 58.828125 495.015625 59.238281 494.878906 61.835938 L 496.957031 61.835938 C 496.957031 61.289062 497.214844 60.605469 498.253906 60.605469 C 498.773438 60.605469 499.691406 60.742188 499.691406 61.699219 C 499.691406 62.109375 499.292969 62.246094 498.914062 62.382812 L 496.957031 62.65625 C 495.535156 62.792969 494.617188 63.75 494.617188 65.386719 C 494.617188 67.164062 495.796875 67.984375 497.09375 67.984375 C 498.515625 67.984375 499.292969 67.164062 499.691406 66.617188 C 499.816406 67.164062 499.816406 67.300781 499.953125 67.710938 L 502.292969 67.710938 L 502.292969 67.300781 C 502.03125 67.300781 501.773438 67.027344 501.773438 65.9375 Z M 499.691406 64.566406 C 499.691406 65.660156 498.652344 66.34375 497.734375 66.34375 C 497.355469 66.34375 496.695312 66.074219 496.695312 65.25 C 496.695312 64.296875 497.355469 64.160156 498.253906 63.886719 C 499.035156 63.75 499.433594 63.613281 499.691406 63.476562 Z M 499.691406 64.566406 "/>
<path style=" stroke:none;fill-rule:nonzero;fill:rgb(13.699341%,12.199402%,12.5%);fill-opacity:1;" d="M 511.25 55.960938 L 509.167969 55.960938 L 509.167969 60.195312 C 508.789062 59.648438 508.128906 58.828125 506.710938 58.828125 C 504.890625 58.828125 503.332031 60.332031 503.332031 63.203125 C 503.332031 65.660156 504.371094 67.984375 506.832031 67.984375 C 507.609375 67.984375 508.648438 67.574219 509.167969 66.617188 L 509.167969 67.710938 L 511.25 67.710938 Z M 505.53125 63.476562 C 505.53125 62.109375 506.050781 60.742188 507.351562 60.742188 C 508.910156 60.742188 509.167969 62.246094 509.167969 63.613281 C 509.167969 64.839844 508.648438 66.074219 507.351562 66.074219 C 505.929688 66.074219 505.53125 64.429688 505.53125 63.476562 Z M 505.53125 63.476562 "/>
<path style="fill:none;stroke-width:0.975;stroke-linecap:butt;stroke-linejoin:miter;stroke:rgb(13.699341%,12.199402%,12.5%);stroke-opacity:1;stroke-miterlimit:10;" d="M 0.000584835 0.0001893 L -75.382612 0.0001893 " transform="matrix(1.73245,0,0,-1.821188,221.323206,61.973001)"/>
<path style=" stroke:none;fill-rule:nonzero;fill:rgb(13.699341%,12.199402%,12.5%);fill-opacity:1;" d="M 217.945312 65.386719 L 219.382812 61.972656 L 217.945312 58.417969 L 225.878906 61.972656 Z M 217.945312 65.386719 "/>
<path style="fill:none;stroke-width:0.975;stroke-linecap:butt;stroke-linejoin:miter;stroke:rgb(13.699341%,12.199402%,12.5%);stroke-opacity:1;stroke-miterlimit:10;" d="M -0.00090083 0.00023031 C -0.00090083 0.00023031 -0.00090083 -19.732774 -0.00090083 -25.210827 C -0.00090083 -33.462226 20.479032 -33.537297 18.231042 -19.882916 C 14.400214 2.702794 14.400214 2.702794 14.400214 2.702794 " transform="matrix(1.73245,0,0,-1.821188,268.376561,83.836357)"/>
<path style=" stroke:none;fill-rule:nonzero;fill:rgb(13.699341%,12.199402%,12.5%);fill-opacity:1;" d="M 271.753906 87.25 L 268.375 85.75 L 265 87.25 L 268.375 78.914062 Z M 271.753906 87.25 "/>
<path style="fill:none;stroke-width:0.975;stroke-linecap:butt;stroke-linejoin:miter;stroke:rgb(13.699341%,12.199402%,12.5%);stroke-opacity:1;stroke-miterlimit:10;" d="M -0.000384869 0.0001893 L -75.309175 0.0001893 " transform="matrix(1.73245,0,0,-1.821188,441.344417,61.973001)"/>
<path style=" stroke:none;fill-rule:nonzero;fill:rgb(13.699341%,12.199402%,12.5%);fill-opacity:1;" d="M 438.085938 65.386719 L 439.523438 61.972656 L 438.085938 58.417969 L 446.023438 61.972656 Z M 438.085938 65.386719 "/>
</g>
</svg>
