<?xml version="1.0" encoding="UTF-8" standalone="no"?>
<!DOCTYPE svg PUBLIC "-//W3C//DTD SVG 1.1//EN"
 "http://www.w3.org/Graphics/SVG/1.1/DTD/svg11.dtd">
<!-- Generated by graphviz version 3.0.0 (20220226.1711)
 -->
<!-- Title: G Pages: 1 -->
<svg width="282pt" height="243pt"
 viewBox="0.00 0.00 282.00 243.00" xmlns="http://www.w3.org/2000/svg" xmlns:xlink="http://www.w3.org/1999/xlink">
<g id="graph0" class="graph" transform="scale(1 1) rotate(0) translate(4 239)">
<title>G</title>
<polygon fill="white" stroke="transparent" points="-4,4 -4,-239 278,-239 278,4 -4,4"/>
<g id="clust4" class="cluster">
<title>cluster_0</title>
<polygon fill="none" stroke="black" points="8,-8 8,-227 126,-227 126,-8 8,-8"/>
<text text-anchor="middle" x="67" y="-211.8" font-family="Times New Roman,serif" font-size="14.00">Process A</text>
</g>
<g id="clust5" class="cluster">
<title>cluster_1</title>
<polygon fill="none" stroke="black" points="134,-8 134,-227 266,-227 266,-8 134,-8"/>
<text text-anchor="middle" x="200" y="-211.8" font-family="Times New Roman,serif" font-size="14.00">Process B</text>
</g>
<!-- X → RA -->
<g id="node1" class="node">
<title>X → RA</title>
<ellipse fill="none" stroke="black" cx="70" cy="-178" rx="43.59" ry="18"/>
<text text-anchor="middle" x="70" y="-174.3" font-family="Times New Roman,serif" font-size="14.00">X → RA</text>
</g>
<!-- X → RB -->
<g id="node2" class="node">
<title>X → RB</title>
<ellipse fill="none" stroke="black" cx="186" cy="-178" rx="43.59" ry="18"/>
<text text-anchor="middle" x="186" y="-174.3" font-family="Times New Roman,serif" font-size="14.00">X → RB</text>
</g>
<!-- X → RA&#45;&gt;X → RB -->
<g id="edge5" class="edge">
<title>X → RA&#45;&gt;X → RB</title>
<path fill="none" stroke="black" d="M113.95,-178C120.02,-178 126.09,-178 132.16,-178"/>
<polygon fill="black" stroke="black" points="132.38,-181.5 142.38,-178 132.38,-174.5 132.38,-181.5"/>
</g>
<!-- RA add 10 -->
<g id="node3" class="node">
<title>RA add 10</title>
<ellipse fill="none" stroke="black" cx="67" cy="-106" rx="50.89" ry="18"/>
<text text-anchor="middle" x="67" y="-102.3" font-family="Times New Roman,serif" font-size="14.00">RA add 10</text>
</g>
<!-- X → RA&#45;&gt;RA add 10 -->
<!-- X → RB&#45;&gt;RA add 10 -->
<g id="edge6" class="edge">
<title>X → RB&#45;&gt;RA add 10</title>
<path fill="none" stroke="black" d="M161.92,-162.83C144.45,-152.56 120.57,-138.51 101.13,-127.08"/>
<polygon fill="black" stroke="black" points="102.67,-123.92 92.28,-121.87 99.12,-129.96 102.67,-123.92"/>
</g>
<!-- RB minus 10 -->
<g id="node4" class="node">
<title>RB minus 10</title>
<ellipse fill="none" stroke="black" cx="200" cy="-106" rx="57.69" ry="18"/>
<text text-anchor="middle" x="200" y="-102.3" font-family="Times New Roman,serif" font-size="14.00">RB minus 10</text>
</g>
<!-- X → RB&#45;&gt;RB minus 10 -->
<!-- RA add 10&#45;&gt;RB minus 10 -->
<g id="edge7" class="edge">
<title>RA add 10&#45;&gt;RB minus 10</title>
<path fill="none" stroke="black" d="M117.91,-106C122.55,-106 127.18,-106 131.82,-106"/>
<polygon fill="black" stroke="black" points="131.96,-109.5 141.96,-106 131.96,-102.5 131.96,-109.5"/>
</g>
<!-- RA → X -->
<g id="node5" class="node">
<title>RA → X</title>
<ellipse fill="none" stroke="black" cx="70" cy="-34" rx="43.59" ry="18"/>
<text text-anchor="middle" x="70" y="-30.3" font-family="Times New Roman,serif" font-size="14.00">RA → X</text>
</g>
<!-- RA add 10&#45;&gt;RA → X -->
<!-- RB minus 10&#45;&gt;RA → X -->
<g id="edge8" class="edge">
<title>RB minus 10&#45;&gt;RA → X</title>
<path fill="none" stroke="black" stroke-dasharray="5,2" d="M172.43,-90.15C152.69,-79.53 125.97,-65.14 104.77,-53.72"/>
<polygon fill="black" stroke="black" points="106.23,-50.53 95.76,-48.87 102.91,-56.69 106.23,-50.53"/>
</g>
<!-- RB → X -->
<g id="node6" class="node">
<title>RB → X</title>
<ellipse fill="none" stroke="black" cx="200" cy="-34" rx="43.59" ry="18"/>
<text text-anchor="middle" x="200" y="-30.3" font-family="Times New Roman,serif" font-size="14.00">RB → X</text>
</g>
<!-- RB minus 10&#45;&gt;RB → X -->
<g id="edge4" class="edge">
<title>RB minus 10&#45;&gt;RB → X</title>
<path fill="none" stroke="black" stroke-dasharray="5,2" d="M200,-87.7C200,-79.98 200,-70.71 200,-62.11"/>
<polygon fill="black" stroke="black" points="203.5,-62.1 200,-52.1 196.5,-62.1 203.5,-62.1"/>
</g>
</g>
</svg>
