<?xml version="1.0" encoding="UTF-8" standalone="no"?>
<!DOCTYPE svg PUBLIC "-//W3C//DTD SVG 1.1//EN"
 "http://www.w3.org/Graphics/SVG/1.1/DTD/svg11.dtd">
<!-- Generated by graphviz version 3.0.0 (20220226.1711)
 -->
<!-- Title: G Pages: 1 -->
<svg width="149pt" height="169pt"
 viewBox="0.00 0.00 148.54 168.68" xmlns="http://www.w3.org/2000/svg" xmlns:xlink="http://www.w3.org/1999/xlink">
<g id="graph0" class="graph" transform="scale(1 1) rotate(0) translate(4 164.68)">
<title>G</title>
<polygon fill="white" stroke="transparent" points="-4,4 -4,-164.68 144.54,-164.68 144.54,4 -4,4"/>
<!-- Running -->
<g id="node1" class="node">
<title>Running</title>
<polygon fill="none" stroke="black" points="85.81,-92.77 22.81,-92.77 22.81,-56.77 85.81,-56.77 85.81,-92.77"/>
<text text-anchor="middle" x="54.31" y="-71.07" font-family="Times New Roman,serif" font-size="14.00">Running</text>
</g>
<!-- Waiting -->
<g id="node2" class="node">
<title>Waiting</title>
<polygon fill="none" stroke="black" points="59,-160.68 0,-160.68 0,-124.68 59,-124.68 59,-160.68"/>
<text text-anchor="middle" x="29.5" y="-138.98" font-family="Times New Roman,serif" font-size="14.00">Waiting</text>
</g>
<!-- Running&#45;&gt;Waiting -->
<g id="edge1" class="edge">
<title>Running&#45;&gt;Waiting</title>
<path fill="none" stroke="black" d="M41,-93C37.98,-99.69 35.04,-107.42 32.71,-114.76"/>
<polygon fill="black" stroke="black" points="29.33,-113.82 29.94,-124.4 36.06,-115.75 29.33,-113.82"/>
<text text-anchor="middle" x="33.35" y="-107.68" font-family="Times New Roman,serif" font-size="14.00">1</text>
</g>
<!-- Termination -->
<g id="node3" class="node">
<title>Termination</title>
<polygon fill="none" stroke="black" points="140.54,-36 57.54,-36 57.54,0 140.54,0 140.54,-36"/>
<text text-anchor="middle" x="99.04" y="-14.3" font-family="Times New Roman,serif" font-size="14.00">Termination</text>
</g>
<!-- Running&#45;&gt;Termination -->
<g id="edge3" class="edge">
<title>Running&#45;&gt;Termination</title>
<path fill="none" stroke="black" d="M68.71,-56.5C71.82,-52.55 75.17,-48.29 78.47,-44.11"/>
<polygon fill="black" stroke="black" points="81.23,-46.26 84.67,-36.24 75.73,-41.93 81.23,-46.26"/>
<text text-anchor="middle" x="70.09" y="-39.1" font-family="Times New Roman,serif" font-size="14.00">3</text>
</g>
<!-- Waiting&#45;&gt;Running -->
<g id="edge2" class="edge">
<title>Waiting&#45;&gt;Running</title>
<path fill="none" stroke="black" d="M42.81,-124.45C45.83,-117.75 48.77,-110.03 51.1,-102.68"/>
<polygon fill="black" stroke="black" points="54.47,-103.62 53.87,-93.05 47.75,-101.69 54.47,-103.62"/>
<text text-anchor="middle" x="43.46" y="-102.37" font-family="Times New Roman,serif" font-size="14.00">2</text>
</g>
</g>
</svg>
