<?xml version="1.0" encoding="UTF-8" standalone="no"?>
<!DOCTYPE svg PUBLIC "-//W3C//DTD SVG 1.1//EN"
 "http://www.w3.org/Graphics/SVG/1.1/DTD/svg11.dtd">
<!-- Generated by graphviz version 3.0.0 (20220226.1711)
 -->
<!-- Title: G Pages: 1 -->
<svg width="314pt" height="243pt"
 viewBox="0.00 0.00 314.00 243.00" xmlns="http://www.w3.org/2000/svg" xmlns:xlink="http://www.w3.org/1999/xlink">
<g id="graph0" class="graph" transform="scale(1 1) rotate(0) translate(4 239)">
<title>G</title>
<polygon fill="white" stroke="transparent" points="-4,4 -4,-239 310,-239 310,4 -4,4"/>
<g id="clust3" class="cluster">
<title>cluster_1</title>
<polygon fill="none" stroke="black" points="166,-8 166,-227 298,-227 298,-8 166,-8"/>
<text text-anchor="middle" x="232" y="-211.8" font-family="Times New Roman,serif" font-size="14.00">Process B</text>
</g>
<g id="clust2" class="cluster">
<title>cluster_0</title>
<polygon fill="none" stroke="black" points="8,-8 8,-227 126,-227 126,-8 8,-8"/>
<text text-anchor="middle" x="67" y="-211.8" font-family="Times New Roman,serif" font-size="14.00">Process A</text>
</g>
<!-- X → RA -->
<g id="node1" class="node">
<title>X → RA</title>
<ellipse fill="none" stroke="black" cx="67" cy="-178" rx="43.59" ry="18"/>
<text text-anchor="middle" x="67" y="-174.3" font-family="Times New Roman,serif" font-size="14.00">X → RA</text>
</g>
<!-- RA add 10 -->
<g id="node3" class="node">
<title>RA add 10</title>
<ellipse fill="none" stroke="black" cx="67" cy="-106" rx="50.89" ry="18"/>
<text text-anchor="middle" x="67" y="-102.3" font-family="Times New Roman,serif" font-size="14.00">RA add 10</text>
</g>
<!-- X → RA&#45;&gt;RA add 10 -->
<g id="edge1" class="edge">
<title>X → RA&#45;&gt;RA add 10</title>
<path fill="none" stroke="black" d="M67,-159.7C67,-151.98 67,-142.71 67,-134.11"/>
<polygon fill="black" stroke="black" points="70.5,-134.1 67,-124.1 63.5,-134.1 70.5,-134.1"/>
</g>
<!-- X → RB -->
<g id="node2" class="node">
<title>X → RB</title>
<ellipse fill="none" stroke="black" cx="225" cy="-178" rx="43.59" ry="18"/>
<text text-anchor="middle" x="225" y="-174.3" font-family="Times New Roman,serif" font-size="14.00">X → RB</text>
</g>
<!-- RB minus 10 -->
<g id="node5" class="node">
<title>RB minus 10</title>
<ellipse fill="none" stroke="black" cx="232" cy="-106" rx="57.69" ry="18"/>
<text text-anchor="middle" x="232" y="-102.3" font-family="Times New Roman,serif" font-size="14.00">RB minus 10</text>
</g>
<!-- X → RB&#45;&gt;RB minus 10 -->
<g id="edge3" class="edge">
<title>X → RB&#45;&gt;RB minus 10</title>
<path fill="none" stroke="black" d="M226.73,-159.7C227.5,-151.98 228.43,-142.71 229.29,-134.11"/>
<polygon fill="black" stroke="black" points="232.78,-134.4 230.29,-124.1 225.81,-133.71 232.78,-134.4"/>
</g>
<!-- RA → X -->
<g id="node4" class="node">
<title>RA → X</title>
<ellipse fill="none" stroke="black" cx="70" cy="-34" rx="43.59" ry="18"/>
<text text-anchor="middle" x="70" y="-30.3" font-family="Times New Roman,serif" font-size="14.00">RA → X</text>
</g>
<!-- RA add 10&#45;&gt;RA → X -->
<g id="edge2" class="edge">
<title>RA add 10&#45;&gt;RA → X</title>
<path fill="none" stroke="black" d="M67.74,-87.7C68.07,-79.98 68.47,-70.71 68.84,-62.11"/>
<polygon fill="black" stroke="black" points="72.34,-62.25 69.27,-52.1 65.34,-61.95 72.34,-62.25"/>
</g>
<!-- RA → X&#45;&gt;X → RB -->
<g id="edge5" class="edge">
<title>RA → X&#45;&gt;X → RB</title>
<path fill="none" stroke="black" d="M87,-50.73C98.35,-61.25 113.6,-75.42 127,-88 143.96,-103.92 147.83,-108.3 165,-124 176.11,-134.17 188.57,-145.22 199.24,-154.6"/>
<polygon fill="black" stroke="black" points="197.17,-157.44 207,-161.39 201.78,-152.17 197.17,-157.44"/>
</g>
<!-- RB → X -->
<g id="node6" class="node">
<title>RB → X</title>
<ellipse fill="none" stroke="black" cx="232" cy="-34" rx="43.59" ry="18"/>
<text text-anchor="middle" x="232" y="-30.3" font-family="Times New Roman,serif" font-size="14.00">RB → X</text>
</g>
<!-- RB minus 10&#45;&gt;RB → X -->
<g id="edge4" class="edge">
<title>RB minus 10&#45;&gt;RB → X</title>
<path fill="none" stroke="black" d="M232,-87.7C232,-79.98 232,-70.71 232,-62.11"/>
<polygon fill="black" stroke="black" points="235.5,-62.1 232,-52.1 228.5,-62.1 235.5,-62.1"/>
</g>
</g>
</svg>
